G04*
G04 #@! TF.GenerationSoftware,Altium Limited,Altium Designer,20.2.6 (244)*
G04*
G04 Layer_Color=32896*
%FSLAX25Y25*%
%MOIN*%
G70*
G04*
G04 #@! TF.SameCoordinates,4B6D7369-DF3E-469B-AAE3-111B236FADA7*
G04*
G04*
G04 #@! TF.FilePolarity,Positive*
G04*
G01*
G75*
%ADD15C,0.00500*%
%ADD17C,0.02756*%
%ADD18C,0.01181*%
%ADD19C,0.00700*%
%ADD20C,0.01000*%
%ADD375C,0.03937*%
G36*
X489531Y192428D02*
X488757Y192428D01*
X488757Y193312D01*
X489531Y193312D01*
X489531Y192428D01*
X489531Y192428D02*
G37*
G36*
X493002Y191672D02*
X493102Y191663D01*
X493221Y191645D01*
X493348Y191618D01*
X493485Y191581D01*
X493613Y191526D01*
X493631Y191517D01*
X493667Y191499D01*
X493731Y191472D01*
X493804Y191426D01*
X493895Y191372D01*
X493977Y191299D01*
X494059Y191226D01*
X494132Y191135D01*
X494141Y191126D01*
X494159Y191089D01*
X494186Y191044D01*
X494232Y190980D01*
X494269Y190889D01*
X494305Y190798D01*
X494350Y190688D01*
X494378Y190570D01*
X494378Y190561D01*
X494387Y190524D01*
X494396Y190470D01*
X494405Y190397D01*
X494405Y190287D01*
X494414Y190160D01*
X494423Y190005D01*
X494423Y189814D01*
X494423Y187008D01*
X493649Y187008D01*
X493649Y189777D01*
X493649Y189786D01*
X493649Y189795D01*
X493649Y189859D01*
X493649Y189941D01*
X493640Y190041D01*
X493631Y190160D01*
X493613Y190278D01*
X493585Y190388D01*
X493558Y190488D01*
X493558Y190497D01*
X493540Y190524D01*
X493512Y190570D01*
X493485Y190624D01*
X493439Y190679D01*
X493385Y190743D01*
X493312Y190807D01*
X493230Y190861D01*
X493221Y190870D01*
X493193Y190889D01*
X493139Y190907D01*
X493075Y190934D01*
X493002Y190962D01*
X492911Y190989D01*
X492802Y190998D01*
X492693Y191007D01*
X492647Y191007D01*
X492611Y190998D01*
X492519Y190989D01*
X492401Y190971D01*
X492273Y190925D01*
X492128Y190870D01*
X491982Y190798D01*
X491845Y190688D01*
X491827Y190670D01*
X491791Y190624D01*
X491763Y190588D01*
X491736Y190543D01*
X491700Y190488D01*
X491672Y190424D01*
X491636Y190351D01*
X491599Y190260D01*
X491572Y190160D01*
X491545Y190051D01*
X491526Y189932D01*
X491508Y189805D01*
X491490Y189650D01*
X491490Y189495D01*
X491490Y187008D01*
X490716Y187008D01*
X490716Y191581D01*
X491408Y191581D01*
X491408Y190925D01*
X491417Y190934D01*
X491435Y190962D01*
X491463Y190998D01*
X491499Y191044D01*
X491554Y191098D01*
X491617Y191162D01*
X491690Y191235D01*
X491782Y191308D01*
X491873Y191372D01*
X491982Y191444D01*
X492100Y191508D01*
X492228Y191563D01*
X492374Y191608D01*
X492519Y191645D01*
X492683Y191672D01*
X492857Y191681D01*
X492929Y191681D01*
X493002Y191672D01*
X493002Y191672D02*
G37*
G36*
X483136Y187008D02*
X482444Y187008D01*
X482444Y187673D01*
X482435Y187664D01*
X482416Y187636D01*
X482389Y187600D01*
X482343Y187555D01*
X482289Y187500D01*
X482225Y187427D01*
X482152Y187363D01*
X482061Y187290D01*
X481961Y187217D01*
X481852Y187154D01*
X481733Y187090D01*
X481606Y187026D01*
X481460Y186980D01*
X481314Y186944D01*
X481150Y186917D01*
X480986Y186908D01*
X480922Y186908D01*
X480840Y186917D01*
X480740Y186926D01*
X480622Y186944D01*
X480494Y186971D01*
X480367Y187008D01*
X480230Y187063D01*
X480212Y187072D01*
X480175Y187090D01*
X480112Y187126D01*
X480039Y187172D01*
X479948Y187226D01*
X479866Y187290D01*
X479784Y187363D01*
X479711Y187445D01*
X479702Y187454D01*
X479683Y187491D01*
X479656Y187536D01*
X479620Y187609D01*
X479574Y187691D01*
X479538Y187791D01*
X479501Y187901D01*
X479474Y188019D01*
X479474Y188028D01*
X479465Y188065D01*
X479456Y188119D01*
X479456Y188192D01*
X479447Y188302D01*
X479437Y188420D01*
X479428Y188575D01*
X479428Y188748D01*
X479428Y191581D01*
X480203Y191581D01*
X480203Y189039D01*
X480203Y189030D01*
X480203Y189012D01*
X480203Y188985D01*
X480203Y188939D01*
X480203Y188839D01*
X480212Y188711D01*
X480212Y188575D01*
X480221Y188438D01*
X480230Y188320D01*
X480248Y188219D01*
X480248Y188210D01*
X480266Y188174D01*
X480285Y188119D01*
X480312Y188046D01*
X480358Y187973D01*
X480412Y187891D01*
X480476Y187819D01*
X480558Y187746D01*
X480567Y187737D01*
X480604Y187718D01*
X480649Y187691D01*
X480722Y187664D01*
X480804Y187627D01*
X480904Y187600D01*
X481013Y187582D01*
X481141Y187573D01*
X481205Y187573D01*
X481269Y187582D01*
X481351Y187591D01*
X481451Y187618D01*
X481560Y187646D01*
X481678Y187691D01*
X481797Y187746D01*
X481815Y187755D01*
X481852Y187782D01*
X481906Y187819D01*
X481970Y187873D01*
X482043Y187946D01*
X482116Y188028D01*
X482179Y188119D01*
X482234Y188229D01*
X482243Y188247D01*
X482252Y188283D01*
X482271Y188356D01*
X482298Y188456D01*
X482325Y188584D01*
X482343Y188739D01*
X482353Y188921D01*
X482362Y189130D01*
X482362Y191581D01*
X483136Y191581D01*
X483136Y187008D01*
X483136Y187008D02*
G37*
G36*
X489531Y187008D02*
X488757Y187008D01*
X488757Y191581D01*
X489531Y191581D01*
X489531Y187008D01*
X489531Y187008D02*
G37*
G36*
X487554Y187008D02*
X486780Y187008D01*
X486780Y193312D01*
X487554Y193312D01*
X487554Y187008D01*
X487554Y187008D02*
G37*
G36*
X485250Y191581D02*
X486033Y191581D01*
X486033Y190980D01*
X485250Y190980D01*
X485250Y188292D01*
X485250Y188274D01*
X485250Y188238D01*
X485250Y188183D01*
X485259Y188119D01*
X485268Y187973D01*
X485277Y187910D01*
X485286Y187864D01*
X485295Y187846D01*
X485323Y187810D01*
X485359Y187764D01*
X485423Y187718D01*
X485441Y187709D01*
X485487Y187691D01*
X485569Y187673D01*
X485687Y187664D01*
X485778Y187664D01*
X485823Y187673D01*
X485887Y187673D01*
X485960Y187682D01*
X486033Y187691D01*
X486133Y187008D01*
X486115Y187008D01*
X486079Y186999D01*
X486015Y186990D01*
X485933Y186980D01*
X485842Y186962D01*
X485742Y186953D01*
X485541Y186944D01*
X485468Y186944D01*
X485395Y186953D01*
X485304Y186962D01*
X485195Y186971D01*
X485086Y186999D01*
X484985Y187026D01*
X484885Y187072D01*
X484876Y187081D01*
X484849Y187099D01*
X484812Y187126D01*
X484758Y187172D01*
X484712Y187217D01*
X484657Y187281D01*
X484603Y187345D01*
X484566Y187427D01*
X484566Y187436D01*
X484548Y187472D01*
X484539Y187536D01*
X484521Y187627D01*
X484503Y187746D01*
X484493Y187819D01*
X484493Y187901D01*
X484484Y188001D01*
X484475Y188101D01*
X484475Y188210D01*
X484475Y188338D01*
X484475Y190980D01*
X483901Y190980D01*
X483901Y191581D01*
X484475Y191581D01*
X484475Y192711D01*
X485250Y193175D01*
X485250Y191581D01*
X485250Y191581D02*
G37*
G36*
X497639Y191672D02*
X497712Y191663D01*
X497803Y191645D01*
X497903Y191627D01*
X498022Y191599D01*
X498131Y191572D01*
X498259Y191526D01*
X498377Y191481D01*
X498505Y191417D01*
X498632Y191344D01*
X498760Y191262D01*
X498878Y191162D01*
X498987Y191053D01*
X498997Y191044D01*
X499015Y191025D01*
X499042Y190989D01*
X499079Y190934D01*
X499124Y190870D01*
X499170Y190798D01*
X499224Y190707D01*
X499279Y190597D01*
X499334Y190479D01*
X499388Y190351D01*
X499434Y190206D01*
X499479Y190051D01*
X499516Y189877D01*
X499543Y189695D01*
X499561Y189504D01*
X499571Y189295D01*
X499571Y189285D01*
X499571Y189249D01*
X499571Y189185D01*
X499561Y189094D01*
X496145Y189094D01*
X496145Y189085D01*
X496145Y189058D01*
X496154Y189021D01*
X496154Y188967D01*
X496163Y188903D01*
X496182Y188830D01*
X496209Y188666D01*
X496264Y188484D01*
X496337Y188283D01*
X496437Y188101D01*
X496564Y187937D01*
X496573Y187937D01*
X496582Y187919D01*
X496637Y187873D01*
X496719Y187810D01*
X496828Y187746D01*
X496974Y187673D01*
X497138Y187609D01*
X497320Y187564D01*
X497421Y187555D01*
X497530Y187545D01*
X497603Y187545D01*
X497685Y187555D01*
X497785Y187573D01*
X497894Y187600D01*
X498022Y187636D01*
X498140Y187691D01*
X498259Y187764D01*
X498268Y187773D01*
X498313Y187810D01*
X498368Y187864D01*
X498432Y187937D01*
X498505Y188037D01*
X498587Y188165D01*
X498669Y188311D01*
X498741Y188484D01*
X499543Y188383D01*
X499543Y188374D01*
X499534Y188356D01*
X499525Y188320D01*
X499507Y188265D01*
X499479Y188210D01*
X499452Y188137D01*
X499379Y187983D01*
X499288Y187810D01*
X499161Y187627D01*
X499015Y187454D01*
X498833Y187290D01*
X498823Y187290D01*
X498805Y187272D01*
X498778Y187254D01*
X498741Y187226D01*
X498687Y187199D01*
X498632Y187172D01*
X498559Y187135D01*
X498477Y187099D01*
X498386Y187063D01*
X498295Y187026D01*
X498067Y186971D01*
X497812Y186926D01*
X497530Y186908D01*
X497430Y186908D01*
X497366Y186917D01*
X497284Y186926D01*
X497184Y186944D01*
X497074Y186962D01*
X496956Y186980D01*
X496701Y187053D01*
X496564Y187108D01*
X496437Y187163D01*
X496300Y187236D01*
X496173Y187318D01*
X496054Y187409D01*
X495936Y187518D01*
X495927Y187527D01*
X495908Y187545D01*
X495881Y187582D01*
X495845Y187636D01*
X495799Y187700D01*
X495753Y187773D01*
X495699Y187864D01*
X495644Y187964D01*
X495589Y188083D01*
X495535Y188210D01*
X495489Y188356D01*
X495444Y188511D01*
X495407Y188675D01*
X495380Y188857D01*
X495362Y189049D01*
X495353Y189249D01*
X495353Y189258D01*
X495353Y189304D01*
X495353Y189358D01*
X495362Y189440D01*
X495371Y189541D01*
X495380Y189650D01*
X495398Y189777D01*
X495426Y189905D01*
X495498Y190196D01*
X495544Y190342D01*
X495599Y190497D01*
X495672Y190643D01*
X495753Y190779D01*
X495845Y190916D01*
X495945Y191044D01*
X495954Y191053D01*
X495972Y191071D01*
X496008Y191098D01*
X496054Y191144D01*
X496109Y191189D01*
X496182Y191244D01*
X496264Y191308D01*
X496364Y191362D01*
X496464Y191426D01*
X496582Y191481D01*
X496710Y191535D01*
X496847Y191581D01*
X496992Y191627D01*
X497147Y191654D01*
X497311Y191672D01*
X497484Y191681D01*
X497575Y191681D01*
X497639Y191672D01*
X497639Y191672D02*
G37*
G36*
X475602Y193412D02*
X475684Y193412D01*
X475766Y193403D01*
X475875Y193385D01*
X475985Y193367D01*
X476222Y193321D01*
X476495Y193248D01*
X476759Y193139D01*
X476896Y193075D01*
X477032Y193002D01*
X477041Y192993D01*
X477060Y192984D01*
X477096Y192957D01*
X477151Y192929D01*
X477206Y192884D01*
X477278Y192829D01*
X477433Y192702D01*
X477597Y192538D01*
X477779Y192337D01*
X477952Y192100D01*
X478098Y191836D01*
X478098Y191827D01*
X478117Y191800D01*
X478135Y191763D01*
X478153Y191709D01*
X478189Y191636D01*
X478217Y191554D01*
X478253Y191454D01*
X478290Y191344D01*
X478317Y191226D01*
X478353Y191098D01*
X478390Y190953D01*
X478417Y190807D01*
X478453Y190488D01*
X478472Y190142D01*
X478472Y190133D01*
X478472Y190096D01*
X478472Y190051D01*
X478463Y189978D01*
X478463Y189896D01*
X478453Y189795D01*
X478435Y189686D01*
X478426Y189568D01*
X478381Y189304D01*
X478308Y189012D01*
X478208Y188721D01*
X478153Y188575D01*
X478080Y188429D01*
X478080Y188420D01*
X478062Y188393D01*
X478044Y188356D01*
X478007Y188302D01*
X477971Y188238D01*
X477925Y188174D01*
X477798Y188001D01*
X477643Y187819D01*
X477461Y187627D01*
X477242Y187445D01*
X476987Y187281D01*
X476978Y187281D01*
X476960Y187263D01*
X476914Y187245D01*
X476859Y187217D01*
X476795Y187190D01*
X476723Y187163D01*
X476631Y187126D01*
X476531Y187090D01*
X476422Y187053D01*
X476304Y187017D01*
X476039Y186962D01*
X475757Y186917D01*
X475456Y186899D01*
X475365Y186899D01*
X475311Y186908D01*
X475229Y186908D01*
X475138Y186926D01*
X475037Y186935D01*
X474919Y186953D01*
X474673Y187008D01*
X474409Y187081D01*
X474135Y187190D01*
X473999Y187254D01*
X473862Y187327D01*
X473853Y187336D01*
X473835Y187345D01*
X473798Y187372D01*
X473744Y187409D01*
X473689Y187445D01*
X473625Y187500D01*
X473470Y187636D01*
X473297Y187800D01*
X473115Y188001D01*
X472951Y188229D01*
X472796Y188493D01*
X472796Y188502D01*
X472778Y188529D01*
X472760Y188566D01*
X472742Y188620D01*
X472714Y188693D01*
X472687Y188775D01*
X472650Y188866D01*
X472623Y188967D01*
X472587Y189085D01*
X472550Y189203D01*
X472496Y189477D01*
X472459Y189759D01*
X472441Y190069D01*
X472441Y190078D01*
X472441Y190087D01*
X472441Y190142D01*
X472450Y190224D01*
X472450Y190333D01*
X472468Y190461D01*
X472486Y190615D01*
X472514Y190788D01*
X472550Y190971D01*
X472587Y191162D01*
X472641Y191362D01*
X472714Y191563D01*
X472796Y191772D01*
X472887Y191973D01*
X473006Y192173D01*
X473133Y192355D01*
X473279Y192528D01*
X473288Y192538D01*
X473315Y192565D01*
X473370Y192611D01*
X473434Y192665D01*
X473516Y192738D01*
X473616Y192811D01*
X473735Y192893D01*
X473871Y192975D01*
X474017Y193057D01*
X474181Y193139D01*
X474363Y193212D01*
X474554Y193285D01*
X474764Y193339D01*
X474983Y193385D01*
X475210Y193412D01*
X475456Y193421D01*
X475538Y193421D01*
X475602Y193412D01*
X475602Y193412D02*
G37*
G36*
X495353Y154042D02*
X495416Y154042D01*
X495589Y154024D01*
X495781Y153997D01*
X495981Y153951D01*
X496200Y153896D01*
X496400Y153823D01*
X496409Y153823D01*
X496428Y153814D01*
X496455Y153796D01*
X496491Y153778D01*
X496582Y153732D01*
X496701Y153650D01*
X496838Y153559D01*
X496974Y153441D01*
X497102Y153304D01*
X497220Y153149D01*
X497220Y153140D01*
X497229Y153131D01*
X497248Y153104D01*
X497266Y153077D01*
X497311Y152985D01*
X497366Y152867D01*
X497430Y152721D01*
X497475Y152548D01*
X497521Y152366D01*
X497539Y152165D01*
X496737Y152102D01*
X496737Y152111D01*
X496737Y152129D01*
X496728Y152156D01*
X496719Y152202D01*
X496692Y152302D01*
X496655Y152439D01*
X496601Y152585D01*
X496519Y152730D01*
X496419Y152867D01*
X496291Y152995D01*
X496273Y153004D01*
X496227Y153040D01*
X496136Y153095D01*
X496018Y153149D01*
X495863Y153204D01*
X495681Y153259D01*
X495453Y153295D01*
X495198Y153304D01*
X495070Y153304D01*
X495015Y153295D01*
X494943Y153286D01*
X494779Y153268D01*
X494596Y153231D01*
X494414Y153186D01*
X494241Y153113D01*
X494168Y153067D01*
X494095Y153022D01*
X494077Y153013D01*
X494041Y152976D01*
X493986Y152912D01*
X493931Y152840D01*
X493868Y152739D01*
X493813Y152630D01*
X493777Y152503D01*
X493758Y152357D01*
X493758Y152339D01*
X493758Y152302D01*
X493767Y152238D01*
X493786Y152165D01*
X493813Y152074D01*
X493859Y151983D01*
X493913Y151892D01*
X493995Y151801D01*
X494004Y151792D01*
X494050Y151765D01*
X494086Y151737D01*
X494123Y151719D01*
X494177Y151692D01*
X494241Y151655D01*
X494323Y151628D01*
X494414Y151592D01*
X494515Y151555D01*
X494633Y151509D01*
X494761Y151473D01*
X494906Y151427D01*
X495070Y151391D01*
X495252Y151346D01*
X495261Y151346D01*
X495298Y151336D01*
X495353Y151327D01*
X495416Y151309D01*
X495498Y151291D01*
X495599Y151264D01*
X495699Y151236D01*
X495808Y151209D01*
X496045Y151145D01*
X496273Y151081D01*
X496382Y151045D01*
X496482Y151008D01*
X496573Y150981D01*
X496646Y150945D01*
X496655Y150945D01*
X496673Y150936D01*
X496701Y150917D01*
X496737Y150899D01*
X496838Y150845D01*
X496956Y150772D01*
X497093Y150671D01*
X497229Y150562D01*
X497357Y150435D01*
X497466Y150298D01*
X497475Y150280D01*
X497512Y150234D01*
X497548Y150152D01*
X497603Y150043D01*
X497648Y149915D01*
X497694Y149760D01*
X497721Y149587D01*
X497730Y149405D01*
X497730Y149396D01*
X497730Y149387D01*
X497730Y149360D01*
X497730Y149323D01*
X497712Y149223D01*
X497694Y149095D01*
X497657Y148950D01*
X497612Y148795D01*
X497539Y148631D01*
X497439Y148458D01*
X497439Y148449D01*
X497430Y148440D01*
X497384Y148385D01*
X497320Y148303D01*
X497229Y148212D01*
X497111Y148102D01*
X496965Y147984D01*
X496801Y147875D01*
X496610Y147774D01*
X496601Y147774D01*
X496582Y147765D01*
X496555Y147756D01*
X496519Y147738D01*
X496464Y147720D01*
X496400Y147693D01*
X496254Y147656D01*
X496081Y147610D01*
X495872Y147565D01*
X495644Y147538D01*
X495398Y147529D01*
X495252Y147529D01*
X495180Y147538D01*
X495097Y147538D01*
X495006Y147547D01*
X494897Y147556D01*
X494669Y147592D01*
X494432Y147629D01*
X494196Y147693D01*
X493968Y147774D01*
X493959Y147774D01*
X493940Y147784D01*
X493913Y147802D01*
X493877Y147820D01*
X493767Y147875D01*
X493640Y147957D01*
X493494Y148066D01*
X493339Y148194D01*
X493193Y148348D01*
X493057Y148521D01*
X493057Y148531D01*
X493039Y148549D01*
X493030Y148576D01*
X493002Y148613D01*
X492984Y148658D01*
X492957Y148713D01*
X492893Y148849D01*
X492829Y149022D01*
X492774Y149214D01*
X492738Y149433D01*
X492720Y149660D01*
X493503Y149733D01*
X493503Y149724D01*
X493503Y149715D01*
X493512Y149688D01*
X493512Y149651D01*
X493531Y149569D01*
X493558Y149451D01*
X493594Y149332D01*
X493631Y149196D01*
X493695Y149068D01*
X493758Y148950D01*
X493767Y148941D01*
X493795Y148904D01*
X493840Y148840D01*
X493913Y148776D01*
X494004Y148695D01*
X494104Y148613D01*
X494241Y148531D01*
X494387Y148458D01*
X494396Y148458D01*
X494405Y148449D01*
X494432Y148440D01*
X494460Y148430D01*
X494551Y148403D01*
X494669Y148367D01*
X494815Y148330D01*
X494979Y148303D01*
X495161Y148285D01*
X495362Y148275D01*
X495444Y148275D01*
X495535Y148285D01*
X495644Y148294D01*
X495772Y148312D01*
X495917Y148330D01*
X496063Y148367D01*
X496200Y148412D01*
X496218Y148421D01*
X496264Y148440D01*
X496327Y148476D01*
X496409Y148512D01*
X496491Y148576D01*
X496582Y148640D01*
X496673Y148713D01*
X496746Y148804D01*
X496756Y148813D01*
X496774Y148849D01*
X496801Y148895D01*
X496838Y148968D01*
X496874Y149041D01*
X496901Y149132D01*
X496919Y149232D01*
X496929Y149341D01*
X496929Y149351D01*
X496929Y149396D01*
X496919Y149451D01*
X496910Y149524D01*
X496883Y149596D01*
X496856Y149688D01*
X496810Y149779D01*
X496746Y149861D01*
X496737Y149870D01*
X496710Y149897D01*
X496673Y149934D01*
X496610Y149988D01*
X496537Y150043D01*
X496437Y150107D01*
X496318Y150170D01*
X496182Y150225D01*
X496173Y150234D01*
X496127Y150243D01*
X496054Y150271D01*
X496008Y150280D01*
X495945Y150298D01*
X495881Y150325D01*
X495799Y150344D01*
X495708Y150371D01*
X495599Y150398D01*
X495489Y150426D01*
X495362Y150462D01*
X495216Y150498D01*
X495061Y150535D01*
X495052Y150535D01*
X495025Y150544D01*
X494979Y150553D01*
X494924Y150571D01*
X494852Y150589D01*
X494770Y150608D01*
X494587Y150662D01*
X494387Y150726D01*
X494177Y150790D01*
X493995Y150854D01*
X493913Y150890D01*
X493840Y150926D01*
X493831Y150926D01*
X493822Y150936D01*
X493767Y150972D01*
X493685Y151018D01*
X493594Y151091D01*
X493485Y151172D01*
X493376Y151273D01*
X493266Y151391D01*
X493175Y151519D01*
X493166Y151537D01*
X493139Y151582D01*
X493102Y151655D01*
X493066Y151746D01*
X493030Y151865D01*
X492993Y152002D01*
X492966Y152147D01*
X492957Y152302D01*
X492957Y152311D01*
X492957Y152320D01*
X492957Y152348D01*
X492957Y152384D01*
X492975Y152475D01*
X492993Y152594D01*
X493020Y152730D01*
X493066Y152885D01*
X493130Y153040D01*
X493221Y153195D01*
X493221Y153204D01*
X493230Y153213D01*
X493275Y153268D01*
X493339Y153341D01*
X493421Y153432D01*
X493531Y153532D01*
X493667Y153641D01*
X493831Y153742D01*
X494013Y153833D01*
X494023Y153833D01*
X494041Y153842D01*
X494068Y153851D01*
X494104Y153869D01*
X494150Y153887D01*
X494214Y153905D01*
X494350Y153942D01*
X494524Y153978D01*
X494724Y154015D01*
X494934Y154042D01*
X495170Y154051D01*
X495289Y154051D01*
X495353Y154042D01*
X495353Y154042D02*
G37*
G36*
X481196Y154042D02*
X481278Y154033D01*
X481378Y154024D01*
X481478Y154015D01*
X481597Y153988D01*
X481843Y153933D01*
X482116Y153851D01*
X482252Y153796D01*
X482380Y153732D01*
X482508Y153650D01*
X482635Y153568D01*
X482644Y153559D01*
X482662Y153550D01*
X482699Y153523D01*
X482744Y153477D01*
X482790Y153432D01*
X482854Y153368D01*
X482917Y153295D01*
X482990Y153222D01*
X483063Y153131D01*
X483136Y153022D01*
X483218Y152912D01*
X483291Y152794D01*
X483355Y152657D01*
X483428Y152521D01*
X483482Y152375D01*
X483537Y152211D01*
X482717Y152020D01*
X482717Y152029D01*
X482708Y152047D01*
X482690Y152084D01*
X482671Y152129D01*
X482653Y152184D01*
X482626Y152257D01*
X482553Y152402D01*
X482462Y152566D01*
X482353Y152730D01*
X482216Y152885D01*
X482070Y153022D01*
X482052Y153040D01*
X481997Y153077D01*
X481906Y153122D01*
X481788Y153186D01*
X481633Y153240D01*
X481460Y153295D01*
X481250Y153331D01*
X481023Y153341D01*
X480950Y153341D01*
X480904Y153331D01*
X480840Y153331D01*
X480767Y153322D01*
X480594Y153295D01*
X480403Y153259D01*
X480203Y153195D01*
X479993Y153104D01*
X479802Y152985D01*
X479793Y152985D01*
X479784Y152967D01*
X479720Y152922D01*
X479638Y152849D01*
X479538Y152739D01*
X479419Y152603D01*
X479310Y152448D01*
X479210Y152257D01*
X479119Y152047D01*
X479119Y152038D01*
X479109Y152020D01*
X479100Y151992D01*
X479091Y151947D01*
X479073Y151892D01*
X479055Y151828D01*
X479028Y151673D01*
X478991Y151491D01*
X478955Y151291D01*
X478936Y151072D01*
X478927Y150835D01*
X478927Y150826D01*
X478927Y150799D01*
X478927Y150753D01*
X478927Y150699D01*
X478936Y150635D01*
X478936Y150553D01*
X478945Y150462D01*
X478955Y150362D01*
X478982Y150143D01*
X479028Y149906D01*
X479082Y149669D01*
X479155Y149433D01*
X479155Y149423D01*
X479164Y149405D01*
X479182Y149378D01*
X479201Y149332D01*
X479255Y149223D01*
X479337Y149095D01*
X479437Y148950D01*
X479565Y148795D01*
X479711Y148658D01*
X479884Y148531D01*
X479893Y148531D01*
X479911Y148521D01*
X479939Y148503D01*
X479975Y148485D01*
X480021Y148467D01*
X480075Y148440D01*
X480203Y148385D01*
X480367Y148330D01*
X480549Y148285D01*
X480749Y148248D01*
X480959Y148239D01*
X481023Y148239D01*
X481077Y148248D01*
X481141Y148248D01*
X481205Y148257D01*
X481369Y148294D01*
X481560Y148339D01*
X481751Y148412D01*
X481952Y148512D01*
X482052Y148567D01*
X482143Y148640D01*
X482152Y148649D01*
X482161Y148658D01*
X482189Y148685D01*
X482225Y148713D01*
X482262Y148758D01*
X482307Y148813D01*
X482362Y148868D01*
X482407Y148941D01*
X482462Y149022D01*
X482526Y149114D01*
X482580Y149205D01*
X482635Y149314D01*
X482681Y149433D01*
X482726Y149560D01*
X482772Y149697D01*
X482808Y149842D01*
X483646Y149633D01*
X483646Y149624D01*
X483637Y149587D01*
X483619Y149533D01*
X483592Y149460D01*
X483564Y149378D01*
X483528Y149278D01*
X483482Y149168D01*
X483428Y149050D01*
X483300Y148795D01*
X483136Y148540D01*
X483036Y148412D01*
X482936Y148285D01*
X482826Y148175D01*
X482699Y148066D01*
X482690Y148057D01*
X482671Y148039D01*
X482626Y148020D01*
X482580Y147984D01*
X482508Y147938D01*
X482435Y147893D01*
X482334Y147847D01*
X482234Y147802D01*
X482116Y147747D01*
X481988Y147702D01*
X481852Y147656D01*
X481706Y147610D01*
X481551Y147574D01*
X481387Y147556D01*
X481214Y147538D01*
X481032Y147529D01*
X480932Y147529D01*
X480859Y147538D01*
X480777Y147538D01*
X480676Y147547D01*
X480567Y147565D01*
X480440Y147583D01*
X480175Y147629D01*
X479902Y147702D01*
X479629Y147802D01*
X479501Y147865D01*
X479374Y147938D01*
X479364Y147948D01*
X479346Y147957D01*
X479310Y147984D01*
X479273Y148020D01*
X479219Y148057D01*
X479155Y148111D01*
X479082Y148175D01*
X479009Y148248D01*
X478936Y148330D01*
X478854Y148412D01*
X478690Y148622D01*
X478536Y148868D01*
X478399Y149141D01*
X478399Y149150D01*
X478381Y149177D01*
X478372Y149223D01*
X478344Y149278D01*
X478326Y149351D01*
X478299Y149442D01*
X478262Y149542D01*
X478235Y149651D01*
X478208Y149769D01*
X478171Y149906D01*
X478126Y150189D01*
X478089Y150507D01*
X478071Y150835D01*
X478071Y150845D01*
X478071Y150881D01*
X478071Y150936D01*
X478080Y150999D01*
X478080Y151091D01*
X478089Y151182D01*
X478098Y151300D01*
X478117Y151418D01*
X478162Y151683D01*
X478226Y151974D01*
X478317Y152266D01*
X478444Y152548D01*
X478453Y152557D01*
X478463Y152585D01*
X478481Y152621D01*
X478517Y152666D01*
X478554Y152730D01*
X478599Y152803D01*
X478718Y152967D01*
X478873Y153149D01*
X479055Y153331D01*
X479264Y153514D01*
X479510Y153669D01*
X479519Y153678D01*
X479547Y153687D01*
X479583Y153705D01*
X479629Y153732D01*
X479702Y153760D01*
X479775Y153787D01*
X479866Y153823D01*
X479966Y153860D01*
X480075Y153896D01*
X480194Y153933D01*
X480449Y153988D01*
X480740Y154033D01*
X481041Y154051D01*
X481132Y154051D01*
X481196Y154042D01*
X481196Y154042D02*
G37*
G36*
X499552Y151683D02*
X499561Y151692D01*
X499580Y151710D01*
X499607Y151737D01*
X499652Y151783D01*
X499698Y151828D01*
X499762Y151883D01*
X499844Y151938D01*
X499926Y152002D01*
X500017Y152056D01*
X500117Y152111D01*
X500354Y152211D01*
X500482Y152257D01*
X500618Y152284D01*
X500764Y152302D01*
X500910Y152311D01*
X500992Y152311D01*
X501092Y152302D01*
X501210Y152284D01*
X501347Y152266D01*
X501493Y152229D01*
X501639Y152175D01*
X501784Y152111D01*
X501802Y152102D01*
X501848Y152074D01*
X501912Y152029D01*
X501994Y151965D01*
X502076Y151883D01*
X502167Y151792D01*
X502249Y151683D01*
X502322Y151555D01*
X502331Y151537D01*
X502349Y151491D01*
X502376Y151409D01*
X502404Y151291D01*
X502431Y151145D01*
X502458Y150972D01*
X502477Y150762D01*
X502486Y150526D01*
X502486Y147638D01*
X501711Y147638D01*
X501711Y150535D01*
X501711Y150544D01*
X501711Y150562D01*
X501711Y150589D01*
X501711Y150626D01*
X501702Y150726D01*
X501684Y150854D01*
X501648Y150990D01*
X501602Y151127D01*
X501538Y151264D01*
X501456Y151373D01*
X501447Y151382D01*
X501411Y151418D01*
X501356Y151464D01*
X501274Y151509D01*
X501174Y151564D01*
X501055Y151601D01*
X500910Y151637D01*
X500746Y151646D01*
X500691Y151646D01*
X500627Y151637D01*
X500536Y151628D01*
X500445Y151601D01*
X500336Y151573D01*
X500226Y151528D01*
X500108Y151464D01*
X500099Y151455D01*
X500063Y151427D01*
X500008Y151391D01*
X499944Y151336D01*
X499871Y151264D01*
X499798Y151182D01*
X499734Y151081D01*
X499680Y150972D01*
X499671Y150954D01*
X499662Y150917D01*
X499643Y150845D01*
X499616Y150753D01*
X499589Y150635D01*
X499571Y150489D01*
X499561Y150325D01*
X499552Y150134D01*
X499552Y147638D01*
X498778Y147638D01*
X498778Y153942D01*
X499552Y153942D01*
X499552Y151683D01*
X499552Y151683D02*
G37*
G36*
X487181Y153933D02*
X487254Y153933D01*
X487418Y153915D01*
X487600Y153896D01*
X487791Y153860D01*
X487983Y153814D01*
X488156Y153751D01*
X488165Y153751D01*
X488174Y153742D01*
X488229Y153714D01*
X488311Y153669D01*
X488402Y153605D01*
X488511Y153523D01*
X488629Y153423D01*
X488739Y153295D01*
X488839Y153158D01*
X488848Y153140D01*
X488875Y153086D01*
X488921Y153013D01*
X488967Y152903D01*
X489012Y152776D01*
X489058Y152639D01*
X489085Y152484D01*
X489094Y152329D01*
X489094Y152311D01*
X489094Y152266D01*
X489085Y152184D01*
X489067Y152084D01*
X489039Y151965D01*
X488994Y151838D01*
X488939Y151710D01*
X488866Y151573D01*
X488857Y151555D01*
X488830Y151519D01*
X488775Y151446D01*
X488702Y151373D01*
X488611Y151282D01*
X488502Y151182D01*
X488365Y151091D01*
X488210Y150999D01*
X488219Y150999D01*
X488238Y150990D01*
X488265Y150981D01*
X488302Y150963D01*
X488411Y150926D01*
X488538Y150863D01*
X488675Y150781D01*
X488830Y150680D01*
X488967Y150562D01*
X489094Y150416D01*
X489103Y150398D01*
X489140Y150344D01*
X489194Y150261D01*
X489249Y150152D01*
X489304Y150006D01*
X489358Y149852D01*
X489395Y149669D01*
X489404Y149469D01*
X489404Y149460D01*
X489404Y149451D01*
X489404Y149396D01*
X489395Y149305D01*
X489376Y149196D01*
X489358Y149068D01*
X489322Y148931D01*
X489276Y148786D01*
X489213Y148640D01*
X489203Y148622D01*
X489176Y148576D01*
X489140Y148512D01*
X489085Y148421D01*
X489012Y148330D01*
X488939Y148230D01*
X488848Y148130D01*
X488748Y148048D01*
X488739Y148039D01*
X488702Y148011D01*
X488638Y147975D01*
X488556Y147938D01*
X488456Y147884D01*
X488338Y147829D01*
X488210Y147784D01*
X488056Y147738D01*
X488037Y147738D01*
X487983Y147720D01*
X487891Y147711D01*
X487773Y147693D01*
X487627Y147674D01*
X487454Y147656D01*
X487263Y147647D01*
X487044Y147638D01*
X484639Y147638D01*
X484639Y153942D01*
X487117Y153942D01*
X487181Y153933D01*
X487181Y153933D02*
G37*
G36*
X475165Y153933D02*
X475320Y153924D01*
X475484Y153915D01*
X475639Y153896D01*
X475775Y153878D01*
X475793Y153878D01*
X475857Y153860D01*
X475939Y153842D01*
X476049Y153814D01*
X476167Y153769D01*
X476295Y153714D01*
X476431Y153650D01*
X476550Y153577D01*
X476568Y153568D01*
X476604Y153541D01*
X476659Y153486D01*
X476732Y153423D01*
X476814Y153341D01*
X476896Y153231D01*
X476987Y153113D01*
X477060Y152976D01*
X477069Y152958D01*
X477087Y152912D01*
X477123Y152831D01*
X477160Y152721D01*
X477187Y152594D01*
X477224Y152448D01*
X477242Y152284D01*
X477251Y152111D01*
X477251Y152102D01*
X477251Y152074D01*
X477251Y152038D01*
X477242Y151974D01*
X477233Y151910D01*
X477224Y151828D01*
X477206Y151737D01*
X477187Y151637D01*
X477123Y151427D01*
X477087Y151318D01*
X477032Y151200D01*
X476969Y151081D01*
X476905Y150972D01*
X476823Y150863D01*
X476732Y150753D01*
X476723Y150744D01*
X476704Y150726D01*
X476677Y150699D01*
X476631Y150671D01*
X476577Y150626D01*
X476504Y150580D01*
X476413Y150526D01*
X476313Y150480D01*
X476194Y150426D01*
X476058Y150371D01*
X475912Y150325D01*
X475739Y150289D01*
X475557Y150252D01*
X475356Y150225D01*
X475128Y150207D01*
X474892Y150198D01*
X473279Y150198D01*
X473279Y147638D01*
X472441Y147638D01*
X472441Y153942D01*
X475028Y153942D01*
X475165Y153933D01*
X475165Y153933D02*
G37*
G36*
X514383Y152211D02*
X515167Y152211D01*
X515167Y151610D01*
X514383Y151610D01*
X514383Y148922D01*
X514383Y148904D01*
X514383Y148868D01*
X514383Y148813D01*
X514393Y148749D01*
X514402Y148603D01*
X514411Y148540D01*
X514420Y148494D01*
X514429Y148476D01*
X514456Y148440D01*
X514493Y148394D01*
X514557Y148348D01*
X514575Y148339D01*
X514620Y148321D01*
X514702Y148303D01*
X514821Y148294D01*
X514912Y148294D01*
X514957Y148303D01*
X515021Y148303D01*
X515094Y148312D01*
X515167Y148321D01*
X515267Y147638D01*
X515249Y147638D01*
X515212Y147629D01*
X515149Y147620D01*
X515067Y147610D01*
X514976Y147592D01*
X514875Y147583D01*
X514675Y147574D01*
X514602Y147574D01*
X514529Y147583D01*
X514438Y147592D01*
X514329Y147601D01*
X514219Y147629D01*
X514119Y147656D01*
X514019Y147702D01*
X514010Y147711D01*
X513982Y147729D01*
X513946Y147756D01*
X513891Y147802D01*
X513846Y147847D01*
X513791Y147911D01*
X513737Y147975D01*
X513700Y148057D01*
X513700Y148066D01*
X513682Y148102D01*
X513673Y148166D01*
X513655Y148257D01*
X513636Y148376D01*
X513627Y148449D01*
X513627Y148531D01*
X513618Y148631D01*
X513609Y148731D01*
X513609Y148840D01*
X513609Y148968D01*
X513609Y151610D01*
X513035Y151610D01*
X513035Y152211D01*
X513609Y152211D01*
X513609Y153341D01*
X514383Y153805D01*
X514383Y152211D01*
X514383Y152211D02*
G37*
G36*
X510603Y152302D02*
X510676Y152293D01*
X510767Y152275D01*
X510867Y152257D01*
X510985Y152229D01*
X511095Y152202D01*
X511222Y152156D01*
X511341Y152111D01*
X511468Y152047D01*
X511596Y151974D01*
X511723Y151892D01*
X511842Y151792D01*
X511951Y151683D01*
X511960Y151673D01*
X511978Y151655D01*
X512006Y151619D01*
X512042Y151564D01*
X512088Y151500D01*
X512133Y151427D01*
X512188Y151336D01*
X512243Y151227D01*
X512297Y151109D01*
X512352Y150981D01*
X512397Y150835D01*
X512443Y150680D01*
X512479Y150507D01*
X512507Y150325D01*
X512525Y150134D01*
X512534Y149924D01*
X512534Y149915D01*
X512534Y149879D01*
X512534Y149815D01*
X512525Y149724D01*
X509109Y149724D01*
X509109Y149715D01*
X509109Y149688D01*
X509118Y149651D01*
X509118Y149596D01*
X509127Y149533D01*
X509145Y149460D01*
X509172Y149296D01*
X509227Y149114D01*
X509300Y148913D01*
X509400Y148731D01*
X509528Y148567D01*
X509537Y148567D01*
X509546Y148549D01*
X509601Y148503D01*
X509683Y148440D01*
X509792Y148376D01*
X509938Y148303D01*
X510102Y148239D01*
X510284Y148194D01*
X510384Y148184D01*
X510493Y148175D01*
X510566Y148175D01*
X510648Y148184D01*
X510748Y148203D01*
X510858Y148230D01*
X510985Y148266D01*
X511104Y148321D01*
X511222Y148394D01*
X511231Y148403D01*
X511277Y148440D01*
X511332Y148494D01*
X511395Y148567D01*
X511468Y148667D01*
X511550Y148795D01*
X511632Y148941D01*
X511705Y149114D01*
X512507Y149013D01*
X512507Y149004D01*
X512498Y148986D01*
X512489Y148950D01*
X512470Y148895D01*
X512443Y148840D01*
X512416Y148767D01*
X512343Y148613D01*
X512252Y148440D01*
X512124Y148257D01*
X511978Y148084D01*
X511796Y147920D01*
X511787Y147920D01*
X511769Y147902D01*
X511741Y147884D01*
X511705Y147856D01*
X511650Y147829D01*
X511596Y147802D01*
X511523Y147765D01*
X511441Y147729D01*
X511350Y147693D01*
X511259Y147656D01*
X511031Y147601D01*
X510776Y147556D01*
X510493Y147538D01*
X510393Y147538D01*
X510329Y147547D01*
X510248Y147556D01*
X510147Y147574D01*
X510038Y147592D01*
X509920Y147610D01*
X509664Y147683D01*
X509528Y147738D01*
X509400Y147793D01*
X509264Y147865D01*
X509136Y147948D01*
X509018Y148039D01*
X508899Y148148D01*
X508890Y148157D01*
X508872Y148175D01*
X508845Y148212D01*
X508808Y148266D01*
X508763Y148330D01*
X508717Y148403D01*
X508662Y148494D01*
X508608Y148594D01*
X508553Y148713D01*
X508498Y148840D01*
X508453Y148986D01*
X508407Y149141D01*
X508371Y149305D01*
X508344Y149487D01*
X508325Y149678D01*
X508316Y149879D01*
X508316Y149888D01*
X508316Y149934D01*
X508316Y149988D01*
X508325Y150070D01*
X508334Y150170D01*
X508344Y150280D01*
X508362Y150407D01*
X508389Y150535D01*
X508462Y150826D01*
X508507Y150972D01*
X508562Y151127D01*
X508635Y151273D01*
X508717Y151409D01*
X508808Y151546D01*
X508908Y151673D01*
X508917Y151683D01*
X508936Y151701D01*
X508972Y151728D01*
X509018Y151774D01*
X509072Y151819D01*
X509145Y151874D01*
X509227Y151938D01*
X509327Y151992D01*
X509427Y152056D01*
X509546Y152111D01*
X509674Y152165D01*
X509810Y152211D01*
X509956Y152257D01*
X510111Y152284D01*
X510275Y152302D01*
X510448Y152311D01*
X510539Y152311D01*
X510603Y152302D01*
X510603Y152302D02*
G37*
G36*
X505702Y152302D02*
X505774Y152293D01*
X505865Y152275D01*
X505966Y152257D01*
X506084Y152229D01*
X506193Y152202D01*
X506321Y152156D01*
X506439Y152111D01*
X506567Y152047D01*
X506695Y151974D01*
X506822Y151892D01*
X506941Y151792D01*
X507050Y151683D01*
X507059Y151673D01*
X507077Y151655D01*
X507104Y151619D01*
X507141Y151564D01*
X507187Y151500D01*
X507232Y151427D01*
X507287Y151336D01*
X507341Y151227D01*
X507396Y151109D01*
X507451Y150981D01*
X507496Y150835D01*
X507542Y150680D01*
X507578Y150507D01*
X507606Y150325D01*
X507624Y150134D01*
X507633Y149924D01*
X507633Y149915D01*
X507633Y149879D01*
X507633Y149815D01*
X507624Y149724D01*
X504208Y149724D01*
X504208Y149715D01*
X504208Y149688D01*
X504217Y149651D01*
X504217Y149596D01*
X504226Y149533D01*
X504244Y149460D01*
X504271Y149296D01*
X504326Y149114D01*
X504399Y148913D01*
X504499Y148731D01*
X504627Y148567D01*
X504636Y148567D01*
X504645Y148549D01*
X504700Y148503D01*
X504781Y148440D01*
X504891Y148376D01*
X505036Y148303D01*
X505200Y148239D01*
X505383Y148194D01*
X505483Y148184D01*
X505592Y148175D01*
X505665Y148175D01*
X505747Y148184D01*
X505847Y148203D01*
X505957Y148230D01*
X506084Y148266D01*
X506203Y148321D01*
X506321Y148394D01*
X506330Y148403D01*
X506376Y148440D01*
X506430Y148494D01*
X506494Y148567D01*
X506567Y148667D01*
X506649Y148795D01*
X506731Y148941D01*
X506804Y149114D01*
X507606Y149013D01*
X507606Y149004D01*
X507596Y148986D01*
X507587Y148950D01*
X507569Y148895D01*
X507542Y148840D01*
X507514Y148767D01*
X507442Y148613D01*
X507350Y148440D01*
X507223Y148257D01*
X507077Y148084D01*
X506895Y147920D01*
X506886Y147920D01*
X506868Y147902D01*
X506840Y147884D01*
X506804Y147856D01*
X506749Y147829D01*
X506695Y147802D01*
X506622Y147765D01*
X506540Y147729D01*
X506449Y147693D01*
X506357Y147656D01*
X506130Y147601D01*
X505875Y147556D01*
X505592Y147538D01*
X505492Y147538D01*
X505428Y147547D01*
X505346Y147556D01*
X505246Y147574D01*
X505137Y147592D01*
X505018Y147610D01*
X504763Y147683D01*
X504627Y147738D01*
X504499Y147793D01*
X504362Y147865D01*
X504235Y147948D01*
X504116Y148039D01*
X503998Y148148D01*
X503989Y148157D01*
X503971Y148175D01*
X503943Y148212D01*
X503907Y148266D01*
X503861Y148330D01*
X503816Y148403D01*
X503761Y148494D01*
X503707Y148594D01*
X503652Y148713D01*
X503597Y148840D01*
X503552Y148986D01*
X503506Y149141D01*
X503470Y149305D01*
X503442Y149487D01*
X503424Y149678D01*
X503415Y149879D01*
X503415Y149888D01*
X503415Y149934D01*
X503415Y149988D01*
X503424Y150070D01*
X503433Y150170D01*
X503442Y150280D01*
X503461Y150407D01*
X503488Y150535D01*
X503561Y150826D01*
X503606Y150972D01*
X503661Y151127D01*
X503734Y151273D01*
X503816Y151409D01*
X503907Y151546D01*
X504007Y151673D01*
X504016Y151683D01*
X504034Y151701D01*
X504071Y151728D01*
X504116Y151774D01*
X504171Y151819D01*
X504244Y151874D01*
X504326Y151938D01*
X504426Y151992D01*
X504526Y152056D01*
X504645Y152111D01*
X504772Y152165D01*
X504909Y152211D01*
X505055Y152257D01*
X505210Y152284D01*
X505374Y152302D01*
X505547Y152311D01*
X505638Y152311D01*
X505702Y152302D01*
X505702Y152302D02*
G37*
G36*
X-46282Y-675696D02*
X-46118Y-675696D01*
X-45936Y-675715D01*
X-45736Y-675733D01*
X-45517Y-675769D01*
X-45025Y-675860D01*
X-44533Y-676006D01*
X-44060Y-676188D01*
X-43841Y-676316D01*
X-43622Y-676443D01*
X-43604Y-676443D01*
X-43567Y-676480D01*
X-43513Y-676516D01*
X-43440Y-676589D01*
X-43349Y-676662D01*
X-43240Y-676771D01*
X-43130Y-676881D01*
X-43003Y-677027D01*
X-42875Y-677172D01*
X-42748Y-677354D01*
X-42602Y-677537D01*
X-42474Y-677755D01*
X-42347Y-677992D01*
X-42219Y-678229D01*
X-42110Y-678502D01*
X-42001Y-678794D01*
X-44734Y-679395D01*
X-44734Y-679377D01*
X-44752Y-679322D01*
X-44788Y-679231D01*
X-44825Y-679140D01*
X-44934Y-678921D01*
X-44989Y-678830D01*
X-45043Y-678739D01*
X-45062Y-678721D01*
X-45080Y-678685D01*
X-45153Y-678612D01*
X-45226Y-678539D01*
X-45426Y-678357D01*
X-45681Y-678193D01*
X-45699Y-678174D01*
X-45736Y-678156D01*
X-45827Y-678120D01*
X-45918Y-678083D01*
X-46046Y-678047D01*
X-46191Y-678029D01*
X-46355Y-677992D01*
X-46628Y-677992D01*
X-46683Y-678010D01*
X-46884Y-678029D01*
X-47120Y-678101D01*
X-47376Y-678193D01*
X-47649Y-678357D01*
X-47904Y-678557D01*
X-48013Y-678703D01*
X-48123Y-678849D01*
X-48141Y-678885D01*
X-48195Y-678958D01*
X-48250Y-679122D01*
X-48323Y-679322D01*
X-48414Y-679596D01*
X-48469Y-679923D01*
X-48523Y-680324D01*
X-48542Y-680798D01*
X-48542Y-680816D01*
X-48542Y-680871D01*
X-48542Y-680962D01*
X-48542Y-681071D01*
X-48523Y-681199D01*
X-48523Y-681363D01*
X-48487Y-681709D01*
X-48414Y-682073D01*
X-48341Y-682456D01*
X-48214Y-682802D01*
X-48141Y-682948D01*
X-48050Y-683076D01*
X-48031Y-683094D01*
X-47959Y-683167D01*
X-47831Y-683258D01*
X-47685Y-683367D01*
X-47485Y-683495D01*
X-47230Y-683586D01*
X-46957Y-683659D01*
X-46628Y-683677D01*
X-46483Y-683677D01*
X-46319Y-683659D01*
X-46118Y-683622D01*
X-45900Y-683549D01*
X-45681Y-683476D01*
X-45462Y-683349D01*
X-45280Y-683185D01*
X-45262Y-683167D01*
X-45207Y-683094D01*
X-45116Y-682984D01*
X-45025Y-682820D01*
X-44916Y-682620D01*
X-44807Y-682365D01*
X-44697Y-682073D01*
X-44606Y-681727D01*
X-41910Y-682565D01*
X-41910Y-682584D01*
X-41928Y-682620D01*
X-41946Y-682675D01*
X-41964Y-682748D01*
X-42019Y-682966D01*
X-42128Y-683221D01*
X-42237Y-683531D01*
X-42401Y-683841D01*
X-42565Y-684151D01*
X-42784Y-684460D01*
X-42802Y-684497D01*
X-42893Y-684588D01*
X-43021Y-684715D01*
X-43185Y-684898D01*
X-43404Y-685080D01*
X-43640Y-685262D01*
X-43932Y-685444D01*
X-44242Y-685608D01*
X-44260Y-685608D01*
X-44278Y-685626D01*
X-44333Y-685644D01*
X-44387Y-685663D01*
X-44588Y-685736D01*
X-44843Y-685790D01*
X-45153Y-685863D01*
X-45535Y-685936D01*
X-45973Y-685972D01*
X-46446Y-685991D01*
X-46720Y-685991D01*
X-46865Y-685972D01*
X-47011Y-685972D01*
X-47193Y-685954D01*
X-47394Y-685936D01*
X-47813Y-685881D01*
X-48268Y-685790D01*
X-48706Y-685681D01*
X-49125Y-685535D01*
X-49143Y-685535D01*
X-49161Y-685517D01*
X-49216Y-685481D01*
X-49289Y-685444D01*
X-49489Y-685317D01*
X-49726Y-685153D01*
X-49999Y-684916D01*
X-50309Y-684643D01*
X-50600Y-684296D01*
X-50892Y-683877D01*
X-50892Y-683859D01*
X-50928Y-683822D01*
X-50965Y-683750D01*
X-51001Y-683659D01*
X-51056Y-683549D01*
X-51129Y-683403D01*
X-51202Y-683240D01*
X-51256Y-683039D01*
X-51329Y-682839D01*
X-51402Y-682602D01*
X-51457Y-682347D01*
X-51530Y-682073D01*
X-51566Y-681782D01*
X-51603Y-681472D01*
X-51639Y-680816D01*
X-51639Y-680780D01*
X-51639Y-680707D01*
X-51621Y-680579D01*
X-51621Y-680415D01*
X-51603Y-680197D01*
X-51566Y-679960D01*
X-51530Y-679705D01*
X-51475Y-679413D01*
X-51402Y-679104D01*
X-51311Y-678794D01*
X-51220Y-678484D01*
X-51092Y-678156D01*
X-50928Y-677846D01*
X-50764Y-677555D01*
X-50564Y-677263D01*
X-50327Y-677008D01*
X-50309Y-676990D01*
X-50273Y-676954D01*
X-50181Y-676881D01*
X-50090Y-676808D01*
X-49944Y-676698D01*
X-49781Y-676589D01*
X-49598Y-676462D01*
X-49362Y-676334D01*
X-49125Y-676225D01*
X-48833Y-676097D01*
X-48523Y-675988D01*
X-48195Y-675879D01*
X-47831Y-675806D01*
X-47448Y-675733D01*
X-47029Y-675696D01*
X-46592Y-675678D01*
X-46410Y-675678D01*
X-46282Y-675696D01*
X-46282Y-675696D02*
G37*
G36*
X-85036Y-675696D02*
X-84872Y-675696D01*
X-84690Y-675715D01*
X-84490Y-675733D01*
X-84271Y-675769D01*
X-83779Y-675860D01*
X-83287Y-676006D01*
X-82813Y-676188D01*
X-82595Y-676316D01*
X-82376Y-676443D01*
X-82358Y-676443D01*
X-82322Y-676480D01*
X-82267Y-676516D01*
X-82194Y-676589D01*
X-82103Y-676662D01*
X-81994Y-676771D01*
X-81884Y-676881D01*
X-81757Y-677027D01*
X-81629Y-677172D01*
X-81502Y-677354D01*
X-81356Y-677537D01*
X-81228Y-677755D01*
X-81101Y-677992D01*
X-80973Y-678229D01*
X-80864Y-678502D01*
X-80755Y-678794D01*
X-83488Y-679395D01*
X-83488Y-679377D01*
X-83506Y-679322D01*
X-83542Y-679231D01*
X-83579Y-679140D01*
X-83688Y-678921D01*
X-83743Y-678830D01*
X-83797Y-678739D01*
X-83815Y-678721D01*
X-83834Y-678685D01*
X-83907Y-678612D01*
X-83979Y-678539D01*
X-84180Y-678357D01*
X-84435Y-678193D01*
X-84453Y-678174D01*
X-84490Y-678156D01*
X-84581Y-678120D01*
X-84672Y-678083D01*
X-84799Y-678047D01*
X-84945Y-678029D01*
X-85109Y-677992D01*
X-85382Y-677992D01*
X-85437Y-678010D01*
X-85637Y-678029D01*
X-85874Y-678101D01*
X-86129Y-678193D01*
X-86403Y-678357D01*
X-86658Y-678557D01*
X-86767Y-678703D01*
X-86876Y-678849D01*
X-86895Y-678885D01*
X-86949Y-678958D01*
X-87004Y-679122D01*
X-87077Y-679322D01*
X-87168Y-679596D01*
X-87223Y-679923D01*
X-87277Y-680324D01*
X-87296Y-680798D01*
X-87296Y-680816D01*
X-87296Y-680871D01*
X-87296Y-680962D01*
X-87296Y-681071D01*
X-87277Y-681199D01*
X-87277Y-681363D01*
X-87241Y-681709D01*
X-87168Y-682073D01*
X-87095Y-682456D01*
X-86968Y-682802D01*
X-86895Y-682948D01*
X-86804Y-683076D01*
X-86785Y-683094D01*
X-86712Y-683167D01*
X-86585Y-683258D01*
X-86439Y-683367D01*
X-86239Y-683495D01*
X-85984Y-683586D01*
X-85710Y-683659D01*
X-85382Y-683677D01*
X-85237Y-683677D01*
X-85073Y-683659D01*
X-84872Y-683622D01*
X-84654Y-683549D01*
X-84435Y-683476D01*
X-84216Y-683349D01*
X-84034Y-683185D01*
X-84016Y-683167D01*
X-83961Y-683094D01*
X-83870Y-682984D01*
X-83779Y-682820D01*
X-83670Y-682620D01*
X-83560Y-682365D01*
X-83451Y-682073D01*
X-83360Y-681727D01*
X-80664Y-682565D01*
X-80664Y-682584D01*
X-80682Y-682620D01*
X-80700Y-682675D01*
X-80718Y-682748D01*
X-80773Y-682966D01*
X-80882Y-683221D01*
X-80991Y-683531D01*
X-81155Y-683841D01*
X-81319Y-684151D01*
X-81538Y-684460D01*
X-81556Y-684497D01*
X-81647Y-684588D01*
X-81775Y-684715D01*
X-81939Y-684898D01*
X-82157Y-685080D01*
X-82394Y-685262D01*
X-82686Y-685444D01*
X-82996Y-685608D01*
X-83014Y-685608D01*
X-83032Y-685626D01*
X-83087Y-685644D01*
X-83141Y-685663D01*
X-83342Y-685736D01*
X-83597Y-685790D01*
X-83907Y-685863D01*
X-84289Y-685936D01*
X-84727Y-685972D01*
X-85200Y-685991D01*
X-85474Y-685991D01*
X-85619Y-685972D01*
X-85765Y-685972D01*
X-85947Y-685954D01*
X-86148Y-685936D01*
X-86567Y-685881D01*
X-87022Y-685790D01*
X-87459Y-685681D01*
X-87879Y-685535D01*
X-87897Y-685535D01*
X-87915Y-685517D01*
X-87970Y-685481D01*
X-88043Y-685444D01*
X-88243Y-685317D01*
X-88480Y-685153D01*
X-88753Y-684916D01*
X-89063Y-684643D01*
X-89354Y-684296D01*
X-89646Y-683877D01*
X-89646Y-683859D01*
X-89682Y-683822D01*
X-89719Y-683750D01*
X-89755Y-683659D01*
X-89810Y-683549D01*
X-89883Y-683403D01*
X-89956Y-683240D01*
X-90010Y-683039D01*
X-90083Y-682839D01*
X-90156Y-682602D01*
X-90211Y-682347D01*
X-90284Y-682073D01*
X-90320Y-681782D01*
X-90356Y-681472D01*
X-90393Y-680816D01*
X-90393Y-680780D01*
X-90393Y-680707D01*
X-90375Y-680579D01*
X-90375Y-680415D01*
X-90356Y-680197D01*
X-90320Y-679960D01*
X-90284Y-679705D01*
X-90229Y-679413D01*
X-90156Y-679104D01*
X-90065Y-678794D01*
X-89974Y-678484D01*
X-89846Y-678156D01*
X-89682Y-677846D01*
X-89518Y-677555D01*
X-89318Y-677263D01*
X-89081Y-677008D01*
X-89063Y-676990D01*
X-89026Y-676954D01*
X-88935Y-676881D01*
X-88844Y-676808D01*
X-88699Y-676698D01*
X-88534Y-676589D01*
X-88352Y-676462D01*
X-88115Y-676334D01*
X-87879Y-676225D01*
X-87587Y-676097D01*
X-87277Y-675988D01*
X-86949Y-675879D01*
X-86585Y-675806D01*
X-86202Y-675733D01*
X-85783Y-675696D01*
X-85346Y-675678D01*
X-85164Y-675678D01*
X-85036Y-675696D01*
X-85036Y-675696D02*
G37*
G36*
X-67964Y-685827D02*
X-70497Y-685827D01*
X-70497Y-678211D01*
X-72446Y-685827D01*
X-74742Y-685827D01*
X-76673Y-678211D01*
X-76673Y-685827D01*
X-79206Y-685827D01*
X-79206Y-675842D01*
X-75143Y-675842D01*
X-73594Y-681928D01*
X-72027Y-675842D01*
X-67964Y-675842D01*
X-67964Y-685827D01*
X-67964Y-685827D02*
G37*
G36*
X-20756Y-681800D02*
X-20756Y-681818D01*
X-20756Y-681837D01*
X-20756Y-681946D01*
X-20774Y-682110D01*
X-20793Y-682329D01*
X-20829Y-682602D01*
X-20884Y-682875D01*
X-20956Y-683167D01*
X-21048Y-683476D01*
X-21066Y-683513D01*
X-21102Y-683604D01*
X-21157Y-683750D01*
X-21266Y-683932D01*
X-21376Y-684151D01*
X-21540Y-684387D01*
X-21703Y-684624D01*
X-21922Y-684843D01*
X-21940Y-684861D01*
X-22031Y-684934D01*
X-22141Y-685043D01*
X-22287Y-685171D01*
X-22469Y-685298D01*
X-22687Y-685426D01*
X-22906Y-685553D01*
X-23143Y-685663D01*
X-23161Y-685663D01*
X-23179Y-685681D01*
X-23234Y-685699D01*
X-23307Y-685717D01*
X-23489Y-685772D01*
X-23762Y-685827D01*
X-24072Y-685881D01*
X-24437Y-685936D01*
X-24856Y-685972D01*
X-25311Y-685991D01*
X-25584Y-685991D01*
X-25785Y-685972D01*
X-26022Y-685972D01*
X-26295Y-685936D01*
X-26586Y-685918D01*
X-26915Y-685881D01*
X-26951Y-685881D01*
X-27060Y-685863D01*
X-27224Y-685845D01*
X-27406Y-685790D01*
X-27643Y-685754D01*
X-27880Y-685681D01*
X-28117Y-685590D01*
X-28354Y-685499D01*
X-28372Y-685481D01*
X-28445Y-685444D01*
X-28554Y-685371D01*
X-28700Y-685280D01*
X-28864Y-685153D01*
X-29046Y-685007D01*
X-29228Y-684843D01*
X-29411Y-684643D01*
X-29429Y-684624D01*
X-29484Y-684551D01*
X-29575Y-684424D01*
X-29666Y-684278D01*
X-29775Y-684114D01*
X-29884Y-683914D01*
X-29994Y-683695D01*
X-30066Y-683476D01*
X-30066Y-683458D01*
X-30085Y-683440D01*
X-30085Y-683385D01*
X-30103Y-683312D01*
X-30158Y-683130D01*
X-30194Y-682911D01*
X-30249Y-682656D01*
X-30303Y-682365D01*
X-30322Y-682073D01*
X-30340Y-681800D01*
X-30340Y-675842D01*
X-27261Y-675842D01*
X-27261Y-681928D01*
X-27261Y-681964D01*
X-27261Y-682055D01*
X-27242Y-682219D01*
X-27206Y-682401D01*
X-27151Y-682602D01*
X-27078Y-682802D01*
X-26969Y-683021D01*
X-26823Y-683203D01*
X-26805Y-683221D01*
X-26732Y-683276D01*
X-26641Y-683349D01*
X-26495Y-683422D01*
X-26313Y-683513D01*
X-26095Y-683586D01*
X-25839Y-683640D01*
X-25548Y-683659D01*
X-25420Y-683659D01*
X-25275Y-683640D01*
X-25093Y-683604D01*
X-24892Y-683549D01*
X-24673Y-683476D01*
X-24473Y-683367D01*
X-24291Y-683221D01*
X-24273Y-683203D01*
X-24218Y-683130D01*
X-24145Y-683039D01*
X-24054Y-682893D01*
X-23981Y-682711D01*
X-23908Y-682474D01*
X-23854Y-682219D01*
X-23835Y-681928D01*
X-23835Y-675842D01*
X-20756Y-675842D01*
X-20756Y-681800D01*
X-20756Y-681800D02*
G37*
G36*
X-35041Y-675860D02*
X-34895Y-675860D01*
X-34731Y-675879D01*
X-34366Y-675933D01*
X-33966Y-676043D01*
X-33547Y-676188D01*
X-33146Y-676371D01*
X-32963Y-676498D01*
X-32800Y-676644D01*
X-32781Y-676644D01*
X-32763Y-676680D01*
X-32727Y-676735D01*
X-32672Y-676790D01*
X-32526Y-676972D01*
X-32381Y-677227D01*
X-32235Y-677555D01*
X-32089Y-677938D01*
X-31998Y-678393D01*
X-31961Y-678630D01*
X-31961Y-678903D01*
X-31961Y-678921D01*
X-31961Y-678976D01*
X-31961Y-679049D01*
X-31980Y-679158D01*
X-31980Y-679286D01*
X-32016Y-679431D01*
X-32071Y-679760D01*
X-32180Y-680142D01*
X-32344Y-680543D01*
X-32453Y-680743D01*
X-32563Y-680926D01*
X-32708Y-681108D01*
X-32872Y-681272D01*
X-32891Y-681272D01*
X-32909Y-681308D01*
X-32963Y-681345D01*
X-33036Y-681399D01*
X-33146Y-681472D01*
X-33255Y-681545D01*
X-33401Y-681618D01*
X-33565Y-681691D01*
X-33747Y-681764D01*
X-33947Y-681837D01*
X-34184Y-681910D01*
X-34439Y-681982D01*
X-34713Y-682037D01*
X-35004Y-682073D01*
X-35314Y-682092D01*
X-35660Y-682110D01*
X-37336Y-682110D01*
X-37336Y-685827D01*
X-40434Y-685827D01*
X-40434Y-675842D01*
X-35150Y-675842D01*
X-35041Y-675860D01*
X-35041Y-675860D02*
G37*
G36*
X-57724Y-677974D02*
X-62899Y-677974D01*
X-62899Y-679559D01*
X-58107Y-679559D01*
X-58107Y-681600D01*
X-62899Y-681600D01*
X-62899Y-683567D01*
X-57579Y-683567D01*
X-57579Y-685827D01*
X-65996Y-685827D01*
X-65996Y-675842D01*
X-57724Y-675842D01*
X-57724Y-677974D01*
X-57724Y-677974D02*
G37*
G36*
X-91012Y-685827D02*
X-94256Y-685827D01*
X-94748Y-684187D01*
X-98246Y-684187D01*
X-98738Y-685827D01*
X-101890Y-685827D01*
X-98155Y-675842D01*
X-94766Y-675842D01*
X-91012Y-685827D01*
X-91012Y-685827D02*
G37*
%LPC*%
G36*
X497494Y191044D02*
X497439Y191044D01*
X497402Y191034D01*
X497302Y191025D01*
X497184Y190998D01*
X497038Y190953D01*
X496883Y190889D01*
X496737Y190798D01*
X496592Y190679D01*
X496573Y190661D01*
X496537Y190615D01*
X496473Y190533D01*
X496409Y190424D01*
X496337Y190297D01*
X496273Y190133D01*
X496218Y189941D01*
X496191Y189732D01*
X498751Y189732D01*
X498751Y189741D01*
X498751Y189759D01*
X498741Y189786D01*
X498741Y189823D01*
X498723Y189932D01*
X498696Y190051D01*
X498650Y190196D01*
X498605Y190333D01*
X498532Y190470D01*
X498450Y190588D01*
X498450Y190597D01*
X498432Y190606D01*
X498386Y190661D01*
X498304Y190734D01*
X498195Y190816D01*
X498058Y190898D01*
X497894Y190971D01*
X497703Y191025D01*
X497603Y191034D01*
X497494Y191044D01*
X497494Y191044D02*
G37*
G36*
X475456Y192702D02*
X475374Y192702D01*
X475311Y192692D01*
X475229Y192683D01*
X475147Y192665D01*
X475046Y192647D01*
X474937Y192629D01*
X474700Y192556D01*
X474573Y192501D01*
X474445Y192446D01*
X474308Y192374D01*
X474181Y192292D01*
X474053Y192201D01*
X473935Y192091D01*
X473926Y192082D01*
X473908Y192064D01*
X473880Y192027D01*
X473835Y191973D01*
X473789Y191909D01*
X473735Y191827D01*
X473680Y191727D01*
X473616Y191608D01*
X473561Y191481D01*
X473498Y191326D01*
X473443Y191162D01*
X473397Y190980D01*
X473352Y190779D01*
X473325Y190552D01*
X473306Y190315D01*
X473297Y190060D01*
X473297Y190051D01*
X473297Y190014D01*
X473297Y189950D01*
X473306Y189868D01*
X473315Y189777D01*
X473334Y189668D01*
X473352Y189541D01*
X473370Y189413D01*
X473443Y189121D01*
X473498Y188976D01*
X473552Y188821D01*
X473625Y188675D01*
X473707Y188529D01*
X473798Y188393D01*
X473908Y188265D01*
X473917Y188256D01*
X473935Y188238D01*
X473971Y188201D01*
X474017Y188165D01*
X474081Y188110D01*
X474154Y188056D01*
X474236Y188001D01*
X474327Y187937D01*
X474436Y187873D01*
X474554Y187819D01*
X474682Y187764D01*
X474819Y187709D01*
X474964Y187673D01*
X475110Y187636D01*
X475274Y187618D01*
X475447Y187609D01*
X475493Y187609D01*
X475538Y187618D01*
X475602Y187618D01*
X475684Y187627D01*
X475775Y187646D01*
X475884Y187664D01*
X475994Y187691D01*
X476121Y187728D01*
X476240Y187773D01*
X476376Y187819D01*
X476504Y187882D01*
X476631Y187964D01*
X476759Y188046D01*
X476887Y188147D01*
X477005Y188265D01*
X477014Y188274D01*
X477032Y188292D01*
X477060Y188338D01*
X477105Y188393D01*
X477151Y188456D01*
X477196Y188538D01*
X477251Y188639D01*
X477315Y188748D01*
X477369Y188875D01*
X477424Y189021D01*
X477470Y189176D01*
X477524Y189340D01*
X477561Y189522D01*
X477588Y189723D01*
X477606Y189932D01*
X477615Y190151D01*
X477615Y190160D01*
X477615Y190187D01*
X477615Y190224D01*
X477615Y190278D01*
X477606Y190342D01*
X477606Y190424D01*
X477597Y190506D01*
X477579Y190606D01*
X477552Y190816D01*
X477506Y191034D01*
X477442Y191271D01*
X477351Y191490D01*
X477351Y191499D01*
X477342Y191517D01*
X477324Y191545D01*
X477306Y191581D01*
X477242Y191690D01*
X477160Y191818D01*
X477051Y191964D01*
X476914Y192110D01*
X476759Y192255D01*
X476586Y192383D01*
X476577Y192383D01*
X476568Y192401D01*
X476540Y192410D01*
X476495Y192437D01*
X476449Y192456D01*
X476395Y192483D01*
X476258Y192547D01*
X476094Y192601D01*
X475903Y192656D01*
X475684Y192692D01*
X475456Y192702D01*
X475456Y192702D02*
G37*
G36*
X486971Y153195D02*
X485477Y153195D01*
X485477Y151300D01*
X487026Y151300D01*
X487145Y151309D01*
X487272Y151318D01*
X487400Y151327D01*
X487527Y151346D01*
X487627Y151364D01*
X487645Y151373D01*
X487682Y151382D01*
X487737Y151409D01*
X487810Y151446D01*
X487882Y151482D01*
X487964Y151537D01*
X488046Y151610D01*
X488110Y151683D01*
X488119Y151692D01*
X488137Y151719D01*
X488165Y151774D01*
X488192Y151838D01*
X488219Y151910D01*
X488247Y152002D01*
X488265Y152111D01*
X488274Y152229D01*
X488274Y152248D01*
X488274Y152284D01*
X488265Y152339D01*
X488256Y152411D01*
X488238Y152503D01*
X488210Y152594D01*
X488174Y152685D01*
X488119Y152776D01*
X488110Y152785D01*
X488092Y152812D01*
X488056Y152858D01*
X488010Y152903D01*
X487946Y152958D01*
X487873Y153013D01*
X487782Y153067D01*
X487682Y153104D01*
X487673Y153104D01*
X487627Y153122D01*
X487564Y153131D01*
X487463Y153149D01*
X487327Y153168D01*
X487172Y153177D01*
X486971Y153195D01*
X486971Y153195D02*
G37*
G36*
X487135Y150553D02*
X485477Y150553D01*
X485477Y148385D01*
X487272Y148385D01*
X487463Y148394D01*
X487545Y148403D01*
X487618Y148412D01*
X487627Y148412D01*
X487664Y148421D01*
X487718Y148430D01*
X487782Y148449D01*
X487937Y148503D01*
X488092Y148576D01*
X488101Y148585D01*
X488128Y148603D01*
X488165Y148631D01*
X488210Y148667D01*
X488256Y148722D01*
X488320Y148776D01*
X488365Y148849D01*
X488420Y148931D01*
X488429Y148941D01*
X488438Y148968D01*
X488456Y149022D01*
X488484Y149086D01*
X488511Y149159D01*
X488529Y149250D01*
X488538Y149360D01*
X488547Y149469D01*
X488547Y149487D01*
X488547Y149524D01*
X488538Y149596D01*
X488520Y149678D01*
X488502Y149769D01*
X488465Y149870D01*
X488420Y149970D01*
X488356Y150070D01*
X488347Y150079D01*
X488320Y150116D01*
X488283Y150161D01*
X488229Y150216D01*
X488156Y150280D01*
X488065Y150344D01*
X487964Y150398D01*
X487846Y150444D01*
X487828Y150453D01*
X487791Y150462D01*
X487709Y150480D01*
X487609Y150498D01*
X487482Y150517D01*
X487327Y150535D01*
X487135Y150553D01*
X487135Y150553D02*
G37*
G36*
X475083Y153195D02*
X473279Y153195D01*
X473279Y150945D01*
X474973Y150945D01*
X475037Y150954D01*
X475101Y150954D01*
X475174Y150963D01*
X475347Y150981D01*
X475538Y151018D01*
X475730Y151072D01*
X475903Y151145D01*
X475985Y151191D01*
X476049Y151245D01*
X476067Y151264D01*
X476103Y151300D01*
X476158Y151373D01*
X476222Y151464D01*
X476285Y151582D01*
X476340Y151728D01*
X476376Y151892D01*
X476395Y152084D01*
X476395Y152093D01*
X476395Y152102D01*
X476395Y152147D01*
X476386Y152229D01*
X476367Y152320D01*
X476349Y152420D01*
X476313Y152539D01*
X476258Y152648D01*
X476194Y152758D01*
X476185Y152767D01*
X476158Y152803D01*
X476112Y152849D01*
X476058Y152912D01*
X475976Y152976D01*
X475884Y153031D01*
X475784Y153086D01*
X475666Y153131D01*
X475657Y153131D01*
X475620Y153140D01*
X475566Y153149D01*
X475493Y153168D01*
X475384Y153177D01*
X475247Y153186D01*
X475083Y153195D01*
X475083Y153195D02*
G37*
G36*
X510457Y151673D02*
X510402Y151673D01*
X510366Y151664D01*
X510266Y151655D01*
X510147Y151628D01*
X510002Y151582D01*
X509847Y151519D01*
X509701Y151427D01*
X509555Y151309D01*
X509537Y151291D01*
X509500Y151245D01*
X509437Y151163D01*
X509373Y151054D01*
X509300Y150926D01*
X509236Y150762D01*
X509182Y150571D01*
X509154Y150362D01*
X511714Y150362D01*
X511714Y150371D01*
X511714Y150389D01*
X511705Y150416D01*
X511705Y150453D01*
X511687Y150562D01*
X511659Y150680D01*
X511614Y150826D01*
X511568Y150963D01*
X511495Y151100D01*
X511413Y151218D01*
X511413Y151227D01*
X511395Y151236D01*
X511350Y151291D01*
X511268Y151364D01*
X511158Y151446D01*
X511022Y151528D01*
X510858Y151601D01*
X510667Y151655D01*
X510566Y151664D01*
X510457Y151673D01*
X510457Y151673D02*
G37*
G36*
X505556Y151673D02*
X505501Y151673D01*
X505465Y151664D01*
X505365Y151655D01*
X505246Y151628D01*
X505100Y151582D01*
X504945Y151519D01*
X504800Y151427D01*
X504654Y151309D01*
X504636Y151291D01*
X504599Y151245D01*
X504535Y151163D01*
X504472Y151054D01*
X504399Y150926D01*
X504335Y150762D01*
X504280Y150571D01*
X504253Y150362D01*
X506813Y150362D01*
X506813Y150371D01*
X506813Y150389D01*
X506804Y150416D01*
X506804Y150453D01*
X506786Y150562D01*
X506758Y150680D01*
X506713Y150826D01*
X506667Y150963D01*
X506594Y151100D01*
X506512Y151218D01*
X506512Y151227D01*
X506494Y151236D01*
X506449Y151291D01*
X506367Y151364D01*
X506257Y151446D01*
X506121Y151528D01*
X505957Y151601D01*
X505765Y151655D01*
X505665Y151664D01*
X505556Y151673D01*
X505556Y151673D02*
G37*
G36*
X-36462Y-677865D02*
X-37336Y-677865D01*
X-37336Y-680087D01*
X-36443Y-680087D01*
X-36279Y-680069D01*
X-36097Y-680051D01*
X-35897Y-680015D01*
X-35678Y-679960D01*
X-35496Y-679887D01*
X-35332Y-679796D01*
X-35314Y-679778D01*
X-35277Y-679741D01*
X-35223Y-679668D01*
X-35150Y-679577D01*
X-35077Y-679468D01*
X-35022Y-679322D01*
X-34986Y-679177D01*
X-34968Y-678994D01*
X-34968Y-678976D01*
X-34968Y-678921D01*
X-34986Y-678830D01*
X-35004Y-678721D01*
X-35041Y-678593D01*
X-35113Y-678448D01*
X-35186Y-678320D01*
X-35296Y-678193D01*
X-35314Y-678174D01*
X-35350Y-678138D01*
X-35441Y-678083D01*
X-35551Y-678029D01*
X-35715Y-677974D01*
X-35915Y-677919D01*
X-36170Y-677883D01*
X-36462Y-677865D01*
X-36462Y-677865D02*
G37*
G36*
X-96497Y-678448D02*
X-97590Y-682019D01*
X-95403Y-682019D01*
X-96497Y-678448D01*
X-96497Y-678448D02*
G37*
%LPD*%
D15*
X251720Y-694528D02*
X251720Y-699028D01*
X251720Y-694528D02*
X253649Y-694528D01*
X254291Y-694743D01*
X254506Y-694957D01*
X254720Y-695386D01*
X254720Y-695814D01*
X254506Y-696242D01*
X254291Y-696457D01*
X253649Y-696671D01*
X251720Y-696671D02*
X253649Y-696671D01*
X254291Y-696885D01*
X254506Y-697099D01*
X254720Y-697528D01*
X254720Y-698171D01*
X254506Y-698599D01*
X254291Y-698813D01*
X253649Y-699028D01*
X251720Y-699028D01*
X257012Y-694528D02*
X256584Y-694743D01*
X256155Y-695171D01*
X255941Y-695600D01*
X255727Y-696242D01*
X255727Y-697314D01*
X255941Y-697956D01*
X256155Y-698385D01*
X256584Y-698813D01*
X257012Y-699028D01*
X257869Y-699028D01*
X258298Y-698813D01*
X258726Y-698385D01*
X258940Y-697956D01*
X259155Y-697314D01*
X259155Y-696242D01*
X258940Y-695600D01*
X258726Y-695171D01*
X258298Y-694743D01*
X257869Y-694528D01*
X257012Y-694528D01*
X263632Y-699028D02*
X261918Y-694528D01*
X260204Y-699028D01*
X260847Y-697528D02*
X262989Y-697528D01*
X264682Y-694528D02*
X264682Y-699028D01*
X264682Y-694528D02*
X266610Y-694528D01*
X267253Y-694743D01*
X267467Y-694957D01*
X267681Y-695386D01*
X267681Y-695814D01*
X267467Y-696242D01*
X267253Y-696457D01*
X266610Y-696671D01*
X264682Y-696671D01*
X266182Y-696671D02*
X267681Y-699028D01*
X268688Y-694528D02*
X268688Y-699028D01*
X268688Y-694528D02*
X270188Y-694528D01*
X270831Y-694743D01*
X271259Y-695171D01*
X271473Y-695600D01*
X271688Y-696242D01*
X271688Y-697314D01*
X271473Y-697956D01*
X271259Y-698385D01*
X270831Y-698813D01*
X270188Y-699028D01*
X268688Y-699028D01*
X276230Y-694528D02*
X276230Y-699028D01*
X276230Y-694528D02*
X279229Y-699028D01*
X279229Y-694528D02*
X279229Y-699028D01*
X283899Y-699028D02*
X282185Y-694528D01*
X280471Y-699028D01*
X281114Y-697528D02*
X283257Y-697528D01*
X284949Y-694528D02*
X284949Y-699028D01*
X284949Y-694528D02*
X286663Y-699028D01*
X288377Y-694528D02*
X286663Y-699028D01*
X288377Y-694528D02*
X288377Y-699028D01*
X292447Y-694528D02*
X289662Y-694528D01*
X289662Y-699028D01*
X292447Y-699028D01*
X289662Y-696671D02*
X291376Y-696671D01*
X293411Y-696028D02*
X293197Y-696242D01*
X293411Y-696457D01*
X293626Y-696242D01*
X293411Y-696028D01*
X293411Y-698599D02*
X293197Y-698813D01*
X293411Y-699028D01*
X293626Y-698813D01*
X293411Y-698599D01*
X464720Y-755644D02*
X464291Y-755215D01*
X463649Y-755001D01*
X462792Y-755001D01*
X462149Y-755215D01*
X461721Y-755644D01*
X461721Y-756072D01*
X461935Y-756501D01*
X462149Y-756715D01*
X462577Y-756929D01*
X463863Y-757358D01*
X464291Y-757572D01*
X464506Y-757786D01*
X464720Y-758215D01*
X464720Y-758857D01*
X464291Y-759286D01*
X463649Y-759500D01*
X462792Y-759500D01*
X462149Y-759286D01*
X461721Y-758857D01*
X468940Y-756072D02*
X468726Y-755644D01*
X468298Y-755215D01*
X467869Y-755001D01*
X467012Y-755001D01*
X466584Y-755215D01*
X466155Y-755644D01*
X465941Y-756072D01*
X465727Y-756715D01*
X465727Y-757786D01*
X465941Y-758429D01*
X466155Y-758857D01*
X466584Y-759286D01*
X467012Y-759500D01*
X467869Y-759500D01*
X468298Y-759286D01*
X468726Y-758857D01*
X468940Y-758429D01*
X473632Y-759500D02*
X471918Y-755001D01*
X470204Y-759500D01*
X470847Y-758000D02*
X472990Y-758000D01*
X474682Y-755001D02*
X474682Y-759500D01*
X477253Y-759500D01*
X480531Y-755001D02*
X477746Y-755001D01*
X477746Y-759500D01*
X480531Y-759500D01*
X477746Y-757143D02*
X479459Y-757143D01*
X481495Y-756501D02*
X481281Y-756715D01*
X481495Y-756929D01*
X481709Y-756715D01*
X481495Y-756501D01*
X481495Y-759071D02*
X481281Y-759286D01*
X481495Y-759500D01*
X481709Y-759286D01*
X481495Y-759071D01*
X33453Y-755001D02*
X33453Y-759500D01*
X33453Y-755001D02*
X36238Y-755001D01*
X33453Y-757143D02*
X35167Y-757143D01*
X36752Y-755001D02*
X36752Y-759500D01*
X37695Y-755001D02*
X37695Y-759500D01*
X40266Y-759500D01*
X43543Y-755001D02*
X40758Y-755001D01*
X40758Y-759500D01*
X43543Y-759500D01*
X40758Y-757143D02*
X42472Y-757143D01*
X47828Y-755001D02*
X47828Y-759500D01*
X47828Y-755001D02*
X50828Y-759500D01*
X50828Y-755001D02*
X50828Y-759500D01*
X55498Y-759500D02*
X53784Y-755001D01*
X52070Y-759500D01*
X52713Y-758000D02*
X54855Y-758000D01*
X56548Y-755001D02*
X56548Y-759500D01*
X56548Y-755001D02*
X58262Y-759500D01*
X59976Y-755001D02*
X58262Y-759500D01*
X59976Y-755001D02*
X59976Y-759500D01*
X64046Y-755001D02*
X61261Y-755001D01*
X61261Y-759500D01*
X64046Y-759500D01*
X61261Y-757143D02*
X62975Y-757143D01*
X65010Y-756501D02*
X64796Y-756715D01*
X65010Y-756929D01*
X65224Y-756715D01*
X65010Y-756501D01*
X65010Y-759071D02*
X64796Y-759286D01*
X65010Y-759500D01*
X65224Y-759286D01*
X65010Y-759071D01*
X33453Y-696858D02*
X35381Y-696858D01*
X36024Y-696643D01*
X36238Y-696429D01*
X36452Y-696001D01*
X36452Y-695358D01*
X36238Y-694929D01*
X36024Y-694715D01*
X35381Y-694501D01*
X33453Y-694501D01*
X33453Y-699000D01*
X40673Y-695572D02*
X40458Y-695144D01*
X40030Y-694715D01*
X39601Y-694501D01*
X38745Y-694501D01*
X38316Y-694715D01*
X37887Y-695144D01*
X37673Y-695572D01*
X37459Y-696215D01*
X37459Y-697286D01*
X37673Y-697929D01*
X37887Y-698357D01*
X38316Y-698786D01*
X38745Y-699000D01*
X39601Y-699000D01*
X40030Y-698786D01*
X40458Y-698357D01*
X40673Y-697929D01*
X41937Y-694501D02*
X41937Y-699000D01*
X41937Y-694501D02*
X43865Y-694501D01*
X44508Y-694715D01*
X44722Y-694929D01*
X44936Y-695358D01*
X44936Y-695786D01*
X44722Y-696215D01*
X44508Y-696429D01*
X43865Y-696643D01*
X41937Y-696643D02*
X43865Y-696643D01*
X44508Y-696858D01*
X44722Y-697072D01*
X44936Y-697500D01*
X44936Y-698143D01*
X44722Y-698571D01*
X44508Y-698786D01*
X43865Y-699000D01*
X41937Y-699000D01*
X49478Y-694501D02*
X49478Y-699000D01*
X49478Y-694501D02*
X50978Y-694501D01*
X51620Y-694715D01*
X52049Y-695144D01*
X52263Y-695572D01*
X52477Y-696215D01*
X52477Y-697286D01*
X52263Y-697929D01*
X52049Y-698357D01*
X51620Y-698786D01*
X50978Y-699000D01*
X49478Y-699000D01*
X56269Y-694501D02*
X53484Y-694501D01*
X53484Y-699000D01*
X56269Y-699000D01*
X53484Y-696643D02*
X55198Y-696643D01*
X60018Y-695144D02*
X59590Y-694715D01*
X58947Y-694501D01*
X58090Y-694501D01*
X57448Y-694715D01*
X57019Y-695144D01*
X57019Y-695572D01*
X57233Y-696001D01*
X57448Y-696215D01*
X57876Y-696429D01*
X59162Y-696858D01*
X59590Y-697072D01*
X59804Y-697286D01*
X60018Y-697715D01*
X60018Y-698357D01*
X59590Y-698786D01*
X58947Y-699000D01*
X58090Y-699000D01*
X57448Y-698786D01*
X57019Y-698357D01*
X61025Y-694501D02*
X61025Y-699000D01*
X65182Y-695572D02*
X64967Y-695144D01*
X64539Y-694715D01*
X64110Y-694501D01*
X63253Y-694501D01*
X62825Y-694715D01*
X62397Y-695144D01*
X62182Y-695572D01*
X61968Y-696215D01*
X61968Y-697286D01*
X62182Y-697929D01*
X62397Y-698357D01*
X62825Y-698786D01*
X63253Y-699000D01*
X64110Y-699000D01*
X64539Y-698786D01*
X64967Y-698357D01*
X65182Y-697929D01*
X65182Y-697286D01*
X64110Y-697286D02*
X65182Y-697286D01*
X66210Y-694501D02*
X66210Y-699000D01*
X66210Y-694501D02*
X69209Y-699000D01*
X69209Y-694501D02*
X69209Y-699000D01*
X73237Y-694501D02*
X70452Y-694501D01*
X70452Y-699000D01*
X73237Y-699000D01*
X70452Y-696643D02*
X72166Y-696643D01*
X73987Y-694501D02*
X73987Y-699000D01*
X73987Y-694501D02*
X75915Y-694501D01*
X76558Y-694715D01*
X76772Y-694929D01*
X76986Y-695358D01*
X76986Y-695786D01*
X76772Y-696215D01*
X76558Y-696429D01*
X75915Y-696643D01*
X73987Y-696643D01*
X75487Y-696643D02*
X76986Y-699000D01*
X78207Y-696001D02*
X77993Y-696215D01*
X78207Y-696429D01*
X78422Y-696215D01*
X78207Y-696001D01*
X78207Y-698571D02*
X77993Y-698786D01*
X78207Y-699000D01*
X78422Y-698786D01*
X78207Y-698571D01*
X251720Y-667358D02*
X253649Y-667358D01*
X254291Y-667143D01*
X254506Y-666929D01*
X254720Y-666501D01*
X254720Y-665858D01*
X254506Y-665429D01*
X254291Y-665215D01*
X253649Y-665001D01*
X251720Y-665001D01*
X251720Y-669500D01*
X255727Y-665001D02*
X255727Y-669500D01*
X255727Y-665001D02*
X257655Y-665001D01*
X258298Y-665215D01*
X258512Y-665429D01*
X258726Y-665858D01*
X258726Y-666286D01*
X258512Y-666715D01*
X258298Y-666929D01*
X257655Y-667143D01*
X255727Y-667143D01*
X257226Y-667143D02*
X258726Y-669500D01*
X261018Y-665001D02*
X260590Y-665215D01*
X260161Y-665644D01*
X259947Y-666072D01*
X259733Y-666715D01*
X259733Y-667786D01*
X259947Y-668429D01*
X260161Y-668857D01*
X260590Y-669286D01*
X261018Y-669500D01*
X261875Y-669500D01*
X262304Y-669286D01*
X262732Y-668857D01*
X262947Y-668429D01*
X263161Y-667786D01*
X263161Y-666715D01*
X262947Y-666072D01*
X262732Y-665644D01*
X262304Y-665215D01*
X261875Y-665001D01*
X261018Y-665001D01*
X266353Y-665001D02*
X266353Y-668429D01*
X266139Y-669071D01*
X265925Y-669286D01*
X265496Y-669500D01*
X265068Y-669500D01*
X264639Y-669286D01*
X264425Y-669071D01*
X264211Y-668429D01*
X264211Y-668000D01*
X270295Y-665001D02*
X267510Y-665001D01*
X267510Y-669500D01*
X270295Y-669500D01*
X267510Y-667143D02*
X269224Y-667143D01*
X274258Y-666072D02*
X274044Y-665644D01*
X273616Y-665215D01*
X273187Y-665001D01*
X272330Y-665001D01*
X271902Y-665215D01*
X271473Y-665644D01*
X271259Y-666072D01*
X271045Y-666715D01*
X271045Y-667786D01*
X271259Y-668429D01*
X271473Y-668857D01*
X271902Y-669286D01*
X272330Y-669500D01*
X273187Y-669500D01*
X273616Y-669286D01*
X274044Y-668857D01*
X274258Y-668429D01*
X277022Y-665001D02*
X277022Y-669500D01*
X275522Y-665001D02*
X278522Y-665001D01*
X282592Y-665001D02*
X282592Y-669500D01*
X282592Y-665001D02*
X285592Y-669500D01*
X285592Y-665001D02*
X285592Y-669500D01*
X290262Y-669500D02*
X288548Y-665001D01*
X286834Y-669500D01*
X287477Y-668000D02*
X289619Y-668000D01*
X291312Y-665001D02*
X291312Y-669500D01*
X291312Y-665001D02*
X293026Y-669500D01*
X294740Y-665001D02*
X293026Y-669500D01*
X294740Y-665001D02*
X294740Y-669500D01*
X298810Y-665001D02*
X296025Y-665001D01*
X296025Y-669500D01*
X298810Y-669500D01*
X296025Y-667143D02*
X297739Y-667143D01*
X299775Y-666501D02*
X299560Y-666715D01*
X299775Y-666929D01*
X299989Y-666715D01*
X299775Y-666501D01*
X299775Y-669071D02*
X299560Y-669286D01*
X299775Y-669500D01*
X299989Y-669286D01*
X299775Y-669071D01*
X251720Y-727358D02*
X253649Y-727358D01*
X254291Y-727143D01*
X254506Y-726929D01*
X254720Y-726501D01*
X254720Y-725858D01*
X254506Y-725429D01*
X254291Y-725215D01*
X253649Y-725001D01*
X251720Y-725001D01*
X251720Y-729500D01*
X259155Y-729500D02*
X257441Y-725001D01*
X255727Y-729500D01*
X256369Y-728000D02*
X258512Y-728000D01*
X260204Y-725001D02*
X260204Y-729500D01*
X260204Y-725001D02*
X262133Y-725001D01*
X262775Y-725215D01*
X262989Y-725429D01*
X263204Y-725858D01*
X263204Y-726286D01*
X262989Y-726715D01*
X262775Y-726929D01*
X262133Y-727143D01*
X260204Y-727143D01*
X261704Y-727143D02*
X263204Y-729500D01*
X265710Y-725001D02*
X265710Y-729500D01*
X264211Y-725001D02*
X267210Y-725001D01*
X271281Y-725001D02*
X271281Y-729500D01*
X271281Y-725001D02*
X274280Y-729500D01*
X274280Y-725001D02*
X274280Y-729500D01*
X276808Y-725001D02*
X276379Y-725215D01*
X275951Y-725644D01*
X275737Y-726072D01*
X275522Y-726715D01*
X275522Y-727786D01*
X275737Y-728429D01*
X275951Y-728857D01*
X276379Y-729286D01*
X276808Y-729500D01*
X277665Y-729500D01*
X278093Y-729286D01*
X278522Y-728857D01*
X278736Y-728429D01*
X278950Y-727786D01*
X278950Y-726715D01*
X278736Y-726072D01*
X278522Y-725644D01*
X278093Y-725215D01*
X277665Y-725001D01*
X276808Y-725001D01*
X280214Y-729072D02*
X280000Y-729286D01*
X280214Y-729500D01*
X280429Y-729286D01*
X280214Y-729072D01*
X281628Y-726501D02*
X281414Y-726715D01*
X281628Y-726929D01*
X281843Y-726715D01*
X281628Y-726501D01*
X281628Y-729072D02*
X281414Y-729286D01*
X281628Y-729500D01*
X281843Y-729286D01*
X281628Y-729072D01*
X36238Y-665001D02*
X33453Y-665001D01*
X33453Y-669500D01*
X36238Y-669500D01*
X33453Y-667143D02*
X35167Y-667143D01*
X36988Y-665001D02*
X36988Y-669500D01*
X36988Y-665001D02*
X39987Y-669500D01*
X39987Y-665001D02*
X39987Y-669500D01*
X44443Y-666072D02*
X44229Y-665644D01*
X43801Y-665215D01*
X43372Y-665001D01*
X42515Y-665001D01*
X42087Y-665215D01*
X41658Y-665644D01*
X41444Y-666072D01*
X41230Y-666715D01*
X41230Y-667786D01*
X41444Y-668429D01*
X41658Y-668857D01*
X42087Y-669286D01*
X42515Y-669500D01*
X43372Y-669500D01*
X43801Y-669286D01*
X44229Y-668857D01*
X44443Y-668429D01*
X44443Y-667786D01*
X43372Y-667786D02*
X44443Y-667786D01*
X45472Y-665001D02*
X45472Y-669500D01*
X46414Y-665001D02*
X46414Y-669500D01*
X46414Y-665001D02*
X49414Y-669500D01*
X49414Y-665001D02*
X49414Y-669500D01*
X53441Y-665001D02*
X50656Y-665001D01*
X50656Y-669500D01*
X53441Y-669500D01*
X50656Y-667143D02*
X52370Y-667143D01*
X56976Y-665001D02*
X54191Y-665001D01*
X54191Y-669500D01*
X56976Y-669500D01*
X54191Y-667143D02*
X55905Y-667143D01*
X57726Y-665001D02*
X57726Y-669500D01*
X57726Y-665001D02*
X59654Y-665001D01*
X60297Y-665215D01*
X60511Y-665429D01*
X60725Y-665858D01*
X60725Y-666286D01*
X60511Y-666715D01*
X60297Y-666929D01*
X59654Y-667143D01*
X57726Y-667143D01*
X59226Y-667143D02*
X60725Y-669500D01*
X61947Y-666501D02*
X61732Y-666715D01*
X61947Y-666929D01*
X62161Y-666715D01*
X61947Y-666501D01*
X61947Y-669071D02*
X61732Y-669286D01*
X61947Y-669500D01*
X62161Y-669286D01*
X61947Y-669071D01*
X254720Y-755644D02*
X254291Y-755215D01*
X253649Y-755001D01*
X252792Y-755001D01*
X252149Y-755215D01*
X251720Y-755644D01*
X251720Y-756072D01*
X251935Y-756501D01*
X252149Y-756715D01*
X252577Y-756929D01*
X253863Y-757358D01*
X254291Y-757572D01*
X254506Y-757786D01*
X254720Y-758215D01*
X254720Y-758857D01*
X254291Y-759286D01*
X253649Y-759500D01*
X252792Y-759500D01*
X252149Y-759286D01*
X251720Y-758857D01*
X258940Y-756072D02*
X258726Y-755644D01*
X258298Y-755215D01*
X257869Y-755001D01*
X257012Y-755001D01*
X256584Y-755215D01*
X256155Y-755644D01*
X255941Y-756072D01*
X255727Y-756715D01*
X255727Y-757786D01*
X255941Y-758429D01*
X256155Y-758857D01*
X256584Y-759286D01*
X257012Y-759500D01*
X257869Y-759500D01*
X258298Y-759286D01*
X258726Y-758857D01*
X258940Y-758429D01*
X260204Y-755001D02*
X260204Y-759500D01*
X263204Y-755001D02*
X263204Y-759500D01*
X260204Y-757143D02*
X263204Y-757143D01*
X264661Y-759071D02*
X264446Y-759286D01*
X264661Y-759500D01*
X264875Y-759286D01*
X264661Y-759071D01*
X269395Y-755001D02*
X269395Y-759500D01*
X269395Y-755001D02*
X272395Y-759500D01*
X272395Y-755001D02*
X272395Y-759500D01*
X274923Y-755001D02*
X274494Y-755215D01*
X274066Y-755644D01*
X273851Y-756072D01*
X273637Y-756715D01*
X273637Y-757786D01*
X273851Y-758429D01*
X274066Y-758857D01*
X274494Y-759286D01*
X274923Y-759500D01*
X275780Y-759500D01*
X276208Y-759286D01*
X276637Y-758857D01*
X276851Y-758429D01*
X277065Y-757786D01*
X277065Y-756715D01*
X276851Y-756072D01*
X276637Y-755644D01*
X276208Y-755215D01*
X275780Y-755001D01*
X274923Y-755001D01*
X278329Y-759071D02*
X278115Y-759286D01*
X278329Y-759500D01*
X278543Y-759286D01*
X278329Y-759071D01*
X279743Y-756501D02*
X279529Y-756715D01*
X279743Y-756929D01*
X279957Y-756715D01*
X279743Y-756501D01*
X279743Y-759071D02*
X279529Y-759286D01*
X279743Y-759500D01*
X279957Y-759286D01*
X279743Y-759071D01*
X461721Y-725001D02*
X463434Y-729500D01*
X465148Y-725001D02*
X463434Y-729500D01*
X465727Y-727786D02*
X468298Y-727786D01*
X468298Y-727358D01*
X468083Y-726929D01*
X467869Y-726715D01*
X467441Y-726501D01*
X466798Y-726501D01*
X466369Y-726715D01*
X465941Y-727143D01*
X465727Y-727786D01*
X465727Y-728215D01*
X465941Y-728857D01*
X466369Y-729286D01*
X466798Y-729500D01*
X467441Y-729500D01*
X467869Y-729286D01*
X468298Y-728857D01*
X469262Y-726501D02*
X469262Y-729500D01*
X469262Y-727786D02*
X469476Y-727143D01*
X469904Y-726715D01*
X470333Y-726501D01*
X470976Y-726501D01*
X471597Y-726501D02*
X471383Y-726715D01*
X471597Y-726929D01*
X471811Y-726715D01*
X471597Y-726501D01*
X471597Y-729072D02*
X471383Y-729286D01*
X471597Y-729500D01*
X471811Y-729286D01*
X471597Y-729072D01*
X33453Y-725001D02*
X33453Y-729500D01*
X33453Y-725001D02*
X34952Y-725001D01*
X35595Y-725215D01*
X36024Y-725644D01*
X36238Y-726072D01*
X36452Y-726715D01*
X36452Y-727786D01*
X36238Y-728429D01*
X36024Y-728857D01*
X35595Y-729286D01*
X34952Y-729500D01*
X33453Y-729500D01*
X40887Y-729500D02*
X39173Y-725001D01*
X37459Y-729500D01*
X38102Y-728000D02*
X40244Y-728000D01*
X43436Y-725001D02*
X43436Y-729500D01*
X41937Y-725001D02*
X44936Y-725001D01*
X48257Y-725001D02*
X45472Y-725001D01*
X45472Y-729500D01*
X48257Y-729500D01*
X45472Y-727143D02*
X47186Y-727143D01*
X49221Y-726501D02*
X49007Y-726715D01*
X49221Y-726929D01*
X49435Y-726715D01*
X49221Y-726501D01*
X49221Y-729072D02*
X49007Y-729286D01*
X49221Y-729500D01*
X49435Y-729286D01*
X49221Y-729072D01*
D17*
X-220000Y-800000D02*
X-220000Y369291D01*
X-141260Y76968D02*
X-121575Y76968D01*
X114921Y-800000D02*
X114921Y-780315D01*
X350866Y-800000D02*
X350866Y-780315D01*
X-121575Y-780315D02*
X587087Y-780315D01*
X-220000Y-800000D02*
X606772Y-800000D01*
X587087Y-780315D02*
X587087Y349606D01*
X587087Y76968D02*
X606772Y76968D01*
X587087Y-215354D02*
X606772Y-215354D01*
X587087Y-507677D02*
X606772Y-507677D01*
X-121575Y349606D02*
X587087Y349606D01*
X-121575Y-780315D02*
X-121575Y349606D01*
X-141260Y-215354D02*
X-121575Y-215354D01*
X-141260Y-507677D02*
X-121575Y-507677D01*
X246721Y-780315D02*
X246721Y-719500D01*
X456720Y-780315D02*
X456720Y-719500D01*
X28453Y-780315D02*
X28453Y-659500D01*
X286720Y-659500D02*
X587087Y-659500D01*
X246721Y-719500D02*
X246721Y-659500D01*
X136721Y-659500D02*
X286720Y-659500D01*
X28453Y-719500D02*
X587087Y-719500D01*
X28453Y-749500D02*
X587087Y-749500D01*
X28453Y-689500D02*
X587087Y-689500D01*
X-121575Y-659500D02*
X136721Y-659500D01*
X-141260Y-800000D02*
X-141260Y369291D01*
X-220000Y369291D02*
X606772Y369291D01*
X606772Y-800000D02*
X606772Y369291D01*
X350866Y349606D02*
X350866Y369291D01*
X114921Y349606D02*
X114921Y369291D01*
D18*
X314380Y-703405D02*
X313817Y-702280D01*
X312693Y-701155D01*
X311568Y-700593D01*
X309319Y-700593D01*
X308194Y-701155D01*
X307069Y-702280D01*
X306507Y-703405D01*
X305945Y-705092D01*
X305945Y-707903D01*
X306507Y-709590D01*
X307069Y-710715D01*
X308194Y-711839D01*
X309319Y-712402D01*
X311568Y-712402D01*
X312693Y-711839D01*
X313817Y-710715D01*
X314380Y-709590D01*
X320509Y-704529D02*
X319384Y-705092D01*
X318260Y-706216D01*
X317697Y-707903D01*
X317697Y-709028D01*
X318260Y-710715D01*
X319384Y-711839D01*
X320509Y-712402D01*
X322196Y-712402D01*
X323320Y-711839D01*
X324445Y-710715D01*
X325007Y-709028D01*
X325007Y-707903D01*
X324445Y-706216D01*
X323320Y-705092D01*
X322196Y-704529D01*
X320509Y-704529D01*
X327594Y-704529D02*
X327594Y-712402D01*
X327594Y-706778D02*
X329281Y-705092D01*
X330405Y-704529D01*
X332092Y-704529D01*
X333217Y-705092D01*
X333779Y-706778D01*
X333779Y-712402D01*
X338559Y-700593D02*
X338559Y-710152D01*
X339121Y-711839D01*
X340246Y-712402D01*
X341370Y-712402D01*
X336872Y-704529D02*
X340808Y-704529D01*
X343057Y-704529D02*
X343057Y-712402D01*
X343057Y-707903D02*
X343620Y-706216D01*
X344744Y-705092D01*
X345869Y-704529D01*
X347556Y-704529D01*
X351436Y-704529D02*
X350311Y-705092D01*
X349186Y-706216D01*
X348624Y-707903D01*
X348624Y-709028D01*
X349186Y-710715D01*
X350311Y-711839D01*
X351436Y-712402D01*
X353123Y-712402D01*
X354247Y-711839D01*
X355372Y-710715D01*
X355934Y-709028D01*
X355934Y-707903D01*
X355372Y-706216D01*
X354247Y-705092D01*
X353123Y-704529D01*
X351436Y-704529D01*
X358521Y-700593D02*
X358521Y-712402D01*
X360995Y-716338D02*
X369992Y-716338D01*
X371510Y-700593D02*
X371510Y-712402D01*
X371510Y-700593D02*
X376571Y-700593D01*
X378258Y-701155D01*
X378820Y-701718D01*
X379382Y-702842D01*
X379382Y-703967D01*
X378820Y-705092D01*
X378258Y-705654D01*
X376571Y-706216D01*
X371510Y-706216D02*
X376571Y-706216D01*
X378258Y-706778D01*
X378820Y-707341D01*
X379382Y-708465D01*
X379382Y-710152D01*
X378820Y-711277D01*
X378258Y-711839D01*
X376571Y-712402D01*
X371510Y-712402D01*
X384837Y-704529D02*
X383712Y-705092D01*
X382588Y-706216D01*
X382025Y-707903D01*
X382025Y-709028D01*
X382588Y-710715D01*
X383712Y-711839D01*
X384837Y-712402D01*
X386524Y-712402D01*
X387648Y-711839D01*
X388773Y-710715D01*
X389335Y-709028D01*
X389335Y-707903D01*
X388773Y-706216D01*
X387648Y-705092D01*
X386524Y-704529D01*
X384837Y-704529D01*
X398670Y-704529D02*
X398670Y-712402D01*
X398670Y-706216D02*
X397545Y-705092D01*
X396420Y-704529D01*
X394734Y-704529D01*
X393609Y-705092D01*
X392484Y-706216D01*
X391922Y-707903D01*
X391922Y-709028D01*
X392484Y-710715D01*
X393609Y-711839D01*
X394734Y-712402D01*
X396420Y-712402D01*
X397545Y-711839D01*
X398670Y-710715D01*
X401819Y-704529D02*
X401819Y-712402D01*
X401819Y-707903D02*
X402381Y-706216D01*
X403506Y-705092D01*
X404630Y-704529D01*
X406317Y-704529D01*
X414133Y-700593D02*
X414133Y-712402D01*
X414133Y-706216D02*
X413008Y-705092D01*
X411884Y-704529D01*
X410197Y-704529D01*
X409072Y-705092D01*
X407948Y-706216D01*
X407385Y-707903D01*
X407385Y-709028D01*
X407948Y-710715D01*
X409072Y-711839D01*
X410197Y-712402D01*
X411884Y-712402D01*
X413008Y-711839D01*
X414133Y-710715D01*
X306507Y-761757D02*
X305945Y-761195D01*
X306507Y-760632D01*
X307069Y-761195D01*
X307069Y-762319D01*
X306507Y-763444D01*
X305945Y-764006D01*
X310218Y-771316D02*
X309656Y-771879D01*
X310218Y-772441D01*
X310781Y-771879D01*
X310218Y-771316D01*
X313367Y-766818D02*
X318428Y-766818D01*
X320115Y-766256D01*
X320677Y-765693D01*
X321240Y-764569D01*
X321240Y-762882D01*
X320677Y-761757D01*
X320115Y-761195D01*
X318428Y-760632D01*
X313367Y-760632D01*
X313367Y-772441D01*
X323883Y-764569D02*
X323883Y-772441D01*
X323883Y-767942D02*
X324445Y-766256D01*
X325570Y-765131D01*
X326694Y-764569D01*
X328381Y-764569D01*
X332261Y-764569D02*
X331136Y-765131D01*
X330012Y-766256D01*
X329449Y-767942D01*
X329449Y-769067D01*
X330012Y-770754D01*
X331136Y-771879D01*
X332261Y-772441D01*
X333948Y-772441D01*
X335072Y-771879D01*
X336197Y-770754D01*
X336759Y-769067D01*
X336759Y-767942D01*
X336197Y-766256D01*
X335072Y-765131D01*
X333948Y-764569D01*
X332261Y-764569D01*
X341595Y-760632D02*
X342158Y-761195D01*
X342720Y-760632D01*
X342158Y-760070D01*
X341595Y-760632D01*
X342158Y-764569D02*
X342158Y-774128D01*
X341595Y-775815D01*
X340471Y-776377D01*
X339346Y-776377D01*
X344913Y-767942D02*
X351661Y-767942D01*
X351661Y-766818D01*
X351098Y-765693D01*
X350536Y-765131D01*
X349411Y-764569D01*
X347725Y-764569D01*
X346600Y-765131D01*
X345475Y-766256D01*
X344913Y-767942D01*
X344913Y-769067D01*
X345475Y-770754D01*
X346600Y-771879D01*
X347725Y-772441D01*
X349411Y-772441D01*
X350536Y-771879D01*
X351661Y-770754D01*
X360939Y-766256D02*
X359814Y-765131D01*
X358689Y-764569D01*
X357003Y-764569D01*
X355878Y-765131D01*
X354753Y-766256D01*
X354191Y-767942D01*
X354191Y-769067D01*
X354753Y-770754D01*
X355878Y-771879D01*
X357003Y-772441D01*
X358689Y-772441D01*
X359814Y-771879D01*
X360939Y-770754D01*
X365156Y-760632D02*
X365156Y-770192D01*
X365718Y-771879D01*
X366843Y-772441D01*
X367968Y-772441D01*
X363469Y-764569D02*
X367405Y-764569D01*
X369654Y-760632D02*
X369654Y-772441D01*
X369654Y-760632D02*
X377527Y-772441D01*
X377527Y-760632D02*
X377527Y-772441D01*
X380788Y-764569D02*
X380788Y-770192D01*
X381350Y-771879D01*
X382475Y-772441D01*
X384162Y-772441D01*
X385287Y-771879D01*
X386974Y-770192D01*
X386974Y-764569D02*
X386974Y-772441D01*
X390066Y-764569D02*
X390066Y-772441D01*
X390066Y-766818D02*
X391753Y-765131D01*
X392878Y-764569D01*
X394565Y-764569D01*
X395689Y-765131D01*
X396252Y-766818D01*
X396252Y-772441D01*
X396252Y-766818D02*
X397939Y-765131D01*
X399063Y-764569D01*
X400750Y-764569D01*
X401875Y-765131D01*
X402437Y-766818D01*
X402437Y-772441D01*
X406148Y-760632D02*
X406148Y-772441D01*
X406148Y-766256D02*
X407273Y-765131D01*
X408398Y-764569D01*
X410084Y-764569D01*
X411209Y-765131D01*
X412334Y-766256D01*
X412896Y-767942D01*
X412896Y-769067D01*
X412334Y-770754D01*
X411209Y-771879D01*
X410084Y-772441D01*
X408398Y-772441D01*
X407273Y-771879D01*
X406148Y-770754D01*
X415426Y-767942D02*
X422174Y-767942D01*
X422174Y-766818D01*
X421612Y-765693D01*
X421050Y-765131D01*
X419925Y-764569D01*
X418238Y-764569D01*
X417113Y-765131D01*
X415989Y-766256D01*
X415426Y-767942D01*
X415426Y-769067D01*
X415989Y-770754D01*
X417113Y-771879D01*
X418238Y-772441D01*
X419925Y-772441D01*
X421050Y-771879D01*
X422174Y-770754D01*
X424705Y-764569D02*
X424705Y-772441D01*
X424705Y-767942D02*
X425267Y-766256D01*
X426392Y-765131D01*
X427516Y-764569D01*
X429203Y-764569D01*
X430834Y-761757D02*
X430271Y-761195D01*
X430834Y-760632D01*
X431396Y-761195D01*
X431396Y-762319D01*
X430834Y-763444D01*
X430271Y-764006D01*
X306507Y-671206D02*
X305945Y-670644D01*
X306507Y-670081D01*
X307069Y-670644D01*
X307069Y-671768D01*
X306507Y-672893D01*
X305945Y-673455D01*
X310218Y-680765D02*
X309656Y-681327D01*
X310218Y-681890D01*
X310781Y-681327D01*
X310218Y-680765D01*
X313367Y-676267D02*
X318428Y-676267D01*
X320115Y-675704D01*
X320677Y-675142D01*
X321240Y-674017D01*
X321240Y-672331D01*
X320677Y-671206D01*
X320115Y-670644D01*
X318428Y-670081D01*
X313367Y-670081D01*
X313367Y-681890D01*
X323883Y-674017D02*
X323883Y-681890D01*
X323883Y-677391D02*
X324445Y-675704D01*
X325570Y-674580D01*
X326694Y-674017D01*
X328381Y-674017D01*
X332261Y-674017D02*
X331136Y-674580D01*
X330012Y-675704D01*
X329449Y-677391D01*
X329449Y-678516D01*
X330012Y-680203D01*
X331136Y-681327D01*
X332261Y-681890D01*
X333948Y-681890D01*
X335072Y-681327D01*
X336197Y-680203D01*
X336759Y-678516D01*
X336759Y-677391D01*
X336197Y-675704D01*
X335072Y-674580D01*
X333948Y-674017D01*
X332261Y-674017D01*
X341595Y-670081D02*
X342158Y-670644D01*
X342720Y-670081D01*
X342158Y-669519D01*
X341595Y-670081D01*
X342158Y-674017D02*
X342158Y-683577D01*
X341595Y-685264D01*
X340471Y-685826D01*
X339346Y-685826D01*
X344913Y-677391D02*
X351661Y-677391D01*
X351661Y-676267D01*
X351098Y-675142D01*
X350536Y-674580D01*
X349411Y-674017D01*
X347725Y-674017D01*
X346600Y-674580D01*
X345475Y-675704D01*
X344913Y-677391D01*
X344913Y-678516D01*
X345475Y-680203D01*
X346600Y-681327D01*
X347725Y-681890D01*
X349411Y-681890D01*
X350536Y-681327D01*
X351661Y-680203D01*
X360939Y-675704D02*
X359814Y-674580D01*
X358689Y-674017D01*
X357003Y-674017D01*
X355878Y-674580D01*
X354753Y-675704D01*
X354191Y-677391D01*
X354191Y-678516D01*
X354753Y-680203D01*
X355878Y-681327D01*
X357003Y-681890D01*
X358689Y-681890D01*
X359814Y-681327D01*
X360939Y-680203D01*
X365156Y-670081D02*
X365156Y-679640D01*
X365718Y-681327D01*
X366843Y-681890D01*
X367968Y-681890D01*
X363469Y-674017D02*
X367405Y-674017D01*
X369654Y-670081D02*
X369654Y-681890D01*
X369654Y-670081D02*
X377527Y-681890D01*
X377527Y-670081D02*
X377527Y-681890D01*
X387536Y-674017D02*
X387536Y-681890D01*
X387536Y-675704D02*
X386411Y-674580D01*
X385287Y-674017D01*
X383600Y-674017D01*
X382475Y-674580D01*
X381350Y-675704D01*
X380788Y-677391D01*
X380788Y-678516D01*
X381350Y-680203D01*
X382475Y-681327D01*
X383600Y-681890D01*
X385287Y-681890D01*
X386411Y-681327D01*
X387536Y-680203D01*
X390685Y-674017D02*
X390685Y-681890D01*
X390685Y-676267D02*
X392372Y-674580D01*
X393496Y-674017D01*
X395183Y-674017D01*
X396308Y-674580D01*
X396870Y-676267D01*
X396870Y-681890D01*
X396870Y-676267D02*
X398557Y-674580D01*
X399682Y-674017D01*
X401369Y-674017D01*
X402493Y-674580D01*
X403056Y-676267D01*
X403056Y-681890D01*
X406767Y-677391D02*
X413515Y-677391D01*
X413515Y-676267D01*
X412952Y-675142D01*
X412390Y-674580D01*
X411265Y-674017D01*
X409579Y-674017D01*
X408454Y-674580D01*
X407329Y-675704D01*
X406767Y-677391D01*
X406767Y-678516D01*
X407329Y-680203D01*
X408454Y-681327D01*
X409579Y-681890D01*
X411265Y-681890D01*
X412390Y-681327D01*
X413515Y-680203D01*
X416607Y-671206D02*
X416045Y-670644D01*
X416607Y-670081D01*
X417170Y-670644D01*
X417170Y-671768D01*
X416607Y-672893D01*
X416045Y-673455D01*
X314380Y-733916D02*
X313817Y-732792D01*
X312693Y-731667D01*
X311568Y-731105D01*
X309319Y-731105D01*
X308194Y-731667D01*
X307069Y-732792D01*
X306507Y-733916D01*
X305945Y-735603D01*
X305945Y-738415D01*
X306507Y-740102D01*
X307069Y-741226D01*
X308194Y-742351D01*
X309319Y-742913D01*
X311568Y-742913D01*
X312693Y-742351D01*
X313817Y-741226D01*
X314380Y-740102D01*
X318260Y-733916D02*
X318260Y-733354D01*
X318822Y-732230D01*
X319384Y-731667D01*
X320509Y-731105D01*
X322758Y-731105D01*
X323883Y-731667D01*
X324445Y-732230D01*
X325007Y-733354D01*
X325007Y-734479D01*
X324445Y-735603D01*
X323320Y-737290D01*
X317697Y-742913D01*
X325570Y-742913D01*
X331586Y-731105D02*
X329899Y-731667D01*
X328775Y-733354D01*
X328212Y-736166D01*
X328212Y-737853D01*
X328775Y-740664D01*
X329899Y-742351D01*
X331586Y-742913D01*
X332711Y-742913D01*
X334398Y-742351D01*
X335522Y-740664D01*
X336085Y-737853D01*
X336085Y-736166D01*
X335522Y-733354D01*
X334398Y-731667D01*
X332711Y-731105D01*
X331586Y-731105D01*
X338727Y-733354D02*
X339852Y-732792D01*
X341539Y-731105D01*
X341539Y-742913D01*
D19*
X233089Y-788762D02*
X233089Y-788429D01*
X233422Y-787762D01*
X233756Y-787429D01*
X234422Y-787096D01*
X235755Y-787096D01*
X236422Y-787429D01*
X236755Y-787762D01*
X237088Y-788429D01*
X237088Y-789096D01*
X236755Y-789762D01*
X236088Y-790762D01*
X232756Y-794095D01*
X237422Y-794095D01*
X-3465Y-788429D02*
X-2798Y-788096D01*
X-1798Y-787096D01*
X-1798Y-794095D01*
X469643Y-787096D02*
X473309Y-787096D01*
X471309Y-789762D01*
X472309Y-789762D01*
X472975Y-790095D01*
X473309Y-790429D01*
X473642Y-791428D01*
X473642Y-792095D01*
X473309Y-793095D01*
X472642Y-793761D01*
X471642Y-794095D01*
X470643Y-794095D01*
X469643Y-793761D01*
X469310Y-793428D01*
X468976Y-792761D01*
X600293Y213287D02*
X597627Y220286D01*
X594961Y213287D01*
X595960Y215620D02*
X599293Y215620D01*
X594961Y-72037D02*
X594961Y-79035D01*
X594961Y-72037D02*
X597960Y-72037D01*
X598960Y-72370D01*
X599293Y-72703D01*
X599626Y-73370D01*
X599626Y-74037D01*
X599293Y-74703D01*
X598960Y-75036D01*
X597960Y-75370D01*
X594961Y-75370D02*
X597960Y-75370D01*
X598960Y-75703D01*
X599293Y-76036D01*
X599626Y-76703D01*
X599626Y-77702D01*
X599293Y-78369D01*
X598960Y-78702D01*
X597960Y-79035D01*
X594961Y-79035D01*
X599960Y-366026D02*
X599626Y-365360D01*
X598960Y-364693D01*
X598293Y-364360D01*
X596960Y-364360D01*
X596294Y-364693D01*
X595627Y-365360D01*
X595294Y-366026D01*
X594961Y-367026D01*
X594961Y-368692D01*
X595294Y-369692D01*
X595627Y-370358D01*
X596294Y-371025D01*
X596960Y-371358D01*
X598293Y-371358D01*
X598960Y-371025D01*
X599626Y-370358D01*
X599960Y-369692D01*
X594961Y-648809D02*
X594961Y-655807D01*
X594961Y-648809D02*
X597294Y-648809D01*
X598293Y-649142D01*
X598960Y-649808D01*
X599293Y-650475D01*
X599626Y-651475D01*
X599626Y-653141D01*
X599293Y-654141D01*
X598960Y-654807D01*
X598293Y-655474D01*
X597294Y-655807D01*
X594961Y-655807D01*
X-128054Y213287D02*
X-130720Y220286D01*
X-133386Y213287D01*
X-132386Y215620D02*
X-129053Y215620D01*
X-133386Y-72037D02*
X-133386Y-79035D01*
X-133386Y-72037D02*
X-130386Y-72037D01*
X-129387Y-72370D01*
X-129053Y-72703D01*
X-128720Y-73370D01*
X-128720Y-74037D01*
X-129053Y-74703D01*
X-129387Y-75036D01*
X-130386Y-75370D01*
X-133386Y-75370D02*
X-130386Y-75370D01*
X-129387Y-75703D01*
X-129053Y-76036D01*
X-128720Y-76703D01*
X-128720Y-77702D01*
X-129053Y-78369D01*
X-129387Y-78702D01*
X-130386Y-79035D01*
X-133386Y-79035D01*
X-128387Y-366026D02*
X-128720Y-365360D01*
X-129387Y-364693D01*
X-130053Y-364360D01*
X-131386Y-364360D01*
X-132053Y-364693D01*
X-132719Y-365360D01*
X-133053Y-366026D01*
X-133386Y-367026D01*
X-133386Y-368692D01*
X-133053Y-369692D01*
X-132719Y-370358D01*
X-132053Y-371025D01*
X-131386Y-371358D01*
X-130053Y-371358D01*
X-129387Y-371025D01*
X-128720Y-370358D01*
X-128387Y-369692D01*
X-133386Y-648809D02*
X-133386Y-655807D01*
X-133386Y-648809D02*
X-131053Y-648809D01*
X-130053Y-649142D01*
X-129387Y-649808D01*
X-129053Y-650475D01*
X-128720Y-651475D01*
X-128720Y-653141D01*
X-129053Y-654141D01*
X-129387Y-654807D01*
X-130053Y-655474D01*
X-131053Y-655807D01*
X-133386Y-655807D01*
X42782Y-735021D02*
X42782Y-734687D01*
X43115Y-734021D01*
X43449Y-733687D01*
X44115Y-733354D01*
X45448Y-733354D01*
X46115Y-733687D01*
X46448Y-734021D01*
X46781Y-734687D01*
X46781Y-735354D01*
X46448Y-736020D01*
X45781Y-737020D01*
X42449Y-740353D01*
X47115Y-740353D01*
X50680Y-733354D02*
X49681Y-733687D01*
X49014Y-734687D01*
X48681Y-736354D01*
X48681Y-737353D01*
X49014Y-739020D01*
X49681Y-740020D01*
X50680Y-740353D01*
X51347Y-740353D01*
X52347Y-740020D01*
X53013Y-739020D01*
X53347Y-737353D01*
X53347Y-736354D01*
X53013Y-734687D01*
X52347Y-733687D01*
X51347Y-733354D01*
X50680Y-733354D01*
X55246Y-735021D02*
X55246Y-734687D01*
X55579Y-734021D01*
X55913Y-733687D01*
X56579Y-733354D01*
X57912Y-733354D01*
X58579Y-733687D01*
X58912Y-734021D01*
X59245Y-734687D01*
X59245Y-735354D01*
X58912Y-736020D01*
X58245Y-737020D01*
X54913Y-740353D01*
X59579Y-740353D01*
X63144Y-733354D02*
X62145Y-733687D01*
X61478Y-734687D01*
X61145Y-736354D01*
X61145Y-737353D01*
X61478Y-739020D01*
X62145Y-740020D01*
X63144Y-740353D01*
X63811Y-740353D01*
X64811Y-740020D01*
X65477Y-739020D01*
X65811Y-737353D01*
X65811Y-736354D01*
X65477Y-734687D01*
X64811Y-733687D01*
X63811Y-733354D01*
X63144Y-733354D01*
X67377Y-734687D02*
X68043Y-734354D01*
X69043Y-733354D01*
X69043Y-740353D01*
X72842Y-735021D02*
X72842Y-734687D01*
X73176Y-734021D01*
X73509Y-733687D01*
X74175Y-733354D01*
X75508Y-733354D01*
X76175Y-733687D01*
X76508Y-734021D01*
X76841Y-734687D01*
X76841Y-735354D01*
X76508Y-736020D01*
X75842Y-737020D01*
X72509Y-740353D01*
X77175Y-740353D01*
X78741Y-734687D02*
X79408Y-734354D01*
X80407Y-733354D01*
X80407Y-740353D01*
X87872Y-733354D02*
X84540Y-733354D01*
X84206Y-736354D01*
X84540Y-736020D01*
X85540Y-735687D01*
X86539Y-735687D01*
X87539Y-736020D01*
X88206Y-736687D01*
X88539Y-737687D01*
X88539Y-738353D01*
X88206Y-739353D01*
X87539Y-740020D01*
X86539Y-740353D01*
X85540Y-740353D01*
X84540Y-740020D01*
X84206Y-739686D01*
X83873Y-739020D01*
X47700Y-767654D02*
X47366Y-766988D01*
X46700Y-766321D01*
X46033Y-765988D01*
X44700Y-765988D01*
X44034Y-766321D01*
X43367Y-766988D01*
X43034Y-767654D01*
X42701Y-768654D01*
X42701Y-770321D01*
X43034Y-771320D01*
X43367Y-771987D01*
X44034Y-772653D01*
X44700Y-772987D01*
X46033Y-772987D01*
X46700Y-772653D01*
X47366Y-771987D01*
X47700Y-771320D01*
X51332Y-768321D02*
X50666Y-768654D01*
X49999Y-769321D01*
X49666Y-770321D01*
X49666Y-770987D01*
X49999Y-771987D01*
X50666Y-772653D01*
X51332Y-772987D01*
X52332Y-772987D01*
X52999Y-772653D01*
X53665Y-771987D01*
X53998Y-770987D01*
X53998Y-770321D01*
X53665Y-769321D01*
X52999Y-768654D01*
X52332Y-768321D01*
X51332Y-768321D01*
X55531Y-768321D02*
X55531Y-772987D01*
X55531Y-769654D02*
X56531Y-768654D01*
X57198Y-768321D01*
X58197Y-768321D01*
X58864Y-768654D01*
X59197Y-769654D01*
X59197Y-772987D01*
X62030Y-765988D02*
X62030Y-771654D01*
X62363Y-772653D01*
X63030Y-772987D01*
X63696Y-772987D01*
X61030Y-768321D02*
X63363Y-768321D01*
X64696Y-768321D02*
X64696Y-772987D01*
X64696Y-770321D02*
X65029Y-769321D01*
X65696Y-768654D01*
X66362Y-768321D01*
X67362Y-768321D01*
X69662Y-768321D02*
X68995Y-768654D01*
X68329Y-769321D01*
X67995Y-770321D01*
X67995Y-770987D01*
X68329Y-771987D01*
X68995Y-772653D01*
X69662Y-772987D01*
X70661Y-772987D01*
X71328Y-772653D01*
X71995Y-771987D01*
X72328Y-770987D01*
X72328Y-770321D01*
X71995Y-769321D01*
X71328Y-768654D01*
X70661Y-768321D01*
X69662Y-768321D01*
X73861Y-765988D02*
X73861Y-772987D01*
X75327Y-775319D02*
X80659Y-775319D01*
X81559Y-765988D02*
X81559Y-772987D01*
X81559Y-765988D02*
X84558Y-765988D01*
X85558Y-766321D01*
X85891Y-766655D01*
X86225Y-767321D01*
X86225Y-767988D01*
X85891Y-768654D01*
X85558Y-768988D01*
X84558Y-769321D01*
X81559Y-769321D02*
X84558Y-769321D01*
X85558Y-769654D01*
X85891Y-769987D01*
X86225Y-770654D01*
X86225Y-771654D01*
X85891Y-772320D01*
X85558Y-772653D01*
X84558Y-772987D01*
X81559Y-772987D01*
X89457Y-768321D02*
X88791Y-768654D01*
X88124Y-769321D01*
X87791Y-770321D01*
X87791Y-770987D01*
X88124Y-771987D01*
X88791Y-772653D01*
X89457Y-772987D01*
X90457Y-772987D01*
X91124Y-772653D01*
X91790Y-771987D01*
X92124Y-770987D01*
X92124Y-770321D01*
X91790Y-769321D01*
X91124Y-768654D01*
X90457Y-768321D01*
X89457Y-768321D01*
X97656Y-768321D02*
X97656Y-772987D01*
X97656Y-769321D02*
X96989Y-768654D01*
X96323Y-768321D01*
X95323Y-768321D01*
X94656Y-768654D01*
X93990Y-769321D01*
X93656Y-770321D01*
X93656Y-770987D01*
X93990Y-771987D01*
X94656Y-772653D01*
X95323Y-772987D01*
X96323Y-772987D01*
X96989Y-772653D01*
X97656Y-771987D01*
X99522Y-768321D02*
X99522Y-772987D01*
X99522Y-770321D02*
X99855Y-769321D01*
X100522Y-768654D01*
X101188Y-768321D01*
X102188Y-768321D01*
X106820Y-765988D02*
X106820Y-772987D01*
X106820Y-769321D02*
X106154Y-768654D01*
X105487Y-768321D01*
X104488Y-768321D01*
X103821Y-768654D01*
X103155Y-769321D01*
X102821Y-770321D01*
X102821Y-770987D01*
X103155Y-771987D01*
X103821Y-772653D01*
X104488Y-772987D01*
X105487Y-772987D01*
X106154Y-772653D01*
X106820Y-771987D01*
X108687Y-775319D02*
X114019Y-775319D01*
X114919Y-765988D02*
X114919Y-772987D01*
X114919Y-765988D02*
X117585Y-772987D01*
X120251Y-765988D02*
X117585Y-772987D01*
X120251Y-765988D02*
X120251Y-772987D01*
X123917Y-768321D02*
X123250Y-768654D01*
X122584Y-769321D01*
X122250Y-770321D01*
X122250Y-770987D01*
X122584Y-771987D01*
X123250Y-772653D01*
X123917Y-772987D01*
X124917Y-772987D01*
X125583Y-772653D01*
X126250Y-771987D01*
X126583Y-770987D01*
X126583Y-770321D01*
X126250Y-769321D01*
X125583Y-768654D01*
X124917Y-768321D01*
X123917Y-768321D01*
X132115Y-765988D02*
X132115Y-772987D01*
X132115Y-769321D02*
X131448Y-768654D01*
X130782Y-768321D01*
X129782Y-768321D01*
X129116Y-768654D01*
X128449Y-769321D01*
X128116Y-770321D01*
X128116Y-770987D01*
X128449Y-771987D01*
X129116Y-772653D01*
X129782Y-772987D01*
X130782Y-772987D01*
X131448Y-772653D01*
X132115Y-771987D01*
X133981Y-770321D02*
X137980Y-770321D01*
X137980Y-769654D01*
X137647Y-768988D01*
X137314Y-768654D01*
X136647Y-768321D01*
X135647Y-768321D01*
X134981Y-768654D01*
X134315Y-769321D01*
X133981Y-770321D01*
X133981Y-770987D01*
X134315Y-771987D01*
X134981Y-772653D01*
X135647Y-772987D01*
X136647Y-772987D01*
X137314Y-772653D01*
X137980Y-771987D01*
X139480Y-765988D02*
X139480Y-772987D01*
X140946Y-775319D02*
X146279Y-775319D01*
X152177Y-767654D02*
X151844Y-766988D01*
X151178Y-766321D01*
X150511Y-765988D01*
X149178Y-765988D01*
X148511Y-766321D01*
X147845Y-766988D01*
X147512Y-767654D01*
X147178Y-768654D01*
X147178Y-770321D01*
X147512Y-771320D01*
X147845Y-771987D01*
X148511Y-772653D01*
X149178Y-772987D01*
X150511Y-772987D01*
X151178Y-772653D01*
X151844Y-771987D01*
X152177Y-771320D01*
X154477Y-767654D02*
X154477Y-767321D01*
X154810Y-766655D01*
X155143Y-766321D01*
X155810Y-765988D01*
X157143Y-765988D01*
X157809Y-766321D01*
X158143Y-766655D01*
X158476Y-767321D01*
X158476Y-767988D01*
X158143Y-768654D01*
X157476Y-769654D01*
X154144Y-772987D01*
X158809Y-772987D01*
X162375Y-765988D02*
X161375Y-766321D01*
X160709Y-767321D01*
X160376Y-768988D01*
X160376Y-769987D01*
X160709Y-771654D01*
X161375Y-772653D01*
X162375Y-772987D01*
X163042Y-772987D01*
X164041Y-772653D01*
X164708Y-771654D01*
X165041Y-769987D01*
X165041Y-768988D01*
X164708Y-767321D01*
X164041Y-766321D01*
X163042Y-765988D01*
X162375Y-765988D01*
X166608Y-767321D02*
X167274Y-766988D01*
X168274Y-765988D01*
X168274Y-772987D01*
X171740Y-775319D02*
X177072Y-775319D01*
X177972Y-765988D02*
X177972Y-772987D01*
X177972Y-765988D02*
X182304Y-765988D01*
X177972Y-769321D02*
X180638Y-769321D01*
X183104Y-765988D02*
X183104Y-772987D01*
X183104Y-765988D02*
X187436Y-765988D01*
X183104Y-769321D02*
X185770Y-769321D01*
X193235Y-767654D02*
X192902Y-766988D01*
X192235Y-766321D01*
X191569Y-765988D01*
X190236Y-765988D01*
X189569Y-766321D01*
X188903Y-766988D01*
X188569Y-767654D01*
X188236Y-768654D01*
X188236Y-770321D01*
X188569Y-771320D01*
X188903Y-771987D01*
X189569Y-772653D01*
X190236Y-772987D01*
X191569Y-772987D01*
X192235Y-772653D01*
X192902Y-771987D01*
X193235Y-771320D01*
X195201Y-775319D02*
X200534Y-775319D01*
X206099Y-766988D02*
X205433Y-766321D01*
X204433Y-765988D01*
X203100Y-765988D01*
X202100Y-766321D01*
X201433Y-766988D01*
X201433Y-767654D01*
X201767Y-768321D01*
X202100Y-768654D01*
X202766Y-768988D01*
X204766Y-769654D01*
X205433Y-769987D01*
X205766Y-770321D01*
X206099Y-770987D01*
X206099Y-771987D01*
X205433Y-772653D01*
X204433Y-772987D01*
X203100Y-772987D01*
X202100Y-772653D01*
X201433Y-771987D01*
X207665Y-770321D02*
X211665Y-770321D01*
X211665Y-769654D01*
X211331Y-768988D01*
X210998Y-768654D01*
X210332Y-768321D01*
X209332Y-768321D01*
X208665Y-768654D01*
X207999Y-769321D01*
X207665Y-770321D01*
X207665Y-770987D01*
X207999Y-771987D01*
X208665Y-772653D01*
X209332Y-772987D01*
X210332Y-772987D01*
X210998Y-772653D01*
X211665Y-771987D01*
X213164Y-768321D02*
X213164Y-772987D01*
X213164Y-769654D02*
X214164Y-768654D01*
X214830Y-768321D01*
X215830Y-768321D01*
X216497Y-768654D01*
X216830Y-769654D01*
X216830Y-772987D01*
X222329Y-769321D02*
X221996Y-768654D01*
X220996Y-768321D01*
X219996Y-768321D01*
X218996Y-768654D01*
X218663Y-769321D01*
X218996Y-769987D01*
X219663Y-770321D01*
X221329Y-770654D01*
X221996Y-770987D01*
X222329Y-771654D01*
X222329Y-771987D01*
X221996Y-772653D01*
X220996Y-772987D01*
X219996Y-772987D01*
X218996Y-772653D01*
X218663Y-771987D01*
X223795Y-775319D02*
X229128Y-775319D01*
X235026Y-767654D02*
X234693Y-766988D01*
X234026Y-766321D01*
X233360Y-765988D01*
X232027Y-765988D01*
X231360Y-766321D01*
X230694Y-766988D01*
X230361Y-767654D01*
X230027Y-768654D01*
X230027Y-770321D01*
X230361Y-771320D01*
X230694Y-771987D01*
X231360Y-772653D01*
X232027Y-772987D01*
X233360Y-772987D01*
X234026Y-772653D01*
X234693Y-771987D01*
X235026Y-771320D01*
X238659Y-768321D02*
X237992Y-768654D01*
X237326Y-769321D01*
X236993Y-770321D01*
X236993Y-770987D01*
X237326Y-771987D01*
X237992Y-772653D01*
X238659Y-772987D01*
X239659Y-772987D01*
X240325Y-772653D01*
X240992Y-771987D01*
X241325Y-770987D01*
X241325Y-770321D01*
X240992Y-769321D01*
X240325Y-768654D01*
X239659Y-768321D01*
X238659Y-768321D01*
X242858Y-768321D02*
X242858Y-772987D01*
X242858Y-769654D02*
X243858Y-768654D01*
X244524Y-768321D01*
X245524Y-768321D01*
X246191Y-768654D01*
X246524Y-769654D01*
X246524Y-772987D01*
X248357Y-768321D02*
X248357Y-772987D01*
X248357Y-769654D02*
X249357Y-768654D01*
X250023Y-768321D01*
X251023Y-768321D01*
X251689Y-768654D01*
X252023Y-769654D01*
X252023Y-772987D01*
X254189Y-772320D02*
X253855Y-772653D01*
X254189Y-772987D01*
X254522Y-772653D01*
X254189Y-772320D01*
X256055Y-769654D02*
X259054Y-769654D01*
X260054Y-769321D01*
X260387Y-768988D01*
X260721Y-768321D01*
X260721Y-767321D01*
X260387Y-766655D01*
X260054Y-766321D01*
X259054Y-765988D01*
X256055Y-765988D01*
X256055Y-772987D01*
X266286Y-769321D02*
X265620Y-768654D01*
X264953Y-768321D01*
X263953Y-768321D01*
X263287Y-768654D01*
X262620Y-769321D01*
X262287Y-770321D01*
X262287Y-770987D01*
X262620Y-771987D01*
X263287Y-772653D01*
X263953Y-772987D01*
X264953Y-772987D01*
X265620Y-772653D01*
X266286Y-771987D01*
X267786Y-765988D02*
X267786Y-772987D01*
X267786Y-769321D02*
X268452Y-768654D01*
X269119Y-768321D01*
X270119Y-768321D01*
X270785Y-768654D01*
X271452Y-769321D01*
X271785Y-770321D01*
X271785Y-770987D01*
X271452Y-771987D01*
X270785Y-772653D01*
X270119Y-772987D01*
X269119Y-772987D01*
X268452Y-772653D01*
X267786Y-771987D01*
X273285Y-765988D02*
X273285Y-772987D01*
X273285Y-765988D02*
X275618Y-765988D01*
X276617Y-766321D01*
X277284Y-766988D01*
X277617Y-767654D01*
X277950Y-768654D01*
X277950Y-770321D01*
X277617Y-771320D01*
X277284Y-771987D01*
X276617Y-772653D01*
X275618Y-772987D01*
X273285Y-772987D01*
X281183Y-768321D02*
X280517Y-768654D01*
X279850Y-769321D01*
X279517Y-770321D01*
X279517Y-770987D01*
X279850Y-771987D01*
X280517Y-772653D01*
X281183Y-772987D01*
X282183Y-772987D01*
X282849Y-772653D01*
X283516Y-771987D01*
X283849Y-770987D01*
X283849Y-770321D01*
X283516Y-769321D01*
X282849Y-768654D01*
X282183Y-768321D01*
X281183Y-768321D01*
X289381Y-769321D02*
X288715Y-768654D01*
X288048Y-768321D01*
X287048Y-768321D01*
X286382Y-768654D01*
X285715Y-769321D01*
X285382Y-770321D01*
X285382Y-770987D01*
X285715Y-771987D01*
X286382Y-772653D01*
X287048Y-772987D01*
X288048Y-772987D01*
X288715Y-772653D01*
X289381Y-771987D01*
X-96558Y-705512D02*
X-99224Y-698513D01*
X-101890Y-705512D01*
X-100890Y-703179D02*
X-97557Y-703179D01*
X-90926Y-701846D02*
X-91592Y-701179D01*
X-92259Y-700846D01*
X-93258Y-700846D01*
X-93925Y-701179D01*
X-94591Y-701846D01*
X-94925Y-702846D01*
X-94925Y-703512D01*
X-94591Y-704512D01*
X-93925Y-705178D01*
X-93258Y-705512D01*
X-92259Y-705512D01*
X-91592Y-705178D01*
X-90926Y-704512D01*
X-89426Y-700846D02*
X-89426Y-705512D01*
X-89426Y-702179D02*
X-88426Y-701179D01*
X-87760Y-700846D01*
X-86760Y-700846D01*
X-86093Y-701179D01*
X-85760Y-702179D01*
X-85760Y-705512D01*
X-85760Y-702179D02*
X-84760Y-701179D01*
X-84094Y-700846D01*
X-83094Y-700846D01*
X-82427Y-701179D01*
X-82094Y-702179D01*
X-82094Y-705512D01*
X-79895Y-702846D02*
X-75895Y-702846D01*
X-75895Y-702179D01*
X-76229Y-701513D01*
X-76562Y-701179D01*
X-77228Y-700846D01*
X-78228Y-700846D01*
X-78895Y-701179D01*
X-79561Y-701846D01*
X-79895Y-702846D01*
X-79895Y-703512D01*
X-79561Y-704512D01*
X-78895Y-705178D01*
X-78228Y-705512D01*
X-77228Y-705512D01*
X-76562Y-705178D01*
X-75895Y-704512D01*
X-74396Y-707845D02*
X-69064Y-707845D01*
X-63165Y-700180D02*
X-63498Y-699513D01*
X-64165Y-698846D01*
X-64831Y-698513D01*
X-66164Y-698513D01*
X-66831Y-698846D01*
X-67497Y-699513D01*
X-67830Y-700180D01*
X-68164Y-701179D01*
X-68164Y-702846D01*
X-67830Y-703846D01*
X-67497Y-704512D01*
X-66831Y-705178D01*
X-66164Y-705512D01*
X-64831Y-705512D01*
X-64165Y-705178D01*
X-63498Y-704512D01*
X-63165Y-703846D01*
X-61199Y-702179D02*
X-58199Y-702179D01*
X-57199Y-701846D01*
X-56866Y-701513D01*
X-56533Y-700846D01*
X-56533Y-699846D01*
X-56866Y-699180D01*
X-57199Y-698846D01*
X-58199Y-698513D01*
X-61199Y-698513D01*
X-61199Y-705512D01*
X-54966Y-698513D02*
X-54966Y-703512D01*
X-54633Y-704512D01*
X-53967Y-705178D01*
X-52967Y-705512D01*
X-52300Y-705512D01*
X-51301Y-705178D01*
X-50634Y-704512D01*
X-50301Y-703512D01*
X-50301Y-698513D01*
X-101223Y-718198D02*
X-97557Y-718198D01*
X-99557Y-720864D01*
X-98557Y-720864D01*
X-97891Y-721198D01*
X-97557Y-721531D01*
X-97224Y-722531D01*
X-97224Y-723197D01*
X-97557Y-724197D01*
X-98224Y-724864D01*
X-99224Y-725197D01*
X-100224Y-725197D01*
X-101223Y-724864D01*
X-101557Y-724530D01*
X-101890Y-723864D01*
X-93658Y-718198D02*
X-94658Y-718532D01*
X-95324Y-719531D01*
X-95658Y-721198D01*
X-95658Y-722197D01*
X-95324Y-723864D01*
X-94658Y-724864D01*
X-93658Y-725197D01*
X-92992Y-725197D01*
X-91992Y-724864D01*
X-91325Y-723864D01*
X-90992Y-722197D01*
X-90992Y-721198D01*
X-91325Y-719531D01*
X-91992Y-718532D01*
X-92992Y-718198D01*
X-93658Y-718198D01*
X-83927Y-718198D02*
X-83927Y-725197D01*
X-83927Y-718198D02*
X-79261Y-725197D01*
X-79261Y-718198D02*
X-79261Y-725197D01*
X-66831Y-719865D02*
X-67164Y-719198D01*
X-67830Y-718532D01*
X-68497Y-718198D01*
X-69830Y-718198D01*
X-70496Y-718532D01*
X-71163Y-719198D01*
X-71496Y-719865D01*
X-71829Y-720864D01*
X-71829Y-722531D01*
X-71496Y-723530D01*
X-71163Y-724197D01*
X-70496Y-724864D01*
X-69830Y-725197D01*
X-68497Y-725197D01*
X-67830Y-724864D01*
X-67164Y-724197D01*
X-66831Y-723530D01*
X-66831Y-722531D01*
X-68497Y-722531D02*
X-66831Y-722531D01*
X-63565Y-720531D02*
X-64231Y-720864D01*
X-64898Y-721531D01*
X-65231Y-722531D01*
X-65231Y-723197D01*
X-64898Y-724197D01*
X-64231Y-724864D01*
X-63565Y-725197D01*
X-62565Y-725197D01*
X-61898Y-724864D01*
X-61232Y-724197D01*
X-60899Y-723197D01*
X-60899Y-722531D01*
X-61232Y-721531D01*
X-61898Y-720864D01*
X-62565Y-720531D01*
X-63565Y-720531D01*
X-59365Y-720531D02*
X-59365Y-723864D01*
X-59032Y-724864D01*
X-58366Y-725197D01*
X-57366Y-725197D01*
X-56699Y-724864D01*
X-55700Y-723864D01*
X-55700Y-720531D02*
X-55700Y-725197D01*
X-53867Y-718198D02*
X-53867Y-725197D01*
X-48401Y-718198D02*
X-48401Y-725197D01*
X-48401Y-721531D02*
X-49068Y-720864D01*
X-49734Y-720531D01*
X-50734Y-720531D01*
X-51401Y-720864D01*
X-52067Y-721531D01*
X-52400Y-722531D01*
X-52400Y-723197D01*
X-52067Y-724197D01*
X-51401Y-724864D01*
X-50734Y-725197D01*
X-49734Y-725197D01*
X-49068Y-724864D01*
X-48401Y-724197D01*
X-36371Y-719198D02*
X-37037Y-718532D01*
X-38037Y-718198D01*
X-39370Y-718198D01*
X-40370Y-718532D01*
X-41036Y-719198D01*
X-41036Y-719865D01*
X-40703Y-720531D01*
X-40370Y-720864D01*
X-39703Y-721198D01*
X-37703Y-721864D01*
X-37037Y-722197D01*
X-36704Y-722531D01*
X-36371Y-723197D01*
X-36371Y-724197D01*
X-37037Y-724864D01*
X-38037Y-725197D01*
X-39370Y-725197D01*
X-40370Y-724864D01*
X-41036Y-724197D01*
X-33804Y-718198D02*
X-33804Y-723864D01*
X-33471Y-724864D01*
X-32805Y-725197D01*
X-32138Y-725197D01*
X-34804Y-720531D02*
X-32471Y-720531D01*
X-21974Y-721531D02*
X-22307Y-720864D01*
X-23307Y-720531D01*
X-24306Y-720531D01*
X-25306Y-720864D01*
X-25639Y-721531D01*
X-25306Y-722197D01*
X-24640Y-722531D01*
X-22973Y-722864D01*
X-22307Y-723197D01*
X-21974Y-723864D01*
X-21974Y-724197D01*
X-22307Y-724864D01*
X-23307Y-725197D01*
X-24306Y-725197D01*
X-25306Y-724864D01*
X-25639Y-724197D01*
X-20507Y-720531D02*
X-20507Y-723864D01*
X-20174Y-724864D01*
X-19507Y-725197D01*
X-18508Y-725197D01*
X-17841Y-724864D01*
X-16841Y-723864D01*
X-16841Y-720531D02*
X-16841Y-725197D01*
X-14342Y-718198D02*
X-14009Y-718532D01*
X-13675Y-718198D01*
X-14009Y-717865D01*
X-14342Y-718198D01*
X-14009Y-720531D02*
X-14009Y-725197D01*
X-11443Y-718198D02*
X-11443Y-723864D01*
X-11109Y-724864D01*
X-10443Y-725197D01*
X-9776Y-725197D01*
X-12442Y-720531D02*
X-10109Y-720531D01*
X-8776Y-722531D02*
X-4777Y-722531D01*
X-4777Y-721864D01*
X-5111Y-721198D01*
X-5444Y-720864D01*
X-6110Y-720531D01*
X-7110Y-720531D01*
X-7777Y-720864D01*
X-8443Y-721531D01*
X-8776Y-722531D01*
X-8776Y-723197D01*
X-8443Y-724197D01*
X-7777Y-724864D01*
X-7110Y-725197D01*
X-6110Y-725197D01*
X-5444Y-724864D01*
X-4777Y-724197D01*
X5554Y-718198D02*
X2221Y-722864D01*
X7220Y-722864D01*
X5554Y-718198D02*
X5554Y-725197D01*
X10453Y-718198D02*
X9453Y-718532D01*
X8787Y-719531D01*
X8453Y-721198D01*
X8453Y-722197D01*
X8787Y-723864D01*
X9453Y-724864D01*
X10453Y-725197D01*
X11119Y-725197D01*
X12119Y-724864D01*
X12786Y-723864D01*
X13119Y-722197D01*
X13119Y-721198D01*
X12786Y-719531D01*
X12119Y-718532D01*
X11119Y-718198D01*
X10453Y-718198D01*
X16685Y-718198D02*
X15685Y-718532D01*
X15019Y-719531D01*
X14685Y-721198D01*
X14685Y-722197D01*
X15019Y-723864D01*
X15685Y-724864D01*
X16685Y-725197D01*
X17351Y-725197D01*
X18351Y-724864D01*
X19018Y-723864D01*
X19351Y-722197D01*
X19351Y-721198D01*
X19018Y-719531D01*
X18351Y-718532D01*
X17351Y-718198D01*
X16685Y-718198D01*
X22917Y-718198D02*
X21917Y-718532D01*
X21250Y-719531D01*
X20917Y-721198D01*
X20917Y-722197D01*
X21250Y-723864D01*
X21917Y-724864D01*
X22917Y-725197D01*
X23583Y-725197D01*
X24583Y-724864D01*
X25250Y-723864D01*
X25583Y-722197D01*
X25583Y-721198D01*
X25250Y-719531D01*
X24583Y-718532D01*
X23583Y-718198D01*
X22917Y-718198D01*
X-97224Y-729041D02*
X-97891Y-728374D01*
X-98890Y-728041D01*
X-100224Y-728041D01*
X-101223Y-728374D01*
X-101890Y-729041D01*
X-101890Y-729707D01*
X-101557Y-730374D01*
X-101223Y-730707D01*
X-100557Y-731040D01*
X-98557Y-731707D01*
X-97891Y-732040D01*
X-97557Y-732373D01*
X-97224Y-733040D01*
X-97224Y-734039D01*
X-97891Y-734706D01*
X-98890Y-735039D01*
X-100224Y-735039D01*
X-101223Y-734706D01*
X-101890Y-734039D01*
X-95658Y-728041D02*
X-95658Y-735039D01*
X-95658Y-731707D02*
X-94658Y-730707D01*
X-93991Y-730374D01*
X-92992Y-730374D01*
X-92325Y-730707D01*
X-91992Y-731707D01*
X-91992Y-735039D01*
X-90159Y-732373D02*
X-86160Y-732373D01*
X-86160Y-731707D01*
X-86493Y-731040D01*
X-86826Y-730707D01*
X-87493Y-730374D01*
X-88493Y-730374D01*
X-89159Y-730707D01*
X-89826Y-731374D01*
X-90159Y-732373D01*
X-90159Y-733040D01*
X-89826Y-734039D01*
X-89159Y-734706D01*
X-88493Y-735039D01*
X-87493Y-735039D01*
X-86826Y-734706D01*
X-86160Y-734039D01*
X-84660Y-730374D02*
X-84660Y-735039D01*
X-84660Y-732373D02*
X-84327Y-731374D01*
X-83660Y-730707D01*
X-82994Y-730374D01*
X-81994Y-730374D01*
X-80694Y-728041D02*
X-80361Y-728374D01*
X-80028Y-728041D01*
X-80361Y-727708D01*
X-80694Y-728041D01*
X-80361Y-730374D02*
X-80361Y-735039D01*
X-74796Y-728041D02*
X-74796Y-735039D01*
X-74796Y-731374D02*
X-75462Y-730707D01*
X-76129Y-730374D01*
X-77128Y-730374D01*
X-77795Y-730707D01*
X-78461Y-731374D01*
X-78795Y-732373D01*
X-78795Y-733040D01*
X-78461Y-734039D01*
X-77795Y-734706D01*
X-77128Y-735039D01*
X-76129Y-735039D01*
X-75462Y-734706D01*
X-74796Y-734039D01*
X-68930Y-730374D02*
X-68930Y-735039D01*
X-68930Y-731374D02*
X-69597Y-730707D01*
X-70263Y-730374D01*
X-71263Y-730374D01*
X-71930Y-730707D01*
X-72596Y-731374D01*
X-72929Y-732373D01*
X-72929Y-733040D01*
X-72596Y-734039D01*
X-71930Y-734706D01*
X-71263Y-735039D01*
X-70263Y-735039D01*
X-69597Y-734706D01*
X-68930Y-734039D01*
X-67064Y-730374D02*
X-67064Y-735039D01*
X-67064Y-731707D02*
X-66064Y-730707D01*
X-65398Y-730374D01*
X-64398Y-730374D01*
X-63731Y-730707D01*
X-63398Y-731707D01*
X-63398Y-735039D01*
X-56066Y-728041D02*
X-54400Y-735039D01*
X-52734Y-728041D02*
X-54400Y-735039D01*
X-52734Y-728041D02*
X-51067Y-735039D01*
X-49401Y-728041D02*
X-51067Y-735039D01*
X-48001Y-728041D02*
X-45335Y-731374D01*
X-45335Y-735039D01*
X-42669Y-728041D02*
X-45335Y-731374D01*
X-34604Y-728041D02*
X-35604Y-728374D01*
X-35937Y-729041D01*
X-35937Y-729707D01*
X-35604Y-730374D01*
X-34937Y-730707D01*
X-33604Y-731040D01*
X-32605Y-731374D01*
X-31938Y-732040D01*
X-31605Y-732706D01*
X-31605Y-733706D01*
X-31938Y-734373D01*
X-32271Y-734706D01*
X-33271Y-735039D01*
X-34604Y-735039D01*
X-35604Y-734706D01*
X-35937Y-734373D01*
X-36270Y-733706D01*
X-36270Y-732706D01*
X-35937Y-732040D01*
X-35271Y-731374D01*
X-34271Y-731040D01*
X-32938Y-730707D01*
X-32271Y-730374D01*
X-31938Y-729707D01*
X-31938Y-729041D01*
X-32271Y-728374D01*
X-33271Y-728041D01*
X-34604Y-728041D01*
X-29705Y-729707D02*
X-29705Y-729374D01*
X-29372Y-728707D01*
X-29039Y-728374D01*
X-28372Y-728041D01*
X-27039Y-728041D01*
X-26373Y-728374D01*
X-26039Y-728707D01*
X-25706Y-729374D01*
X-25706Y-730040D01*
X-26039Y-730707D01*
X-26706Y-731707D01*
X-30038Y-735039D01*
X-25373Y-735039D01*
X-22140Y-728041D02*
X-23140Y-728374D01*
X-23473Y-729041D01*
X-23473Y-729707D01*
X-23140Y-730374D01*
X-22473Y-730707D01*
X-21140Y-731040D01*
X-20141Y-731374D01*
X-19474Y-732040D01*
X-19141Y-732706D01*
X-19141Y-733706D01*
X-19474Y-734373D01*
X-19807Y-734706D01*
X-20807Y-735039D01*
X-22140Y-735039D01*
X-23140Y-734706D01*
X-23473Y-734373D01*
X-23807Y-733706D01*
X-23807Y-732706D01*
X-23473Y-732040D01*
X-22807Y-731374D01*
X-21807Y-731040D01*
X-20474Y-730707D01*
X-19807Y-730374D01*
X-19474Y-729707D01*
X-19474Y-729041D01*
X-19807Y-728374D01*
X-20807Y-728041D01*
X-22140Y-728041D01*
X-15575Y-728041D02*
X-16575Y-728374D01*
X-17241Y-729374D01*
X-17574Y-731040D01*
X-17574Y-732040D01*
X-17241Y-733706D01*
X-16575Y-734706D01*
X-15575Y-735039D01*
X-14908Y-735039D01*
X-13909Y-734706D01*
X-13242Y-733706D01*
X-12909Y-732040D01*
X-12909Y-731040D01*
X-13242Y-729374D01*
X-13909Y-728374D01*
X-14908Y-728041D01*
X-15575Y-728041D01*
X-11343Y-729374D02*
X-10676Y-729041D01*
X-9676Y-728041D01*
X-9676Y-735039D01*
X469643Y362510D02*
X473309Y362510D01*
X471309Y359844D01*
X472309Y359844D01*
X472975Y359511D01*
X473309Y359178D01*
X473642Y358178D01*
X473642Y357511D01*
X473309Y356512D01*
X472642Y355845D01*
X471642Y355512D01*
X470643Y355512D01*
X469643Y355845D01*
X469310Y356178D01*
X468976Y356845D01*
X-3465Y361177D02*
X-2798Y361510D01*
X-1798Y362510D01*
X-1798Y355512D01*
X233089Y360844D02*
X233089Y361177D01*
X233422Y361844D01*
X233756Y362177D01*
X234422Y362510D01*
X235755Y362510D01*
X236422Y362177D01*
X236755Y361844D01*
X237088Y361177D01*
X237088Y360511D01*
X236755Y359844D01*
X236088Y358844D01*
X232756Y355512D01*
X237422Y355512D01*
D20*
X46948Y-677711D02*
X46377Y-677140D01*
X45520Y-676854D01*
X44377Y-676854D01*
X43520Y-677140D01*
X42949Y-677711D01*
X42949Y-678282D01*
X43235Y-678854D01*
X43520Y-679139D01*
X44091Y-679425D01*
X45805Y-679996D01*
X46377Y-680282D01*
X46662Y-680568D01*
X46948Y-681139D01*
X46948Y-681996D01*
X46377Y-682567D01*
X45520Y-682853D01*
X44377Y-682853D01*
X43520Y-682567D01*
X42949Y-681996D01*
X52575Y-678282D02*
X52290Y-677711D01*
X51718Y-677140D01*
X51147Y-676854D01*
X50005Y-676854D01*
X49433Y-677140D01*
X48862Y-677711D01*
X48576Y-678282D01*
X48291Y-679139D01*
X48291Y-680568D01*
X48576Y-681425D01*
X48862Y-681996D01*
X49433Y-682567D01*
X50005Y-682853D01*
X51147Y-682853D01*
X51718Y-682567D01*
X52290Y-681996D01*
X52575Y-681425D01*
X52575Y-680568D01*
X51147Y-680568D02*
X52575Y-680568D01*
X53947Y-676854D02*
X53947Y-681139D01*
X54232Y-681996D01*
X54804Y-682567D01*
X55660Y-682853D01*
X56232Y-682853D01*
X57089Y-682567D01*
X57660Y-681996D01*
X57946Y-681139D01*
X57946Y-676854D01*
X46448Y-708211D02*
X45877Y-707640D01*
X45020Y-707354D01*
X43877Y-707354D01*
X43020Y-707640D01*
X42449Y-708211D01*
X42449Y-708782D01*
X42735Y-709354D01*
X43020Y-709639D01*
X43591Y-709925D01*
X45305Y-710496D01*
X45877Y-710782D01*
X46162Y-711067D01*
X46448Y-711639D01*
X46448Y-712496D01*
X45877Y-713067D01*
X45020Y-713353D01*
X43877Y-713353D01*
X43020Y-713067D01*
X42449Y-712496D01*
X52075Y-708782D02*
X51790Y-708211D01*
X51218Y-707640D01*
X50647Y-707354D01*
X49505Y-707354D01*
X48933Y-707640D01*
X48362Y-708211D01*
X48076Y-708782D01*
X47791Y-709639D01*
X47791Y-711067D01*
X48076Y-711925D01*
X48362Y-712496D01*
X48933Y-713067D01*
X49505Y-713353D01*
X50647Y-713353D01*
X51218Y-713067D01*
X51790Y-712496D01*
X52075Y-711925D01*
X52075Y-711067D01*
X50647Y-711067D02*
X52075Y-711067D01*
X53447Y-707354D02*
X53447Y-711639D01*
X53732Y-712496D01*
X54303Y-713067D01*
X55160Y-713353D01*
X55732Y-713353D01*
X56589Y-713067D01*
X57160Y-712496D01*
X57446Y-711639D01*
X57446Y-707354D01*
X508997Y-770000D02*
X504498Y-758191D01*
X500000Y-770000D01*
X501687Y-766064D02*
X507310Y-766064D01*
X517375Y-758191D02*
X511752Y-766064D01*
X520187Y-766064D01*
X517375Y-758191D02*
X517375Y-770000D01*
X531545Y-758191D02*
X531545Y-770000D01*
X531545Y-758191D02*
X536044Y-770000D01*
X540543Y-758191D02*
X536044Y-770000D01*
X540543Y-758191D02*
X540543Y-770000D01*
X543916Y-760441D02*
X545041Y-759878D01*
X546728Y-758191D01*
X546728Y-770000D01*
X553138Y-762128D02*
X552576Y-762690D01*
X553138Y-763252D01*
X553700Y-762690D01*
X553138Y-762128D01*
X553138Y-768875D02*
X552576Y-769438D01*
X553138Y-770000D01*
X553700Y-769438D01*
X553138Y-768875D01*
X556287Y-760441D02*
X557412Y-759878D01*
X559099Y-758191D01*
X559099Y-770000D01*
X500874Y-728192D02*
X499187Y-728754D01*
X498062Y-730441D01*
X497500Y-733252D01*
X497500Y-734939D01*
X498062Y-737751D01*
X499187Y-739438D01*
X500874Y-740000D01*
X501999Y-740000D01*
X503685Y-739438D01*
X504810Y-737751D01*
X505372Y-734939D01*
X505372Y-733252D01*
X504810Y-730441D01*
X503685Y-728754D01*
X501999Y-728192D01*
X500874Y-728192D01*
X508577Y-738875D02*
X508015Y-739438D01*
X508577Y-740000D01*
X509140Y-739438D01*
X508577Y-738875D01*
X511726Y-730441D02*
X512851Y-729878D01*
X514538Y-728192D01*
X514538Y-740000D01*
D375*
X0Y3937D02*
G03*
X3937Y0I3937J0D01*
G01*
X3937Y275590D02*
G03*
X0Y271654I0J-3937D01*
G01*
X393701Y271654D02*
G03*
X389764Y275590I-3937J0D01*
G01*
X389764Y0D02*
G03*
X393701Y3937I0J3937D01*
G01*
X224410Y0D02*
G03*
X228346Y3937I0J3937D01*
G01*
X362205Y3937D02*
G03*
X366142Y0I3937J0D01*
G01*
X232283Y19685D02*
G03*
X228346Y15748I0J-3937D01*
G01*
X362205Y15748D02*
G03*
X358268Y19685I-3937J0D01*
G01*
X3937Y0D02*
X224410Y0D01*
X0Y3937D02*
X0Y271654D01*
X3937Y275590D02*
X389764Y275590D01*
X393701Y3937D02*
X393701Y271654D01*
X366142Y0D02*
X389764Y0D01*
X228346Y3937D02*
X228346Y15748D01*
X362205Y3937D02*
X362205Y15748D01*
X232283Y19685D02*
X358268Y19685D01*
M02*
