M48
;Layer_Color=9474304
;FILE_FORMAT=2:5
INCH,LZ
;TYPE=PLATED
T1F00S00C0.00591
T2F00S00C0.00787
T3F00S00C0.01181
T5F00S00C0.02756
T6F00S00C0.08661
%
T01
X0007357Y0007357
X0011811Y0005512
X0016265Y0007357
X001811Y0011811
X002125Y0011949
X0016265Y0016265
X0011811Y001811
X0007357Y0016265
X0005512Y0011811
X00255Y0017
X0025Y0004449
X00325
X004
X0036Y00225
X0038Y0025
X00405Y00265
X0034Y0027
X00225Y00275
X0024Y00305
X00225Y0033
X0021Y00355
X00185Y0037
X00175Y0034449
X0017Y00405
X00245
Y00445
Y00475
Y005
Y00555
X00225Y00575
X0021Y006
X0025Y0061
X0028Y007
Y0073
X0028016Y0077579
X00275Y0083
X0028Y0085705
Y0092
Y00945
X00329Y00967
X0035Y0095
X00343Y00886
X00345Y0086
X0033418Y0081918
X0034Y0079
X00343Y00764
X00345Y00705
X0037Y00686
X00345Y0066
X0037Y00633
X00415Y0061
X00337Y00545
X003Y00495
X0028Y00475
Y00445
X001Y0049449
X00115Y00705
X00165Y0071
X00215Y007
X0022Y00775
X00215Y00805
X00165Y0079
X00115Y00795
Y00875
X00145Y00845
Y0091
X001Y0094449
Y0109449
X0014532Y011
X001375Y0116949
X001Y0124449
X00275Y0127
Y0130468
X0028Y01345
X0031Y01325
X00335Y01285
X00365
X0039Y0132
X00325Y0124449
X003625Y0116949
X002875
X0033Y0112
Y0108
X0035Y0107
X0039Y011
X00205Y0108
Y0112
X0022Y00975
X00215Y00875
X0038Y00885
X00075Y0075
X00435Y0077
X0045Y00795
X00445Y0086
X0056Y00845
X005875Y0086949
X0061Y00825
X0062Y008
X00635Y00715
X00605Y007025
X00615Y0065
X0064668Y0062832
X0067Y00615
X00715Y00655
Y00695
X007375Y0071949
X00685Y00715
X0071Y0075
X00715Y0082735
X00705Y00855
X0075Y0091
X0067Y00925
Y00955
X00635Y0098
X006Y00995
X0058Y01025
X00555Y0101
X006Y01045
X00625Y01065
X007Y01085
X0078Y0106
X00765Y01035
X00752Y01012
X00845Y01015
X009Y01
X00935Y0106
X00925Y0109449
X0093Y0114
X009
X0088Y01175
X0085Y0122
X0083Y0124
X0085Y0126
X0083Y01285
X00855Y0131
X0088Y01325
X00905Y01355
X0093463Y0138
X0096Y0135
X0099Y0135246
X0102Y01325
X01075Y0131
Y0135
X01095Y0133
X01115Y0135
X01135Y0133
X01115Y0131
X0111Y0128
X0115Y0124449
X0119Y0125
X01225
X01265
X0127Y01345
X01275Y0137
X01155Y0138
X0116Y0135
Y0131
X011875Y0116949
X01225Y0114
X0115Y0109449
X01115Y0112
X01095Y0114
X01075Y0116
X0108Y0119
X0103Y01165
X0105Y0114
X01005Y01145
X0097953Y0112953
X00955Y0115
X0098Y00985
X01Y00905
X0112
X01145Y0095
X0118Y0094
X01175Y0088
X012
X01245Y0089
X0123Y0085
Y00825
Y008
X012Y0077
X01175
X01155Y00745
Y00715
Y00685
Y0065
Y0062
X0112Y00605
X01155Y00565
Y0053
X0119Y0051
Y0059
Y0067
X0112Y00695
X01035Y00715
X0102Y00745
X00985Y0069
Y0061
X0104Y0059
Y0054
X0107Y00535
X0108Y00505
X011Y00485
X0108Y0045
X011125Y0041949
X01055Y0037
X01015
X00995Y0035
X01035
X01125Y003
X01145Y0025
X01215
X0133Y0023
X0137
X01455Y0026
X0144Y0028
Y00315
Y00345
Y00375
X01435Y004
X01395Y00375
X0137Y004
X0133
X012625Y0041949
X01265Y0034
X01352Y00335
X01475Y0028
X01495Y0026
X01526Y00306
Y00345
X0152681Y00385
X0161Y0038
Y0035
X0164
X01655Y00375
X0168Y00345
X01705Y003
X0175Y0034449
X017125Y0041949
X0169Y0052
X0162
X01635Y0055
X0166Y0057
X016Y0058
X0157Y005
X01525Y0049449
X0141Y00485
X0137Y00505
X0133
X0129Y00485
X01325Y00645
X01383Y00647
X01385Y0068
X0135Y0071
X0133Y0073
X0141Y00595
X01625Y0071
X01655
X01688Y00733
X017Y0069084
X0172284Y0066884
X0175Y0068
X0181Y0064
X01815Y0059
X0181Y0052
X0185Y0051
X019Y0059
X0195Y00735
X0183Y0074
X0184Y00835
X018Y0086
X01775Y0088
X01825Y00965
X01865Y00925
X0195Y0096
Y01185
X017875Y0116949
X01775Y0111
X018Y0109
Y0126
X01825Y0124
X01675Y0124449
X01525
X0145
X01375
X0137Y0117
X013375Y0101949
X0131Y01035
X0128Y0103
X01275Y00935
X01312Y0094
X01145Y0085
Y00825
Y008
X00925Y0079449
X0085Y00775
X0086Y0072886
X00885Y00715
X008875Y0086949
X00925Y0059
Y0051
X00885
X0086Y0052
X00825Y00485
X0083Y0045
X008125Y0041949
X00845Y0035
X00885
X00865Y0037
X00905
X0092Y0045
X00955Y00435
X0098Y0045
X00955Y00485
X00925Y00265
X0093Y0022
X00903Y00195
X00885Y00135
X008125Y0011949
X0079Y00155
X007375Y0011949
X006625
X005875
X005125
X00495Y0016
X00475Y0004449
X0055
X00625
X007
X00775
X0085
X00925
X01
X01075
X0115
X01225
X013
X01375
X0145
X01525
X016
X01675
X0175
X01825
X019
X01975
X0195Y0022
X019Y0019449
X0191Y00265
X0195Y0031
X01985Y0033
Y00365
X016Y003
X0165Y00225
X0145Y0019449
X01125Y002
X01
X0098Y0025
X00955Y00155
X0079Y003
X00655Y00225
X0064Y00365
Y00455
Y0054
X00595Y005
Y0041
Y0032
X00565Y00345
X00485
X0047Y0041
X0045Y00425
X00525Y0039
Y0056
X00555
X00445Y006
X00475Y00735
X00525Y0074
X0057Y00735
X00545Y00775
X005Y0077
X0054Y00926
X0045Y01
Y0111
X00485Y01125
X00515
X00565Y01105
X0054Y0117
X00555Y0121
Y0124
X0045Y01285
X0043Y01325
X00445Y0137
X0047Y0135
X00475Y01165
X0066
X0079Y012
X008Y0059
X0161Y0073327
X01675Y0079449
X01585Y00985
X0158492Y0101492
X01595Y0109
X01575Y0111
X01535Y0109
X0151
X015625Y0116949
Y0131949
X014875
X01485Y0138
X014125Y0131949
X0161Y01355
X0205Y01185
Y0096
X0207569Y0095
X02125Y00905
X02175Y0085
X0226Y0084
X02275Y0079449
X0233Y00785
X02345Y00815
X02375Y00845
X0240079Y0089421
X0244Y00905
X0246Y0093
X02495Y00885
X02525Y0085
X02555Y00825
Y00765
X02645Y0075
X0264616Y0078384
X02635Y0081
X02725Y0079449
X028
X02825Y00735
X0285Y00605
X0286Y00565
X02845Y0054
X02905Y00545
X029125Y0056949
X0294Y00545
X0298
X029875Y0056949
X0302Y00545
X0305Y00555
X0308Y0055
X0311Y0054
X03085Y0048
X030625Y0046618
X0304Y0048
X03
X0296
X0292323
X0288386
X029125Y0041949
X029875
X030625
X031375
X03175Y0034449
X0325
X03325
X034
X03475
X035125Y0041949
X034375
X033625
X03335Y0044
X0337Y00475
X034Y0049449
X03475
X035125Y0056949
X034375
X03295Y00585
X03275Y00615
X0325Y006
X03185Y0060252
X0318Y00575
X0317Y00675
X0315357Y0070143
X03175Y0072
X0311359Y0072359
X031Y0079449
X03175
X0316Y00885
X0316884Y0091568
X03185Y0096
X032145Y009605
X03215Y0099
X03185
X032125Y0101949
X03235Y0105
Y011
Y0115
Y0119
X03185
X0318Y0116
X0317Y01125
X0314Y0107
X03095
X0308Y01005
X031Y0094449
X03125Y0086
X0301Y0087
X0297605Y0082395
X0295Y0079449
X03025
Y0064449
X0305Y0065
X03105Y0063
X03145Y00655
X0327584Y0066416
X03295Y00685
X03275Y00705
X03295Y0073
X0327Y0075
X03335Y0079
X03295Y0085
X03305Y0064
X03475Y0079449
X0351Y0082
X0354
X03475Y0109449
X03455Y0112
X03415Y01085
X0341Y01165
X0337Y01195
X03385Y01235
X034Y01285
Y0134
X03435Y01315
X03365
X032875Y0131949
X0328Y01275
X0324Y01245
X03175Y0124449
X03165Y0122
X0313284Y01255
X0309Y01295
X0306384Y012957
X0301Y01295
X02985Y0131
X0304Y0126
X0306Y0124
X02875Y0123
Y012
Y0117
Y0112
Y0098
X0295Y0094449
X028
X02725
X026875Y0101949
X02605Y0104
X0260484Y0107516
X02605Y01125
X026125Y0116949
X026875
X0255Y0114
X02485Y01125
X02495Y0108
X02425Y0109449
X024Y01065
X0235Y0109449
X02275
X023125Y0116949
X023875
X024625
Y0101949
X02425Y00995
X0235Y0094449
X02275
X023125Y0101949
X0254Y0103
X02565Y0101
X02575Y0091
X02635Y00625
X02515
X025Y0059
X02525Y00575
X02555Y00555
X02575Y0049449
X025375Y0041949
X024625
X0248Y0046
X02465Y00485
X0244Y00505
X0242Y00525
X0239894Y0059559
X0238Y00615
X0234Y0064
X0232Y00715
X0235Y00745
X0225Y00585
X0216Y0064
X02055Y0061115
X02015Y00595
X0202Y00635
X0199Y0064
X0205Y00735
X02015Y00485
Y00365
Y0033
X02065Y0034
X0206Y0031
Y00275
X02065Y0024
X0205Y0022
X02085
X02105Y00235
X02165Y0024
X0215Y00305
X02165Y0033
X02135
Y00365
X02165
X0216Y0043
X02155Y0047
X02135Y0051
X02175
X02355Y00445
X02425Y0034449
X025
X02575
X0265
X02725
X028
X02875
X0295
X03025
X031
X031375Y0026949
X032125
X032875
X033625
X034375
X035125
X030625
X029875
X028375Y0041949
X027625
X02745Y0048
X02785Y00585
X0275Y00645
X02905Y0064
X0295Y0064449
X0287616Y0128431
X02875Y0131
X0287Y0133661
X02875Y01365
X032125Y0131949
X0354Y0132
X023Y01335
X02285Y0136
X0228Y0131
X02375Y0028
X022375Y0011949
X0219Y00135
X022Y0004449
X02125
X0205
X0208684Y0032184
X0355Y0034449
X03625
X037
X03775
X03855Y00345
X03895Y0039
X038875Y0041949
X038125
X037375
X036625
X035875
X03625Y0049449
X037
X036625Y0056949
X035875
X0355Y0049449
X035875Y0026949
X038125
X038875
X03895Y003
X0386344Y0016265
X038189Y001811
X0377436Y0016265
X037559Y0011811
X0377436Y0007357
X038189Y0005512
X0386344Y0007357
X0388189Y0011811
X036625Y0011949
X037Y0004449
X0385Y0049449
X038875Y0056949
X0385Y0064449
X03835Y0071
X038875Y0071949
X03895Y0081
X0385Y0079449
X03855Y0085
X038125Y0086949
X037375
X036625
X037Y0079449
X0371Y0075
X03745
Y0071
X03715Y00705
Y00675
X03685Y00665
X03655Y0066
X03745Y00625
X03625Y0079449
X0355
X03685Y00995
Y01065
X03735Y0109
X03765Y01095
X03785Y01145
X0376Y01175
X0375Y01205
X03785
X0381Y01175
X038875Y0116949
Y0131949
X0383Y01325
X0376
X03748Y01377
X03795Y01255
X0363Y01285
X0357106Y0128478
X0376Y0099
X0379
Y0096
X0376
X038125Y0101949
X038875
X03895Y009
X03825Y014
X0379
X03835Y0144
Y0151
X0385Y0154449
X0379Y0155
X0375Y0151
X0371Y0155
X03665Y0151
X03625Y0155
X0357Y01525
X0358Y01495
X035875Y0161949
X0357Y0165
Y017
Y0175
X035875Y0176949
X0365Y018
Y0185
Y01925
Y01975
Y02005
X0375Y0201
Y01925
X038125Y0191949
X038875
X0385Y0199449
X038125Y0206949
X0375Y021
X037Y0209
X03655Y0216
X03695Y0224
X03675Y02295
X036Y02285
X0355Y02295
X036Y02385
X0361Y02495
X0364
X03665Y0254
Y0257
X03635Y02575
X036Y0259
X0356Y02595
X0358Y0255
X035875Y0266949
X036625
X037Y0259449
X0377436Y0259325
X037559Y0263779
X0377436Y0268234
X038189Y0270079
X0386344Y0268234
X0388189Y0263779
X0386344Y0259325
X038189Y025748
X038125Y0251949
X038875
X037375
X0375Y02365
X0372Y02335
X03765Y02315
X0385Y0229449
X03775Y0214449
X0375Y0185
Y018
X038125Y0176949
X038875
X0385Y0184449
Y0169449
X03775
X03745Y0164
X038125Y0161949
X038875
Y0146949
X03655Y0164
X03625Y0169449
X037Y01705
Y01735
X0355Y0184449
X035875Y0191949
X0355Y0199449
X03475
X035125Y0206949
X03495Y0216
X0335Y02155
X033625Y0206949
X03345Y01965
X0338Y01925
X034Y01905
X0335Y01855
Y0181
X034Y01785
X0339774Y0175932
X034Y0169
Y01645
X0347
Y0169
X03505Y01675
X03545
Y01725
X03505
X0348Y0175
X03545Y01775
X03475Y0184449
X035125Y0191949
X03505Y01625
X03545
X0354Y01535
X0351Y01525
X03475
X03435
X0344Y01495
X034Y0154
X0336653Y0150847
X03335Y01535
X0332Y01475
X0335Y0145
X03225Y01435
X0322Y0149
X03185Y0148
X0316Y01535
X0307Y0153
X0303Y01535
X0305Y0156
X030625Y0161949
X0304Y0169
X0301Y01725
Y0179
X03075
X031Y0176
X03105Y01825
X0308Y0186
X0304Y01825
X02975
X0285
Y0189
Y01955
X028Y0199449
X0268Y02015
Y0206
Y021
X02755Y02185
X028Y0214449
X0295
X0294Y0225
X0301
Y0229
Y02325
X03075
X0314
Y0229
X0313Y0226
X03075Y0225
X030625Y0221949
X03105Y02085
X0316Y0206
X0317Y02105
X0321Y02085
X0322Y0224
X0327Y0223
X0331
X03375Y0225
Y02295
X0338Y02355
X03395Y0238
Y0241
Y0244
Y0247
Y025
X0344705Y0250514
X034786Y0250796
X034869Y0253854
X03515Y0254
X03545
X0352Y02595
X0348
X0344
X034
X03335
X0331Y0257
Y0253
X03285Y02505
X0327Y0249
X0323
X03185Y02495
X0314
Y0242
X03185
X03225Y02425
X0327
X032875Y0236949
X0327Y0232
X0331Y02315
X0321Y02325
X032125Y0236949
X0315Y02375
X03025Y024
X0299Y0239
X02875
X02885Y0242
X0284Y02425
Y02495
X0280979Y0249874
X0277821Y0249612
X02725Y02495
X027Y02505
Y02545
X02705Y0257
X02725Y02555
X0276Y02585
X02795Y0257
X028Y02545
X0285
X02855Y0257
X0287035Y0252806
X0288694Y0250107
X029875Y0251949
X030625
X0321Y0253
Y0257
X0326
Y0253
X03235Y02595
X03285
X032875Y0266949
X033625
X034375
X035125
X0343442Y0247608
Y024444
X0346455Y024346
X0349Y02385
X0349794Y0236
X0347
X03485Y02335
X035Y0231
X03395Y02215
X0336Y0242
X03335Y02505
X032125Y0266949
X0316Y02675
X03075Y0267
X03025Y02685
X02975Y0267
X02925Y02685
X02875Y0267
X02825Y02685
X02775Y0267
X02725
X0270105Y0268238
X02675Y02685
X02625Y0267
X02575Y02685
X02525Y0267
X02475Y02685
X02425Y0267
X02375Y02685
X0234Y02605
X0227Y0267
X02225Y0264
Y0256
X02275Y02535
X0226832Y02485
X02305Y0246
X0237Y0244
X02395Y02455
X0242Y0244
X0245Y02425
X0248Y02455
X02575Y0243
X0257Y0251
Y0254
X02615Y02565
X02645Y0257
X0265Y02545
Y02505
X02615Y02485
X0265Y0244449
X02675Y0242
Y02375
X02775Y0238
X02825Y02335
X02915Y02345
X0294Y02325
X02875Y02225
X02755Y02275
X02725Y0244449
X025375Y0221949
X02505Y02235
X0248Y02255
X02465Y0228
X0239Y02265
X0241Y0224
X023875Y0221949
X02445Y0217
X02425Y0214449
X023125Y0206949
X02305Y01965
X023Y0188
X0226Y01885
X0225Y01845
X02225Y0186
X02185Y01865
X02225Y0178484
Y01745
X02165Y0175
X02125Y01785
Y01705
X021Y0167
X0218
X0226
X0228Y01635
X022925Y01535
X02295Y01505
X02285Y0146
X0235Y0139449
X02425
X02575
Y0154449
X02625Y0153
Y0165
X0259918Y0163918
X0261Y0167769
X0262Y01725
X0265Y0172
X02625Y0176
X02645Y01905
X0266Y0193
X0249612Y019
X02495Y01845
X02425Y0181
Y01765
X0243Y01715
X02405Y0169
X0238Y01665
X0244582Y0166082
X0244Y01635
X02425Y0156
X02395Y0157
X02375Y0159
X02175Y0155
X02155Y015
X02055Y01395
X0198764Y0155236
X01995Y01635
X02Y0167
X02035Y01705
Y01785
X01995Y018
X0199Y0183
Y01765
X02035Y01865
X020125Y0191949
X0214744Y019625
X02205Y0197
X0215Y0209016
X0205Y02085
X02125Y02225
X0205Y0231
X021625Y0236949
X022375
X023125
X022Y0244449
X02125
X021Y0253
X020125Y0251949
X0207Y026
X02055Y0263
X02075Y0265
X02115
X02035
X02355Y0187
X02385Y0188
X02405Y0186
X02425Y0192
X0268Y0162
X02705Y016
X02875Y01635
Y0155
Y01515
Y0144
Y01405
X0291Y01445
X02995Y0147
X03015Y0145
X03085
X02955Y01555
X02915
X02905Y01745
X02875Y01725
X0314
X0311Y0169
X03175
X03185Y0163
X0327
Y01555
X03305Y01675
X0329Y0171
X0326
Y0174
X0329
X03245Y0179
X03215Y01765
X03175Y0184
X03145Y01965
X0308Y01945
X0295Y0199449
X03335Y01655
X01915Y0165079
X0191516Y0170984
X0189Y0173
X0191Y0175
Y0178
X01915Y0181
X01895Y01865
X01855Y01875
X0183Y0189
X01795
X01735Y0189091
X0172Y01865
X0173Y01795
X01745Y01765
X01795Y0171
X01835Y01725
X01825Y0184449
X01815Y01965
X0187
X019375Y0191949
X01975Y01875
X01775Y01985
X01755Y01965
X01715
X01675
X01695Y01985
X0162Y01965
X016Y0199449
X01525
X0155Y0195
Y0192
X01595Y0189
X01635
X0166068Y0188955
X0153Y0185
X01535Y0181
Y0177
X0156Y01785
Y0175
X0154Y0172
X0158Y01675
X01555Y0165
X01535Y0163
X0145708Y0168208
X0143Y017
X01405Y01735
X01465Y0175
X0143Y01805
X01385Y0184
X0137Y0178
X013Y0177
X0125
Y01715
X01345
X0135Y0155
X014
Y015
X01375Y01525
X0135Y015
X013
X01325Y01525
X013Y0155
X01225Y0147
X01175Y01465
X0115Y0154449
X01075
X0105Y01455
X00875Y01425
X00825Y0146
X00835Y0155
X00785Y01545
X0077Y0157
X00745Y01585
X007Y0154449
X00625
X0055
X0053Y01585
X00525Y0147
X00485Y0149
X0048434Y0144934
X00485Y0141
X00515Y0142
X00565Y01425
X0065Y01415
X0069Y01395
X0071Y0143081
X006625Y0146949
X00715Y017
X008Y01715
X0084Y01695
X0087Y016975
X0089031Y0173468
X0093Y017
X01025Y01705
X0106Y01735
X01055Y018
X011125Y0176949
X0112Y01825
X0115Y0199449
X01075
X00925
X0095Y02025
X0092Y0207
X008125Y0206949
X0079Y0196
X0085Y01975
X0081Y0188
X0089468Y0187469
X00855Y0183
X00735Y018
X00665
X00625Y01805
X006Y0186
X00635Y0188
X007Y019
X0048Y01925
X00465Y01755
X00435
X0050453Y0175547
X0049Y0173
X0056Y0176
X00605Y017
X0088Y01565
X00955Y0159
X0145Y0154449
X01475Y01525
X01535Y01475
X01595Y0151
X016Y0154449
X01675
X01655Y0151
X017Y01515
X0172582Y0151582
X0175418Y0151082
X0175Y0154449
X0177349Y0153
X0179918Y0152418
X01825Y01515
X0186
X0189198Y0154698
X0192213Y0153048
X0189Y01445
X01855Y01435
X01815
X01775
X01735
X01705Y0143
X0167Y014
X0163784Y01435
X01575Y01415
X01725Y0162
X0177Y0165
X01935Y0142
X01965Y01395
X0193Y02145
X01865Y0214
X01815Y02145
X01825Y02115
X01775Y0209
X0175Y0207
X01715Y0216
X01745Y0221
X01765Y02235
X018Y0221
X01835Y0228
X01845Y0235
X0195Y0231
X0191Y02265
X019375Y0251949
X0194Y02645
X0196Y02625
Y0267
X0189Y02685
X01825
X01785Y0265
X01725Y02705
X01655Y0268
X01665Y0264
X0163Y02645
X01655Y02605
X016Y026
X0158Y02625
X0155Y0264
X01525Y02665
X01505Y0269
X0154Y0259
X01435Y0261
X014
X0136
X0132
X0128Y02615
X0124Y026
X01265Y02565
X0131Y02555
X01295Y02445
X01265Y02465
X0123Y0243
X01175Y02435
X01125Y02475
X01065Y0244
X0104172Y0242696
X01015Y02455
Y0255
X0104299Y025454
X0107Y02555
X011Y0255
X0109Y0263
X01155Y0262
X0115Y0259449
X01175Y0258
X01205Y0266
X01155Y0271
X00965Y02695
X00895Y0271
Y0262
X00925Y0259449
X0085
X00775
X00755Y0262
X0069Y0263
X00705Y02665
X006625Y0266949
X0059Y0263
X0055Y0259449
X00475
X00495Y0262
X00445Y02655
X00495Y0271
X00565Y02695
X00615Y02545
X00645
X006666Y0255973
X0068902Y0254582
X00725Y02475
X00665Y02435
X0064Y02415
X00615Y02455
X00535Y0247
X0048Y02445
X00468Y02508
X00475Y0254
X0047Y0236
X005Y02365
X00545Y0238
X0062Y0236
X0067Y02355
Y02255
X00715Y0226
X007441Y02255
X0081Y0226
X0087Y02255
X0087084Y0221
X00945Y0222
X00975Y02235
X0101Y0226
X0104172Y0223672
X01055Y0215
X0111Y02115
X0112Y0219
X012Y02135
X0125
X01305Y0213
X0138Y0209075
X01395Y02375
X0141Y024
X0144Y024009
X0146582Y0239918
X01495Y02395
X0151Y0247
X0159Y0251
X0163
X01665
Y0255
X01745Y0257
X018Y0246
X017Y0239
X01665
X0163591
X01585Y02355
X0156559Y0226441
X0159Y02245
X01515Y0228
X0137Y0241
X01315Y0237
X01275
X012Y02335
X01065Y02365
X00965Y0236
X0092
X00865Y02365
X00815
X00775Y0239
X0075Y0237716
X0079Y0244
X0085Y0244449
X00925
X0092Y0225
X006
X0057Y02245
X0054291Y0225516
X0044Y02245
Y02155
Y0212
X0048Y02155
X0063Y02185
X004375Y0236949
X00755Y0271
X0081Y02675
X00995Y0263
X004Y0259449
X003625Y0266949
X002875
X002125
X0016265Y0268234
X001811Y0263779
X0016265Y0259325
X0011811Y025748
X0007357Y0259325
X0005512Y0263779
X0007357Y0268234
X0011811Y0270079
X0025Y0259449
X002125Y0251949
X0025Y0244449
X00325
X004
X0036791Y0236291
X0029Y0235
Y02325
Y023
Y02275
Y0225
Y02225
Y022
Y02175
Y0215
Y02125
Y021
Y02075
Y0205
Y02025
Y02
Y01975
Y0195
Y01925
Y019
Y01875
Y0185
Y01825
Y018
Y01775
Y0175
Y01725
Y017
Y01675
Y0165
Y01625
Y016
X003Y01585
X00275
X00235
X00245Y0156
X00265Y0154
X00325Y01575
X00355
X0038432
X0036Y017
X0032Y01695
X0033Y01795
X00325Y0184449
X0036Y0188
X003625Y0191949
X004Y019
Y0199449
X00395Y02025
X003625Y0206949
X0038Y02135
X0041Y0213
X0033Y02135
X0035Y02255
X00385
X00275Y02365
X0025
X00225
X002
X00175
X0015
X00125
X001
X00075
X0005
X00175Y0244449
X00295Y0239
X00325Y0199449
X00375Y0177
X00415Y0171
X00205Y0158
X00175
X00125Y01585
X001
X00075
X0005
X0011Y01555
X00155Y01475
X00235Y0145
X0023494Y0142431
X0024Y0139
X00325Y0139449
X001
T02
X0136063Y025
X014Y0252756
Y0247244
X0143937Y025
T03
X0031457Y0033957
Y00375
X0035
X0038543
Y0041043
X0035
X0031457
X0035Y0033957
X0038543
X0050532Y0063032
X00525Y0065
X0054469Y0063032
Y0066969
X0050532
X0095Y0121653
Y0125
Y0128347
X0091654Y0125
X0098347
X0148031Y0101969
X0151969
Y0098032
X015Y01
X0148031Y0098032
X0205532Y0044469
X0209469
Y0040532
X0205532
X02075Y00425
X0241653Y00775
X0245
X0248346
X0245Y0080847
Y0074154
X02325Y0174153
Y01775
Y0180847
X0235846Y01775
X0229153
X0238032Y0233032
Y0236968
X0241968
Y0233032
X024Y0235
X02Y0255926
Y0259075
X00725Y0186969
Y0183031
X0036Y0148937
Y0145
Y0141063
X0039937Y0145
X0032063
T05
X0034547Y0018268
X0040453
X0056595
X00625
X0068405
X0121142
X0127047
X0132953
X0138858
X0155689
X0161594
X01675
X0173406
X0179311
X0198642
X0204547
X0210453
X0216358
X0035453Y0256732
X0029547
T06
X0011811Y0011811
X038189
Y0263779
X0011811
M30
