G04*
G04 #@! TF.GenerationSoftware,Altium Limited,Altium Designer,20.2.6 (244)*
G04*
G04 Layer_Physical_Order=1*
G04 Layer_Color=255*
%FSLAX23Y23*%
%MOIN*%
G70*
G04*
G04 #@! TF.SameCoordinates,D2A2F6F1-6CDD-4AA6-AD6F-BD3592A72823*
G04*
G04*
G04 #@! TF.FilePolarity,Positive*
G04*
G01*
G75*
%ADD13C,0.006*%
%ADD14C,0.028*%
%ADD15C,0.012*%
%ADD16C,0.005*%
%ADD17C,0.007*%
%ADD18C,0.010*%
%ADD27R,0.010X0.011*%
%ADD28R,0.011X0.010*%
%ADD29R,0.010X0.011*%
%ADD30R,0.011X0.010*%
%ADD31R,0.016X0.006*%
G04:AMPARAMS|DCode=32|XSize=16mil|YSize=6mil|CornerRadius=0mil|HoleSize=0mil|Usage=FLASHONLY|Rotation=45.000|XOffset=0mil|YOffset=0mil|HoleType=Round|Shape=Rectangle|*
%AMROTATEDRECTD32*
4,1,4,-0.004,-0.008,-0.008,-0.004,0.004,0.008,0.008,0.004,-0.004,-0.008,0.0*
%
%ADD32ROTATEDRECTD32*%

G04:AMPARAMS|DCode=33|XSize=20mil|YSize=22mil|CornerRadius=3mil|HoleSize=0mil|Usage=FLASHONLY|Rotation=0.000|XOffset=0mil|YOffset=0mil|HoleType=Round|Shape=RoundedRectangle|*
%AMROUNDEDRECTD33*
21,1,0.020,0.015,0,0,0.0*
21,1,0.013,0.022,0,0,0.0*
1,1,0.007,0.006,-0.007*
1,1,0.007,-0.006,-0.007*
1,1,0.007,-0.006,0.007*
1,1,0.007,0.006,0.007*
%
%ADD33ROUNDEDRECTD33*%
G04:AMPARAMS|DCode=34|XSize=20mil|YSize=22mil|CornerRadius=3mil|HoleSize=0mil|Usage=FLASHONLY|Rotation=90.000|XOffset=0mil|YOffset=0mil|HoleType=Round|Shape=RoundedRectangle|*
%AMROUNDEDRECTD34*
21,1,0.020,0.015,0,0,90.0*
21,1,0.013,0.022,0,0,90.0*
1,1,0.007,0.007,0.006*
1,1,0.007,0.007,-0.006*
1,1,0.007,-0.007,-0.006*
1,1,0.007,-0.007,0.006*
%
%ADD34ROUNDEDRECTD34*%
%ADD35R,0.015X0.012*%
%ADD36R,0.016X0.067*%
%ADD37C,0.014*%
G36*
X5217Y1737D02*
X5218Y1737D01*
X5220Y1737D01*
X5222Y1737D01*
X5224Y1736D01*
X5226Y1736D01*
X5228Y1735D01*
X5228Y1735D01*
X5228Y1735D01*
X5228Y1735D01*
X5229Y1735D01*
X5230Y1734D01*
X5231Y1733D01*
X5232Y1732D01*
X5233Y1731D01*
X5235Y1730D01*
X5236Y1728D01*
X5236Y1728D01*
X5236Y1728D01*
X5236Y1728D01*
X5236Y1728D01*
X5237Y1727D01*
X5237Y1726D01*
X5238Y1724D01*
X5238Y1722D01*
X5239Y1721D01*
X5239Y1719D01*
X5231Y1718D01*
X5231Y1718D01*
X5231Y1718D01*
X5231Y1718D01*
X5231Y1719D01*
X5231Y1720D01*
X5230Y1721D01*
X5230Y1723D01*
X5229Y1724D01*
X5228Y1726D01*
X5227Y1727D01*
X5226Y1727D01*
X5226Y1727D01*
X5225Y1728D01*
X5224Y1728D01*
X5222Y1729D01*
X5221Y1729D01*
X5218Y1730D01*
X5216Y1730D01*
X5214Y1730D01*
X5214Y1730D01*
X5213Y1730D01*
X5211Y1730D01*
X5210Y1729D01*
X5208Y1729D01*
X5206Y1728D01*
X5205Y1728D01*
X5205Y1727D01*
X5204Y1727D01*
X5204Y1727D01*
X5204Y1726D01*
X5203Y1725D01*
X5202Y1724D01*
X5202Y1723D01*
X5201Y1722D01*
X5201Y1720D01*
X5201Y1720D01*
X5201Y1720D01*
X5201Y1719D01*
X5202Y1719D01*
X5202Y1718D01*
X5202Y1717D01*
X5203Y1716D01*
X5204Y1715D01*
X5204Y1715D01*
X5204Y1714D01*
X5205Y1714D01*
X5205Y1714D01*
X5205Y1714D01*
X5206Y1713D01*
X5207Y1713D01*
X5208Y1713D01*
X5209Y1712D01*
X5210Y1712D01*
X5211Y1712D01*
X5213Y1711D01*
X5214Y1711D01*
X5216Y1710D01*
X5216Y1710D01*
X5217Y1710D01*
X5217Y1710D01*
X5218Y1710D01*
X5219Y1710D01*
X5220Y1709D01*
X5221Y1709D01*
X5222Y1709D01*
X5224Y1708D01*
X5226Y1708D01*
X5228Y1707D01*
X5229Y1707D01*
X5229Y1707D01*
X5230Y1706D01*
X5230Y1706D01*
X5230Y1706D01*
X5231Y1706D01*
X5231Y1706D01*
X5232Y1705D01*
X5233Y1705D01*
X5235Y1704D01*
X5236Y1702D01*
X5237Y1701D01*
X5238Y1700D01*
X5238Y1700D01*
X5239Y1699D01*
X5239Y1698D01*
X5240Y1697D01*
X5240Y1696D01*
X5241Y1694D01*
X5241Y1693D01*
X5241Y1691D01*
X5241Y1691D01*
X5241Y1691D01*
X5241Y1690D01*
X5241Y1690D01*
X5241Y1689D01*
X5241Y1688D01*
X5240Y1686D01*
X5240Y1685D01*
X5239Y1683D01*
X5238Y1681D01*
X5238Y1681D01*
X5238Y1681D01*
X5238Y1681D01*
X5237Y1680D01*
X5236Y1679D01*
X5235Y1678D01*
X5233Y1677D01*
X5232Y1676D01*
X5230Y1675D01*
X5230Y1675D01*
X5230Y1675D01*
X5229Y1674D01*
X5229Y1674D01*
X5228Y1674D01*
X5228Y1674D01*
X5226Y1673D01*
X5225Y1673D01*
X5222Y1672D01*
X5220Y1672D01*
X5218Y1672D01*
X5216Y1672D01*
X5215Y1672D01*
X5215Y1672D01*
X5214Y1672D01*
X5213Y1672D01*
X5210Y1673D01*
X5208Y1673D01*
X5206Y1674D01*
X5203Y1675D01*
X5203Y1675D01*
X5203Y1675D01*
X5203Y1675D01*
X5202Y1675D01*
X5201Y1676D01*
X5200Y1676D01*
X5199Y1678D01*
X5197Y1679D01*
X5196Y1680D01*
X5194Y1682D01*
X5194Y1682D01*
X5194Y1682D01*
X5194Y1683D01*
X5194Y1683D01*
X5194Y1683D01*
X5193Y1684D01*
X5193Y1685D01*
X5192Y1687D01*
X5191Y1689D01*
X5191Y1691D01*
X5191Y1693D01*
X5199Y1694D01*
X5199Y1694D01*
X5199Y1694D01*
X5199Y1694D01*
X5199Y1693D01*
X5199Y1693D01*
X5199Y1691D01*
X5200Y1690D01*
X5200Y1689D01*
X5201Y1688D01*
X5201Y1686D01*
X5201Y1686D01*
X5202Y1686D01*
X5202Y1685D01*
X5203Y1685D01*
X5204Y1684D01*
X5205Y1683D01*
X5206Y1682D01*
X5208Y1681D01*
X5208Y1681D01*
X5208Y1681D01*
X5208Y1681D01*
X5208Y1681D01*
X5209Y1681D01*
X5210Y1681D01*
X5212Y1680D01*
X5213Y1680D01*
X5215Y1680D01*
X5217Y1680D01*
X5218Y1680D01*
X5219Y1680D01*
X5220Y1680D01*
X5221Y1680D01*
X5223Y1680D01*
X5224Y1681D01*
X5226Y1681D01*
X5226Y1681D01*
X5226Y1681D01*
X5227Y1682D01*
X5228Y1682D01*
X5229Y1683D01*
X5230Y1683D01*
X5230Y1684D01*
X5231Y1685D01*
X5231Y1685D01*
X5231Y1685D01*
X5232Y1686D01*
X5232Y1687D01*
X5232Y1687D01*
X5233Y1688D01*
X5233Y1689D01*
X5233Y1690D01*
X5233Y1690D01*
X5233Y1691D01*
X5233Y1691D01*
X5233Y1692D01*
X5233Y1693D01*
X5232Y1694D01*
X5232Y1695D01*
X5231Y1695D01*
X5231Y1696D01*
X5231Y1696D01*
X5230Y1696D01*
X5230Y1697D01*
X5229Y1697D01*
X5228Y1698D01*
X5227Y1699D01*
X5226Y1699D01*
X5225Y1699D01*
X5225Y1699D01*
X5224Y1700D01*
X5224Y1700D01*
X5223Y1700D01*
X5223Y1700D01*
X5222Y1700D01*
X5221Y1701D01*
X5220Y1701D01*
X5219Y1701D01*
X5217Y1701D01*
X5216Y1702D01*
X5214Y1702D01*
X5214Y1702D01*
X5214Y1702D01*
X5213Y1702D01*
X5213Y1703D01*
X5212Y1703D01*
X5211Y1703D01*
X5210Y1703D01*
X5208Y1704D01*
X5205Y1705D01*
X5204Y1705D01*
X5203Y1706D01*
X5202Y1706D01*
X5202Y1706D01*
X5202Y1706D01*
X5201Y1707D01*
X5201Y1707D01*
X5200Y1708D01*
X5199Y1709D01*
X5197Y1710D01*
X5196Y1711D01*
X5195Y1712D01*
X5195Y1712D01*
X5195Y1713D01*
X5195Y1713D01*
X5194Y1714D01*
X5194Y1715D01*
X5194Y1717D01*
X5193Y1718D01*
X5193Y1720D01*
X5193Y1720D01*
X5193Y1720D01*
X5193Y1720D01*
X5193Y1721D01*
X5193Y1722D01*
X5194Y1723D01*
X5194Y1724D01*
X5194Y1726D01*
X5195Y1727D01*
X5196Y1729D01*
X5196Y1729D01*
X5196Y1729D01*
X5196Y1730D01*
X5197Y1730D01*
X5198Y1731D01*
X5199Y1732D01*
X5200Y1733D01*
X5202Y1734D01*
X5204Y1735D01*
X5204Y1735D01*
X5204Y1735D01*
X5204Y1735D01*
X5205Y1736D01*
X5205Y1736D01*
X5206Y1736D01*
X5207Y1736D01*
X5209Y1737D01*
X5211Y1737D01*
X5213Y1737D01*
X5215Y1737D01*
X5217Y1737D01*
X5217Y1737D01*
X5217Y1737D02*
G37*
G36*
X5308Y1737D02*
X5309Y1737D01*
X5311Y1737D01*
X5312Y1737D01*
X5314Y1736D01*
X5317Y1736D01*
X5319Y1735D01*
X5319Y1735D01*
X5319Y1735D01*
X5319Y1735D01*
X5320Y1735D01*
X5321Y1734D01*
X5322Y1734D01*
X5323Y1733D01*
X5325Y1732D01*
X5326Y1730D01*
X5327Y1729D01*
X5328Y1729D01*
X5328Y1728D01*
X5328Y1727D01*
X5329Y1726D01*
X5330Y1725D01*
X5331Y1723D01*
X5332Y1721D01*
X5332Y1719D01*
X5325Y1717D01*
X5325Y1717D01*
X5325Y1717D01*
X5324Y1717D01*
X5324Y1717D01*
X5324Y1718D01*
X5324Y1719D01*
X5323Y1721D01*
X5323Y1722D01*
X5322Y1723D01*
X5321Y1724D01*
X5321Y1724D01*
X5321Y1725D01*
X5320Y1725D01*
X5320Y1726D01*
X5319Y1726D01*
X5318Y1727D01*
X5316Y1728D01*
X5315Y1729D01*
X5315Y1729D01*
X5314Y1729D01*
X5314Y1729D01*
X5313Y1729D01*
X5311Y1730D01*
X5310Y1730D01*
X5308Y1730D01*
X5306Y1730D01*
X5305Y1730D01*
X5305Y1730D01*
X5304Y1730D01*
X5303Y1730D01*
X5301Y1730D01*
X5300Y1730D01*
X5298Y1729D01*
X5296Y1728D01*
X5296Y1728D01*
X5296Y1728D01*
X5295Y1728D01*
X5294Y1727D01*
X5293Y1727D01*
X5292Y1726D01*
X5291Y1725D01*
X5290Y1724D01*
X5290Y1724D01*
X5289Y1723D01*
X5289Y1723D01*
X5288Y1722D01*
X5288Y1721D01*
X5287Y1720D01*
X5286Y1719D01*
X5286Y1718D01*
X5286Y1718D01*
X5286Y1717D01*
X5286Y1717D01*
X5285Y1717D01*
X5285Y1716D01*
X5285Y1715D01*
X5285Y1715D01*
X5285Y1714D01*
X5284Y1712D01*
X5284Y1710D01*
X5283Y1707D01*
X5283Y1705D01*
X5283Y1705D01*
X5283Y1705D01*
X5283Y1704D01*
X5283Y1704D01*
X5283Y1703D01*
X5284Y1702D01*
X5284Y1701D01*
X5284Y1700D01*
X5284Y1698D01*
X5285Y1695D01*
X5285Y1693D01*
X5286Y1691D01*
X5286Y1691D01*
X5286Y1690D01*
X5286Y1690D01*
X5287Y1690D01*
X5287Y1689D01*
X5288Y1688D01*
X5290Y1686D01*
X5291Y1685D01*
X5293Y1684D01*
X5295Y1682D01*
X5295Y1682D01*
X5295Y1682D01*
X5295Y1682D01*
X5296Y1682D01*
X5296Y1682D01*
X5297Y1682D01*
X5298Y1681D01*
X5300Y1681D01*
X5302Y1680D01*
X5304Y1680D01*
X5307Y1680D01*
X5307Y1680D01*
X5308Y1680D01*
X5309Y1680D01*
X5310Y1680D01*
X5312Y1680D01*
X5313Y1680D01*
X5315Y1681D01*
X5317Y1682D01*
X5317Y1682D01*
X5317Y1682D01*
X5318Y1682D01*
X5318Y1682D01*
X5319Y1682D01*
X5320Y1683D01*
X5321Y1684D01*
X5323Y1684D01*
X5324Y1685D01*
X5325Y1686D01*
X5325Y1698D01*
X5306Y1698D01*
X5306Y1705D01*
X5333Y1705D01*
X5333Y1682D01*
X5333Y1682D01*
X5333Y1682D01*
X5333Y1682D01*
X5332Y1681D01*
X5332Y1681D01*
X5331Y1680D01*
X5330Y1680D01*
X5329Y1679D01*
X5327Y1678D01*
X5325Y1677D01*
X5323Y1676D01*
X5320Y1675D01*
X5320Y1675D01*
X5320Y1675D01*
X5320Y1674D01*
X5319Y1674D01*
X5319Y1674D01*
X5318Y1674D01*
X5317Y1674D01*
X5316Y1673D01*
X5314Y1673D01*
X5312Y1672D01*
X5310Y1672D01*
X5307Y1672D01*
X5306Y1672D01*
X5306Y1672D01*
X5305Y1672D01*
X5304Y1672D01*
X5303Y1672D01*
X5301Y1673D01*
X5299Y1673D01*
X5296Y1674D01*
X5293Y1675D01*
X5292Y1675D01*
X5290Y1676D01*
X5290Y1676D01*
X5290Y1676D01*
X5289Y1677D01*
X5289Y1677D01*
X5288Y1677D01*
X5288Y1678D01*
X5286Y1679D01*
X5284Y1681D01*
X5282Y1683D01*
X5280Y1685D01*
X5279Y1688D01*
X5279Y1688D01*
X5278Y1688D01*
X5278Y1688D01*
X5278Y1689D01*
X5278Y1690D01*
X5277Y1690D01*
X5277Y1691D01*
X5277Y1692D01*
X5276Y1694D01*
X5276Y1695D01*
X5276Y1696D01*
X5275Y1698D01*
X5275Y1701D01*
X5275Y1704D01*
X5275Y1704D01*
X5275Y1705D01*
X5275Y1705D01*
X5275Y1706D01*
X5275Y1707D01*
X5275Y1708D01*
X5275Y1709D01*
X5275Y1710D01*
X5276Y1711D01*
X5276Y1713D01*
X5276Y1715D01*
X5277Y1719D01*
X5279Y1722D01*
X5279Y1722D01*
X5279Y1722D01*
X5279Y1722D01*
X5279Y1723D01*
X5280Y1724D01*
X5280Y1724D01*
X5281Y1726D01*
X5283Y1728D01*
X5285Y1730D01*
X5287Y1732D01*
X5288Y1733D01*
X5290Y1733D01*
X5290Y1734D01*
X5290Y1734D01*
X5290Y1734D01*
X5291Y1734D01*
X5292Y1734D01*
X5292Y1735D01*
X5293Y1735D01*
X5294Y1735D01*
X5296Y1736D01*
X5297Y1736D01*
X5298Y1736D01*
X5300Y1737D01*
X5303Y1737D01*
X5305Y1737D01*
X5308Y1737D01*
X5308Y1737D01*
X5308Y1737D02*
G37*
G36*
X5365Y1692D02*
X5341Y1692D01*
X5341Y1700D01*
X5365Y1700D01*
X5365Y1692D01*
X5365Y1692D02*
G37*
G36*
X5184Y1692D02*
X5160Y1692D01*
X5160Y1700D01*
X5184Y1700D01*
X5184Y1692D01*
X5184Y1692D02*
G37*
G36*
X5524Y1736D02*
X5526Y1736D01*
X5528Y1736D01*
X5529Y1736D01*
X5531Y1736D01*
X5531Y1736D01*
X5531Y1735D01*
X5532Y1735D01*
X5533Y1735D01*
X5534Y1735D01*
X5536Y1734D01*
X5537Y1733D01*
X5538Y1733D01*
X5538Y1733D01*
X5539Y1732D01*
X5539Y1732D01*
X5540Y1731D01*
X5541Y1730D01*
X5542Y1729D01*
X5543Y1728D01*
X5543Y1727D01*
X5543Y1726D01*
X5544Y1726D01*
X5544Y1725D01*
X5544Y1724D01*
X5545Y1723D01*
X5545Y1721D01*
X5545Y1720D01*
X5545Y1718D01*
X5545Y1718D01*
X5545Y1718D01*
X5545Y1717D01*
X5545Y1717D01*
X5545Y1716D01*
X5545Y1715D01*
X5545Y1714D01*
X5545Y1713D01*
X5544Y1711D01*
X5544Y1710D01*
X5543Y1709D01*
X5542Y1708D01*
X5542Y1707D01*
X5541Y1705D01*
X5540Y1704D01*
X5540Y1704D01*
X5540Y1704D01*
X5540Y1704D01*
X5539Y1704D01*
X5539Y1703D01*
X5538Y1703D01*
X5537Y1702D01*
X5536Y1702D01*
X5535Y1701D01*
X5533Y1701D01*
X5532Y1700D01*
X5530Y1700D01*
X5528Y1699D01*
X5526Y1699D01*
X5524Y1699D01*
X5522Y1699D01*
X5506Y1699D01*
X5506Y1673D01*
X5497Y1673D01*
X5497Y1736D01*
X5523Y1736D01*
X5524Y1736D01*
X5524Y1736D02*
G37*
G36*
X5420Y1729D02*
X5399Y1729D01*
X5399Y1673D01*
X5391Y1673D01*
X5391Y1729D01*
X5370Y1729D01*
X5370Y1736D01*
X5420Y1736D01*
X5420Y1729D01*
X5420Y1729D02*
G37*
G36*
X5262Y1673D02*
X5254Y1673D01*
X5254Y1736D01*
X5262Y1736D01*
X5262Y1673D01*
X5262Y1673D02*
G37*
G36*
X5141Y1673D02*
X5134Y1673D01*
X5134Y1723D01*
X5134Y1722D01*
X5133Y1722D01*
X5133Y1722D01*
X5132Y1721D01*
X5131Y1720D01*
X5129Y1719D01*
X5128Y1718D01*
X5126Y1717D01*
X5126Y1717D01*
X5126Y1717D01*
X5125Y1717D01*
X5125Y1716D01*
X5123Y1716D01*
X5122Y1715D01*
X5121Y1714D01*
X5119Y1714D01*
X5118Y1713D01*
X5118Y1721D01*
X5118Y1721D01*
X5118Y1721D01*
X5119Y1721D01*
X5119Y1721D01*
X5120Y1722D01*
X5120Y1722D01*
X5122Y1723D01*
X5124Y1724D01*
X5126Y1725D01*
X5127Y1727D01*
X5129Y1728D01*
X5129Y1728D01*
X5130Y1728D01*
X5130Y1729D01*
X5130Y1729D01*
X5131Y1730D01*
X5132Y1731D01*
X5133Y1732D01*
X5134Y1734D01*
X5135Y1735D01*
X5136Y1737D01*
X5141Y1737D01*
X5141Y1673D01*
X5141Y1673D02*
G37*
G36*
X5458Y1737D02*
X5459Y1737D01*
X5459Y1737D01*
X5460Y1737D01*
X5462Y1737D01*
X5464Y1736D01*
X5467Y1736D01*
X5469Y1735D01*
X5471Y1734D01*
X5472Y1733D01*
X5472Y1733D01*
X5472Y1733D01*
X5473Y1733D01*
X5473Y1732D01*
X5474Y1732D01*
X5474Y1731D01*
X5476Y1730D01*
X5478Y1729D01*
X5480Y1727D01*
X5481Y1724D01*
X5483Y1722D01*
X5483Y1721D01*
X5483Y1721D01*
X5483Y1721D01*
X5483Y1720D01*
X5484Y1720D01*
X5484Y1719D01*
X5484Y1718D01*
X5485Y1717D01*
X5485Y1715D01*
X5485Y1714D01*
X5486Y1713D01*
X5486Y1711D01*
X5486Y1708D01*
X5486Y1705D01*
X5486Y1704D01*
X5486Y1704D01*
X5486Y1704D01*
X5486Y1703D01*
X5486Y1702D01*
X5486Y1701D01*
X5486Y1700D01*
X5486Y1699D01*
X5486Y1696D01*
X5485Y1693D01*
X5484Y1690D01*
X5483Y1689D01*
X5483Y1687D01*
X5483Y1687D01*
X5482Y1687D01*
X5482Y1687D01*
X5482Y1686D01*
X5481Y1686D01*
X5481Y1685D01*
X5480Y1683D01*
X5478Y1681D01*
X5476Y1679D01*
X5474Y1678D01*
X5472Y1676D01*
X5471Y1676D01*
X5471Y1676D01*
X5471Y1676D01*
X5470Y1675D01*
X5470Y1675D01*
X5469Y1675D01*
X5468Y1674D01*
X5467Y1674D01*
X5466Y1674D01*
X5465Y1673D01*
X5462Y1673D01*
X5459Y1672D01*
X5456Y1672D01*
X5455Y1672D01*
X5455Y1672D01*
X5454Y1672D01*
X5453Y1672D01*
X5452Y1672D01*
X5451Y1673D01*
X5448Y1673D01*
X5446Y1674D01*
X5443Y1675D01*
X5442Y1676D01*
X5440Y1676D01*
X5440Y1677D01*
X5440Y1677D01*
X5440Y1677D01*
X5439Y1677D01*
X5439Y1678D01*
X5438Y1678D01*
X5436Y1680D01*
X5435Y1681D01*
X5433Y1683D01*
X5431Y1685D01*
X5430Y1688D01*
X5430Y1688D01*
X5429Y1688D01*
X5429Y1689D01*
X5429Y1689D01*
X5429Y1690D01*
X5429Y1691D01*
X5428Y1692D01*
X5428Y1693D01*
X5428Y1694D01*
X5427Y1695D01*
X5427Y1698D01*
X5426Y1701D01*
X5426Y1704D01*
X5426Y1704D01*
X5426Y1704D01*
X5426Y1705D01*
X5426Y1705D01*
X5426Y1706D01*
X5426Y1708D01*
X5427Y1709D01*
X5427Y1711D01*
X5427Y1713D01*
X5428Y1715D01*
X5428Y1717D01*
X5429Y1719D01*
X5430Y1721D01*
X5431Y1723D01*
X5432Y1725D01*
X5433Y1727D01*
X5435Y1728D01*
X5435Y1729D01*
X5435Y1729D01*
X5435Y1729D01*
X5436Y1730D01*
X5437Y1731D01*
X5438Y1731D01*
X5439Y1732D01*
X5440Y1733D01*
X5442Y1734D01*
X5444Y1735D01*
X5445Y1735D01*
X5447Y1736D01*
X5449Y1737D01*
X5452Y1737D01*
X5454Y1737D01*
X5456Y1737D01*
X5457Y1737D01*
X5458Y1737D01*
X5458Y1737D02*
G37*
G36*
X5347Y950D02*
X5348Y950D01*
X5350Y950D01*
X5352Y949D01*
X5354Y949D01*
X5356Y948D01*
X5358Y948D01*
X5358Y948D01*
X5358Y948D01*
X5358Y947D01*
X5359Y947D01*
X5360Y947D01*
X5361Y946D01*
X5362Y945D01*
X5363Y944D01*
X5365Y942D01*
X5366Y941D01*
X5366Y941D01*
X5366Y941D01*
X5366Y940D01*
X5366Y940D01*
X5367Y939D01*
X5367Y938D01*
X5368Y937D01*
X5368Y935D01*
X5369Y933D01*
X5369Y931D01*
X5361Y930D01*
X5361Y931D01*
X5361Y931D01*
X5361Y931D01*
X5361Y931D01*
X5361Y932D01*
X5360Y934D01*
X5360Y935D01*
X5359Y937D01*
X5358Y938D01*
X5357Y939D01*
X5356Y939D01*
X5356Y940D01*
X5355Y940D01*
X5354Y941D01*
X5352Y941D01*
X5351Y942D01*
X5348Y942D01*
X5346Y942D01*
X5344Y942D01*
X5344Y942D01*
X5343Y942D01*
X5341Y942D01*
X5340Y942D01*
X5338Y941D01*
X5336Y941D01*
X5335Y940D01*
X5335Y940D01*
X5334Y940D01*
X5334Y939D01*
X5334Y939D01*
X5333Y938D01*
X5332Y937D01*
X5332Y936D01*
X5331Y934D01*
X5331Y933D01*
X5331Y933D01*
X5331Y932D01*
X5331Y932D01*
X5332Y931D01*
X5332Y930D01*
X5332Y929D01*
X5333Y928D01*
X5334Y927D01*
X5334Y927D01*
X5334Y927D01*
X5335Y927D01*
X5335Y927D01*
X5335Y926D01*
X5336Y926D01*
X5337Y926D01*
X5338Y925D01*
X5339Y925D01*
X5340Y925D01*
X5341Y924D01*
X5343Y924D01*
X5344Y923D01*
X5346Y923D01*
X5346Y923D01*
X5347Y923D01*
X5347Y923D01*
X5348Y923D01*
X5349Y922D01*
X5350Y922D01*
X5351Y922D01*
X5352Y922D01*
X5354Y921D01*
X5356Y920D01*
X5358Y920D01*
X5359Y920D01*
X5359Y919D01*
X5360Y919D01*
X5360Y919D01*
X5360Y919D01*
X5361Y919D01*
X5361Y918D01*
X5362Y918D01*
X5363Y917D01*
X5365Y916D01*
X5366Y915D01*
X5367Y914D01*
X5368Y912D01*
X5368Y912D01*
X5369Y912D01*
X5369Y911D01*
X5370Y910D01*
X5370Y909D01*
X5371Y907D01*
X5371Y905D01*
X5371Y904D01*
X5371Y903D01*
X5371Y903D01*
X5371Y903D01*
X5371Y903D01*
X5371Y902D01*
X5371Y900D01*
X5370Y899D01*
X5370Y897D01*
X5369Y896D01*
X5368Y894D01*
X5368Y894D01*
X5368Y894D01*
X5368Y893D01*
X5367Y892D01*
X5366Y892D01*
X5365Y890D01*
X5363Y889D01*
X5362Y888D01*
X5360Y887D01*
X5360Y887D01*
X5360Y887D01*
X5359Y887D01*
X5359Y887D01*
X5358Y887D01*
X5358Y886D01*
X5356Y886D01*
X5355Y886D01*
X5352Y885D01*
X5350Y885D01*
X5348Y885D01*
X5346Y885D01*
X5345Y885D01*
X5345Y885D01*
X5344Y885D01*
X5343Y885D01*
X5340Y885D01*
X5338Y886D01*
X5336Y886D01*
X5333Y887D01*
X5333Y887D01*
X5333Y887D01*
X5333Y887D01*
X5332Y888D01*
X5331Y888D01*
X5330Y889D01*
X5329Y890D01*
X5327Y891D01*
X5326Y893D01*
X5324Y895D01*
X5324Y895D01*
X5324Y895D01*
X5324Y895D01*
X5324Y896D01*
X5324Y896D01*
X5323Y897D01*
X5323Y898D01*
X5322Y900D01*
X5321Y902D01*
X5321Y904D01*
X5321Y906D01*
X5329Y907D01*
X5329Y907D01*
X5329Y907D01*
X5329Y906D01*
X5329Y906D01*
X5329Y905D01*
X5329Y904D01*
X5330Y903D01*
X5330Y901D01*
X5331Y900D01*
X5331Y899D01*
X5331Y899D01*
X5332Y898D01*
X5332Y898D01*
X5333Y897D01*
X5334Y896D01*
X5335Y896D01*
X5336Y895D01*
X5338Y894D01*
X5338Y894D01*
X5338Y894D01*
X5338Y894D01*
X5338Y894D01*
X5339Y893D01*
X5340Y893D01*
X5342Y893D01*
X5343Y892D01*
X5345Y892D01*
X5347Y892D01*
X5348Y892D01*
X5349Y892D01*
X5350Y892D01*
X5351Y893D01*
X5353Y893D01*
X5354Y893D01*
X5356Y894D01*
X5356Y894D01*
X5356Y894D01*
X5357Y894D01*
X5358Y895D01*
X5359Y895D01*
X5360Y896D01*
X5360Y897D01*
X5361Y897D01*
X5361Y898D01*
X5361Y898D01*
X5362Y898D01*
X5362Y899D01*
X5362Y900D01*
X5363Y901D01*
X5363Y902D01*
X5363Y903D01*
X5363Y903D01*
X5363Y903D01*
X5363Y904D01*
X5363Y905D01*
X5363Y905D01*
X5362Y906D01*
X5362Y907D01*
X5361Y908D01*
X5361Y908D01*
X5361Y908D01*
X5360Y909D01*
X5360Y909D01*
X5359Y910D01*
X5358Y911D01*
X5357Y911D01*
X5356Y912D01*
X5355Y912D01*
X5355Y912D01*
X5354Y912D01*
X5354Y912D01*
X5353Y912D01*
X5353Y913D01*
X5352Y913D01*
X5351Y913D01*
X5350Y913D01*
X5349Y914D01*
X5347Y914D01*
X5346Y914D01*
X5344Y915D01*
X5344Y915D01*
X5344Y915D01*
X5343Y915D01*
X5343Y915D01*
X5342Y915D01*
X5341Y916D01*
X5340Y916D01*
X5338Y917D01*
X5335Y917D01*
X5334Y918D01*
X5333Y918D01*
X5332Y919D01*
X5332Y919D01*
X5332Y919D01*
X5331Y919D01*
X5331Y920D01*
X5330Y920D01*
X5329Y921D01*
X5327Y922D01*
X5326Y923D01*
X5325Y925D01*
X5325Y925D01*
X5325Y925D01*
X5325Y926D01*
X5324Y927D01*
X5324Y928D01*
X5324Y929D01*
X5323Y931D01*
X5323Y932D01*
X5323Y933D01*
X5323Y933D01*
X5323Y933D01*
X5323Y933D01*
X5323Y934D01*
X5324Y935D01*
X5324Y937D01*
X5324Y938D01*
X5325Y940D01*
X5326Y941D01*
X5326Y941D01*
X5326Y942D01*
X5326Y942D01*
X5327Y943D01*
X5328Y944D01*
X5329Y945D01*
X5330Y946D01*
X5332Y947D01*
X5334Y948D01*
X5334Y948D01*
X5334Y948D01*
X5334Y948D01*
X5335Y948D01*
X5335Y948D01*
X5336Y949D01*
X5337Y949D01*
X5339Y949D01*
X5341Y950D01*
X5343Y950D01*
X5345Y950D01*
X5347Y950D01*
X5347Y950D01*
X5347Y950D02*
G37*
G36*
X5206Y950D02*
X5206Y950D01*
X5207Y950D01*
X5208Y950D01*
X5210Y949D01*
X5212Y949D01*
X5215Y948D01*
X5216Y947D01*
X5218Y947D01*
X5219Y946D01*
X5220Y945D01*
X5220Y945D01*
X5220Y945D01*
X5221Y945D01*
X5221Y944D01*
X5222Y944D01*
X5222Y943D01*
X5223Y942D01*
X5224Y942D01*
X5224Y941D01*
X5225Y940D01*
X5226Y939D01*
X5227Y937D01*
X5227Y936D01*
X5228Y935D01*
X5229Y933D01*
X5229Y932D01*
X5221Y930D01*
X5221Y930D01*
X5221Y930D01*
X5221Y930D01*
X5220Y931D01*
X5220Y931D01*
X5220Y932D01*
X5219Y933D01*
X5218Y935D01*
X5217Y937D01*
X5216Y938D01*
X5214Y940D01*
X5214Y940D01*
X5214Y940D01*
X5213Y941D01*
X5212Y941D01*
X5210Y942D01*
X5208Y942D01*
X5206Y943D01*
X5204Y943D01*
X5203Y943D01*
X5203Y943D01*
X5202Y943D01*
X5201Y943D01*
X5200Y942D01*
X5198Y942D01*
X5196Y941D01*
X5194Y940D01*
X5192Y939D01*
X5192Y939D01*
X5192Y939D01*
X5191Y939D01*
X5190Y938D01*
X5189Y937D01*
X5188Y935D01*
X5187Y934D01*
X5186Y932D01*
X5185Y930D01*
X5185Y930D01*
X5185Y930D01*
X5185Y929D01*
X5185Y929D01*
X5184Y928D01*
X5184Y928D01*
X5184Y926D01*
X5184Y924D01*
X5183Y922D01*
X5183Y920D01*
X5183Y918D01*
X5183Y918D01*
X5183Y917D01*
X5183Y917D01*
X5183Y916D01*
X5183Y916D01*
X5183Y915D01*
X5183Y914D01*
X5183Y913D01*
X5184Y911D01*
X5184Y909D01*
X5185Y906D01*
X5185Y904D01*
X5185Y904D01*
X5185Y904D01*
X5186Y903D01*
X5186Y903D01*
X5186Y902D01*
X5187Y900D01*
X5188Y899D01*
X5189Y897D01*
X5191Y896D01*
X5193Y895D01*
X5193Y895D01*
X5193Y895D01*
X5193Y894D01*
X5193Y894D01*
X5194Y894D01*
X5194Y894D01*
X5196Y893D01*
X5197Y893D01*
X5199Y892D01*
X5201Y892D01*
X5203Y892D01*
X5204Y892D01*
X5204Y892D01*
X5205Y892D01*
X5206Y892D01*
X5207Y892D01*
X5209Y893D01*
X5211Y894D01*
X5213Y895D01*
X5214Y895D01*
X5215Y896D01*
X5215Y896D01*
X5215Y896D01*
X5216Y896D01*
X5216Y897D01*
X5216Y897D01*
X5217Y898D01*
X5217Y898D01*
X5218Y899D01*
X5218Y900D01*
X5219Y901D01*
X5220Y901D01*
X5220Y903D01*
X5221Y904D01*
X5221Y905D01*
X5221Y906D01*
X5222Y908D01*
X5230Y906D01*
X5230Y906D01*
X5230Y905D01*
X5230Y905D01*
X5230Y904D01*
X5229Y903D01*
X5229Y902D01*
X5229Y901D01*
X5228Y900D01*
X5227Y897D01*
X5225Y895D01*
X5224Y894D01*
X5223Y892D01*
X5222Y891D01*
X5221Y890D01*
X5221Y890D01*
X5220Y890D01*
X5220Y890D01*
X5220Y889D01*
X5219Y889D01*
X5218Y888D01*
X5217Y888D01*
X5216Y887D01*
X5215Y887D01*
X5214Y886D01*
X5212Y886D01*
X5211Y886D01*
X5209Y885D01*
X5208Y885D01*
X5206Y885D01*
X5204Y885D01*
X5203Y885D01*
X5202Y885D01*
X5201Y885D01*
X5200Y885D01*
X5199Y885D01*
X5198Y885D01*
X5195Y886D01*
X5193Y886D01*
X5190Y887D01*
X5189Y888D01*
X5187Y889D01*
X5187Y889D01*
X5187Y889D01*
X5187Y889D01*
X5186Y890D01*
X5186Y890D01*
X5185Y891D01*
X5185Y891D01*
X5184Y892D01*
X5183Y893D01*
X5182Y894D01*
X5181Y896D01*
X5179Y898D01*
X5178Y901D01*
X5178Y901D01*
X5178Y901D01*
X5177Y902D01*
X5177Y902D01*
X5177Y903D01*
X5177Y904D01*
X5176Y905D01*
X5176Y906D01*
X5176Y907D01*
X5175Y909D01*
X5175Y911D01*
X5175Y915D01*
X5174Y918D01*
X5174Y918D01*
X5174Y918D01*
X5174Y919D01*
X5175Y919D01*
X5175Y920D01*
X5175Y921D01*
X5175Y922D01*
X5175Y924D01*
X5175Y926D01*
X5176Y929D01*
X5177Y932D01*
X5178Y935D01*
X5178Y935D01*
X5178Y935D01*
X5179Y936D01*
X5179Y936D01*
X5179Y937D01*
X5180Y937D01*
X5181Y939D01*
X5182Y941D01*
X5184Y943D01*
X5186Y945D01*
X5189Y946D01*
X5189Y946D01*
X5189Y946D01*
X5190Y946D01*
X5190Y947D01*
X5191Y947D01*
X5191Y947D01*
X5192Y948D01*
X5193Y948D01*
X5194Y948D01*
X5196Y949D01*
X5198Y949D01*
X5201Y950D01*
X5204Y950D01*
X5205Y950D01*
X5206Y950D01*
X5206Y950D02*
G37*
G36*
X5389Y926D02*
X5389Y926D01*
X5389Y927D01*
X5390Y927D01*
X5390Y927D01*
X5391Y928D01*
X5391Y928D01*
X5392Y929D01*
X5393Y929D01*
X5394Y930D01*
X5395Y931D01*
X5397Y932D01*
X5399Y932D01*
X5400Y932D01*
X5401Y932D01*
X5403Y933D01*
X5404Y933D01*
X5405Y932D01*
X5406Y932D01*
X5407Y932D01*
X5409Y932D01*
X5410Y931D01*
X5412Y931D01*
X5412Y930D01*
X5412Y930D01*
X5413Y930D01*
X5414Y929D01*
X5414Y928D01*
X5415Y927D01*
X5416Y926D01*
X5417Y925D01*
X5417Y925D01*
X5417Y924D01*
X5417Y924D01*
X5418Y922D01*
X5418Y921D01*
X5418Y919D01*
X5418Y917D01*
X5419Y915D01*
X5419Y886D01*
X5411Y886D01*
X5411Y915D01*
X5411Y915D01*
X5411Y915D01*
X5411Y915D01*
X5411Y916D01*
X5411Y917D01*
X5411Y918D01*
X5410Y919D01*
X5410Y921D01*
X5409Y922D01*
X5408Y923D01*
X5408Y923D01*
X5408Y924D01*
X5407Y924D01*
X5406Y925D01*
X5405Y925D01*
X5404Y925D01*
X5403Y926D01*
X5401Y926D01*
X5401Y926D01*
X5400Y926D01*
X5399Y926D01*
X5398Y925D01*
X5397Y925D01*
X5396Y925D01*
X5395Y924D01*
X5395Y924D01*
X5394Y924D01*
X5394Y923D01*
X5393Y923D01*
X5392Y922D01*
X5392Y921D01*
X5391Y920D01*
X5390Y919D01*
X5390Y919D01*
X5390Y919D01*
X5390Y918D01*
X5390Y917D01*
X5390Y916D01*
X5389Y914D01*
X5389Y913D01*
X5389Y911D01*
X5389Y886D01*
X5381Y886D01*
X5381Y949D01*
X5389Y949D01*
X5389Y926D01*
X5389Y926D02*
G37*
G36*
X5266Y949D02*
X5266Y949D01*
X5268Y949D01*
X5270Y948D01*
X5272Y948D01*
X5274Y948D01*
X5275Y947D01*
X5275Y947D01*
X5275Y947D01*
X5276Y947D01*
X5277Y946D01*
X5278Y945D01*
X5279Y945D01*
X5280Y944D01*
X5281Y942D01*
X5282Y941D01*
X5282Y941D01*
X5282Y940D01*
X5283Y940D01*
X5283Y938D01*
X5284Y937D01*
X5284Y936D01*
X5285Y934D01*
X5285Y933D01*
X5285Y933D01*
X5285Y932D01*
X5285Y931D01*
X5284Y930D01*
X5284Y929D01*
X5284Y928D01*
X5283Y927D01*
X5282Y925D01*
X5282Y925D01*
X5282Y925D01*
X5281Y924D01*
X5281Y923D01*
X5280Y922D01*
X5279Y921D01*
X5277Y920D01*
X5276Y919D01*
X5276Y919D01*
X5276Y919D01*
X5276Y919D01*
X5277Y919D01*
X5278Y919D01*
X5279Y918D01*
X5280Y917D01*
X5282Y916D01*
X5283Y915D01*
X5285Y914D01*
X5285Y913D01*
X5285Y913D01*
X5286Y912D01*
X5286Y911D01*
X5287Y910D01*
X5287Y908D01*
X5288Y906D01*
X5288Y904D01*
X5288Y904D01*
X5288Y904D01*
X5288Y903D01*
X5288Y902D01*
X5287Y901D01*
X5287Y900D01*
X5287Y899D01*
X5286Y897D01*
X5286Y896D01*
X5286Y896D01*
X5285Y895D01*
X5285Y895D01*
X5285Y894D01*
X5284Y893D01*
X5283Y892D01*
X5282Y891D01*
X5281Y890D01*
X5281Y890D01*
X5281Y890D01*
X5280Y889D01*
X5279Y889D01*
X5278Y888D01*
X5277Y888D01*
X5276Y887D01*
X5274Y887D01*
X5274Y887D01*
X5274Y887D01*
X5273Y887D01*
X5271Y886D01*
X5270Y886D01*
X5268Y886D01*
X5266Y886D01*
X5264Y886D01*
X5240Y886D01*
X5240Y949D01*
X5265Y949D01*
X5266Y949D01*
X5266Y949D02*
G37*
G36*
X5145Y949D02*
X5147Y949D01*
X5149Y949D01*
X5150Y948D01*
X5151Y948D01*
X5152Y948D01*
X5152Y948D01*
X5153Y948D01*
X5154Y948D01*
X5155Y947D01*
X5157Y947D01*
X5158Y946D01*
X5159Y945D01*
X5159Y945D01*
X5160Y945D01*
X5160Y944D01*
X5161Y944D01*
X5162Y943D01*
X5163Y942D01*
X5164Y941D01*
X5164Y939D01*
X5164Y939D01*
X5165Y939D01*
X5165Y938D01*
X5165Y937D01*
X5166Y935D01*
X5166Y934D01*
X5166Y932D01*
X5166Y931D01*
X5166Y930D01*
X5166Y930D01*
X5166Y930D01*
X5166Y929D01*
X5166Y929D01*
X5166Y928D01*
X5166Y927D01*
X5166Y926D01*
X5165Y924D01*
X5165Y923D01*
X5164Y921D01*
X5163Y920D01*
X5163Y919D01*
X5162Y918D01*
X5161Y917D01*
X5161Y917D01*
X5161Y917D01*
X5160Y916D01*
X5160Y916D01*
X5159Y916D01*
X5159Y915D01*
X5158Y915D01*
X5157Y914D01*
X5156Y914D01*
X5154Y913D01*
X5153Y913D01*
X5151Y912D01*
X5149Y912D01*
X5147Y912D01*
X5145Y912D01*
X5143Y911D01*
X5126Y911D01*
X5126Y886D01*
X5118Y886D01*
X5118Y949D01*
X5144Y949D01*
X5145Y949D01*
X5145Y949D02*
G37*
G36*
X5538Y932D02*
X5545Y932D01*
X5545Y926D01*
X5538Y926D01*
X5538Y899D01*
X5538Y898D01*
X5538Y898D01*
X5538Y898D01*
X5538Y897D01*
X5538Y895D01*
X5538Y895D01*
X5538Y894D01*
X5538Y894D01*
X5538Y894D01*
X5539Y893D01*
X5539Y893D01*
X5539Y893D01*
X5540Y893D01*
X5541Y892D01*
X5542Y892D01*
X5543Y892D01*
X5543Y892D01*
X5544Y892D01*
X5545Y893D01*
X5545Y893D01*
X5546Y886D01*
X5546Y886D01*
X5546Y886D01*
X5545Y886D01*
X5544Y886D01*
X5543Y885D01*
X5542Y885D01*
X5540Y885D01*
X5540Y885D01*
X5539Y885D01*
X5538Y885D01*
X5537Y885D01*
X5536Y886D01*
X5535Y886D01*
X5534Y886D01*
X5534Y887D01*
X5534Y887D01*
X5533Y887D01*
X5533Y887D01*
X5532Y888D01*
X5532Y889D01*
X5531Y889D01*
X5531Y890D01*
X5531Y890D01*
X5531Y890D01*
X5530Y891D01*
X5530Y892D01*
X5530Y893D01*
X5530Y894D01*
X5530Y895D01*
X5530Y896D01*
X5530Y897D01*
X5530Y898D01*
X5530Y899D01*
X5530Y926D01*
X5524Y926D01*
X5524Y932D01*
X5530Y932D01*
X5530Y943D01*
X5538Y948D01*
X5538Y932D01*
X5538Y932D02*
G37*
G36*
X5500Y932D02*
X5500Y932D01*
X5501Y932D01*
X5502Y932D01*
X5504Y932D01*
X5505Y931D01*
X5506Y931D01*
X5507Y931D01*
X5508Y930D01*
X5510Y929D01*
X5511Y928D01*
X5512Y927D01*
X5513Y926D01*
X5513Y926D01*
X5513Y926D01*
X5514Y926D01*
X5514Y925D01*
X5515Y924D01*
X5515Y924D01*
X5516Y923D01*
X5516Y922D01*
X5517Y921D01*
X5517Y919D01*
X5518Y918D01*
X5518Y916D01*
X5518Y915D01*
X5519Y913D01*
X5519Y911D01*
X5519Y909D01*
X5519Y909D01*
X5519Y908D01*
X5519Y908D01*
X5519Y907D01*
X5485Y907D01*
X5485Y907D01*
X5485Y906D01*
X5485Y906D01*
X5485Y905D01*
X5485Y905D01*
X5485Y904D01*
X5485Y902D01*
X5486Y901D01*
X5487Y899D01*
X5488Y897D01*
X5489Y895D01*
X5489Y895D01*
X5489Y895D01*
X5490Y894D01*
X5491Y894D01*
X5492Y893D01*
X5493Y892D01*
X5495Y892D01*
X5497Y891D01*
X5498Y891D01*
X5499Y891D01*
X5499Y891D01*
X5500Y891D01*
X5501Y891D01*
X5502Y892D01*
X5504Y892D01*
X5505Y893D01*
X5506Y893D01*
X5506Y893D01*
X5506Y894D01*
X5507Y894D01*
X5508Y895D01*
X5508Y896D01*
X5509Y897D01*
X5510Y899D01*
X5511Y901D01*
X5519Y900D01*
X5519Y899D01*
X5519Y899D01*
X5519Y899D01*
X5518Y898D01*
X5518Y898D01*
X5518Y897D01*
X5517Y896D01*
X5516Y894D01*
X5515Y892D01*
X5513Y890D01*
X5512Y889D01*
X5512Y889D01*
X5511Y888D01*
X5511Y888D01*
X5511Y888D01*
X5510Y888D01*
X5510Y887D01*
X5509Y887D01*
X5508Y887D01*
X5507Y886D01*
X5506Y886D01*
X5504Y885D01*
X5501Y885D01*
X5499Y885D01*
X5498Y885D01*
X5497Y885D01*
X5496Y885D01*
X5495Y885D01*
X5494Y885D01*
X5493Y886D01*
X5490Y886D01*
X5489Y887D01*
X5488Y887D01*
X5486Y888D01*
X5485Y889D01*
X5484Y890D01*
X5483Y891D01*
X5483Y891D01*
X5482Y891D01*
X5482Y892D01*
X5482Y892D01*
X5481Y893D01*
X5481Y893D01*
X5480Y894D01*
X5480Y895D01*
X5479Y897D01*
X5479Y898D01*
X5478Y899D01*
X5478Y901D01*
X5477Y902D01*
X5477Y904D01*
X5477Y906D01*
X5477Y908D01*
X5477Y908D01*
X5477Y909D01*
X5477Y909D01*
X5477Y910D01*
X5477Y911D01*
X5477Y912D01*
X5477Y914D01*
X5478Y915D01*
X5478Y918D01*
X5479Y919D01*
X5479Y921D01*
X5480Y922D01*
X5481Y924D01*
X5482Y925D01*
X5483Y926D01*
X5483Y926D01*
X5483Y926D01*
X5483Y927D01*
X5484Y927D01*
X5484Y928D01*
X5485Y928D01*
X5486Y929D01*
X5487Y929D01*
X5488Y930D01*
X5489Y931D01*
X5490Y931D01*
X5492Y932D01*
X5493Y932D01*
X5495Y932D01*
X5496Y932D01*
X5498Y933D01*
X5499Y933D01*
X5500Y932D01*
X5500Y932D02*
G37*
G36*
X5451Y932D02*
X5451Y932D01*
X5452Y932D01*
X5453Y932D01*
X5455Y932D01*
X5456Y931D01*
X5457Y931D01*
X5458Y931D01*
X5459Y930D01*
X5461Y929D01*
X5462Y928D01*
X5463Y927D01*
X5464Y926D01*
X5464Y926D01*
X5464Y926D01*
X5465Y926D01*
X5465Y925D01*
X5466Y924D01*
X5466Y924D01*
X5467Y923D01*
X5467Y922D01*
X5468Y921D01*
X5468Y919D01*
X5469Y918D01*
X5469Y916D01*
X5469Y915D01*
X5470Y913D01*
X5470Y911D01*
X5470Y909D01*
X5470Y909D01*
X5470Y908D01*
X5470Y908D01*
X5470Y907D01*
X5436Y907D01*
X5436Y907D01*
X5436Y906D01*
X5436Y906D01*
X5436Y905D01*
X5436Y905D01*
X5436Y904D01*
X5436Y902D01*
X5437Y901D01*
X5438Y899D01*
X5439Y897D01*
X5440Y895D01*
X5440Y895D01*
X5440Y895D01*
X5441Y894D01*
X5442Y894D01*
X5443Y893D01*
X5444Y892D01*
X5446Y892D01*
X5448Y891D01*
X5449Y891D01*
X5450Y891D01*
X5450Y891D01*
X5451Y891D01*
X5452Y891D01*
X5453Y892D01*
X5455Y892D01*
X5456Y893D01*
X5457Y893D01*
X5457Y893D01*
X5457Y894D01*
X5458Y894D01*
X5459Y895D01*
X5459Y896D01*
X5460Y897D01*
X5461Y899D01*
X5462Y901D01*
X5470Y900D01*
X5470Y899D01*
X5470Y899D01*
X5470Y899D01*
X5469Y898D01*
X5469Y898D01*
X5469Y897D01*
X5468Y896D01*
X5467Y894D01*
X5466Y892D01*
X5464Y890D01*
X5463Y889D01*
X5463Y889D01*
X5462Y888D01*
X5462Y888D01*
X5462Y888D01*
X5461Y888D01*
X5461Y887D01*
X5460Y887D01*
X5459Y887D01*
X5458Y886D01*
X5457Y886D01*
X5455Y885D01*
X5452Y885D01*
X5450Y885D01*
X5449Y885D01*
X5448Y885D01*
X5447Y885D01*
X5446Y885D01*
X5445Y885D01*
X5444Y886D01*
X5441Y886D01*
X5440Y887D01*
X5439Y887D01*
X5437Y888D01*
X5436Y889D01*
X5435Y890D01*
X5434Y891D01*
X5434Y891D01*
X5433Y891D01*
X5433Y892D01*
X5433Y892D01*
X5432Y893D01*
X5432Y893D01*
X5431Y894D01*
X5431Y895D01*
X5430Y897D01*
X5430Y898D01*
X5429Y899D01*
X5429Y901D01*
X5428Y902D01*
X5428Y904D01*
X5428Y906D01*
X5428Y908D01*
X5428Y908D01*
X5428Y909D01*
X5428Y909D01*
X5428Y910D01*
X5428Y911D01*
X5428Y912D01*
X5428Y914D01*
X5429Y915D01*
X5429Y918D01*
X5430Y919D01*
X5430Y921D01*
X5431Y922D01*
X5432Y924D01*
X5433Y925D01*
X5434Y926D01*
X5434Y926D01*
X5434Y926D01*
X5434Y927D01*
X5435Y927D01*
X5435Y928D01*
X5436Y928D01*
X5437Y929D01*
X5438Y929D01*
X5439Y930D01*
X5440Y931D01*
X5441Y931D01*
X5443Y932D01*
X5444Y932D01*
X5446Y932D01*
X5447Y932D01*
X5449Y933D01*
X5450Y933D01*
X5451Y932D01*
X5451Y932D02*
G37*
G36*
X3257Y61D02*
X3253Y54D01*
X3253Y54D01*
X3253Y55D01*
X3252Y55D01*
X3251Y55D01*
X3251Y56D01*
X3250Y56D01*
X3248Y56D01*
X3245Y56D01*
X3244Y56D01*
X3245Y62D01*
X3257Y61D01*
X3257Y61D02*
G37*
G36*
X3835Y60D02*
X3836Y60D01*
X3836Y60D01*
X3837Y60D01*
X3840Y60D01*
X3842Y59D01*
X3846Y59D01*
X3847Y53D01*
X3845Y53D01*
X3841Y53D01*
X3840Y53D01*
X3839Y53D01*
X3838Y52D01*
X3837Y52D01*
X3837Y52D01*
X3836Y51D01*
X3835Y61D01*
X3835Y60D01*
X3835Y60D02*
G37*
G36*
X3267Y54D02*
X3267Y54D01*
X3267Y53D01*
X3268Y52D01*
X3268Y51D01*
X3269Y50D01*
X3271Y48D01*
X3273Y46D01*
X3269Y42D01*
X3268Y43D01*
X3264Y47D01*
X3263Y47D01*
X3262Y48D01*
X3261Y48D01*
X3261Y48D01*
X3260Y48D01*
X3267Y55D01*
X3267Y54D01*
X3267Y54D02*
G37*
G36*
X3961Y40D02*
X3961Y39D01*
X3960Y39D01*
X3960Y38D01*
X3960Y37D01*
X3960Y35D01*
X3960Y32D01*
X3960Y30D01*
X3954Y30D01*
X3954Y32D01*
X3953Y38D01*
X3953Y39D01*
X3953Y39D01*
X3953Y40D01*
X3952Y40D01*
X3961Y40D01*
X3961Y40D01*
X3961Y40D02*
G37*
G36*
X3254Y35D02*
X3257Y32D01*
X3258Y31D01*
X3259Y31D01*
X3260Y30D01*
X3261Y30D01*
X3261Y30D01*
X3262Y30D01*
X3257Y22D01*
X3257Y23D01*
X3257Y23D01*
X3256Y24D01*
X3256Y24D01*
X3254Y26D01*
X3250Y30D01*
X3253Y36D01*
X3254Y35D01*
X3254Y35D02*
G37*
G36*
X352Y21D02*
X345Y14D01*
X341Y22D01*
X342Y22D01*
X342Y22D01*
X343Y22D01*
X344Y22D01*
X345Y23D01*
X346Y24D01*
X347Y24D01*
X349Y26D01*
X350Y28D01*
X352Y21D01*
X352Y21D02*
G37*
G36*
X3222Y22D02*
X3218Y15D01*
X3217Y15D01*
X3217Y15D01*
X3217Y16D01*
X3216Y16D01*
X3215Y16D01*
X3214Y16D01*
X3213Y16D01*
X3210Y17D01*
X3209Y17D01*
X3209Y23D01*
X3222Y22D01*
X3222Y22D02*
G37*
G36*
X3271Y23D02*
X3271Y22D01*
X3271Y22D01*
X3272Y21D01*
X3272Y20D01*
X3273Y19D01*
X3275Y17D01*
X3277Y15D01*
X3273Y10D01*
X3272Y12D01*
X3267Y15D01*
X3267Y16D01*
X3266Y16D01*
X3265Y16D01*
X3264Y17D01*
X3264Y17D01*
X3271Y24D01*
X3271Y23D01*
X3271Y23D02*
G37*
G36*
X3828Y6D02*
X3815Y5D01*
X3814Y11D01*
X3816Y11D01*
X3820Y11D01*
X3821Y12D01*
X3822Y12D01*
X3823Y12D01*
X3823Y12D01*
X3824Y13D01*
X3824Y13D01*
X3828Y6D01*
X3828Y6D02*
G37*
G36*
X370Y14D02*
X370Y14D01*
X371Y14D01*
X372Y13D01*
X373Y13D01*
X374Y13D01*
X377Y13D01*
X380Y13D01*
X380Y7D01*
X378Y7D01*
X373Y6D01*
X372Y6D01*
X371Y6D01*
X370Y6D01*
X370Y5D01*
X369Y5D01*
X369Y15D01*
X370Y14D01*
X370Y14D02*
G37*
G36*
X3854Y14D02*
X3855Y13D01*
X3855Y13D01*
X3857Y13D01*
X3861Y13D01*
X3865Y13D01*
X3867Y7D01*
X3865Y7D01*
X3861Y7D01*
X3860Y7D01*
X3859Y6D01*
X3858Y6D01*
X3857Y6D01*
X3857Y5D01*
X3857Y5D01*
X3854Y14D01*
X3854Y14D01*
X3854Y14D02*
G37*
G36*
X3068Y5D02*
X3067Y4D01*
X3063Y-1D01*
X3063Y-2D01*
X3062Y-2D01*
X3062Y-3D01*
X3062Y-4D01*
X3062Y-4D01*
X3055Y3D01*
X3055Y3D01*
X3056Y3D01*
X3057Y3D01*
X3057Y4D01*
X3058Y4D01*
X3059Y5D01*
X3061Y7D01*
X3064Y9D01*
X3068Y5D01*
X3068Y5D02*
G37*
G36*
X545Y4D02*
X545Y4D01*
X546Y4D01*
X547Y4D01*
X548Y3D01*
X549Y3D01*
X552Y3D01*
X555Y3D01*
X555Y-3D01*
X553Y-3D01*
X548Y-3D01*
X547Y-4D01*
X546Y-4D01*
X545Y-4D01*
X545Y-4D01*
X544Y-5D01*
X544Y5D01*
X545Y4D01*
X545Y4D02*
G37*
G36*
X534Y-5D02*
X534Y-4D01*
X533Y-4D01*
X533Y-4D01*
X532Y-4D01*
X531Y-3D01*
X530Y-3D01*
X527Y-3D01*
X524Y-3D01*
X524Y3D01*
X525Y3D01*
X531Y3D01*
X532Y4D01*
X533Y4D01*
X533Y4D01*
X534Y4D01*
X534Y5D01*
X534Y-5D01*
X534Y-5D02*
G37*
G36*
X3850Y1D02*
X3850Y1D01*
X3849Y1D01*
X3848Y0D01*
X3848Y-0D01*
X3847Y-1D01*
X3846Y-1D01*
X3844Y-3D01*
X3841Y-5D01*
X3837Y-1D01*
X3838Y0D01*
X3842Y4D01*
X3842Y5D01*
X3843Y6D01*
X3843Y7D01*
X3843Y7D01*
X3844Y8D01*
X3850Y1D01*
X3850Y1D02*
G37*
G36*
X3237Y-2D02*
X3233Y-9D01*
X3233Y-8D01*
X3233Y-8D01*
X3232Y-8D01*
X3232Y-8D01*
X3231Y-7D01*
X3230Y-7D01*
X3228Y-7D01*
X3225Y-7D01*
X3224Y-7D01*
X3225Y-1D01*
X3237Y-2D01*
X3237Y-2D02*
G37*
G36*
X3050Y-9D02*
X3049Y-9D01*
X3049Y-8D01*
X3048Y-8D01*
X3047Y-8D01*
X3046Y-8D01*
X3045Y-8D01*
X3042Y-7D01*
X3039Y-7D01*
X3039Y-1D01*
X3041Y-1D01*
X3046Y-1D01*
X3047Y-1D01*
X3048Y-0D01*
X3049Y-0D01*
X3049Y0D01*
X3050Y1D01*
X3050Y-9D01*
X3050Y-9D02*
G37*
G36*
X3286Y-22D02*
X3275Y-24D01*
X3276Y-23D01*
X3276Y-22D01*
X3277Y-21D01*
X3277Y-21D01*
X3277Y-20D01*
X3277Y-19D01*
X3277Y-18D01*
X3276Y-17D01*
X3276Y-16D01*
X3275Y-15D01*
X3279Y-11D01*
X3280Y-12D01*
X3281Y-13D01*
X3282Y-13D01*
X3283Y-13D01*
X3283Y-13D01*
X3284Y-13D01*
X3285Y-13D01*
X3286Y-13D01*
X3287Y-12D01*
X3288Y-11D01*
X3286Y-22D01*
X3286Y-22D02*
G37*
G36*
X3104Y-15D02*
X3104Y-16D01*
X3105Y-16D01*
X3106Y-16D01*
X3107Y-16D01*
X3108Y-16D01*
X3111Y-17D01*
X3114Y-17D01*
X3114Y-23D01*
X3113Y-23D01*
X3107Y-23D01*
X3106Y-23D01*
X3105Y-24D01*
X3104Y-24D01*
X3104Y-24D01*
X3103Y-25D01*
X3103Y-15D01*
X3104Y-15D01*
X3104Y-15D02*
G37*
G36*
X3253Y-30D02*
X3241Y-31D01*
X3239Y-25D01*
X3241Y-25D01*
X3245Y-24D01*
X3247Y-24D01*
X3247Y-24D01*
X3248Y-24D01*
X3249Y-23D01*
X3249Y-23D01*
X3249Y-22D01*
X3253Y-30D01*
X3253Y-30D02*
G37*
G36*
X3975Y-25D02*
X3975Y-29D01*
X3975Y-30D01*
X3976Y-31D01*
X3976Y-32D01*
X3976Y-32D01*
X3977Y-32D01*
X3977Y-33D01*
X3970Y-37D01*
X3969Y-24D01*
X3975Y-23D01*
X3975Y-25D01*
X3975Y-25D02*
G37*
G36*
X3944Y-41D02*
X3938Y-41D01*
X3938Y-41D01*
X3938Y-41D01*
X3938Y-40D01*
X3938Y-38D01*
X3938Y-34D01*
X3944Y-34D01*
X3944Y-41D01*
X3944Y-41D02*
G37*
G36*
X3117Y-44D02*
X3117Y-44D01*
X3116Y-44D01*
X3115Y-43D01*
X3115Y-43D01*
X3113Y-43D01*
X3112Y-43D01*
X3110Y-42D01*
X3106Y-42D01*
X3106Y-36D01*
X3108Y-36D01*
X3113Y-36D01*
X3115Y-36D01*
X3115Y-35D01*
X3116Y-35D01*
X3117Y-35D01*
X3117Y-35D01*
X3117Y-44D01*
X3117Y-44D02*
G37*
G36*
X3074Y-40D02*
X3074Y-41D01*
X3074Y-41D01*
X3075Y-42D01*
X3075Y-43D01*
X3076Y-44D01*
X3078Y-46D01*
X3080Y-48D01*
X3076Y-53D01*
X3075Y-51D01*
X3071Y-48D01*
X3070Y-47D01*
X3069Y-47D01*
X3068Y-47D01*
X3068Y-46D01*
X3067Y-46D01*
X3074Y-39D01*
X3074Y-40D01*
X3074Y-40D02*
G37*
%LPC*%
G36*
X5524Y1729D02*
X5506Y1729D01*
X5506Y1706D01*
X5523Y1706D01*
X5523Y1706D01*
X5524Y1706D01*
X5525Y1706D01*
X5526Y1707D01*
X5528Y1707D01*
X5530Y1708D01*
X5532Y1708D01*
X5533Y1709D01*
X5533Y1709D01*
X5533Y1709D01*
X5534Y1710D01*
X5534Y1711D01*
X5535Y1711D01*
X5536Y1713D01*
X5536Y1714D01*
X5537Y1716D01*
X5537Y1718D01*
X5537Y1718D01*
X5537Y1718D01*
X5537Y1718D01*
X5537Y1719D01*
X5536Y1720D01*
X5536Y1721D01*
X5536Y1722D01*
X5535Y1723D01*
X5535Y1724D01*
X5535Y1725D01*
X5534Y1725D01*
X5534Y1725D01*
X5533Y1726D01*
X5533Y1727D01*
X5532Y1727D01*
X5531Y1728D01*
X5529Y1728D01*
X5529Y1728D01*
X5529Y1728D01*
X5528Y1728D01*
X5528Y1729D01*
X5527Y1729D01*
X5525Y1729D01*
X5524Y1729D01*
X5524Y1729D02*
G37*
G36*
X5456Y1730D02*
X5455Y1730D01*
X5455Y1730D01*
X5454Y1730D01*
X5453Y1730D01*
X5452Y1730D01*
X5451Y1729D01*
X5449Y1729D01*
X5447Y1728D01*
X5446Y1728D01*
X5445Y1727D01*
X5444Y1726D01*
X5442Y1725D01*
X5441Y1724D01*
X5441Y1724D01*
X5441Y1724D01*
X5441Y1723D01*
X5440Y1723D01*
X5440Y1722D01*
X5439Y1721D01*
X5439Y1720D01*
X5438Y1719D01*
X5437Y1718D01*
X5437Y1716D01*
X5436Y1715D01*
X5436Y1713D01*
X5435Y1711D01*
X5435Y1709D01*
X5435Y1706D01*
X5435Y1704D01*
X5435Y1704D01*
X5435Y1703D01*
X5435Y1703D01*
X5435Y1702D01*
X5435Y1701D01*
X5435Y1700D01*
X5435Y1699D01*
X5435Y1697D01*
X5436Y1694D01*
X5437Y1693D01*
X5437Y1691D01*
X5438Y1690D01*
X5439Y1688D01*
X5440Y1687D01*
X5441Y1686D01*
X5441Y1686D01*
X5441Y1686D01*
X5441Y1685D01*
X5442Y1685D01*
X5443Y1684D01*
X5443Y1684D01*
X5444Y1683D01*
X5445Y1683D01*
X5446Y1682D01*
X5447Y1681D01*
X5449Y1681D01*
X5450Y1680D01*
X5451Y1680D01*
X5453Y1680D01*
X5454Y1679D01*
X5456Y1679D01*
X5457Y1679D01*
X5457Y1679D01*
X5458Y1679D01*
X5459Y1679D01*
X5459Y1680D01*
X5461Y1680D01*
X5462Y1680D01*
X5463Y1680D01*
X5464Y1681D01*
X5465Y1681D01*
X5467Y1682D01*
X5468Y1683D01*
X5469Y1684D01*
X5471Y1685D01*
X5472Y1686D01*
X5472Y1686D01*
X5472Y1686D01*
X5472Y1687D01*
X5473Y1687D01*
X5473Y1688D01*
X5474Y1689D01*
X5474Y1690D01*
X5475Y1691D01*
X5475Y1692D01*
X5476Y1693D01*
X5476Y1695D01*
X5477Y1697D01*
X5477Y1698D01*
X5478Y1700D01*
X5478Y1702D01*
X5478Y1705D01*
X5478Y1705D01*
X5478Y1705D01*
X5478Y1705D01*
X5478Y1706D01*
X5478Y1707D01*
X5478Y1707D01*
X5478Y1708D01*
X5477Y1709D01*
X5477Y1711D01*
X5477Y1713D01*
X5476Y1716D01*
X5475Y1718D01*
X5475Y1718D01*
X5475Y1718D01*
X5475Y1719D01*
X5475Y1719D01*
X5474Y1720D01*
X5473Y1721D01*
X5472Y1723D01*
X5471Y1724D01*
X5469Y1726D01*
X5468Y1727D01*
X5467Y1727D01*
X5467Y1727D01*
X5467Y1727D01*
X5467Y1728D01*
X5466Y1728D01*
X5466Y1728D01*
X5464Y1729D01*
X5463Y1729D01*
X5461Y1730D01*
X5459Y1730D01*
X5456Y1730D01*
X5456Y1730D02*
G37*
G36*
X5263Y941D02*
X5248Y941D01*
X5248Y922D01*
X5264Y922D01*
X5265Y923D01*
X5266Y923D01*
X5268Y923D01*
X5269Y923D01*
X5270Y923D01*
X5270Y923D01*
X5271Y923D01*
X5271Y924D01*
X5272Y924D01*
X5273Y924D01*
X5273Y925D01*
X5274Y926D01*
X5275Y926D01*
X5275Y926D01*
X5275Y927D01*
X5275Y927D01*
X5276Y928D01*
X5276Y929D01*
X5276Y929D01*
X5276Y931D01*
X5276Y932D01*
X5276Y932D01*
X5276Y932D01*
X5276Y933D01*
X5276Y934D01*
X5276Y934D01*
X5276Y935D01*
X5275Y936D01*
X5275Y937D01*
X5275Y937D01*
X5275Y938D01*
X5274Y938D01*
X5274Y938D01*
X5273Y939D01*
X5272Y940D01*
X5272Y940D01*
X5271Y940D01*
X5270Y940D01*
X5270Y941D01*
X5269Y941D01*
X5268Y941D01*
X5267Y941D01*
X5265Y941D01*
X5263Y941D01*
X5263Y941D02*
G37*
G36*
X5265Y915D02*
X5248Y915D01*
X5248Y893D01*
X5266Y893D01*
X5268Y893D01*
X5269Y893D01*
X5270Y894D01*
X5270Y894D01*
X5270Y894D01*
X5271Y894D01*
X5272Y894D01*
X5273Y894D01*
X5275Y895D01*
X5275Y895D01*
X5275Y895D01*
X5275Y896D01*
X5276Y896D01*
X5276Y897D01*
X5277Y897D01*
X5277Y898D01*
X5278Y899D01*
X5278Y899D01*
X5278Y899D01*
X5278Y900D01*
X5279Y900D01*
X5279Y901D01*
X5279Y902D01*
X5279Y903D01*
X5279Y904D01*
X5279Y904D01*
X5279Y905D01*
X5279Y905D01*
X5279Y906D01*
X5279Y907D01*
X5278Y908D01*
X5278Y909D01*
X5277Y910D01*
X5277Y910D01*
X5277Y911D01*
X5277Y911D01*
X5276Y912D01*
X5275Y912D01*
X5274Y913D01*
X5273Y913D01*
X5272Y914D01*
X5272Y914D01*
X5272Y914D01*
X5271Y914D01*
X5270Y914D01*
X5269Y915D01*
X5267Y915D01*
X5265Y915D01*
X5265Y915D02*
G37*
G36*
X5145Y941D02*
X5126Y941D01*
X5126Y919D01*
X5143Y919D01*
X5144Y919D01*
X5145Y919D01*
X5145Y919D01*
X5147Y919D01*
X5149Y920D01*
X5151Y920D01*
X5153Y921D01*
X5154Y921D01*
X5154Y922D01*
X5154Y922D01*
X5155Y922D01*
X5155Y923D01*
X5156Y924D01*
X5157Y925D01*
X5157Y927D01*
X5157Y928D01*
X5158Y930D01*
X5158Y930D01*
X5158Y930D01*
X5158Y931D01*
X5158Y932D01*
X5157Y933D01*
X5157Y934D01*
X5157Y935D01*
X5156Y936D01*
X5156Y937D01*
X5156Y937D01*
X5155Y937D01*
X5155Y938D01*
X5154Y939D01*
X5153Y939D01*
X5153Y940D01*
X5152Y940D01*
X5150Y941D01*
X5150Y941D01*
X5150Y941D01*
X5149Y941D01*
X5149Y941D01*
X5148Y941D01*
X5146Y941D01*
X5145Y941D01*
X5145Y941D02*
G37*
G36*
X5498Y926D02*
X5498Y926D01*
X5497Y926D01*
X5496Y926D01*
X5495Y926D01*
X5494Y925D01*
X5492Y925D01*
X5491Y924D01*
X5489Y923D01*
X5489Y922D01*
X5489Y922D01*
X5488Y921D01*
X5487Y920D01*
X5487Y919D01*
X5486Y917D01*
X5486Y915D01*
X5485Y913D01*
X5511Y913D01*
X5511Y913D01*
X5511Y913D01*
X5511Y914D01*
X5511Y914D01*
X5511Y915D01*
X5510Y916D01*
X5510Y918D01*
X5509Y919D01*
X5509Y920D01*
X5508Y922D01*
X5508Y922D01*
X5508Y922D01*
X5507Y922D01*
X5506Y923D01*
X5505Y924D01*
X5504Y925D01*
X5502Y925D01*
X5500Y926D01*
X5499Y926D01*
X5498Y926D01*
X5498Y926D02*
G37*
G36*
X5449Y926D02*
X5449Y926D01*
X5448Y926D01*
X5447Y926D01*
X5446Y926D01*
X5445Y925D01*
X5443Y925D01*
X5442Y924D01*
X5440Y923D01*
X5440Y922D01*
X5440Y922D01*
X5439Y921D01*
X5438Y920D01*
X5438Y919D01*
X5437Y917D01*
X5437Y915D01*
X5436Y913D01*
X5462Y913D01*
X5462Y913D01*
X5462Y913D01*
X5462Y914D01*
X5462Y914D01*
X5462Y915D01*
X5461Y916D01*
X5461Y918D01*
X5460Y919D01*
X5460Y920D01*
X5459Y922D01*
X5459Y922D01*
X5459Y922D01*
X5458Y922D01*
X5457Y923D01*
X5456Y924D01*
X5455Y925D01*
X5453Y925D01*
X5451Y926D01*
X5450Y926D01*
X5449Y926D01*
X5449Y926D02*
G37*
%LPD*%
D13*
X3816Y61D02*
G03*
X3826Y40I15J-5D01*
G01*
X3276Y57D02*
G03*
X3275Y61I-16J-2D01*
G01*
X3985Y52D02*
G03*
X3981Y60I-12J0D01*
G01*
X3985Y52D02*
G03*
X3981Y60I-12J0D01*
G01*
X3817Y40D02*
G03*
X3809Y36I0J-12D01*
G01*
X3817Y40D02*
G03*
X3809Y36I0J-12D01*
G01*
X3981Y7D02*
G03*
X3985Y15I-9J8D01*
G01*
X3981Y7D02*
G03*
X3985Y15I-9J8D01*
G01*
X3984Y-15D02*
G03*
X3981Y-7I-12J0D01*
G01*
X3984Y-15D02*
G03*
X3981Y-7I-12J0D01*
G01*
X3103Y-5D02*
G03*
X3084Y-12I-5J-15D01*
G01*
X3084Y-12D02*
G03*
X3075Y-8I-8J-8D01*
G01*
X3084Y-12D02*
G03*
X3075Y-8I-8J-8D01*
G01*
X3992Y-39D02*
G03*
X3984Y-26I-16J0D01*
G01*
X3854Y-28D02*
G03*
X3862Y-24I0J12D01*
G01*
X3854Y-28D02*
G03*
X3862Y-24I0J12D01*
G01*
X3221Y-16D02*
G03*
X3215Y-19I2J-12D01*
G01*
X3221Y-16D02*
G03*
X3215Y-19I2J-12D01*
G01*
X3196Y-14D02*
G03*
X3204Y-16I6J10D01*
G01*
X3196Y-14D02*
G03*
X3204Y-16I6J10D01*
G01*
X3207Y-24D02*
G03*
X3200Y-22I-7J-10D01*
G01*
X3207Y-24D02*
G03*
X3200Y-22I-7J-10D01*
G01*
X3961Y-44D02*
G03*
X3992Y-39I15J5D01*
G01*
X3053Y-32D02*
G03*
X3065Y-55I14J-7D01*
G01*
X3032Y-29D02*
G03*
X3040Y-32I8J8D01*
G01*
X3032Y-29D02*
G03*
X3040Y-32I8J8D01*
G01*
X602Y52D02*
G03*
X594Y56I-8J-8D01*
G01*
X602Y52D02*
G03*
X594Y56I-8J-8D01*
G01*
X464Y56D02*
G03*
X455Y52I0J-12D01*
G01*
X464Y56D02*
G03*
X455Y52I0J-12D01*
G01*
X356Y42D02*
G03*
X348Y38I0J-12D01*
G01*
X572Y-19D02*
G03*
X579Y-15I-2J12D01*
G01*
X546Y-14D02*
G03*
X554Y-19I10J8D01*
G01*
X589Y-25D02*
G03*
X598Y-28I8J8D01*
G01*
X589Y-25D02*
G03*
X598Y-28I8J8D01*
G01*
X532Y-14D02*
G03*
X546Y-14I7J14D01*
G01*
X528Y-19D02*
G03*
X532Y-14I-5J11D01*
G01*
X537Y-32D02*
G03*
X528Y-19I-14J0D01*
G01*
X356Y42D02*
G03*
X348Y38I0J-12D01*
G01*
X341Y31D02*
G03*
X325Y8I-2J-16D01*
G01*
X289Y8D02*
G03*
X279Y4I0J-12D01*
G01*
X325Y8D02*
G03*
X316Y-4I3J-12D01*
G01*
X314Y-4D02*
G03*
X302Y8I-12J0D01*
G01*
X341Y-32D02*
G03*
X353Y-22I0J12D01*
G01*
X316Y-19D02*
G03*
X328Y-32I12J0D01*
G01*
X279Y4D02*
G03*
X279Y-27I-4J-15D01*
G01*
X302Y-32D02*
G03*
X314Y-19I0J12D01*
G01*
X279Y-27D02*
G03*
X289Y-32I9J8D01*
G01*
X554Y-19D02*
G03*
X541Y-33I2J-14D01*
G01*
X585Y-33D02*
G03*
X572Y-19I-14J0D01*
G01*
X570Y-60D02*
G03*
X585Y-46I0J14D01*
G01*
X541Y-46D02*
G03*
X556Y-60I14J0D01*
G01*
X526Y-61D02*
G03*
X537Y-47I-4J14D01*
G01*
X495Y-49D02*
G03*
X505Y-61I14J2D01*
G01*
X522Y-61D02*
G03*
X526Y-61I0J14D01*
G01*
X505Y-61D02*
G03*
X509Y-61I4J14D01*
G01*
X483Y-59D02*
G03*
X495Y-49I0J12D01*
G01*
X458Y-47D02*
G03*
X470Y-59I12J0D01*
G01*
X3798Y61D02*
X3819Y40D01*
X3783Y32D02*
X3811Y61D01*
X3777Y61D02*
X3805Y33D01*
X3762Y32D02*
X3790Y61D01*
X3981Y61D02*
X3998Y61D01*
X3989Y61D02*
X3998Y52D01*
X3713Y61D02*
X3742Y32D01*
X3719Y32D02*
X3748Y61D01*
X3692Y61D02*
X3721Y32D01*
X3698Y32D02*
X3727Y61D01*
X3740Y32D02*
X3769Y61D01*
X3756Y61D02*
X3784Y32D01*
X3735Y61D02*
X3763Y32D01*
X3634Y32D02*
X3663Y61D01*
X3650Y61D02*
X3678Y32D01*
X3613Y32D02*
X3642Y61D01*
X3629Y61D02*
X3657Y32D01*
X3671Y61D02*
X3700Y32D01*
X3677Y32D02*
X3705Y61D01*
X3656Y32D02*
X3684Y61D01*
X3565Y61D02*
X3594Y32D01*
X3571Y32D02*
X3599Y61D01*
X3544Y61D02*
X3572Y32D01*
X3550Y32D02*
X3578Y61D01*
X3592Y32D02*
X3621Y61D01*
X3607Y61D02*
X3636Y32D01*
X3586Y61D02*
X3615Y32D01*
X3480Y61D02*
X3509Y32D01*
X3507Y32D02*
X3536Y61D01*
X3459Y61D02*
X3487Y32D01*
X3465Y32D02*
X3493Y61D01*
X3523Y61D02*
X3551Y32D01*
X3528Y32D02*
X3557Y61D01*
X3275Y61D02*
X3816Y61D01*
X3287Y45D02*
X3302Y61D01*
X3297Y35D02*
X3324Y61D01*
X3277Y56D02*
X3281Y61D01*
X3438Y61D02*
X3466Y32D01*
X3443Y32D02*
X3472Y61D01*
X3422Y32D02*
X3451Y61D01*
X3395Y61D02*
X3424Y32D01*
X3401Y32D02*
X3430Y61D01*
X3374Y61D02*
X3403Y32D01*
X3380Y32D02*
X3408Y61D01*
X3486Y32D02*
X3514Y61D01*
X3501Y61D02*
X3530Y32D01*
X3417Y61D02*
X3445Y32D01*
X3316Y32D02*
X3345Y61D01*
X3332Y61D02*
X3360Y32D01*
X3289Y61D02*
X3318Y32D01*
X3310Y61D02*
X3339Y32D01*
X3353Y61D02*
X3381Y32D01*
X3359Y32D02*
X3387Y61D01*
X3337Y32D02*
X3366Y61D01*
X3985Y43D02*
X3998Y56D01*
X3958Y49D02*
X3961Y47D01*
X3958Y49D02*
X3961Y47D01*
X3985Y44D02*
X3998Y31D01*
X3952Y46D02*
X3961Y46D01*
X3955Y49D02*
X3958Y49D01*
X3817Y40D02*
X3826Y40D01*
X3809Y37D02*
X3818Y46D01*
X3804Y32D02*
X3809Y36D01*
X3300Y32D02*
X3804Y32D01*
X3985Y22D02*
X3998Y35D01*
X3985Y15D02*
X3985Y52D01*
X3985Y23D02*
X3998Y10D01*
X3981Y-3D02*
X3998Y13D01*
X3981Y5D02*
X3998Y-11D01*
X3981Y-4D02*
X3981Y4D01*
X3981Y-4D02*
X3981Y4D01*
X3981Y7D01*
X3981Y-7D02*
X3981Y-4D01*
X3278Y55D02*
X3280Y52D01*
X3280Y52D02*
X3300Y32D01*
X3228Y19D02*
X3236Y11D01*
X3228Y8D02*
X3228Y19D01*
X3228Y8D02*
X3236Y8D01*
X3229Y8D02*
X3234Y13D01*
X3228Y16D02*
X3236Y8D01*
X3103Y16D02*
X3103Y22D01*
X3136Y16D02*
X3146Y16D01*
X3098Y22D02*
X3103Y22D01*
X3096Y20D02*
X3103Y13D01*
X3146Y16D02*
X3154Y16D01*
X3165Y16D01*
X3146Y16D02*
X3154Y16D01*
X3165Y6D02*
X3165Y14D01*
X3143Y16D02*
X3163Y-4D01*
X3136Y4D02*
X3136Y16D01*
X3136Y0D02*
X3151Y16D01*
X3236Y11D02*
X3239Y8D01*
X3165Y6D02*
X3165Y14D01*
X3165Y-4D02*
X3165Y6D01*
X3136Y4D02*
X3136Y16D01*
X3103Y-5D02*
X3103Y4D01*
X3083Y-11D02*
X3103Y10D01*
X3013Y61D02*
X3035Y39D01*
X2998Y32D02*
X3027Y61D01*
X2976Y32D02*
X3005Y61D01*
X2992Y61D02*
X3021Y32D01*
X3035Y61D02*
X3046Y50D01*
X3028Y32D02*
X3057Y61D01*
X3019Y32D02*
X3048Y61D01*
X2929Y61D02*
X2958Y32D01*
X2934Y32D02*
X2963Y61D01*
X2907Y61D02*
X2936Y32D01*
X2913Y32D02*
X2942Y61D01*
X2955Y32D02*
X2984Y61D01*
X2971Y61D02*
X3000Y32D01*
X2950Y61D02*
X2979Y32D01*
X2849Y32D02*
X2878Y61D01*
X2865Y61D02*
X2894Y32D01*
X2828Y32D02*
X2857Y61D01*
X2844Y61D02*
X2873Y32D01*
X2886Y61D02*
X2915Y32D01*
X2892Y32D02*
X2920Y61D01*
X2870Y32D02*
X2899Y61D01*
X2780Y61D02*
X2809Y32D01*
X2785Y32D02*
X2814Y61D01*
X2759Y61D02*
X2788Y32D01*
X2764Y32D02*
X2793Y61D01*
X2807Y32D02*
X2836Y61D01*
X2823Y61D02*
X2851Y32D01*
X2801Y61D02*
X2830Y32D01*
X2552Y32D02*
X2581Y61D01*
X2568Y61D02*
X2597Y32D01*
X2276Y32D02*
X2305Y61D01*
X2547Y61D02*
X2576Y32D01*
X2589Y61D02*
X2618Y32D01*
X2595Y32D02*
X2623Y61D01*
X2573Y32D02*
X2602Y61D01*
X2192Y32D02*
X2220Y61D01*
X2207Y61D02*
X2236Y32D01*
X2170Y32D02*
X2199Y61D01*
X2186Y61D02*
X2215Y32D01*
X2229Y61D02*
X2257Y32D01*
X2271Y61D02*
X2300Y32D01*
X2213Y32D02*
X2242Y61D01*
X2701Y32D02*
X2730Y61D01*
X2716Y61D02*
X2745Y32D01*
X2679Y32D02*
X2708Y61D01*
X2695Y61D02*
X2724Y32D01*
X2738Y61D02*
X2767Y32D01*
X2743Y32D02*
X2772Y61D01*
X2722Y32D02*
X2751Y61D01*
X2632Y61D02*
X2661Y32D01*
X2637Y32D02*
X2666Y61D01*
X2610Y61D02*
X2639Y32D01*
X2616Y32D02*
X2645Y61D01*
X2658Y32D02*
X2687Y61D01*
X2674Y61D02*
X2703Y32D01*
X2653Y61D02*
X2682Y32D01*
X2510Y32D02*
X2539Y61D01*
X2526Y61D02*
X2554Y32D01*
X2488Y32D02*
X2517Y61D01*
X2504Y61D02*
X2533Y32D01*
X3094Y18D02*
X3098Y22D01*
X3094Y18D02*
X3098Y22D01*
X2531Y32D02*
X2560Y61D01*
X2441Y61D02*
X2470Y32D01*
X2446Y32D02*
X2475Y61D01*
X2419Y61D02*
X2448Y32D01*
X2425Y32D02*
X2454Y61D01*
X2467Y32D02*
X2496Y61D01*
X2483Y61D02*
X2512Y32D01*
X2462Y61D02*
X2491Y32D01*
X3092Y16D02*
X3094Y18D01*
X3103Y4D02*
X3103Y16D01*
X3080Y4D02*
X3094Y18D01*
X3080Y4D02*
X3094Y18D01*
X3103Y4D02*
X3103Y16D01*
X3086Y10D02*
X3099Y-4D01*
X3075Y-1D02*
X3085Y-11D01*
X3080Y4D02*
X3082Y6D01*
X3075Y-1D02*
X3080Y4D01*
X3075Y-1D02*
X3080Y4D01*
X3071Y-6D02*
X3074Y-3D01*
X3070Y-8D02*
X3075Y-8D01*
X2144Y61D02*
X2173Y32D01*
X2149Y32D02*
X2178Y61D01*
X2123Y61D02*
X2151Y32D01*
X2128Y32D02*
X2157Y61D01*
X2234Y32D02*
X2263Y61D01*
X2250Y61D02*
X2279Y32D01*
X2165Y61D02*
X2194Y32D01*
X2064Y32D02*
X2093Y61D01*
X2080Y61D02*
X2109Y32D01*
X2043Y32D02*
X2072Y61D01*
X2059Y61D02*
X2088Y32D01*
X2101Y61D02*
X2130Y32D01*
X2107Y32D02*
X2136Y61D01*
X2085Y32D02*
X2114Y61D01*
X2361Y32D02*
X2390Y61D01*
X2377Y61D02*
X2406Y32D01*
X2340Y32D02*
X2369Y61D01*
X2356Y61D02*
X2385Y32D01*
X2398Y61D02*
X2427Y32D01*
X2404Y32D02*
X2433Y61D01*
X2382Y32D02*
X2411Y61D01*
X2292Y61D02*
X2321Y32D01*
X2298Y32D02*
X2327Y61D01*
X2255Y32D02*
X2284Y61D01*
X2319Y32D02*
X2348Y61D01*
X2335Y61D02*
X2364Y32D01*
X2313Y61D02*
X2342Y32D01*
X3984Y-21D02*
X3998Y-8D01*
X3984Y-22D02*
X3984Y-15D01*
X3888Y-22D02*
X3893Y-22D01*
X3984Y-19D02*
X3998Y-33D01*
X3893Y-24D02*
X3901Y-24D01*
X3888Y-22D02*
X3893Y-22D01*
X3871Y-22D02*
X3885Y-22D01*
X3871Y-22D02*
X3885Y-22D01*
X3865Y-22D02*
X3868Y-22D01*
X3865Y-22D02*
X3868Y-22D01*
X3862Y-24D02*
X3865Y-22D01*
X3901Y-46D02*
X3901Y-24D01*
X3998Y-61D02*
X3998Y61D01*
X3881Y-22D02*
X3901Y-42D01*
X3839Y-61D02*
X3877Y-22D01*
X3860Y-61D02*
X3897Y-24D01*
X3862Y-24D02*
X3898Y-61D01*
X3844Y-28D02*
X3877Y-61D01*
X3781Y-28D02*
X3814Y-61D01*
X3796Y-61D02*
X3829Y-28D01*
X3760Y-28D02*
X3792Y-61D01*
X3775Y-61D02*
X3808Y-28D01*
X3817Y-61D02*
X3850Y-28D01*
X3823Y-28D02*
X3856Y-61D01*
X3802Y-28D02*
X3835Y-61D01*
X3675Y-28D02*
X3707Y-61D01*
X3204Y-16D02*
X3221Y-16D01*
X3696Y-28D02*
X3729Y-61D01*
X3711Y-61D02*
X3744Y-28D01*
X3309Y-28D02*
X3854Y-28D01*
X3199Y-22D02*
X3205Y-16D01*
X3210Y-24D02*
X3215Y-19D01*
X3207Y-24D02*
X3210Y-24D01*
X3690Y-61D02*
X3723Y-28D01*
X3717Y-28D02*
X3750Y-61D01*
X3654Y-28D02*
X3686Y-61D01*
X3669Y-61D02*
X3702Y-28D01*
X3738Y-28D02*
X3771Y-61D01*
X3754Y-61D02*
X3787Y-28D01*
X3733Y-61D02*
X3765Y-28D01*
X3399Y-28D02*
X3432Y-61D01*
X3414Y-61D02*
X3447Y-28D01*
X3378Y-28D02*
X3410Y-61D01*
X3393Y-61D02*
X3426Y-28D01*
X3441Y-28D02*
X3474Y-61D01*
X3457Y-61D02*
X3490Y-28D01*
X3420Y-28D02*
X3453Y-61D01*
X3992Y-35D02*
X3998Y-29D01*
X3953Y-44D02*
X3961Y-44D01*
X3945Y-61D02*
X3961Y-44D01*
X3990Y-47D02*
X3998Y-54D01*
X3948Y-46D02*
X3962Y-61D01*
X3933Y-46D02*
X3953Y-46D01*
X3901Y-42D02*
X3905Y-46D01*
X3921Y-46D02*
X3933Y-46D01*
X3921Y-46D02*
X3933Y-46D01*
X3901Y-46D02*
X3921Y-46D01*
X3927Y-46D02*
X3941Y-61D01*
X3987Y-61D02*
X3998Y-50D01*
X3905Y-46D02*
X3920Y-61D01*
X3924Y-61D02*
X3938Y-46D01*
X3978Y-55D02*
X3983Y-61D01*
X3978Y-55D02*
X3983Y-61D01*
X3966Y-61D02*
X3972Y-55D01*
X3627Y-61D02*
X3659Y-28D01*
X3632Y-28D02*
X3665Y-61D01*
X3605Y-61D02*
X3638Y-28D01*
X3611Y-28D02*
X3644Y-61D01*
X3881Y-61D02*
X3901Y-40D01*
X3902Y-61D02*
X3917Y-46D01*
X3648Y-61D02*
X3680Y-28D01*
X3547Y-28D02*
X3580Y-61D01*
X3563Y-61D02*
X3596Y-28D01*
X3526Y-28D02*
X3559Y-61D01*
X3542Y-61D02*
X3574Y-28D01*
X3584Y-61D02*
X3617Y-28D01*
X3590Y-28D02*
X3623Y-61D01*
X3569Y-28D02*
X3601Y-61D01*
X3478Y-61D02*
X3511Y-28D01*
X3484Y-28D02*
X3517Y-61D01*
X3277Y-60D02*
X3309Y-28D01*
X3463Y-28D02*
X3495Y-61D01*
X3505Y-28D02*
X3538Y-61D01*
X3521Y-61D02*
X3553Y-28D01*
X3499Y-61D02*
X3532Y-28D01*
X3351Y-61D02*
X3383Y-28D01*
X3357Y-28D02*
X3389Y-61D01*
X3330Y-61D02*
X3362Y-28D01*
X3335Y-28D02*
X3368Y-61D01*
X3372Y-61D02*
X3405Y-28D01*
X3436Y-61D02*
X3468Y-28D01*
X3276Y-61D02*
X3998Y-61D01*
X3308Y-61D02*
X3341Y-28D01*
X3314Y-28D02*
X3347Y-61D01*
X3287Y-61D02*
X3320Y-28D01*
X3290Y-47D02*
X3304Y-61D01*
X3301Y-36D02*
X3326Y-61D01*
X3280Y-57D02*
X3283Y-61D01*
X3163Y-16D02*
X3163Y-4D01*
X3196Y-22D02*
X3196Y-14D01*
X3141Y-16D02*
X3165Y8D01*
X3154Y-16D02*
X3163Y-16D01*
X3196Y-22D02*
X3200Y-22D01*
X3196Y-16D02*
X3202Y-22D01*
X3146Y-16D02*
X3154Y-16D01*
X3136Y-16D02*
X3146Y-16D01*
X3154Y-16D01*
X3136Y-16D02*
X3136Y4D01*
X3136Y2D02*
X3153Y-16D01*
X2996Y-28D02*
X3029Y-61D01*
X3018Y-28D02*
X3050Y-61D01*
X2990Y-61D02*
X3022Y-28D01*
X2933Y-28D02*
X2965Y-61D01*
X2948Y-61D02*
X2980Y-28D01*
X2911Y-28D02*
X2944Y-61D01*
X2927Y-61D02*
X2959Y-28D01*
X2969Y-61D02*
X3001Y-28D01*
X2975Y-28D02*
X3007Y-61D01*
X2954Y-28D02*
X2986Y-61D01*
X2863Y-61D02*
X2895Y-28D01*
X2869Y-28D02*
X2901Y-61D01*
X2842Y-61D02*
X2874Y-28D01*
X2848Y-28D02*
X2880Y-61D01*
X2890Y-28D02*
X2923Y-61D01*
X2905Y-61D02*
X2938Y-28D01*
X2884Y-61D02*
X2916Y-28D01*
X2636Y-28D02*
X2668Y-61D01*
X2651Y-61D02*
X2683Y-28D01*
X2614Y-28D02*
X2647Y-61D01*
X2630Y-61D02*
X2662Y-28D01*
X2672Y-61D02*
X2704Y-28D01*
X2678Y-28D02*
X2710Y-61D01*
X2657Y-28D02*
X2689Y-61D01*
X2226Y-61D02*
X2259Y-28D01*
X2233Y-28D02*
X2265Y-61D01*
X2190Y-28D02*
X2223Y-61D01*
X2205Y-61D02*
X2238Y-28D01*
X2593Y-28D02*
X2626Y-61D01*
X2608Y-61D02*
X2641Y-28D01*
X2248Y-61D02*
X2280Y-28D01*
X2784Y-28D02*
X2816Y-61D01*
X2799Y-61D02*
X2832Y-28D01*
X2763Y-28D02*
X2795Y-61D01*
X2778Y-61D02*
X2810Y-28D01*
X2820Y-61D02*
X2853Y-28D01*
X2827Y-28D02*
X2859Y-61D01*
X2805Y-28D02*
X2838Y-61D01*
X2714Y-61D02*
X2747Y-28D01*
X2721Y-28D02*
X2753Y-61D01*
X2693Y-61D02*
X2725Y-28D01*
X2699Y-28D02*
X2732Y-61D01*
X2742Y-28D02*
X2774Y-61D01*
X2757Y-61D02*
X2789Y-28D01*
X2736Y-61D02*
X2768Y-28D01*
X3043Y-32D02*
X3051Y-41D01*
X3040Y-32D02*
X3053Y-32D01*
X3065Y-55D02*
X3069Y-58D01*
X3054Y-61D02*
X3061Y-54D01*
X3033Y-61D02*
X3051Y-42D01*
X2572Y-28D02*
X2604Y-61D01*
X2587Y-61D02*
X2619Y-28D01*
X2545Y-61D02*
X2577Y-28D01*
X2566Y-61D02*
X2598Y-28D01*
X3011Y-61D02*
X3040Y-32D01*
X2551Y-28D02*
X2583Y-61D01*
X2487Y-28D02*
X2519Y-61D01*
X2502Y-61D02*
X2535Y-28D01*
X2466Y-28D02*
X2498Y-61D01*
X2481Y-61D02*
X2513Y-28D01*
X2523Y-61D02*
X2556Y-28D01*
X2530Y-28D02*
X2562Y-61D01*
X2508Y-28D02*
X2541Y-61D01*
X2417Y-61D02*
X2450Y-28D01*
X2424Y-28D02*
X2456Y-61D01*
X2396Y-61D02*
X2428Y-28D01*
X2402Y-28D02*
X2435Y-61D01*
X2445Y-28D02*
X2477Y-61D01*
X2460Y-61D02*
X2492Y-28D01*
X2439Y-61D02*
X2471Y-28D01*
X2148Y-28D02*
X2180Y-61D01*
X2163Y-61D02*
X2195Y-28D01*
X2127Y-28D02*
X2159Y-61D01*
X2142Y-61D02*
X2174Y-28D01*
X2184Y-61D02*
X2216Y-28D01*
X2211Y-28D02*
X2244Y-61D01*
X2169Y-28D02*
X2201Y-61D01*
X2078Y-61D02*
X2110Y-28D01*
X2084Y-28D02*
X2116Y-61D01*
X2057Y-61D02*
X2089Y-28D01*
X2063Y-28D02*
X2095Y-61D01*
X2105Y-28D02*
X2138Y-61D01*
X2120Y-61D02*
X2153Y-28D01*
X2099Y-61D02*
X2132Y-28D01*
X2339Y-28D02*
X2371Y-61D01*
X2354Y-61D02*
X2386Y-28D01*
X2317Y-28D02*
X2350Y-61D01*
X2333Y-61D02*
X2365Y-28D01*
X2375Y-61D02*
X2407Y-28D01*
X2381Y-28D02*
X2413Y-61D01*
X2360Y-28D02*
X2392Y-61D01*
X2269Y-61D02*
X2301Y-28D01*
X2275Y-28D02*
X2307Y-61D01*
X2254Y-28D02*
X2286Y-61D01*
X2296Y-28D02*
X2329Y-61D01*
X2311Y-61D02*
X2344Y-28D01*
X2290Y-61D02*
X2322Y-28D01*
X1847Y61D02*
X1876Y32D01*
X1852Y32D02*
X1881Y61D01*
X1826Y61D02*
X1854Y32D01*
X1831Y32D02*
X1860Y61D01*
X1873Y32D02*
X1902Y61D01*
X1889Y61D02*
X1918Y32D01*
X1868Y61D02*
X1897Y32D01*
X1767Y32D02*
X1796Y61D01*
X1783Y61D02*
X1812Y32D01*
X1746Y32D02*
X1775Y61D01*
X1762Y61D02*
X1791Y32D01*
X1804Y61D02*
X1833Y32D01*
X1810Y32D02*
X1839Y61D01*
X1788Y32D02*
X1817Y61D01*
X1995Y61D02*
X2024Y32D01*
X2001Y32D02*
X2030Y61D01*
X1974Y61D02*
X2003Y32D01*
X1979Y32D02*
X2008Y61D01*
X2022Y32D02*
X2051Y61D01*
X2038Y61D02*
X2067Y32D01*
X2016Y61D02*
X2045Y32D01*
X1916Y32D02*
X1945Y61D01*
X1932Y61D02*
X1961Y32D01*
X1895Y32D02*
X1923Y61D01*
X1910Y61D02*
X1939Y32D01*
X1953Y61D02*
X1982Y32D01*
X1958Y32D02*
X1987Y61D01*
X1937Y32D02*
X1966Y61D01*
X1555Y32D02*
X1584Y61D01*
X1571Y61D02*
X1600Y32D01*
X1534Y32D02*
X1563Y61D01*
X1550Y61D02*
X1579Y32D01*
X1576Y32D02*
X1605Y61D01*
X1592Y61D02*
X1621Y32D01*
X282Y61D02*
X3057Y61D01*
X1486Y61D02*
X1515Y32D01*
X1491Y32D02*
X1520Y61D01*
X1083Y61D02*
X1112Y32D01*
X1470Y32D02*
X1499Y61D01*
X1513Y32D02*
X1542Y61D01*
X1529Y61D02*
X1557Y32D01*
X1507Y61D02*
X1536Y32D01*
X1698Y61D02*
X1727Y32D01*
X1704Y32D02*
X1733Y61D01*
X1677Y61D02*
X1706Y32D01*
X1682Y32D02*
X1711Y61D01*
X1725Y32D02*
X1754Y61D01*
X1741Y61D02*
X1770Y32D01*
X1719Y61D02*
X1748Y32D01*
X1619Y32D02*
X1648Y61D01*
X1635Y61D02*
X1664Y32D01*
X1598Y32D02*
X1626Y61D01*
X1613Y61D02*
X1642Y32D01*
X1656Y61D02*
X1685Y32D01*
X1661Y32D02*
X1690Y61D01*
X1640Y32D02*
X1669Y61D01*
X1274Y61D02*
X1303Y32D01*
X1279Y32D02*
X1308Y61D01*
X1253Y61D02*
X1282Y32D01*
X1258Y32D02*
X1287Y61D01*
X1301Y32D02*
X1329Y61D01*
X1316Y61D02*
X1345Y32D01*
X1295Y61D02*
X1324Y32D01*
X1194Y32D02*
X1223Y61D01*
X1210Y61D02*
X1239Y32D01*
X1173Y32D02*
X1202Y61D01*
X1189Y61D02*
X1218Y32D01*
X1232Y61D02*
X1260Y32D01*
X1237Y32D02*
X1266Y61D01*
X1216Y32D02*
X1245Y61D01*
X1422Y61D02*
X1451Y32D01*
X1428Y32D02*
X1457Y61D01*
X1401Y61D02*
X1430Y32D01*
X1407Y32D02*
X1436Y61D01*
X1449Y32D02*
X1478Y61D01*
X1465Y61D02*
X1494Y32D01*
X1444Y61D02*
X1473Y32D01*
X1343Y32D02*
X1372Y61D01*
X1359Y61D02*
X1388Y32D01*
X1322Y32D02*
X1351Y61D01*
X1338Y61D02*
X1367Y32D01*
X1380Y61D02*
X1409Y32D01*
X1385Y32D02*
X1414Y61D01*
X1364Y32D02*
X1393Y61D01*
X1125Y61D02*
X1154Y32D01*
X1131Y32D02*
X1160Y61D01*
X1104Y61D02*
X1133Y32D01*
X1110Y32D02*
X1139Y61D01*
X1152Y32D02*
X1181Y61D01*
X1168Y61D02*
X1197Y32D01*
X1147Y61D02*
X1176Y32D01*
X1041Y61D02*
X1070Y32D01*
X1046Y32D02*
X1075Y61D01*
X1019Y61D02*
X1048Y32D01*
X1025Y32D02*
X1054Y61D01*
X1067Y32D02*
X1096Y61D01*
X1088Y32D02*
X1117Y61D01*
X1062Y61D02*
X1091Y32D01*
X982Y32D02*
X1011Y61D01*
X998Y61D02*
X1027Y32D01*
X961Y32D02*
X990Y61D01*
X977Y61D02*
X1006Y32D01*
X623Y32D02*
X3028Y32D01*
X1004Y32D02*
X1033Y61D01*
X598Y-28D02*
X3031Y-28D01*
X913Y61D02*
X942Y32D01*
X919Y32D02*
X948Y61D01*
X898Y32D02*
X926Y61D01*
X940Y32D02*
X969Y61D01*
X956Y61D02*
X985Y32D01*
X935Y61D02*
X963Y32D01*
X834Y32D02*
X863Y61D01*
X850Y61D02*
X879Y32D01*
X813Y32D02*
X842Y61D01*
X828Y61D02*
X857Y32D01*
X876Y32D02*
X905Y61D01*
X892Y61D02*
X921Y32D01*
X871Y61D02*
X900Y32D01*
X765Y61D02*
X794Y32D01*
X770Y32D02*
X799Y61D01*
X612Y43D02*
X629Y61D01*
X622Y32D02*
X651Y61D01*
X791Y32D02*
X820Y61D01*
X807Y61D02*
X836Y32D01*
X786Y61D02*
X815Y32D01*
X722Y61D02*
X751Y32D01*
X728Y32D02*
X757Y61D01*
X701Y61D02*
X730Y32D01*
X707Y32D02*
X736Y61D01*
X749Y32D02*
X778Y61D01*
X855Y32D02*
X884Y61D01*
X744Y61D02*
X773Y32D01*
X643Y32D02*
X672Y61D01*
X659Y61D02*
X688Y32D01*
X616Y61D02*
X645Y32D01*
X638Y61D02*
X667Y32D01*
X680Y61D02*
X709Y32D01*
X685Y32D02*
X714Y61D01*
X664Y32D02*
X693Y61D01*
X553Y61D02*
X558Y56D01*
X561Y56D02*
X566Y61D01*
X532Y61D02*
X536Y56D01*
X540Y56D02*
X545Y61D01*
X582Y56D02*
X587Y61D01*
X601Y53D02*
X608Y61D01*
X574Y61D02*
X579Y56D01*
X476Y56D02*
X481Y61D01*
X489Y61D02*
X494Y56D01*
X468Y61D02*
X473Y56D01*
X447Y61D02*
X455Y52D01*
X510Y61D02*
X515Y56D01*
X519Y56D02*
X523Y61D01*
X497Y56D02*
X502Y61D01*
X401Y44D02*
X417Y61D01*
X422Y44D02*
X439Y61D01*
X383Y61D02*
X399Y44D01*
X380Y44D02*
X396Y61D01*
X444Y44D02*
X460Y61D01*
X595Y61D02*
X624Y32D01*
X425Y61D02*
X442Y44D01*
X319Y61D02*
X345Y35D01*
X301Y8D02*
X354Y61D01*
X271Y50D02*
X282Y61D01*
X298Y61D02*
X330Y29D01*
X362Y61D02*
X378Y44D01*
X356Y42D02*
X375Y61D01*
X341Y61D02*
X360Y42D01*
X464Y56D02*
X594Y56D01*
X602Y52D02*
X623Y32D01*
X447Y44D02*
X455Y52D01*
X404Y61D02*
X420Y44D01*
X432Y44D02*
X447Y44D01*
X395Y44D02*
X432Y44D01*
X373Y44D02*
X395Y44D01*
X356Y42D02*
X373Y42D01*
X579Y-15D02*
X589Y-25D01*
X548Y-20D02*
X551Y-18D01*
X584Y-28D02*
X588Y-23D01*
X544Y-15D02*
X549Y-20D01*
X529Y-19D02*
X533Y-15D01*
X537Y-32D02*
X543Y-26D01*
X353Y-22D02*
X373Y-22D01*
X280Y58D02*
X323Y15D01*
X276Y4D02*
X332Y61D01*
X269Y48D02*
X317Y-0D01*
X345Y35D02*
X348Y38D01*
X314Y-1D02*
X324Y10D01*
X254Y41D02*
X287Y8D01*
X233Y41D02*
X271Y3D01*
X18Y41D02*
X250Y41D01*
X18Y22D02*
X37Y41D01*
X289Y8D02*
X302Y8D01*
X18Y1D02*
X58Y41D01*
X316Y-19D02*
X316Y-4D01*
X314Y-19D02*
X314Y-4D01*
X328Y-32D02*
X341Y-32D01*
X212Y41D02*
X260Y-8D01*
X18Y-20D02*
X79Y41D01*
X289Y-32D02*
X302Y-32D01*
X1278Y-28D02*
X1310Y-61D01*
X1293Y-61D02*
X1325Y-28D01*
X1257Y-28D02*
X1289Y-61D01*
X1272Y-61D02*
X1304Y-28D01*
X1314Y-61D02*
X1347Y-28D01*
X1320Y-28D02*
X1353Y-61D01*
X1299Y-28D02*
X1332Y-61D01*
X1208Y-61D02*
X1241Y-28D01*
X1214Y-28D02*
X1247Y-61D01*
X1187Y-61D02*
X1219Y-28D01*
X1193Y-28D02*
X1225Y-61D01*
X1236Y-28D02*
X1268Y-61D01*
X1251Y-61D02*
X1283Y-28D01*
X1229Y-61D02*
X1262Y-28D01*
X1427Y-28D02*
X1459Y-61D01*
X1442Y-61D02*
X1474Y-28D01*
X1405Y-28D02*
X1438Y-61D01*
X1420Y-61D02*
X1453Y-28D01*
X1463Y-61D02*
X1495Y-28D01*
X1469Y-28D02*
X1501Y-61D01*
X1448Y-28D02*
X1480Y-61D01*
X1357Y-61D02*
X1389Y-28D01*
X1363Y-28D02*
X1395Y-61D01*
X1336Y-61D02*
X1368Y-28D01*
X1342Y-28D02*
X1374Y-61D01*
X1384Y-28D02*
X1416Y-61D01*
X1399Y-61D02*
X1431Y-28D01*
X1378Y-61D02*
X1410Y-28D01*
X981Y-28D02*
X1013Y-61D01*
X996Y-61D02*
X1028Y-28D01*
X960Y-28D02*
X992Y-61D01*
X975Y-61D02*
X1007Y-28D01*
X1017Y-61D02*
X1050Y-28D01*
X1023Y-28D02*
X1056Y-61D01*
X1002Y-28D02*
X1035Y-61D01*
X911Y-61D02*
X944Y-28D01*
X917Y-28D02*
X950Y-61D01*
X890Y-61D02*
X922Y-28D01*
X896Y-28D02*
X929Y-61D01*
X939Y-28D02*
X971Y-61D01*
X954Y-61D02*
X986Y-28D01*
X932Y-61D02*
X965Y-28D01*
X1130Y-28D02*
X1162Y-61D01*
X1145Y-61D02*
X1177Y-28D01*
X1108Y-28D02*
X1141Y-61D01*
X1123Y-61D02*
X1156Y-28D01*
X1166Y-61D02*
X1198Y-28D01*
X1172Y-28D02*
X1204Y-61D01*
X1151Y-28D02*
X1183Y-61D01*
X1060Y-61D02*
X1092Y-28D01*
X1066Y-28D02*
X1098Y-61D01*
X1039Y-61D02*
X1071Y-28D01*
X1045Y-28D02*
X1077Y-61D01*
X1087Y-28D02*
X1119Y-61D01*
X1102Y-61D02*
X1134Y-28D01*
X1081Y-61D02*
X1113Y-28D01*
X1851Y-28D02*
X1883Y-61D01*
X1866Y-61D02*
X1898Y-28D01*
X1830Y-28D02*
X1862Y-61D01*
X1845Y-61D02*
X1877Y-28D01*
X1887Y-61D02*
X1919Y-28D01*
X1893Y-28D02*
X1926Y-61D01*
X1872Y-28D02*
X1904Y-61D01*
X1781Y-61D02*
X1813Y-28D01*
X1787Y-28D02*
X1819Y-61D01*
X1760Y-61D02*
X1792Y-28D01*
X1766Y-28D02*
X1798Y-61D01*
X1808Y-28D02*
X1841Y-61D01*
X1823Y-61D02*
X1856Y-28D01*
X1802Y-61D02*
X1835Y-28D01*
X1999Y-28D02*
X2032Y-61D01*
X2014Y-61D02*
X2047Y-28D01*
X1978Y-28D02*
X2010Y-61D01*
X1993Y-61D02*
X2025Y-28D01*
X2036Y-61D02*
X2068Y-28D01*
X2042Y-28D02*
X2074Y-61D01*
X2021Y-28D02*
X2053Y-61D01*
X1930Y-61D02*
X1962Y-28D01*
X1936Y-28D02*
X1968Y-61D01*
X1908Y-61D02*
X1941Y-28D01*
X1914Y-28D02*
X1947Y-61D01*
X1957Y-28D02*
X1989Y-61D01*
X1972Y-61D02*
X2004Y-28D01*
X1951Y-61D02*
X1983Y-28D01*
X1575Y-28D02*
X1607Y-61D01*
X1590Y-61D02*
X1622Y-28D01*
X1554Y-28D02*
X1586Y-61D01*
X1569Y-61D02*
X1601Y-28D01*
X1596Y-28D02*
X1629Y-61D01*
X1611Y-61D02*
X1644Y-28D01*
X526Y-61D02*
X3071Y-61D01*
X1505Y-61D02*
X1538Y-28D01*
X1511Y-28D02*
X1544Y-61D01*
X1484Y-61D02*
X1516Y-28D01*
X1490Y-28D02*
X1522Y-61D01*
X1533Y-28D02*
X1565Y-61D01*
X1548Y-61D02*
X1580Y-28D01*
X1526Y-61D02*
X1559Y-28D01*
X1702Y-28D02*
X1735Y-61D01*
X1717Y-61D02*
X1750Y-28D01*
X1681Y-28D02*
X1713Y-61D01*
X1696Y-61D02*
X1728Y-28D01*
X1739Y-61D02*
X1771Y-28D01*
X1745Y-28D02*
X1777Y-61D01*
X1724Y-28D02*
X1756Y-61D01*
X1633Y-61D02*
X1665Y-28D01*
X1639Y-28D02*
X1671Y-61D01*
X1617Y-28D02*
X1650Y-61D01*
X1660Y-28D02*
X1692Y-61D01*
X1675Y-61D02*
X1707Y-28D01*
X1654Y-61D02*
X1686Y-28D01*
X784Y-61D02*
X816Y-28D01*
X790Y-28D02*
X822Y-61D01*
X763Y-61D02*
X795Y-28D01*
X769Y-28D02*
X801Y-61D01*
X869Y-61D02*
X901Y-28D01*
X875Y-28D02*
X907Y-61D01*
X826Y-61D02*
X859Y-28D01*
X359Y-22D02*
X373Y-35D01*
X585Y-48D02*
X604Y-28D01*
X748Y-28D02*
X780Y-61D01*
X373Y-44D02*
X373Y-25D01*
X705Y-28D02*
X738Y-61D01*
X742Y-61D02*
X774Y-28D01*
X663Y-28D02*
X695Y-61D01*
X678Y-61D02*
X710Y-28D01*
X848Y-61D02*
X880Y-28D01*
X854Y-28D02*
X886Y-61D01*
X833Y-28D02*
X865Y-61D01*
X614Y-61D02*
X647Y-28D01*
X620Y-28D02*
X653Y-61D01*
X593Y-61D02*
X625Y-28D01*
X599Y-28D02*
X632Y-61D01*
X642Y-28D02*
X674Y-61D01*
X657Y-61D02*
X689Y-28D01*
X636Y-61D02*
X668Y-28D01*
X61Y-41D02*
X143Y41D01*
X63Y41D02*
X145Y-41D01*
X40Y-41D02*
X122Y41D01*
X42Y41D02*
X124Y-41D01*
X104Y-41D02*
X186Y41D01*
X125Y-41D02*
X207Y41D01*
X82Y-41D02*
X164Y41D01*
X40Y-41D02*
X122Y41D01*
X21Y41D02*
X103Y-41D01*
X18Y-41D02*
X18Y41D01*
X19Y-41D02*
X101Y41D01*
X18Y-20D02*
X39Y-41D01*
X18Y1D02*
X60Y-41D01*
X18Y22D02*
X82Y-41D01*
X210Y-41D02*
X311Y61D01*
X231Y-41D02*
X260Y-12D01*
X188Y-41D02*
X290Y61D01*
X191Y41D02*
X292Y-61D01*
X317Y-61D02*
X356Y-22D01*
X339Y-61D02*
X373Y-26D01*
X252Y-41D02*
X268Y-26D01*
X146Y-41D02*
X228Y41D01*
X127Y41D02*
X209Y-41D01*
X85Y41D02*
X166Y-41D01*
X106Y41D02*
X188Y-41D01*
X167Y-41D02*
X249Y41D01*
X169Y41D02*
X251Y-41D01*
X148Y41D02*
X230Y-41D01*
X585Y-46D02*
X585Y-33D01*
X727Y-28D02*
X759Y-61D01*
X585Y-35D02*
X610Y-61D01*
X556Y-60D02*
X570Y-60D01*
X541Y-46D02*
X541Y-33D01*
X536Y-29D02*
X541Y-34D01*
X537Y-47D02*
X537Y-32D01*
X805Y-61D02*
X838Y-28D01*
X811Y-28D02*
X844Y-61D01*
X699Y-61D02*
X731Y-28D01*
X720Y-61D02*
X753Y-28D01*
X582Y-54D02*
X589Y-61D01*
X684Y-28D02*
X716Y-61D01*
X536Y-50D02*
X547Y-61D01*
X529Y-61D02*
X541Y-49D01*
X487Y-61D02*
X496Y-52D01*
X509Y-61D02*
X522Y-61D01*
X454Y-42D02*
X458Y-42D01*
X458Y-47D02*
X458Y-42D01*
X432Y-44D02*
X454Y-44D01*
X446Y-44D02*
X462Y-61D01*
X470Y-59D02*
X483Y-59D01*
X279Y-57D02*
X304Y-31D01*
X423Y-61D02*
X440Y-44D01*
X18Y-41D02*
X250Y-41D01*
X268Y-47D02*
X284Y-31D01*
X395Y-44D02*
X432Y-44D01*
X403Y-44D02*
X419Y-61D01*
X373Y-44D02*
X395Y-44D01*
X402Y-61D02*
X418Y-44D01*
X424Y-44D02*
X441Y-61D01*
X347Y-30D02*
X377Y-61D01*
X382Y-44D02*
X398Y-61D01*
X381Y-61D02*
X397Y-44D01*
X445Y-61D02*
X458Y-48D01*
X282Y-61D02*
X505Y-61D01*
X296Y-61D02*
X325Y-31D01*
X305Y-31D02*
X335Y-61D01*
X283Y-30D02*
X313Y-61D01*
X327Y-32D02*
X356Y-61D01*
X360Y-61D02*
X376Y-44D01*
X271Y-50D02*
X282Y-61D01*
X287Y-12D02*
X291Y-8D01*
X3861Y30D02*
X3861Y30D01*
X3122Y-39D02*
X3131Y-48D01*
X3122Y-39D02*
X3122Y-39D01*
X3809Y20D02*
X3817Y28D01*
X3295Y20D02*
X3809Y20D01*
X3260Y55D02*
X3295Y20D01*
X3817Y28D02*
X3842Y28D01*
X3827Y8D02*
X3831Y12D01*
X3858Y44D02*
X3928Y44D01*
X3849Y35D02*
X3858Y44D01*
X3849Y35D02*
X3849Y35D01*
X3842Y28D02*
X3849Y35D01*
X3861Y30D02*
X3871Y30D01*
X3850Y20D02*
X3861Y30D01*
X3850Y8D02*
X3850Y20D01*
X3256Y59D02*
X3260Y55D01*
X3072Y59D02*
X3256Y59D01*
X3033Y20D02*
X3072Y59D01*
X613Y8D02*
X3038Y8D01*
X3077Y47D02*
X3238Y47D01*
X3038Y8D02*
X3077Y47D01*
X618Y20D02*
X3033Y20D01*
X3036Y-16D02*
X3040Y-20D01*
X3075Y-20D01*
X598Y-16D02*
X3036Y-16D01*
X3967Y-10D02*
X3972Y-15D01*
X3972Y-35D02*
X3972Y-15D01*
X3972Y-35D02*
X3976Y-39D01*
X339Y16D02*
X343Y16D01*
X276Y-12D02*
X287Y-12D01*
X291Y-8D02*
X295Y-12D01*
X356Y30D02*
X389Y30D01*
X343Y16D02*
X356Y30D01*
X364Y10D02*
X389Y10D01*
X3083Y-55D02*
X3121Y-55D01*
X3067Y-39D02*
X3083Y-55D01*
X3121Y-55D02*
X3126Y-60D01*
X3225Y-60D02*
X3233Y-52D01*
X3126Y-60D02*
X3225Y-60D01*
X3283Y-20D02*
X3299Y-4D01*
X3244Y20D02*
X3283Y-20D01*
X3279Y8D02*
X3827Y8D01*
X3264Y24D02*
X3279Y8D01*
X3238Y47D02*
X3261Y24D01*
X3264Y24D01*
X3264Y-40D02*
X3283Y-20D01*
X3925Y-47D02*
X3941Y-47D01*
X3917Y-39D02*
X3925Y-47D01*
X3917Y-39D02*
X3917Y-30D01*
X3937Y-30D02*
X3941Y-34D01*
X3941Y-47D02*
X3941Y-34D01*
X3945Y-8D02*
X3953Y-16D01*
X3953Y-26D02*
X3953Y-16D01*
X3953Y-26D02*
X3957Y-30D01*
X3831Y55D02*
X3832Y56D01*
X3945Y56D01*
X3950Y61D01*
X3963Y61D01*
X3973Y52D01*
X3973Y15D02*
X3973Y52D01*
X3967Y10D02*
X3973Y15D01*
X3957Y30D02*
X3957Y45D01*
X3928Y44D02*
X3937Y35D01*
X3937Y30D02*
X3937Y35D01*
X3299Y-4D02*
X3839Y-4D01*
X3304Y-16D02*
X3854Y-16D01*
X3839Y-4D02*
X3850Y8D01*
X3854Y-16D02*
X3860Y-10D01*
X3850Y8D02*
X3853Y10D01*
X3871Y10D01*
X3860Y-10D02*
X3871Y-10D01*
X3269Y-52D02*
X3304Y-16D01*
X3885Y-10D02*
X3907Y-10D01*
X3907Y10D02*
X3907Y10D01*
X3885Y10D02*
X3907Y10D01*
X3885Y30D02*
X3917Y30D01*
X3233Y-52D02*
X3269Y-52D01*
X3228Y-40D02*
X3264Y-40D01*
X3230Y34D02*
X3244Y20D01*
X3075Y-20D02*
X3094Y-39D01*
X3198Y0D02*
X3202Y-4D01*
X3180Y0D02*
X3198Y0D01*
X3202Y-4D02*
X3202Y-4D01*
X3236Y-4D02*
X3240Y-8D01*
X3202Y-4D02*
X3236Y-4D01*
X3223Y-28D02*
X3252Y-28D01*
X3256Y-24D01*
X3215Y-36D02*
X3223Y-28D01*
X3220Y20D02*
X3224Y16D01*
X3180Y-20D02*
X3209Y-20D01*
X3202Y-36D02*
X3215Y-36D01*
X3200Y-34D02*
X3202Y-36D01*
X3163Y-34D02*
X3200Y-34D01*
X3220Y-48D02*
X3228Y-40D01*
X3131Y-48D02*
X3220Y-48D01*
X3196Y34D02*
X3230Y34D01*
X3159Y-30D02*
X3163Y-34D01*
X581Y0D02*
X598Y-16D01*
X3094Y-39D02*
X3122Y-39D01*
X3098Y12D02*
X3106Y20D01*
X3098Y12D02*
X3110Y0D01*
X603Y-4D02*
X3055Y-4D01*
X3074Y15D01*
X3084Y25D02*
X3093Y34D01*
X3136Y34D01*
X3123Y-38D02*
X3127Y-34D01*
X3136Y-34D01*
X3140Y-30D01*
X3122Y-39D02*
X3122Y-39D01*
X3122Y-39D01*
X3110Y0D02*
X3120Y0D01*
X3106Y20D02*
X3120Y20D01*
X3209Y20D02*
X3220Y20D01*
X3160Y30D02*
X3164Y34D01*
X3182Y34D01*
X3098Y-20D02*
X3120Y-20D01*
X3136Y34D02*
X3140Y30D01*
X3180Y20D02*
X3195Y20D01*
X3159Y30D02*
X3160Y30D01*
X579Y20D02*
X603Y-4D01*
X589Y32D02*
X613Y8D01*
X594Y44D02*
X618Y20D01*
X563Y0D02*
X581Y0D01*
X464Y44D02*
X594Y44D01*
X450Y30D02*
X464Y44D01*
X437Y30D02*
X450Y30D01*
X469Y32D02*
X589Y32D01*
X447Y10D02*
X469Y32D01*
X496Y20D02*
X579Y20D01*
X476Y0D02*
X496Y20D01*
X476Y-39D02*
X516Y-0D01*
X516Y0D01*
X539Y0D01*
X563Y0D01*
X467Y-30D02*
X476Y-39D01*
X437Y-30D02*
X467Y-30D01*
X467Y-10D02*
X476Y0D01*
X437Y-10D02*
X467Y-10D01*
X437Y10D02*
X447Y10D01*
X335Y-12D02*
X337Y-10D01*
X389Y-10D01*
D14*
X-1806Y-8984D02*
X-1806Y2709D01*
X-1019Y-215D02*
X-822Y-215D01*
X1543Y-8984D02*
X1543Y-8787D01*
X3902Y-8984D02*
X3902Y-8787D01*
X-822Y-8787D02*
X6265Y-8787D01*
X-1806Y-8984D02*
X6461Y-8984D01*
X6265Y-8787D02*
X6265Y2512D01*
X6265Y-215D02*
X6461Y-215D01*
X6265Y-3138D02*
X6461Y-3138D01*
X6265Y-6061D02*
X6461Y-6061D01*
X-822Y2512D02*
X6265Y2512D01*
X-822Y-8787D02*
X-822Y2512D01*
X-1019Y-3138D02*
X-822Y-3138D01*
X-1019Y-6061D02*
X-822Y-6061D01*
X2861Y-8787D02*
X2861Y-8179D01*
X4961Y-8787D02*
X4961Y-8179D01*
X678Y-8787D02*
X678Y-7579D01*
X3261Y-7579D02*
X6265Y-7579D01*
X2861Y-8179D02*
X2861Y-7579D01*
X1761Y-7579D02*
X3261Y-7579D01*
X678Y-8179D02*
X6265Y-8179D01*
X678Y-8479D02*
X6265Y-8479D01*
X678Y-7879D02*
X6265Y-7879D01*
X-822Y-7579D02*
X1761Y-7579D01*
X-1019Y-8984D02*
X-1019Y2709D01*
X-1806Y2709D02*
X6461Y2709D01*
X6461Y-8984D02*
X6461Y2709D01*
X3902Y2512D02*
X3902Y2709D01*
X1543Y2512D02*
X1543Y2709D01*
D15*
X3532Y-8007D02*
X3521Y-7996D01*
X3504Y-7990D01*
X3481Y-7990D01*
X3464Y-7996D01*
X3453Y-8007D01*
X3453Y-8018D01*
X3459Y-8030D01*
X3464Y-8035D01*
X3476Y-8041D01*
X3509Y-8052D01*
X3521Y-8058D01*
X3526Y-8063D01*
X3532Y-8075D01*
X3532Y-8091D01*
X3521Y-8103D01*
X3504Y-8108D01*
X3481Y-8108D01*
X3464Y-8103D01*
X3453Y-8091D01*
X3558Y-8063D02*
X3626Y-8063D01*
X3626Y-8052D01*
X3620Y-8041D01*
X3615Y-8035D01*
X3603Y-8030D01*
X3586Y-8030D01*
X3575Y-8035D01*
X3564Y-8046D01*
X3558Y-8063D01*
X3558Y-8075D01*
X3564Y-8091D01*
X3575Y-8103D01*
X3586Y-8108D01*
X3603Y-8108D01*
X3615Y-8103D01*
X3626Y-8091D01*
X3651Y-8030D02*
X3651Y-8108D01*
X3651Y-8052D02*
X3668Y-8035D01*
X3679Y-8030D01*
X3696Y-8030D01*
X3707Y-8035D01*
X3713Y-8052D01*
X3713Y-8108D01*
X3806Y-8046D02*
X3800Y-8035D01*
X3783Y-8030D01*
X3766Y-8030D01*
X3749Y-8035D01*
X3744Y-8046D01*
X3749Y-8058D01*
X3761Y-8063D01*
X3789Y-8069D01*
X3800Y-8075D01*
X3806Y-8086D01*
X3806Y-8091D01*
X3800Y-8103D01*
X3783Y-8108D01*
X3766Y-8108D01*
X3749Y-8103D01*
X3744Y-8091D01*
X3859Y-8030D02*
X3847Y-8035D01*
X3836Y-8046D01*
X3830Y-8063D01*
X3830Y-8075D01*
X3836Y-8091D01*
X3847Y-8103D01*
X3859Y-8108D01*
X3875Y-8108D01*
X3887Y-8103D01*
X3898Y-8091D01*
X3904Y-8075D01*
X3904Y-8063D01*
X3898Y-8046D01*
X3887Y-8035D01*
X3875Y-8030D01*
X3859Y-8030D01*
X3929Y-8030D02*
X3929Y-8108D01*
X3929Y-8063D02*
X3935Y-8046D01*
X3946Y-8035D01*
X3958Y-8030D01*
X3974Y-8030D01*
X3985Y-8148D02*
X4075Y-8148D01*
X4090Y-8052D02*
X4141Y-8052D01*
X4158Y-8046D01*
X4163Y-8041D01*
X4169Y-8030D01*
X4169Y-8013D01*
X4163Y-8001D01*
X4158Y-7996D01*
X4141Y-7990D01*
X4090Y-7990D01*
X4090Y-8108D01*
X4280Y-8018D02*
X4274Y-8007D01*
X4263Y-7996D01*
X4252Y-7990D01*
X4229Y-7990D01*
X4218Y-7996D01*
X4207Y-8007D01*
X4201Y-8018D01*
X4195Y-8035D01*
X4195Y-8063D01*
X4201Y-8080D01*
X4207Y-8091D01*
X4218Y-8103D01*
X4229Y-8108D01*
X4252Y-8108D01*
X4263Y-8103D01*
X4274Y-8091D01*
X4280Y-8080D01*
X4313Y-7990D02*
X4313Y-8108D01*
X4313Y-7990D02*
X4364Y-7990D01*
X4380Y-7996D01*
X4386Y-8001D01*
X4392Y-8013D01*
X4392Y-8024D01*
X4386Y-8035D01*
X4380Y-8041D01*
X4364Y-8046D01*
X4313Y-8046D02*
X4364Y-8046D01*
X4380Y-8052D01*
X4386Y-8058D01*
X4392Y-8069D01*
X4392Y-8086D01*
X4386Y-8097D01*
X4380Y-8103D01*
X4364Y-8108D01*
X4313Y-8108D01*
X3459Y-8602D02*
X3453Y-8596D01*
X3459Y-8591D01*
X3464Y-8596D01*
X3464Y-8607D01*
X3459Y-8619D01*
X3453Y-8624D01*
X3496Y-8697D02*
X3490Y-8703D01*
X3496Y-8709D01*
X3502Y-8703D01*
X3496Y-8697D01*
X3527Y-8652D02*
X3578Y-8652D01*
X3595Y-8647D01*
X3600Y-8641D01*
X3606Y-8630D01*
X3606Y-8613D01*
X3600Y-8602D01*
X3595Y-8596D01*
X3578Y-8591D01*
X3527Y-8591D01*
X3527Y-8709D01*
X3633Y-8630D02*
X3633Y-8709D01*
X3633Y-8664D02*
X3638Y-8647D01*
X3649Y-8636D01*
X3661Y-8630D01*
X3678Y-8630D01*
X3716Y-8630D02*
X3705Y-8636D01*
X3694Y-8647D01*
X3688Y-8664D01*
X3688Y-8675D01*
X3694Y-8692D01*
X3705Y-8703D01*
X3716Y-8709D01*
X3733Y-8709D01*
X3744Y-8703D01*
X3756Y-8692D01*
X3761Y-8675D01*
X3761Y-8664D01*
X3756Y-8647D01*
X3744Y-8636D01*
X3733Y-8630D01*
X3716Y-8630D01*
X3810Y-8591D02*
X3815Y-8596D01*
X3821Y-8591D01*
X3815Y-8585D01*
X3810Y-8591D01*
X3815Y-8630D02*
X3815Y-8726D01*
X3810Y-8742D01*
X3798Y-8748D01*
X3787Y-8748D01*
X3843Y-8664D02*
X3910Y-8664D01*
X3910Y-8652D01*
X3905Y-8641D01*
X3899Y-8636D01*
X3888Y-8630D01*
X3871Y-8630D01*
X3860Y-8636D01*
X3848Y-8647D01*
X3843Y-8664D01*
X3843Y-8675D01*
X3848Y-8692D01*
X3860Y-8703D01*
X3871Y-8709D01*
X3888Y-8709D01*
X3899Y-8703D01*
X3910Y-8692D01*
X4003Y-8647D02*
X3992Y-8636D01*
X3981Y-8630D01*
X3964Y-8630D01*
X3952Y-8636D01*
X3941Y-8647D01*
X3936Y-8664D01*
X3936Y-8675D01*
X3941Y-8692D01*
X3952Y-8703D01*
X3964Y-8709D01*
X3981Y-8709D01*
X3992Y-8703D01*
X4003Y-8692D01*
X4045Y-8591D02*
X4045Y-8686D01*
X4051Y-8703D01*
X4062Y-8709D01*
X4073Y-8709D01*
X4028Y-8630D02*
X4068Y-8630D01*
X4090Y-8591D02*
X4090Y-8709D01*
X4090Y-8591D02*
X4169Y-8709D01*
X4169Y-8591D02*
X4169Y-8709D01*
X4202Y-8630D02*
X4202Y-8686D01*
X4207Y-8703D01*
X4218Y-8709D01*
X4235Y-8709D01*
X4247Y-8703D01*
X4263Y-8686D01*
X4263Y-8630D02*
X4263Y-8709D01*
X4294Y-8630D02*
X4294Y-8709D01*
X4294Y-8652D02*
X4311Y-8636D01*
X4322Y-8630D01*
X4339Y-8630D01*
X4351Y-8636D01*
X4356Y-8652D01*
X4356Y-8709D01*
X4356Y-8652D02*
X4373Y-8636D01*
X4384Y-8630D01*
X4401Y-8630D01*
X4412Y-8636D01*
X4418Y-8652D01*
X4418Y-8709D01*
X4455Y-8591D02*
X4455Y-8709D01*
X4455Y-8647D02*
X4466Y-8636D01*
X4478Y-8630D01*
X4495Y-8630D01*
X4506Y-8636D01*
X4517Y-8647D01*
X4523Y-8664D01*
X4523Y-8675D01*
X4517Y-8692D01*
X4506Y-8703D01*
X4495Y-8709D01*
X4478Y-8709D01*
X4466Y-8703D01*
X4455Y-8692D01*
X4548Y-8664D02*
X4615Y-8664D01*
X4615Y-8652D01*
X4610Y-8641D01*
X4604Y-8636D01*
X4593Y-8630D01*
X4576Y-8630D01*
X4565Y-8636D01*
X4554Y-8647D01*
X4548Y-8664D01*
X4548Y-8675D01*
X4554Y-8692D01*
X4565Y-8703D01*
X4576Y-8709D01*
X4593Y-8709D01*
X4604Y-8703D01*
X4615Y-8692D01*
X4641Y-8630D02*
X4641Y-8709D01*
X4641Y-8664D02*
X4646Y-8647D01*
X4658Y-8636D01*
X4669Y-8630D01*
X4686Y-8630D01*
X4702Y-8602D02*
X4696Y-8596D01*
X4702Y-8591D01*
X4708Y-8596D01*
X4708Y-8607D01*
X4702Y-8619D01*
X4696Y-8624D01*
X3459Y-7696D02*
X3453Y-7691D01*
X3459Y-7685D01*
X3464Y-7691D01*
X3464Y-7702D01*
X3459Y-7713D01*
X3453Y-7719D01*
X3496Y-7792D02*
X3490Y-7798D01*
X3496Y-7803D01*
X3502Y-7798D01*
X3496Y-7792D01*
X3527Y-7747D02*
X3578Y-7747D01*
X3595Y-7741D01*
X3600Y-7736D01*
X3606Y-7724D01*
X3606Y-7708D01*
X3600Y-7696D01*
X3595Y-7691D01*
X3578Y-7685D01*
X3527Y-7685D01*
X3527Y-7803D01*
X3633Y-7724D02*
X3633Y-7803D01*
X3633Y-7758D02*
X3638Y-7741D01*
X3649Y-7730D01*
X3661Y-7724D01*
X3678Y-7724D01*
X3716Y-7724D02*
X3705Y-7730D01*
X3694Y-7741D01*
X3688Y-7758D01*
X3688Y-7769D01*
X3694Y-7786D01*
X3705Y-7798D01*
X3716Y-7803D01*
X3733Y-7803D01*
X3744Y-7798D01*
X3756Y-7786D01*
X3761Y-7769D01*
X3761Y-7758D01*
X3756Y-7741D01*
X3744Y-7730D01*
X3733Y-7724D01*
X3716Y-7724D01*
X3810Y-7685D02*
X3815Y-7691D01*
X3821Y-7685D01*
X3815Y-7679D01*
X3810Y-7685D01*
X3815Y-7724D02*
X3815Y-7820D01*
X3810Y-7837D01*
X3798Y-7843D01*
X3787Y-7843D01*
X3843Y-7758D02*
X3910Y-7758D01*
X3910Y-7747D01*
X3905Y-7736D01*
X3899Y-7730D01*
X3888Y-7724D01*
X3871Y-7724D01*
X3860Y-7730D01*
X3848Y-7741D01*
X3843Y-7758D01*
X3843Y-7769D01*
X3848Y-7786D01*
X3860Y-7798D01*
X3871Y-7803D01*
X3888Y-7803D01*
X3899Y-7798D01*
X3910Y-7786D01*
X4003Y-7741D02*
X3992Y-7730D01*
X3981Y-7724D01*
X3964Y-7724D01*
X3952Y-7730D01*
X3941Y-7741D01*
X3936Y-7758D01*
X3936Y-7769D01*
X3941Y-7786D01*
X3952Y-7798D01*
X3964Y-7803D01*
X3981Y-7803D01*
X3992Y-7798D01*
X4003Y-7786D01*
X4045Y-7685D02*
X4045Y-7781D01*
X4051Y-7798D01*
X4062Y-7803D01*
X4073Y-7803D01*
X4028Y-7724D02*
X4068Y-7724D01*
X4090Y-7685D02*
X4090Y-7803D01*
X4090Y-7685D02*
X4169Y-7803D01*
X4169Y-7685D02*
X4169Y-7803D01*
X4269Y-7724D02*
X4269Y-7803D01*
X4269Y-7741D02*
X4258Y-7730D01*
X4247Y-7724D01*
X4230Y-7724D01*
X4218Y-7730D01*
X4207Y-7741D01*
X4202Y-7758D01*
X4202Y-7769D01*
X4207Y-7786D01*
X4218Y-7798D01*
X4230Y-7803D01*
X4247Y-7803D01*
X4258Y-7798D01*
X4269Y-7786D01*
X4301Y-7724D02*
X4301Y-7803D01*
X4301Y-7747D02*
X4317Y-7730D01*
X4329Y-7724D01*
X4346Y-7724D01*
X4357Y-7730D01*
X4362Y-7747D01*
X4362Y-7803D01*
X4362Y-7747D02*
X4379Y-7730D01*
X4391Y-7724D01*
X4407Y-7724D01*
X4419Y-7730D01*
X4424Y-7747D01*
X4424Y-7803D01*
X4461Y-7758D02*
X4529Y-7758D01*
X4529Y-7747D01*
X4523Y-7736D01*
X4518Y-7730D01*
X4506Y-7724D01*
X4489Y-7724D01*
X4478Y-7730D01*
X4467Y-7741D01*
X4461Y-7758D01*
X4461Y-7769D01*
X4467Y-7786D01*
X4478Y-7798D01*
X4489Y-7803D01*
X4506Y-7803D01*
X4518Y-7798D01*
X4529Y-7786D01*
X4560Y-7696D02*
X4554Y-7691D01*
X4560Y-7685D01*
X4565Y-7691D01*
X4565Y-7702D01*
X4560Y-7713D01*
X4554Y-7719D01*
X3532Y-8312D02*
X3521Y-8301D01*
X3504Y-8295D01*
X3481Y-8295D01*
X3464Y-8301D01*
X3453Y-8312D01*
X3453Y-8323D01*
X3459Y-8335D01*
X3464Y-8340D01*
X3476Y-8346D01*
X3509Y-8357D01*
X3521Y-8363D01*
X3526Y-8368D01*
X3532Y-8380D01*
X3532Y-8397D01*
X3521Y-8408D01*
X3504Y-8413D01*
X3481Y-8413D01*
X3464Y-8408D01*
X3453Y-8397D01*
X3564Y-8323D02*
X3564Y-8318D01*
X3570Y-8307D01*
X3575Y-8301D01*
X3586Y-8295D01*
X3609Y-8295D01*
X3620Y-8301D01*
X3626Y-8307D01*
X3631Y-8318D01*
X3631Y-8329D01*
X3626Y-8340D01*
X3615Y-8357D01*
X3558Y-8413D01*
X3637Y-8413D01*
X3697Y-8295D02*
X3680Y-8301D01*
X3669Y-8318D01*
X3663Y-8346D01*
X3663Y-8363D01*
X3669Y-8391D01*
X3680Y-8408D01*
X3697Y-8413D01*
X3708Y-8413D01*
X3725Y-8408D01*
X3737Y-8391D01*
X3742Y-8363D01*
X3742Y-8346D01*
X3737Y-8318D01*
X3725Y-8301D01*
X3708Y-8295D01*
X3697Y-8295D01*
X3769Y-8318D02*
X3780Y-8312D01*
X3797Y-8295D01*
X3797Y-8413D01*
D16*
X2911Y-7930D02*
X2911Y-7975D01*
X2911Y-7930D02*
X2930Y-7930D01*
X2937Y-7932D01*
X2939Y-7934D01*
X2941Y-7938D01*
X2941Y-7942D01*
X2939Y-7947D01*
X2937Y-7949D01*
X2930Y-7951D01*
X2911Y-7951D02*
X2930Y-7951D01*
X2937Y-7953D01*
X2939Y-7955D01*
X2941Y-7960D01*
X2941Y-7966D01*
X2939Y-7970D01*
X2937Y-7972D01*
X2930Y-7975D01*
X2911Y-7975D01*
X2964Y-7930D02*
X2960Y-7932D01*
X2955Y-7936D01*
X2953Y-7940D01*
X2951Y-7947D01*
X2951Y-7957D01*
X2953Y-7964D01*
X2955Y-7968D01*
X2960Y-7972D01*
X2964Y-7975D01*
X2972Y-7975D01*
X2977Y-7972D01*
X2981Y-7968D01*
X2983Y-7964D01*
X2985Y-7957D01*
X2985Y-7947D01*
X2983Y-7940D01*
X2981Y-7936D01*
X2977Y-7932D01*
X2972Y-7930D01*
X2964Y-7930D01*
X3030Y-7975D02*
X3013Y-7930D01*
X2996Y-7975D01*
X3002Y-7960D02*
X3024Y-7960D01*
X3041Y-7930D02*
X3041Y-7975D01*
X3041Y-7930D02*
X3060Y-7930D01*
X3066Y-7932D01*
X3068Y-7934D01*
X3071Y-7938D01*
X3071Y-7942D01*
X3068Y-7947D01*
X3066Y-7949D01*
X3060Y-7951D01*
X3041Y-7951D01*
X3056Y-7951D02*
X3071Y-7975D01*
X3081Y-7930D02*
X3081Y-7975D01*
X3081Y-7930D02*
X3096Y-7930D01*
X3102Y-7932D01*
X3106Y-7936D01*
X3108Y-7940D01*
X3111Y-7947D01*
X3111Y-7957D01*
X3108Y-7964D01*
X3106Y-7968D01*
X3102Y-7972D01*
X3096Y-7975D01*
X3081Y-7975D01*
X3156Y-7930D02*
X3156Y-7975D01*
X3156Y-7930D02*
X3186Y-7975D01*
X3186Y-7930D02*
X3186Y-7975D01*
X3233Y-7975D02*
X3216Y-7930D01*
X3198Y-7975D01*
X3205Y-7960D02*
X3226Y-7960D01*
X3243Y-7930D02*
X3243Y-7975D01*
X3243Y-7930D02*
X3260Y-7975D01*
X3277Y-7930D02*
X3260Y-7975D01*
X3277Y-7930D02*
X3277Y-7975D01*
X3318Y-7930D02*
X3290Y-7930D01*
X3290Y-7975D01*
X3318Y-7975D01*
X3290Y-7951D02*
X3307Y-7951D01*
X3328Y-7945D02*
X3326Y-7947D01*
X3328Y-7949D01*
X3330Y-7947D01*
X3328Y-7945D01*
X3328Y-7970D02*
X3326Y-7972D01*
X3328Y-7975D01*
X3330Y-7972D01*
X3328Y-7970D01*
X5041Y-8541D02*
X5037Y-8536D01*
X5030Y-8534D01*
X5022Y-8534D01*
X5015Y-8536D01*
X5011Y-8541D01*
X5011Y-8545D01*
X5013Y-8549D01*
X5015Y-8551D01*
X5019Y-8554D01*
X5032Y-8558D01*
X5037Y-8560D01*
X5039Y-8562D01*
X5041Y-8566D01*
X5041Y-8573D01*
X5037Y-8577D01*
X5030Y-8579D01*
X5022Y-8579D01*
X5015Y-8577D01*
X5011Y-8573D01*
X5083Y-8545D02*
X5081Y-8541D01*
X5077Y-8536D01*
X5072Y-8534D01*
X5064Y-8534D01*
X5060Y-8536D01*
X5055Y-8541D01*
X5053Y-8545D01*
X5051Y-8551D01*
X5051Y-8562D01*
X5053Y-8569D01*
X5055Y-8573D01*
X5060Y-8577D01*
X5064Y-8579D01*
X5072Y-8579D01*
X5077Y-8577D01*
X5081Y-8573D01*
X5083Y-8569D01*
X5130Y-8579D02*
X5113Y-8534D01*
X5096Y-8579D01*
X5102Y-8564D02*
X5124Y-8564D01*
X5141Y-8534D02*
X5141Y-8579D01*
X5166Y-8579D01*
X5199Y-8534D02*
X5171Y-8534D01*
X5171Y-8579D01*
X5199Y-8579D01*
X5171Y-8556D02*
X5188Y-8556D01*
X5209Y-8549D02*
X5207Y-8551D01*
X5209Y-8554D01*
X5211Y-8551D01*
X5209Y-8549D01*
X5209Y-8575D02*
X5207Y-8577D01*
X5209Y-8579D01*
X5211Y-8577D01*
X5209Y-8575D01*
X728Y-8534D02*
X728Y-8579D01*
X728Y-8534D02*
X756Y-8534D01*
X728Y-8556D02*
X745Y-8556D01*
X761Y-8534D02*
X761Y-8579D01*
X771Y-8534D02*
X771Y-8579D01*
X796Y-8579D01*
X829Y-8534D02*
X801Y-8534D01*
X801Y-8579D01*
X829Y-8579D01*
X801Y-8556D02*
X818Y-8556D01*
X872Y-8534D02*
X872Y-8579D01*
X872Y-8534D02*
X902Y-8579D01*
X902Y-8534D02*
X902Y-8579D01*
X949Y-8579D02*
X932Y-8534D01*
X914Y-8579D01*
X921Y-8564D02*
X942Y-8564D01*
X959Y-8534D02*
X959Y-8579D01*
X959Y-8534D02*
X976Y-8579D01*
X993Y-8534D02*
X976Y-8579D01*
X993Y-8534D02*
X993Y-8579D01*
X1034Y-8534D02*
X1006Y-8534D01*
X1006Y-8579D01*
X1034Y-8579D01*
X1006Y-8556D02*
X1023Y-8556D01*
X1044Y-8549D02*
X1042Y-8551D01*
X1044Y-8554D01*
X1046Y-8551D01*
X1044Y-8549D01*
X1044Y-8575D02*
X1042Y-8577D01*
X1044Y-8579D01*
X1046Y-8577D01*
X1044Y-8575D01*
X728Y-7953D02*
X748Y-7953D01*
X754Y-7951D01*
X756Y-7949D01*
X758Y-7944D01*
X758Y-7938D01*
X756Y-7934D01*
X754Y-7931D01*
X748Y-7929D01*
X728Y-7929D01*
X728Y-7974D01*
X800Y-7940D02*
X798Y-7936D01*
X794Y-7931D01*
X790Y-7929D01*
X781Y-7929D01*
X777Y-7931D01*
X773Y-7936D01*
X770Y-7940D01*
X768Y-7946D01*
X768Y-7957D01*
X770Y-7964D01*
X773Y-7968D01*
X777Y-7972D01*
X781Y-7974D01*
X790Y-7974D01*
X794Y-7972D01*
X798Y-7968D01*
X800Y-7964D01*
X813Y-7929D02*
X813Y-7974D01*
X813Y-7929D02*
X832Y-7929D01*
X839Y-7931D01*
X841Y-7934D01*
X843Y-7938D01*
X843Y-7942D01*
X841Y-7946D01*
X839Y-7949D01*
X832Y-7951D01*
X813Y-7951D02*
X832Y-7951D01*
X839Y-7953D01*
X841Y-7955D01*
X843Y-7959D01*
X843Y-7966D01*
X841Y-7970D01*
X839Y-7972D01*
X832Y-7974D01*
X813Y-7974D01*
X888Y-7929D02*
X888Y-7974D01*
X888Y-7929D02*
X903Y-7929D01*
X910Y-7931D01*
X914Y-7936D01*
X916Y-7940D01*
X918Y-7946D01*
X918Y-7957D01*
X916Y-7964D01*
X914Y-7968D01*
X910Y-7972D01*
X903Y-7974D01*
X888Y-7974D01*
X956Y-7929D02*
X929Y-7929D01*
X929Y-7974D01*
X956Y-7974D01*
X929Y-7951D02*
X946Y-7951D01*
X994Y-7936D02*
X990Y-7931D01*
X983Y-7929D01*
X975Y-7929D01*
X968Y-7931D01*
X964Y-7936D01*
X964Y-7940D01*
X966Y-7944D01*
X968Y-7946D01*
X972Y-7949D01*
X985Y-7953D01*
X990Y-7955D01*
X992Y-7957D01*
X994Y-7961D01*
X994Y-7968D01*
X990Y-7972D01*
X983Y-7974D01*
X975Y-7974D01*
X968Y-7972D01*
X964Y-7968D01*
X1004Y-7929D02*
X1004Y-7974D01*
X1046Y-7940D02*
X1043Y-7936D01*
X1039Y-7931D01*
X1035Y-7929D01*
X1026Y-7929D01*
X1022Y-7931D01*
X1018Y-7936D01*
X1016Y-7940D01*
X1013Y-7946D01*
X1013Y-7957D01*
X1016Y-7964D01*
X1018Y-7968D01*
X1022Y-7972D01*
X1026Y-7974D01*
X1035Y-7974D01*
X1039Y-7972D01*
X1043Y-7968D01*
X1046Y-7964D01*
X1046Y-7957D01*
X1035Y-7957D02*
X1046Y-7957D01*
X1056Y-7929D02*
X1056Y-7974D01*
X1056Y-7929D02*
X1086Y-7974D01*
X1086Y-7929D02*
X1086Y-7974D01*
X1126Y-7929D02*
X1098Y-7929D01*
X1098Y-7974D01*
X1126Y-7974D01*
X1098Y-7951D02*
X1115Y-7951D01*
X1134Y-7929D02*
X1134Y-7974D01*
X1134Y-7929D02*
X1153Y-7929D01*
X1159Y-7931D01*
X1161Y-7934D01*
X1164Y-7938D01*
X1164Y-7942D01*
X1161Y-7946D01*
X1159Y-7949D01*
X1153Y-7951D01*
X1134Y-7951D01*
X1149Y-7951D02*
X1164Y-7974D01*
X1176Y-7944D02*
X1174Y-7946D01*
X1176Y-7949D01*
X1178Y-7946D01*
X1176Y-7944D01*
X1176Y-7970D02*
X1174Y-7972D01*
X1176Y-7974D01*
X1178Y-7972D01*
X1176Y-7970D01*
X2911Y-7658D02*
X2930Y-7658D01*
X2937Y-7656D01*
X2939Y-7654D01*
X2941Y-7649D01*
X2941Y-7643D01*
X2939Y-7639D01*
X2937Y-7636D01*
X2930Y-7634D01*
X2911Y-7634D01*
X2911Y-7679D01*
X2951Y-7634D02*
X2951Y-7679D01*
X2951Y-7634D02*
X2970Y-7634D01*
X2977Y-7636D01*
X2979Y-7639D01*
X2981Y-7643D01*
X2981Y-7647D01*
X2979Y-7651D01*
X2977Y-7654D01*
X2970Y-7656D01*
X2951Y-7656D01*
X2966Y-7656D02*
X2981Y-7679D01*
X3004Y-7634D02*
X3000Y-7636D01*
X2995Y-7641D01*
X2993Y-7645D01*
X2991Y-7651D01*
X2991Y-7662D01*
X2993Y-7669D01*
X2995Y-7673D01*
X3000Y-7677D01*
X3004Y-7679D01*
X3012Y-7679D01*
X3017Y-7677D01*
X3021Y-7673D01*
X3023Y-7669D01*
X3025Y-7662D01*
X3025Y-7651D01*
X3023Y-7645D01*
X3021Y-7641D01*
X3017Y-7636D01*
X3012Y-7634D01*
X3004Y-7634D01*
X3057Y-7634D02*
X3057Y-7669D01*
X3055Y-7675D01*
X3053Y-7677D01*
X3049Y-7679D01*
X3044Y-7679D01*
X3040Y-7677D01*
X3038Y-7675D01*
X3036Y-7669D01*
X3036Y-7664D01*
X3097Y-7634D02*
X3069Y-7634D01*
X3069Y-7679D01*
X3097Y-7679D01*
X3069Y-7656D02*
X3086Y-7656D01*
X3136Y-7645D02*
X3134Y-7641D01*
X3130Y-7636D01*
X3126Y-7634D01*
X3117Y-7634D01*
X3113Y-7636D01*
X3108Y-7641D01*
X3106Y-7645D01*
X3104Y-7651D01*
X3104Y-7662D01*
X3106Y-7669D01*
X3108Y-7673D01*
X3113Y-7677D01*
X3117Y-7679D01*
X3126Y-7679D01*
X3130Y-7677D01*
X3134Y-7673D01*
X3136Y-7669D01*
X3164Y-7634D02*
X3164Y-7679D01*
X3149Y-7634D02*
X3179Y-7634D01*
X3220Y-7634D02*
X3220Y-7679D01*
X3220Y-7634D02*
X3250Y-7679D01*
X3250Y-7634D02*
X3250Y-7679D01*
X3296Y-7679D02*
X3279Y-7634D01*
X3262Y-7679D01*
X3268Y-7664D02*
X3290Y-7664D01*
X3307Y-7634D02*
X3307Y-7679D01*
X3307Y-7634D02*
X3324Y-7679D01*
X3341Y-7634D02*
X3324Y-7679D01*
X3341Y-7634D02*
X3341Y-7679D01*
X3382Y-7634D02*
X3354Y-7634D01*
X3354Y-7679D01*
X3382Y-7679D01*
X3354Y-7656D02*
X3371Y-7656D01*
X3391Y-7649D02*
X3389Y-7651D01*
X3391Y-7654D01*
X3394Y-7651D01*
X3391Y-7649D01*
X3391Y-7675D02*
X3389Y-7677D01*
X3391Y-7679D01*
X3394Y-7677D01*
X3391Y-7675D01*
X2911Y-8258D02*
X2930Y-8258D01*
X2937Y-8256D01*
X2939Y-8254D01*
X2941Y-8249D01*
X2941Y-8243D01*
X2939Y-8239D01*
X2937Y-8236D01*
X2930Y-8234D01*
X2911Y-8234D01*
X2911Y-8279D01*
X2985Y-8279D02*
X2968Y-8234D01*
X2951Y-8279D01*
X2957Y-8264D02*
X2979Y-8264D01*
X2996Y-8234D02*
X2996Y-8279D01*
X2996Y-8234D02*
X3015Y-8234D01*
X3021Y-8236D01*
X3024Y-8239D01*
X3026Y-8243D01*
X3026Y-8247D01*
X3024Y-8251D01*
X3021Y-8254D01*
X3015Y-8256D01*
X2996Y-8256D01*
X3011Y-8256D02*
X3026Y-8279D01*
X3051Y-8234D02*
X3051Y-8279D01*
X3036Y-8234D02*
X3066Y-8234D01*
X3107Y-8234D02*
X3107Y-8279D01*
X3107Y-8234D02*
X3136Y-8279D01*
X3136Y-8234D02*
X3136Y-8279D01*
X3162Y-8234D02*
X3157Y-8236D01*
X3153Y-8241D01*
X3151Y-8245D01*
X3149Y-8251D01*
X3149Y-8262D01*
X3151Y-8269D01*
X3153Y-8273D01*
X3157Y-8277D01*
X3162Y-8279D01*
X3170Y-8279D01*
X3175Y-8277D01*
X3179Y-8273D01*
X3181Y-8269D01*
X3183Y-8262D01*
X3183Y-8251D01*
X3181Y-8245D01*
X3179Y-8241D01*
X3175Y-8236D01*
X3170Y-8234D01*
X3162Y-8234D01*
X3196Y-8275D02*
X3194Y-8277D01*
X3196Y-8279D01*
X3198Y-8277D01*
X3196Y-8275D01*
X3210Y-8249D02*
X3208Y-8251D01*
X3210Y-8254D01*
X3212Y-8251D01*
X3210Y-8249D01*
X3210Y-8275D02*
X3208Y-8277D01*
X3210Y-8279D01*
X3212Y-8277D01*
X3210Y-8275D01*
X756Y-7634D02*
X728Y-7634D01*
X728Y-7679D01*
X756Y-7679D01*
X728Y-7656D02*
X745Y-7656D01*
X764Y-7634D02*
X764Y-7679D01*
X764Y-7634D02*
X794Y-7679D01*
X794Y-7634D02*
X794Y-7679D01*
X838Y-7645D02*
X836Y-7641D01*
X832Y-7636D01*
X827Y-7634D01*
X819Y-7634D01*
X815Y-7636D01*
X810Y-7641D01*
X808Y-7645D01*
X806Y-7651D01*
X806Y-7662D01*
X808Y-7669D01*
X810Y-7673D01*
X815Y-7677D01*
X819Y-7679D01*
X827Y-7679D01*
X832Y-7677D01*
X836Y-7673D01*
X838Y-7669D01*
X838Y-7662D01*
X827Y-7662D02*
X838Y-7662D01*
X848Y-7634D02*
X848Y-7679D01*
X858Y-7634D02*
X858Y-7679D01*
X858Y-7634D02*
X888Y-7679D01*
X888Y-7634D02*
X888Y-7679D01*
X928Y-7634D02*
X900Y-7634D01*
X900Y-7679D01*
X928Y-7679D01*
X900Y-7656D02*
X917Y-7656D01*
X963Y-7634D02*
X936Y-7634D01*
X936Y-7679D01*
X963Y-7679D01*
X936Y-7656D02*
X953Y-7656D01*
X971Y-7634D02*
X971Y-7679D01*
X971Y-7634D02*
X990Y-7634D01*
X997Y-7636D01*
X999Y-7639D01*
X1001Y-7643D01*
X1001Y-7647D01*
X999Y-7651D01*
X997Y-7654D01*
X990Y-7656D01*
X971Y-7656D01*
X986Y-7656D02*
X1001Y-7679D01*
X1013Y-7649D02*
X1011Y-7651D01*
X1013Y-7654D01*
X1015Y-7651D01*
X1013Y-7649D01*
X1013Y-7675D02*
X1011Y-7677D01*
X1013Y-7679D01*
X1015Y-7677D01*
X1013Y-7675D01*
X2941Y-8541D02*
X2937Y-8536D01*
X2930Y-8534D01*
X2922Y-8534D01*
X2915Y-8536D01*
X2911Y-8541D01*
X2911Y-8545D01*
X2913Y-8549D01*
X2915Y-8551D01*
X2919Y-8554D01*
X2932Y-8558D01*
X2937Y-8560D01*
X2939Y-8562D01*
X2941Y-8566D01*
X2941Y-8573D01*
X2937Y-8577D01*
X2930Y-8579D01*
X2922Y-8579D01*
X2915Y-8577D01*
X2911Y-8573D01*
X2983Y-8545D02*
X2981Y-8541D01*
X2977Y-8536D01*
X2972Y-8534D01*
X2964Y-8534D01*
X2960Y-8536D01*
X2955Y-8541D01*
X2953Y-8545D01*
X2951Y-8551D01*
X2951Y-8562D01*
X2953Y-8569D01*
X2955Y-8573D01*
X2960Y-8577D01*
X2964Y-8579D01*
X2972Y-8579D01*
X2977Y-8577D01*
X2981Y-8573D01*
X2983Y-8569D01*
X2996Y-8534D02*
X2996Y-8579D01*
X3026Y-8534D02*
X3026Y-8579D01*
X2996Y-8556D02*
X3026Y-8556D01*
X3040Y-8575D02*
X3038Y-8577D01*
X3040Y-8579D01*
X3042Y-8577D01*
X3040Y-8575D01*
X3088Y-8534D02*
X3088Y-8579D01*
X3088Y-8534D02*
X3118Y-8579D01*
X3118Y-8534D02*
X3118Y-8579D01*
X3143Y-8534D02*
X3139Y-8536D01*
X3134Y-8541D01*
X3132Y-8545D01*
X3130Y-8551D01*
X3130Y-8562D01*
X3132Y-8569D01*
X3134Y-8573D01*
X3139Y-8577D01*
X3143Y-8579D01*
X3151Y-8579D01*
X3156Y-8577D01*
X3160Y-8573D01*
X3162Y-8569D01*
X3164Y-8562D01*
X3164Y-8551D01*
X3162Y-8545D01*
X3160Y-8541D01*
X3156Y-8536D01*
X3151Y-8534D01*
X3143Y-8534D01*
X3177Y-8575D02*
X3175Y-8577D01*
X3177Y-8579D01*
X3179Y-8577D01*
X3177Y-8575D01*
X3191Y-8549D02*
X3189Y-8551D01*
X3191Y-8554D01*
X3193Y-8551D01*
X3191Y-8549D01*
X3191Y-8575D02*
X3189Y-8577D01*
X3191Y-8579D01*
X3193Y-8577D01*
X3191Y-8575D01*
X5011Y-8234D02*
X5028Y-8279D01*
X5045Y-8234D02*
X5028Y-8279D01*
X5051Y-8262D02*
X5077Y-8262D01*
X5077Y-8258D01*
X5075Y-8254D01*
X5072Y-8251D01*
X5068Y-8249D01*
X5062Y-8249D01*
X5057Y-8251D01*
X5053Y-8256D01*
X5051Y-8262D01*
X5051Y-8266D01*
X5053Y-8273D01*
X5057Y-8277D01*
X5062Y-8279D01*
X5068Y-8279D01*
X5072Y-8277D01*
X5077Y-8273D01*
X5086Y-8249D02*
X5086Y-8279D01*
X5086Y-8262D02*
X5088Y-8256D01*
X5093Y-8251D01*
X5097Y-8249D01*
X5103Y-8249D01*
X5110Y-8249D02*
X5108Y-8251D01*
X5110Y-8254D01*
X5112Y-8251D01*
X5110Y-8249D01*
X5110Y-8275D02*
X5108Y-8277D01*
X5110Y-8279D01*
X5112Y-8277D01*
X5110Y-8275D01*
X728Y-8234D02*
X728Y-8279D01*
X728Y-8234D02*
X743Y-8234D01*
X750Y-8236D01*
X754Y-8241D01*
X756Y-8245D01*
X758Y-8251D01*
X758Y-8262D01*
X756Y-8269D01*
X754Y-8273D01*
X750Y-8277D01*
X743Y-8279D01*
X728Y-8279D01*
X803Y-8279D02*
X785Y-8234D01*
X768Y-8279D01*
X775Y-8264D02*
X796Y-8264D01*
X828Y-8234D02*
X828Y-8279D01*
X813Y-8234D02*
X843Y-8234D01*
X876Y-8234D02*
X848Y-8234D01*
X848Y-8279D01*
X876Y-8279D01*
X848Y-8256D02*
X866Y-8256D01*
X886Y-8249D02*
X884Y-8251D01*
X886Y-8254D01*
X888Y-8251D01*
X886Y-8249D01*
X886Y-8275D02*
X884Y-8277D01*
X886Y-8279D01*
X888Y-8277D01*
X886Y-8275D01*
D17*
X2725Y-8872D02*
X2725Y-8869D01*
X2728Y-8862D01*
X2731Y-8859D01*
X2738Y-8855D01*
X2751Y-8855D01*
X2758Y-8859D01*
X2761Y-8862D01*
X2765Y-8869D01*
X2765Y-8875D01*
X2761Y-8882D01*
X2755Y-8892D01*
X2721Y-8925D01*
X2768Y-8925D01*
X359Y-8869D02*
X366Y-8865D01*
X376Y-8855D01*
X376Y-8925D01*
X5090Y-8855D02*
X5127Y-8855D01*
X5107Y-8882D01*
X5117Y-8882D01*
X5123Y-8885D01*
X5127Y-8889D01*
X5130Y-8899D01*
X5130Y-8905D01*
X5127Y-8915D01*
X5120Y-8922D01*
X5110Y-8925D01*
X5100Y-8925D01*
X5090Y-8922D01*
X5087Y-8919D01*
X5083Y-8912D01*
X6397Y1149D02*
X6370Y1219D01*
X6343Y1149D01*
X6353Y1172D02*
X6387Y1172D01*
X6343Y-1705D02*
X6343Y-1775D01*
X6343Y-1705D02*
X6373Y-1705D01*
X6383Y-1708D01*
X6387Y-1711D01*
X6390Y-1718D01*
X6390Y-1725D01*
X6387Y-1731D01*
X6383Y-1735D01*
X6373Y-1738D01*
X6343Y-1738D02*
X6373Y-1738D01*
X6383Y-1741D01*
X6387Y-1745D01*
X6390Y-1751D01*
X6390Y-1761D01*
X6387Y-1768D01*
X6383Y-1771D01*
X6373Y-1775D01*
X6343Y-1775D01*
X6393Y-4645D02*
X6390Y-4638D01*
X6383Y-4631D01*
X6377Y-4628D01*
X6363Y-4628D01*
X6357Y-4631D01*
X6350Y-4638D01*
X6347Y-4645D01*
X6343Y-4655D01*
X6343Y-4671D01*
X6347Y-4681D01*
X6350Y-4688D01*
X6357Y-4695D01*
X6363Y-4698D01*
X6377Y-4698D01*
X6383Y-4695D01*
X6390Y-4688D01*
X6393Y-4681D01*
X6343Y-7472D02*
X6343Y-7542D01*
X6343Y-7472D02*
X6367Y-7472D01*
X6377Y-7476D01*
X6383Y-7482D01*
X6387Y-7489D01*
X6390Y-7499D01*
X6390Y-7516D01*
X6387Y-7526D01*
X6383Y-7532D01*
X6377Y-7539D01*
X6367Y-7542D01*
X6343Y-7542D01*
X-887Y1149D02*
X-913Y1219D01*
X-940Y1149D01*
X-930Y1172D02*
X-897Y1172D01*
X-940Y-1705D02*
X-940Y-1775D01*
X-940Y-1705D02*
X-910Y-1705D01*
X-900Y-1708D01*
X-897Y-1711D01*
X-894Y-1718D01*
X-894Y-1725D01*
X-897Y-1731D01*
X-900Y-1735D01*
X-910Y-1738D01*
X-940Y-1738D02*
X-910Y-1738D01*
X-900Y-1741D01*
X-897Y-1745D01*
X-894Y-1751D01*
X-894Y-1761D01*
X-897Y-1768D01*
X-900Y-1771D01*
X-910Y-1775D01*
X-940Y-1775D01*
X-890Y-4645D02*
X-894Y-4638D01*
X-900Y-4631D01*
X-907Y-4628D01*
X-920Y-4628D01*
X-927Y-4631D01*
X-933Y-4638D01*
X-937Y-4645D01*
X-940Y-4655D01*
X-940Y-4671D01*
X-937Y-4681D01*
X-933Y-4688D01*
X-927Y-4695D01*
X-920Y-4698D01*
X-907Y-4698D01*
X-900Y-4695D01*
X-894Y-4688D01*
X-890Y-4681D01*
X-940Y-7472D02*
X-940Y-7542D01*
X-940Y-7472D02*
X-917Y-7472D01*
X-907Y-7476D01*
X-900Y-7482D01*
X-897Y-7489D01*
X-894Y-7499D01*
X-894Y-7516D01*
X-897Y-7526D01*
X-900Y-7532D01*
X-907Y-7539D01*
X-917Y-7542D01*
X-940Y-7542D01*
X822Y-8334D02*
X822Y-8331D01*
X825Y-8324D01*
X828Y-8321D01*
X835Y-8318D01*
X848Y-8318D01*
X855Y-8321D01*
X858Y-8324D01*
X862Y-8331D01*
X862Y-8338D01*
X858Y-8344D01*
X852Y-8354D01*
X818Y-8388D01*
X865Y-8388D01*
X901Y-8318D02*
X891Y-8321D01*
X884Y-8331D01*
X881Y-8348D01*
X881Y-8358D01*
X884Y-8374D01*
X891Y-8384D01*
X901Y-8388D01*
X907Y-8388D01*
X917Y-8384D01*
X924Y-8374D01*
X927Y-8358D01*
X927Y-8348D01*
X924Y-8331D01*
X917Y-8321D01*
X907Y-8318D01*
X901Y-8318D01*
X946Y-8334D02*
X946Y-8331D01*
X949Y-8324D01*
X953Y-8321D01*
X959Y-8318D01*
X973Y-8318D01*
X979Y-8321D01*
X983Y-8324D01*
X986Y-8331D01*
X986Y-8338D01*
X983Y-8344D01*
X976Y-8354D01*
X943Y-8388D01*
X989Y-8388D01*
X1025Y-8318D02*
X1015Y-8321D01*
X1008Y-8331D01*
X1005Y-8348D01*
X1005Y-8358D01*
X1008Y-8374D01*
X1015Y-8384D01*
X1025Y-8388D01*
X1032Y-8388D01*
X1042Y-8384D01*
X1048Y-8374D01*
X1052Y-8358D01*
X1052Y-8348D01*
X1048Y-8331D01*
X1042Y-8321D01*
X1032Y-8318D01*
X1025Y-8318D01*
X1067Y-8331D02*
X1074Y-8328D01*
X1084Y-8318D01*
X1084Y-8388D01*
X1122Y-8334D02*
X1122Y-8331D01*
X1125Y-8324D01*
X1129Y-8321D01*
X1135Y-8318D01*
X1149Y-8318D01*
X1155Y-8321D01*
X1159Y-8324D01*
X1162Y-8331D01*
X1162Y-8338D01*
X1159Y-8344D01*
X1152Y-8354D01*
X1119Y-8388D01*
X1165Y-8388D01*
X1201Y-8318D02*
X1191Y-8321D01*
X1184Y-8331D01*
X1181Y-8348D01*
X1181Y-8358D01*
X1184Y-8374D01*
X1191Y-8384D01*
X1201Y-8388D01*
X1208Y-8388D01*
X1218Y-8384D01*
X1224Y-8374D01*
X1228Y-8358D01*
X1228Y-8348D01*
X1224Y-8331D01*
X1218Y-8321D01*
X1208Y-8318D01*
X1201Y-8318D01*
X1290Y-8318D02*
X1257Y-8388D01*
X1243Y-8318D02*
X1290Y-8318D01*
X867Y-8654D02*
X861Y-8647D01*
X851Y-8644D01*
X837Y-8644D01*
X827Y-8647D01*
X821Y-8654D01*
X821Y-8661D01*
X824Y-8667D01*
X827Y-8671D01*
X834Y-8674D01*
X854Y-8681D01*
X861Y-8684D01*
X864Y-8687D01*
X867Y-8694D01*
X867Y-8704D01*
X861Y-8711D01*
X851Y-8714D01*
X837Y-8714D01*
X827Y-8711D01*
X821Y-8704D01*
X883Y-8687D02*
X923Y-8687D01*
X923Y-8681D01*
X920Y-8674D01*
X916Y-8671D01*
X910Y-8667D01*
X900Y-8667D01*
X893Y-8671D01*
X886Y-8677D01*
X883Y-8687D01*
X883Y-8694D01*
X886Y-8704D01*
X893Y-8711D01*
X900Y-8714D01*
X910Y-8714D01*
X916Y-8711D01*
X923Y-8704D01*
X938Y-8667D02*
X938Y-8714D01*
X938Y-8681D02*
X948Y-8671D01*
X955Y-8667D01*
X965Y-8667D01*
X971Y-8671D01*
X975Y-8681D01*
X975Y-8714D01*
X1030Y-8677D02*
X1026Y-8671D01*
X1016Y-8667D01*
X1006Y-8667D01*
X996Y-8671D01*
X993Y-8677D01*
X996Y-8684D01*
X1003Y-8687D01*
X1020Y-8691D01*
X1026Y-8694D01*
X1030Y-8701D01*
X1030Y-8704D01*
X1026Y-8711D01*
X1016Y-8714D01*
X1006Y-8714D01*
X996Y-8711D01*
X993Y-8704D01*
X1061Y-8667D02*
X1054Y-8671D01*
X1048Y-8677D01*
X1044Y-8687D01*
X1044Y-8694D01*
X1048Y-8704D01*
X1054Y-8711D01*
X1061Y-8714D01*
X1071Y-8714D01*
X1078Y-8711D01*
X1084Y-8704D01*
X1088Y-8694D01*
X1088Y-8687D01*
X1084Y-8677D01*
X1078Y-8671D01*
X1071Y-8667D01*
X1061Y-8667D01*
X1103Y-8667D02*
X1103Y-8714D01*
X1103Y-8687D02*
X1106Y-8677D01*
X1113Y-8671D01*
X1120Y-8667D01*
X1130Y-8667D01*
X1136Y-8737D02*
X1189Y-8737D01*
X1198Y-8681D02*
X1228Y-8681D01*
X1238Y-8677D01*
X1242Y-8674D01*
X1245Y-8667D01*
X1245Y-8657D01*
X1242Y-8651D01*
X1238Y-8647D01*
X1228Y-8644D01*
X1198Y-8644D01*
X1198Y-8714D01*
X1311Y-8661D02*
X1307Y-8654D01*
X1301Y-8647D01*
X1294Y-8644D01*
X1281Y-8644D01*
X1274Y-8647D01*
X1267Y-8654D01*
X1264Y-8661D01*
X1261Y-8671D01*
X1261Y-8687D01*
X1264Y-8697D01*
X1267Y-8704D01*
X1274Y-8711D01*
X1281Y-8714D01*
X1294Y-8714D01*
X1301Y-8711D01*
X1307Y-8704D01*
X1311Y-8697D01*
X1330Y-8644D02*
X1330Y-8714D01*
X1330Y-8644D02*
X1360Y-8644D01*
X1370Y-8647D01*
X1374Y-8651D01*
X1377Y-8657D01*
X1377Y-8664D01*
X1374Y-8671D01*
X1370Y-8674D01*
X1360Y-8677D01*
X1330Y-8677D02*
X1360Y-8677D01*
X1370Y-8681D01*
X1374Y-8684D01*
X1377Y-8691D01*
X1377Y-8701D01*
X1374Y-8707D01*
X1370Y-8711D01*
X1360Y-8714D01*
X1330Y-8714D01*
X1393Y-8737D02*
X1446Y-8737D01*
X1502Y-8654D02*
X1495Y-8647D01*
X1485Y-8644D01*
X1472Y-8644D01*
X1462Y-8647D01*
X1455Y-8654D01*
X1455Y-8661D01*
X1458Y-8667D01*
X1462Y-8671D01*
X1468Y-8674D01*
X1488Y-8681D01*
X1495Y-8684D01*
X1498Y-8687D01*
X1502Y-8694D01*
X1502Y-8704D01*
X1495Y-8711D01*
X1485Y-8714D01*
X1472Y-8714D01*
X1462Y-8711D01*
X1455Y-8704D01*
X1521Y-8661D02*
X1521Y-8657D01*
X1524Y-8651D01*
X1527Y-8647D01*
X1534Y-8644D01*
X1547Y-8644D01*
X1554Y-8647D01*
X1557Y-8651D01*
X1561Y-8657D01*
X1561Y-8664D01*
X1557Y-8671D01*
X1551Y-8681D01*
X1517Y-8714D01*
X1564Y-8714D01*
X1600Y-8644D02*
X1590Y-8647D01*
X1583Y-8657D01*
X1580Y-8674D01*
X1580Y-8684D01*
X1583Y-8701D01*
X1590Y-8711D01*
X1600Y-8714D01*
X1606Y-8714D01*
X1616Y-8711D01*
X1623Y-8701D01*
X1626Y-8684D01*
X1626Y-8674D01*
X1623Y-8657D01*
X1616Y-8647D01*
X1606Y-8644D01*
X1600Y-8644D01*
X1642Y-8657D02*
X1649Y-8654D01*
X1659Y-8644D01*
X1659Y-8714D01*
X1693Y-8737D02*
X1747Y-8737D01*
X1756Y-8644D02*
X1756Y-8714D01*
X1756Y-8644D02*
X1799Y-8644D01*
X1756Y-8677D02*
X1782Y-8677D01*
X1807Y-8644D02*
X1807Y-8714D01*
X1821Y-8687D02*
X1861Y-8687D01*
X1861Y-8681D01*
X1858Y-8674D01*
X1855Y-8671D01*
X1848Y-8667D01*
X1838Y-8667D01*
X1831Y-8671D01*
X1825Y-8677D01*
X1821Y-8687D01*
X1821Y-8694D01*
X1825Y-8704D01*
X1831Y-8711D01*
X1838Y-8714D01*
X1848Y-8714D01*
X1855Y-8711D01*
X1861Y-8704D01*
X1876Y-8667D02*
X1913Y-8714D01*
X1913Y-8667D02*
X1876Y-8714D01*
X1931Y-8707D02*
X1928Y-8711D01*
X1931Y-8714D01*
X1934Y-8711D01*
X1931Y-8707D01*
X1950Y-8681D02*
X1980Y-8681D01*
X1990Y-8677D01*
X1993Y-8674D01*
X1996Y-8667D01*
X1996Y-8657D01*
X1993Y-8651D01*
X1990Y-8647D01*
X1980Y-8644D01*
X1950Y-8644D01*
X1950Y-8714D01*
X2052Y-8677D02*
X2045Y-8671D01*
X2039Y-8667D01*
X2029Y-8667D01*
X2022Y-8671D01*
X2015Y-8677D01*
X2012Y-8687D01*
X2012Y-8694D01*
X2015Y-8704D01*
X2022Y-8711D01*
X2029Y-8714D01*
X2039Y-8714D01*
X2045Y-8711D01*
X2052Y-8704D01*
X2067Y-8644D02*
X2067Y-8714D01*
X2067Y-8677D02*
X2074Y-8671D01*
X2080Y-8667D01*
X2090Y-8667D01*
X2097Y-8671D01*
X2104Y-8677D01*
X2107Y-8687D01*
X2107Y-8694D01*
X2104Y-8704D01*
X2097Y-8711D01*
X2090Y-8714D01*
X2080Y-8714D01*
X2074Y-8711D01*
X2067Y-8704D01*
X2122Y-8644D02*
X2122Y-8714D01*
X2122Y-8644D02*
X2145Y-8644D01*
X2155Y-8647D01*
X2162Y-8654D01*
X2165Y-8661D01*
X2169Y-8671D01*
X2169Y-8687D01*
X2165Y-8697D01*
X2162Y-8704D01*
X2155Y-8711D01*
X2145Y-8714D01*
X2122Y-8714D01*
X2201Y-8667D02*
X2194Y-8671D01*
X2188Y-8677D01*
X2184Y-8687D01*
X2184Y-8694D01*
X2188Y-8704D01*
X2194Y-8711D01*
X2201Y-8714D01*
X2211Y-8714D01*
X2218Y-8711D01*
X2224Y-8704D01*
X2228Y-8694D01*
X2228Y-8687D01*
X2224Y-8677D01*
X2218Y-8671D01*
X2211Y-8667D01*
X2201Y-8667D01*
X2283Y-8677D02*
X2276Y-8671D01*
X2270Y-8667D01*
X2260Y-8667D01*
X2253Y-8671D01*
X2246Y-8677D01*
X2243Y-8687D01*
X2243Y-8694D01*
X2246Y-8704D01*
X2253Y-8711D01*
X2260Y-8714D01*
X2270Y-8714D01*
X2276Y-8711D01*
X2283Y-8704D01*
X-572Y-8039D02*
X-599Y-7969D01*
X-625Y-8039D01*
X-615Y-8016D02*
X-582Y-8016D01*
X-516Y-8003D02*
X-522Y-7996D01*
X-529Y-7993D01*
X-539Y-7993D01*
X-546Y-7996D01*
X-552Y-8003D01*
X-556Y-8013D01*
X-556Y-8019D01*
X-552Y-8029D01*
X-546Y-8036D01*
X-539Y-8039D01*
X-529Y-8039D01*
X-522Y-8036D01*
X-516Y-8029D01*
X-501Y-7993D02*
X-501Y-8039D01*
X-501Y-8006D02*
X-491Y-7996D01*
X-484Y-7993D01*
X-474Y-7993D01*
X-467Y-7996D01*
X-464Y-8006D01*
X-464Y-8039D01*
X-464Y-8006D02*
X-454Y-7996D01*
X-447Y-7993D01*
X-437Y-7993D01*
X-431Y-7996D01*
X-427Y-8006D01*
X-427Y-8039D01*
X-405Y-8013D02*
X-365Y-8013D01*
X-365Y-8006D01*
X-369Y-7999D01*
X-372Y-7996D01*
X-379Y-7993D01*
X-389Y-7993D01*
X-395Y-7996D01*
X-402Y-8003D01*
X-405Y-8013D01*
X-405Y-8019D01*
X-402Y-8029D01*
X-395Y-8036D01*
X-389Y-8039D01*
X-379Y-8039D01*
X-372Y-8036D01*
X-365Y-8029D01*
X-350Y-8063D02*
X-297Y-8063D01*
X-238Y-7986D02*
X-241Y-7979D01*
X-248Y-7973D01*
X-255Y-7969D01*
X-268Y-7969D01*
X-275Y-7973D01*
X-281Y-7979D01*
X-285Y-7986D01*
X-288Y-7996D01*
X-288Y-8013D01*
X-285Y-8023D01*
X-281Y-8029D01*
X-275Y-8036D01*
X-268Y-8039D01*
X-255Y-8039D01*
X-248Y-8036D01*
X-241Y-8029D01*
X-238Y-8023D01*
X-218Y-8006D02*
X-188Y-8006D01*
X-178Y-8003D01*
X-175Y-7999D01*
X-172Y-7993D01*
X-172Y-7983D01*
X-175Y-7976D01*
X-178Y-7973D01*
X-188Y-7969D01*
X-218Y-7969D01*
X-218Y-8039D01*
X-156Y-7969D02*
X-156Y-8019D01*
X-153Y-8029D01*
X-146Y-8036D01*
X-136Y-8039D01*
X-129Y-8039D01*
X-119Y-8036D01*
X-113Y-8029D01*
X-109Y-8019D01*
X-109Y-7969D01*
X-619Y-8166D02*
X-582Y-8166D01*
X-602Y-8193D01*
X-592Y-8193D01*
X-585Y-8196D01*
X-582Y-8200D01*
X-579Y-8210D01*
X-579Y-8216D01*
X-582Y-8226D01*
X-589Y-8233D01*
X-599Y-8236D01*
X-609Y-8236D01*
X-619Y-8233D01*
X-622Y-8230D01*
X-625Y-8223D01*
X-543Y-8166D02*
X-553Y-8170D01*
X-560Y-8180D01*
X-563Y-8196D01*
X-563Y-8206D01*
X-560Y-8223D01*
X-553Y-8233D01*
X-543Y-8236D01*
X-536Y-8236D01*
X-526Y-8233D01*
X-520Y-8223D01*
X-516Y-8206D01*
X-516Y-8196D01*
X-520Y-8180D01*
X-526Y-8170D01*
X-536Y-8166D01*
X-543Y-8166D01*
X-446Y-8166D02*
X-446Y-8236D01*
X-446Y-8166D02*
X-399Y-8236D01*
X-399Y-8166D02*
X-399Y-8236D01*
X-275Y-8183D02*
X-278Y-8176D01*
X-285Y-8170D01*
X-291Y-8166D01*
X-305Y-8166D01*
X-311Y-8170D01*
X-318Y-8176D01*
X-321Y-8183D01*
X-325Y-8193D01*
X-325Y-8210D01*
X-321Y-8220D01*
X-318Y-8226D01*
X-311Y-8233D01*
X-305Y-8236D01*
X-291Y-8236D01*
X-285Y-8233D01*
X-278Y-8226D01*
X-275Y-8220D01*
X-275Y-8210D01*
X-291Y-8210D02*
X-275Y-8210D01*
X-242Y-8190D02*
X-249Y-8193D01*
X-255Y-8200D01*
X-259Y-8210D01*
X-259Y-8216D01*
X-255Y-8226D01*
X-249Y-8233D01*
X-242Y-8236D01*
X-232Y-8236D01*
X-225Y-8233D01*
X-219Y-8226D01*
X-215Y-8216D01*
X-215Y-8210D01*
X-219Y-8200D01*
X-225Y-8193D01*
X-232Y-8190D01*
X-242Y-8190D01*
X-200Y-8190D02*
X-200Y-8223D01*
X-197Y-8233D01*
X-190Y-8236D01*
X-180Y-8236D01*
X-173Y-8233D01*
X-163Y-8223D01*
X-163Y-8190D02*
X-163Y-8236D01*
X-145Y-8166D02*
X-145Y-8236D01*
X-90Y-8166D02*
X-90Y-8236D01*
X-90Y-8200D02*
X-97Y-8193D01*
X-104Y-8190D01*
X-114Y-8190D01*
X-120Y-8193D01*
X-127Y-8200D01*
X-130Y-8210D01*
X-130Y-8216D01*
X-127Y-8226D01*
X-120Y-8233D01*
X-114Y-8236D01*
X-104Y-8236D01*
X-97Y-8233D01*
X-90Y-8226D01*
X30Y-8176D02*
X23Y-8170D01*
X13Y-8166D01*
X0Y-8166D01*
X-10Y-8170D01*
X-17Y-8176D01*
X-17Y-8183D01*
X-13Y-8190D01*
X-10Y-8193D01*
X-3Y-8196D01*
X17Y-8203D01*
X23Y-8206D01*
X27Y-8210D01*
X30Y-8216D01*
X30Y-8226D01*
X23Y-8233D01*
X13Y-8236D01*
X0Y-8236D01*
X-10Y-8233D01*
X-17Y-8226D01*
X56Y-8166D02*
X56Y-8223D01*
X59Y-8233D01*
X66Y-8236D01*
X72Y-8236D01*
X46Y-8190D02*
X69Y-8190D01*
X174Y-8200D02*
X171Y-8193D01*
X161Y-8190D01*
X151Y-8190D01*
X141Y-8193D01*
X137Y-8200D01*
X141Y-8206D01*
X147Y-8210D01*
X164Y-8213D01*
X171Y-8216D01*
X174Y-8223D01*
X174Y-8226D01*
X171Y-8233D01*
X161Y-8236D01*
X151Y-8236D01*
X141Y-8233D01*
X137Y-8226D01*
X189Y-8190D02*
X189Y-8223D01*
X192Y-8233D01*
X199Y-8236D01*
X209Y-8236D01*
X215Y-8233D01*
X225Y-8223D01*
X225Y-8190D02*
X225Y-8236D01*
X250Y-8166D02*
X254Y-8170D01*
X257Y-8166D01*
X254Y-8163D01*
X250Y-8166D01*
X254Y-8190D02*
X254Y-8236D01*
X279Y-8166D02*
X279Y-8223D01*
X283Y-8233D01*
X289Y-8236D01*
X296Y-8236D01*
X269Y-8190D02*
X293Y-8190D01*
X306Y-8210D02*
X346Y-8210D01*
X346Y-8203D01*
X343Y-8196D01*
X339Y-8193D01*
X333Y-8190D01*
X323Y-8190D01*
X316Y-8193D01*
X309Y-8200D01*
X306Y-8210D01*
X306Y-8216D01*
X309Y-8226D01*
X316Y-8233D01*
X323Y-8236D01*
X333Y-8236D01*
X339Y-8233D01*
X346Y-8226D01*
X449Y-8166D02*
X416Y-8213D01*
X466Y-8213D01*
X449Y-8166D02*
X449Y-8236D01*
X498Y-8166D02*
X488Y-8170D01*
X482Y-8180D01*
X478Y-8196D01*
X478Y-8206D01*
X482Y-8223D01*
X488Y-8233D01*
X498Y-8236D01*
X505Y-8236D01*
X515Y-8233D01*
X522Y-8223D01*
X525Y-8206D01*
X525Y-8196D01*
X522Y-8180D01*
X515Y-8170D01*
X505Y-8166D01*
X498Y-8166D01*
X561Y-8166D02*
X551Y-8170D01*
X544Y-8180D01*
X541Y-8196D01*
X541Y-8206D01*
X544Y-8223D01*
X551Y-8233D01*
X561Y-8236D01*
X567Y-8236D01*
X577Y-8233D01*
X584Y-8223D01*
X587Y-8206D01*
X587Y-8196D01*
X584Y-8180D01*
X577Y-8170D01*
X567Y-8166D01*
X561Y-8166D01*
X623Y-8166D02*
X613Y-8170D01*
X606Y-8180D01*
X603Y-8196D01*
X603Y-8206D01*
X606Y-8223D01*
X613Y-8233D01*
X623Y-8236D01*
X630Y-8236D01*
X640Y-8233D01*
X646Y-8223D01*
X650Y-8206D01*
X650Y-8196D01*
X646Y-8180D01*
X640Y-8170D01*
X630Y-8166D01*
X623Y-8166D01*
X-579Y-8275D02*
X-585Y-8268D01*
X-595Y-8265D01*
X-609Y-8265D01*
X-619Y-8268D01*
X-625Y-8275D01*
X-625Y-8281D01*
X-622Y-8288D01*
X-619Y-8291D01*
X-612Y-8295D01*
X-592Y-8301D01*
X-585Y-8305D01*
X-582Y-8308D01*
X-579Y-8315D01*
X-579Y-8325D01*
X-585Y-8331D01*
X-595Y-8335D01*
X-609Y-8335D01*
X-619Y-8331D01*
X-625Y-8325D01*
X-563Y-8265D02*
X-563Y-8335D01*
X-563Y-8301D02*
X-553Y-8291D01*
X-546Y-8288D01*
X-536Y-8288D01*
X-530Y-8291D01*
X-526Y-8301D01*
X-526Y-8335D01*
X-508Y-8308D02*
X-468Y-8308D01*
X-468Y-8301D01*
X-471Y-8295D01*
X-475Y-8291D01*
X-481Y-8288D01*
X-491Y-8288D01*
X-498Y-8291D01*
X-505Y-8298D01*
X-508Y-8308D01*
X-508Y-8315D01*
X-505Y-8325D01*
X-498Y-8331D01*
X-491Y-8335D01*
X-481Y-8335D01*
X-475Y-8331D01*
X-468Y-8325D01*
X-453Y-8288D02*
X-453Y-8335D01*
X-453Y-8308D02*
X-450Y-8298D01*
X-443Y-8291D01*
X-436Y-8288D01*
X-426Y-8288D01*
X-413Y-8265D02*
X-410Y-8268D01*
X-407Y-8265D01*
X-410Y-8261D01*
X-413Y-8265D01*
X-410Y-8288D02*
X-410Y-8335D01*
X-354Y-8265D02*
X-354Y-8335D01*
X-354Y-8298D02*
X-361Y-8291D01*
X-368Y-8288D01*
X-378Y-8288D01*
X-384Y-8291D01*
X-391Y-8298D01*
X-394Y-8308D01*
X-394Y-8315D01*
X-391Y-8325D01*
X-384Y-8331D01*
X-378Y-8335D01*
X-368Y-8335D01*
X-361Y-8331D01*
X-354Y-8325D01*
X-296Y-8288D02*
X-296Y-8335D01*
X-296Y-8298D02*
X-302Y-8291D01*
X-309Y-8288D01*
X-319Y-8288D01*
X-326Y-8291D01*
X-332Y-8298D01*
X-336Y-8308D01*
X-336Y-8315D01*
X-332Y-8325D01*
X-326Y-8331D01*
X-319Y-8335D01*
X-309Y-8335D01*
X-302Y-8331D01*
X-296Y-8325D01*
X-277Y-8288D02*
X-277Y-8335D01*
X-277Y-8301D02*
X-267Y-8291D01*
X-260Y-8288D01*
X-250Y-8288D01*
X-244Y-8291D01*
X-240Y-8301D01*
X-240Y-8335D01*
X-167Y-8265D02*
X-150Y-8335D01*
X-134Y-8265D02*
X-150Y-8335D01*
X-134Y-8265D02*
X-117Y-8335D01*
X-100Y-8265D02*
X-117Y-8335D01*
X-86Y-8265D02*
X-60Y-8298D01*
X-60Y-8335D01*
X-33Y-8265D02*
X-60Y-8298D01*
X48Y-8265D02*
X38Y-8268D01*
X34Y-8275D01*
X34Y-8281D01*
X38Y-8288D01*
X44Y-8291D01*
X58Y-8295D01*
X68Y-8298D01*
X74Y-8305D01*
X78Y-8311D01*
X78Y-8321D01*
X74Y-8328D01*
X71Y-8331D01*
X61Y-8335D01*
X48Y-8335D01*
X38Y-8331D01*
X34Y-8328D01*
X31Y-8321D01*
X31Y-8311D01*
X34Y-8305D01*
X41Y-8298D01*
X51Y-8295D01*
X64Y-8291D01*
X71Y-8288D01*
X74Y-8281D01*
X74Y-8275D01*
X71Y-8268D01*
X61Y-8265D01*
X48Y-8265D01*
X97Y-8281D02*
X97Y-8278D01*
X100Y-8271D01*
X103Y-8268D01*
X110Y-8265D01*
X123Y-8265D01*
X130Y-8268D01*
X133Y-8271D01*
X137Y-8278D01*
X137Y-8285D01*
X133Y-8291D01*
X127Y-8301D01*
X93Y-8335D01*
X140Y-8335D01*
X172Y-8265D02*
X162Y-8268D01*
X159Y-8275D01*
X159Y-8281D01*
X162Y-8288D01*
X169Y-8291D01*
X182Y-8295D01*
X192Y-8298D01*
X199Y-8305D01*
X202Y-8311D01*
X202Y-8321D01*
X199Y-8328D01*
X196Y-8331D01*
X186Y-8335D01*
X172Y-8335D01*
X162Y-8331D01*
X159Y-8328D01*
X156Y-8321D01*
X156Y-8311D01*
X159Y-8305D01*
X166Y-8298D01*
X176Y-8295D01*
X189Y-8291D01*
X196Y-8288D01*
X199Y-8281D01*
X199Y-8275D01*
X196Y-8268D01*
X186Y-8265D01*
X172Y-8265D01*
X238Y-8265D02*
X228Y-8268D01*
X221Y-8278D01*
X218Y-8295D01*
X218Y-8305D01*
X221Y-8321D01*
X228Y-8331D01*
X238Y-8335D01*
X245Y-8335D01*
X255Y-8331D01*
X261Y-8321D01*
X265Y-8305D01*
X265Y-8295D01*
X261Y-8278D01*
X255Y-8268D01*
X245Y-8265D01*
X238Y-8265D01*
X280Y-8278D02*
X287Y-8275D01*
X297Y-8265D01*
X297Y-8335D01*
X5090Y2641D02*
X5127Y2641D01*
X5107Y2614D01*
X5117Y2614D01*
X5123Y2611D01*
X5127Y2608D01*
X5130Y2598D01*
X5130Y2591D01*
X5127Y2581D01*
X5120Y2574D01*
X5110Y2571D01*
X5100Y2571D01*
X5090Y2574D01*
X5087Y2578D01*
X5083Y2584D01*
X359Y2628D02*
X366Y2631D01*
X376Y2641D01*
X376Y2571D01*
X2725Y2624D02*
X2725Y2628D01*
X2728Y2634D01*
X2731Y2638D01*
X2738Y2641D01*
X2751Y2641D01*
X2758Y2638D01*
X2761Y2634D01*
X2765Y2628D01*
X2765Y2621D01*
X2761Y2614D01*
X2755Y2604D01*
X2721Y2571D01*
X2768Y2571D01*
D18*
X3957Y30D02*
X3957Y43D01*
X3106Y0D02*
X3120Y0D01*
X3133Y0D01*
X3917Y-43D02*
X3917Y-30D01*
X3937Y-43D02*
X3937Y-30D01*
X3904Y-30D02*
X3917Y-30D01*
X413Y0D02*
X413Y41D01*
X413Y-41D02*
X413Y0D01*
X544Y-39D02*
X563Y-39D01*
X582Y-39D01*
X563Y-57D02*
X563Y-39D01*
X516Y-58D02*
X516Y-39D01*
X534Y-39D01*
X863Y-7761D02*
X857Y-7756D01*
X849Y-7753D01*
X837Y-7753D01*
X829Y-7756D01*
X823Y-7761D01*
X823Y-7767D01*
X826Y-7773D01*
X829Y-7776D01*
X835Y-7779D01*
X852Y-7784D01*
X857Y-7787D01*
X860Y-7790D01*
X863Y-7796D01*
X863Y-7804D01*
X857Y-7810D01*
X849Y-7813D01*
X837Y-7813D01*
X829Y-7810D01*
X823Y-7804D01*
X919Y-7767D02*
X917Y-7761D01*
X911Y-7756D01*
X905Y-7753D01*
X894Y-7753D01*
X888Y-7756D01*
X882Y-7761D01*
X879Y-7767D01*
X877Y-7776D01*
X877Y-7790D01*
X879Y-7798D01*
X882Y-7804D01*
X888Y-7810D01*
X894Y-7813D01*
X905Y-7813D01*
X911Y-7810D01*
X917Y-7804D01*
X919Y-7798D01*
X919Y-7790D01*
X905Y-7790D02*
X919Y-7790D01*
X933Y-7753D02*
X933Y-7796D01*
X936Y-7804D01*
X942Y-7810D01*
X950Y-7813D01*
X956Y-7813D01*
X965Y-7810D01*
X970Y-7804D01*
X973Y-7796D01*
X973Y-7753D01*
X858Y-8066D02*
X852Y-8061D01*
X844Y-8058D01*
X832Y-8058D01*
X824Y-8061D01*
X818Y-8066D01*
X818Y-8072D01*
X821Y-8078D01*
X824Y-8081D01*
X830Y-8084D01*
X847Y-8089D01*
X852Y-8092D01*
X855Y-8095D01*
X858Y-8101D01*
X858Y-8109D01*
X852Y-8115D01*
X844Y-8118D01*
X832Y-8118D01*
X824Y-8115D01*
X818Y-8109D01*
X914Y-8072D02*
X912Y-8066D01*
X906Y-8061D01*
X900Y-8058D01*
X889Y-8058D01*
X883Y-8061D01*
X877Y-8066D01*
X874Y-8072D01*
X872Y-8081D01*
X872Y-8095D01*
X874Y-8103D01*
X877Y-8109D01*
X883Y-8115D01*
X889Y-8118D01*
X900Y-8118D01*
X906Y-8115D01*
X912Y-8109D01*
X914Y-8103D01*
X914Y-8095D01*
X900Y-8095D02*
X914Y-8095D01*
X928Y-8058D02*
X928Y-8101D01*
X931Y-8109D01*
X937Y-8115D01*
X945Y-8118D01*
X951Y-8118D01*
X960Y-8115D01*
X965Y-8109D01*
X968Y-8101D01*
X968Y-8058D01*
X5484Y-8684D02*
X5439Y-8566D01*
X5394Y-8684D01*
X5411Y-8645D02*
X5467Y-8645D01*
X5567Y-8566D02*
X5511Y-8645D01*
X5596Y-8645D01*
X5567Y-8566D02*
X5567Y-8684D01*
X5709Y-8566D02*
X5709Y-8684D01*
X5709Y-8566D02*
X5754Y-8684D01*
X5799Y-8566D02*
X5754Y-8684D01*
X5799Y-8566D02*
X5799Y-8684D01*
X5833Y-8589D02*
X5844Y-8583D01*
X5861Y-8566D01*
X5861Y-8684D01*
X5925Y-8606D02*
X5919Y-8611D01*
X5925Y-8617D01*
X5931Y-8611D01*
X5925Y-8606D01*
X5925Y-8673D02*
X5919Y-8679D01*
X5925Y-8684D01*
X5931Y-8679D01*
X5925Y-8673D01*
X5957Y-8589D02*
X5968Y-8583D01*
X5985Y-8566D01*
X5985Y-8684D01*
X5402Y-8266D02*
X5386Y-8272D01*
X5374Y-8289D01*
X5369Y-8317D01*
X5369Y-8334D01*
X5374Y-8362D01*
X5386Y-8379D01*
X5402Y-8384D01*
X5414Y-8384D01*
X5431Y-8379D01*
X5442Y-8362D01*
X5447Y-8334D01*
X5447Y-8317D01*
X5442Y-8289D01*
X5431Y-8272D01*
X5414Y-8266D01*
X5402Y-8266D01*
X5479Y-8373D02*
X5474Y-8379D01*
X5479Y-8384D01*
X5485Y-8379D01*
X5479Y-8373D01*
X5511Y-8289D02*
X5522Y-8283D01*
X5539Y-8266D01*
X5539Y-8384D01*
D27*
X3957Y-30D02*
D03*
X3937Y-30D02*
D03*
X3917Y-30D02*
D03*
X3917Y30D02*
D03*
X3937Y30D02*
D03*
X3957Y30D02*
D03*
D28*
X3907Y-10D02*
D03*
X3907Y10D02*
D03*
X3967Y10D02*
D03*
X3967Y-10D02*
D03*
D29*
X3140Y-30D02*
D03*
X3159Y-30D02*
D03*
X3159Y30D02*
D03*
X3140Y30D02*
D03*
D30*
X3180Y-20D02*
D03*
X3180Y0D02*
D03*
X3180Y20D02*
D03*
X3120Y20D02*
D03*
X3120Y0D02*
D03*
X3120Y-20D02*
D03*
D31*
X3885Y10D02*
D03*
X3871Y10D02*
D03*
X3885Y-10D02*
D03*
X3871Y-10D02*
D03*
X3871Y30D02*
D03*
X3885Y30D02*
D03*
X3209Y20D02*
D03*
X3195Y20D02*
D03*
X3182Y34D02*
D03*
X3196Y34D02*
D03*
D32*
X3084Y25D02*
D03*
X3074Y15D02*
D03*
D33*
X516Y0D02*
D03*
X476Y0D02*
D03*
X516Y-39D02*
D03*
X476Y-39D02*
D03*
X295Y-12D02*
D03*
X335Y-12D02*
D03*
D34*
X563Y0D02*
D03*
X563Y-39D02*
D03*
D35*
X389Y30D02*
D03*
X389Y10D02*
D03*
X389Y-10D02*
D03*
X389Y-30D02*
D03*
X437Y-30D02*
D03*
X437Y-10D02*
D03*
X437Y10D02*
D03*
X437Y30D02*
D03*
D36*
X413Y0D02*
D03*
D37*
X3831Y12D02*
D03*
X3260Y55D02*
D03*
X339Y16D02*
D03*
X276Y-12D02*
D03*
X364Y10D02*
D03*
X3264Y24D02*
D03*
X3941Y-47D02*
D03*
X3945Y-8D02*
D03*
X3976Y-39D02*
D03*
X3831Y55D02*
D03*
X3957Y45D02*
D03*
X3850Y8D02*
D03*
X3067Y-39D02*
D03*
X3240Y-8D02*
D03*
X3256Y-24D02*
D03*
X3224Y16D02*
D03*
X3209Y-20D02*
D03*
X3098Y12D02*
D03*
X3055Y-4D02*
D03*
X3122Y-39D02*
D03*
X3098Y-20D02*
D03*
X539Y0D02*
D03*
X153Y-36D02*
D03*
X193Y-36D02*
D03*
X233Y-36D02*
D03*
X273Y-36D02*
D03*
X273Y44D02*
D03*
X313Y-36D02*
D03*
X313Y44D02*
D03*
X353Y-36D02*
D03*
X593Y-36D02*
D03*
X633Y-36D02*
D03*
X633Y44D02*
D03*
X673Y-36D02*
D03*
X673Y44D02*
D03*
X713Y-36D02*
D03*
X713Y44D02*
D03*
X753Y-36D02*
D03*
X753Y44D02*
D03*
X793Y-36D02*
D03*
X793Y44D02*
D03*
X833Y-36D02*
D03*
X833Y44D02*
D03*
X873Y-36D02*
D03*
X873Y44D02*
D03*
X913Y-36D02*
D03*
X913Y44D02*
D03*
X953Y-36D02*
D03*
X953Y44D02*
D03*
X993Y-36D02*
D03*
X993Y44D02*
D03*
X1033Y-36D02*
D03*
X1033Y44D02*
D03*
X1073Y-36D02*
D03*
X1073Y44D02*
D03*
X1113Y-36D02*
D03*
X1113Y44D02*
D03*
X1153Y-36D02*
D03*
X1153Y44D02*
D03*
X1193Y-36D02*
D03*
X1193Y44D02*
D03*
X1233Y-36D02*
D03*
X1233Y44D02*
D03*
X1273Y-36D02*
D03*
X1273Y44D02*
D03*
X1313Y-36D02*
D03*
X1313Y44D02*
D03*
X1353Y-36D02*
D03*
X1353Y44D02*
D03*
X1393Y-36D02*
D03*
X1393Y44D02*
D03*
X1433Y-36D02*
D03*
X1433Y44D02*
D03*
X1473Y-36D02*
D03*
X1473Y44D02*
D03*
X1513Y-36D02*
D03*
X1513Y44D02*
D03*
X1553Y-36D02*
D03*
X1553Y44D02*
D03*
X1593Y-36D02*
D03*
X1593Y44D02*
D03*
X1633Y-36D02*
D03*
X1633Y44D02*
D03*
X1673Y-36D02*
D03*
X1673Y44D02*
D03*
X1713Y-36D02*
D03*
X1713Y44D02*
D03*
X1753Y-36D02*
D03*
X1753Y44D02*
D03*
X1793Y-36D02*
D03*
X1793Y44D02*
D03*
X1833Y-36D02*
D03*
X1833Y44D02*
D03*
X1873Y-36D02*
D03*
X1873Y44D02*
D03*
X1913Y-36D02*
D03*
X1913Y44D02*
D03*
X1953Y-36D02*
D03*
X1953Y44D02*
D03*
X1993Y-36D02*
D03*
X1993Y44D02*
D03*
X2033Y-36D02*
D03*
X2033Y44D02*
D03*
X2073Y-36D02*
D03*
X2073Y44D02*
D03*
X2113Y-36D02*
D03*
X2113Y44D02*
D03*
X2153Y-36D02*
D03*
X2153Y44D02*
D03*
X2193Y-36D02*
D03*
X2193Y44D02*
D03*
X2233Y-36D02*
D03*
X2233Y44D02*
D03*
X2273Y-36D02*
D03*
X2273Y44D02*
D03*
X2313Y-36D02*
D03*
X2313Y44D02*
D03*
X2353Y-36D02*
D03*
X2353Y44D02*
D03*
X2393Y-36D02*
D03*
X2393Y44D02*
D03*
X2433Y-36D02*
D03*
X2433Y44D02*
D03*
X2473Y-36D02*
D03*
X2473Y44D02*
D03*
X2513Y-36D02*
D03*
X2513Y44D02*
D03*
X2553Y-36D02*
D03*
X2553Y44D02*
D03*
X2593Y-36D02*
D03*
X2593Y44D02*
D03*
X2633Y-36D02*
D03*
X2633Y44D02*
D03*
X2673Y-36D02*
D03*
X2673Y44D02*
D03*
X2713Y-36D02*
D03*
X2713Y44D02*
D03*
X2753Y-36D02*
D03*
X2753Y44D02*
D03*
X2793Y-36D02*
D03*
X2793Y44D02*
D03*
X2833Y-36D02*
D03*
X2833Y44D02*
D03*
X2873Y-36D02*
D03*
X2873Y44D02*
D03*
X2913Y-36D02*
D03*
X2913Y44D02*
D03*
X2953Y-36D02*
D03*
X2953Y44D02*
D03*
X2993Y-36D02*
D03*
X2993Y44D02*
D03*
X3033Y-36D02*
D03*
X3033Y44D02*
D03*
X3313Y-36D02*
D03*
X3313Y44D02*
D03*
X3353Y-36D02*
D03*
X3353Y44D02*
D03*
X3393Y-36D02*
D03*
X3393Y44D02*
D03*
X3433Y-36D02*
D03*
X3433Y44D02*
D03*
X3473Y-36D02*
D03*
X3473Y44D02*
D03*
X3513Y-36D02*
D03*
X3513Y44D02*
D03*
X3553Y-36D02*
D03*
X3553Y44D02*
D03*
X3593Y-36D02*
D03*
X3593Y44D02*
D03*
X3633Y-36D02*
D03*
X3633Y44D02*
D03*
X3673Y-36D02*
D03*
X3673Y44D02*
D03*
X3713Y-36D02*
D03*
X3713Y44D02*
D03*
X3753Y-36D02*
D03*
X3753Y44D02*
D03*
X3793Y-36D02*
D03*
X3793Y44D02*
D03*
X3833Y-36D02*
D03*
M02*
