M48
;Layer_Color=9474304
;FILE_FORMAT=2:3
INCH,LZ
;TYPE=PLATED
T1F00S00C0.006
%
T01
X00153Y-00036
X00193
X00233
X00273
X00276Y-00012
X00273Y00044
X00313
X00339Y00016
X00364Y0001
X00353Y-00036
X00313
X00539Y0
X00593Y-00036
X00633
X00673
X00713
X00753
X00793
X00833
X00873
X00913
X00953
X00993
X01033
X01073
X01113
X01153
X01193
X01233
X01273
X01313
X01353
X01393
X01433
X01473
X01513
X01553
X01593
X01633
X01673
X01713
X01753
X01793
Y00044
X01753
X01713
X01673
X01633
X01593
X01553
X01513
X01473
X01433
X01393
X01353
X01313
X01273
X01233
X01193
X01153
X01113
X01073
X01033
X00993
X00953
X00913
X00873
X00833
X00793
X00753
X00713
X00673
X00633
X01833
X01873
X01913
X01953
X01993
X02033
X02073
X02113
X02153
X02193
X02233
X02273
X02313
X02353
X02393
X02433
X02473
X02513
X02553
X02593
X02633
X02673
X02713
X02753
X02793
X02833
X02873
X02913
X02953
X02993
X03033
X03055Y-00004
X03067Y-00039
X03033Y-00036
X02993
X02953
X02913
X02873
X02833
X02793
X02753
X02713
X02673
X02633
X02593
X02553
X02513
X02473
X02433
X02393
X02353
X02313
X02273
X02233
X02193
X02153
X02113
X02073
X02033
X01993
X01953
X01913
X01873
X01833
X03098Y-0002
Y00012
X03122Y-00039
X03209Y-0002
X0324Y-00008
X03256Y-00024
X03264Y00024
X0326Y00055
X03313Y00044
X03353
Y-00036
X03313
X03224Y00016
X03393Y00044
X03433
X03473
X03513
X03553
X03593
X03633
X03673
X03713
X03753
X03793
X03831Y00055
X03831Y00012
X0385Y00008
X03833Y-00036
X03793
X03753
X03713
X03673
X03633
X03593
X03553
X03513
X03473
X03433
X03393
X03941Y-00047
X03976Y-00039
X03945Y-00008
X03957Y00045
M30
