M48
;Layer_Color=9474304
;FILE_FORMAT=2:3
INCH,LZ
;TYPE=PLATED
T1F00S00C0.006
T2F00S00C0.008
T3F00S00C0.012
T4F00S00C0.028
T5F00S00C0.087
%
T01
X00225Y0005
X0034
X0025Y00194
Y003
Y0035
Y004
X00275Y00425
X003Y004
X00325Y00425
X00365
X00375Y004
X004Y00494
X00363Y00569
X00287
X0025Y00644
X00213Y00719
X00204Y00535
X00175Y00494
X0025
X00225Y00375
Y00325
X00287Y00269
X00363
X00138
Y00419
X001Y00494
X00138Y00569
X00512
X0055Y00644
X00625
X007
X0085
X00925
X00962Y00719
X00887
Y00569
X00962
X01038
X01112
Y00419
X0095Y00335
X00899Y00365
X00865Y0034
Y003
X009Y00275
X00895Y00215
X00925Y00194
X01
Y00044
X00925
X0085
X0083Y00125
X00861Y00151
X00783Y0015
X00745Y00153
X00705Y0016
X00745Y00097
X0076Y0006
X00735Y00045
X0077Y00218
X00785Y0025
X00825Y00265
X0078Y00325
Y00355
X00782Y00385
X0078Y00455
X00805Y00435
X0083Y00415
X00738Y00419
X00665Y00235
X0059Y00225
X00575Y00135
X0048
X00438Y00269
X0055Y00494
X00475Y00644
X00925Y00494
T02
X00074Y00074
X00118Y00055
X00163Y00074
X00181Y00118
X00163Y00163
X00118Y00181
X00074Y00163
X00055Y00118
X00074Y00625
X00118Y00606
X00163Y00625
X00181Y00669
X00163Y00714
X00118Y00732
X00074Y00714
X00055Y00669
X01
X01018Y00625
X01063Y00606
X01108Y00625
X01126Y00669
X01108Y00714
X01063Y00732
X01018Y00714
X01018Y00163
X01063Y00181
X01108Y00163
X01126Y00118
X01108Y00074
X01063Y00055
X01018Y00074
X01Y00118
T03
X00611Y00311
Y0035
X0065
X00689
Y00311
X0065
Y00389
X00611
X00689
T04
X00276Y00607
X00335
X00395
X00454
X00607
X00666
X00725
X00784
X00843
X01002Y00513
Y00454
Y00395
Y00336
Y00277
T05
X00118Y00118
Y00669
X01063
X01063Y00118
M30
