G04 Layer_Color=16711935*
%FSLAX23Y23*%
%MOIN*%
G70*
G01*
G75*
%ADD28C,0.010*%
%ADD33C,0.028*%
%ADD34C,0.007*%
%ADD35C,0.005*%
%ADD36C,0.012*%
%ADD64R,0.094X0.094*%
%ADD67C,0.118*%
%ADD77C,0.037*%
%ADD80C,0.047*%
%ADD81C,0.026*%
G36*
X3969Y950D02*
X3970Y950D01*
X3971Y950D01*
X3972Y950D01*
X3973Y949D01*
X3975Y949D01*
X3978Y948D01*
X3980Y948D01*
X3980Y948D01*
X3980Y948D01*
X3980Y947D01*
X3981Y947D01*
X3982Y947D01*
X3983Y946D01*
X3984Y945D01*
X3985Y944D01*
X3987Y942D01*
X3988Y941D01*
X3988Y941D01*
X3988Y941D01*
X3988Y941D01*
X3988Y940D01*
X3989Y940D01*
X3989Y939D01*
X3989Y938D01*
X3990Y937D01*
X3991Y935D01*
X3991Y933D01*
X3991Y931D01*
X3983Y931D01*
X3983Y931D01*
X3983Y931D01*
X3983Y931D01*
X3983Y932D01*
X3983Y932D01*
X3983Y933D01*
X3982Y934D01*
X3982Y935D01*
X3981Y937D01*
X3980Y938D01*
X3979Y939D01*
X3978Y940D01*
X3978Y940D01*
X3978Y940D01*
X3978Y940D01*
X3977Y940D01*
X3976Y941D01*
X3976Y941D01*
X3975Y941D01*
X3974Y942D01*
X3973Y942D01*
X3972Y942D01*
X3971Y942D01*
X3970Y942D01*
X3969Y942D01*
X3966Y942D01*
X3966Y942D01*
X3965Y942D01*
X3964Y942D01*
X3962Y942D01*
X3960Y941D01*
X3958Y941D01*
X3957Y940D01*
X3957Y940D01*
X3957Y940D01*
X3956Y939D01*
X3956Y939D01*
X3955Y938D01*
X3954Y937D01*
X3954Y936D01*
X3953Y934D01*
X3953Y933D01*
X3953Y933D01*
X3953Y932D01*
X3953Y932D01*
X3954Y931D01*
X3954Y930D01*
X3954Y929D01*
X3955Y928D01*
X3956Y927D01*
X3956Y927D01*
X3956Y927D01*
X3956Y927D01*
X3957Y927D01*
X3957Y927D01*
X3958Y926D01*
X3958Y926D01*
X3959Y926D01*
X3960Y925D01*
X3961Y925D01*
X3962Y925D01*
X3963Y924D01*
X3965Y924D01*
X3966Y923D01*
X3968Y923D01*
X3968Y923D01*
X3969Y923D01*
X3969Y923D01*
X3970Y923D01*
X3971Y922D01*
X3972Y922D01*
X3973Y922D01*
X3974Y922D01*
X3976Y921D01*
X3978Y920D01*
X3979Y920D01*
X3980Y920D01*
X3981Y919D01*
X3982Y919D01*
X3982Y919D01*
X3982Y919D01*
X3983Y919D01*
X3983Y918D01*
X3984Y918D01*
X3985Y917D01*
X3987Y916D01*
X3988Y915D01*
X3989Y914D01*
X3990Y912D01*
X3990Y912D01*
X3990Y912D01*
X3991Y912D01*
X3991Y912D01*
X3991Y911D01*
X3992Y910D01*
X3992Y909D01*
X3993Y907D01*
X3993Y905D01*
X3993Y904D01*
X3993Y903D01*
X3993Y903D01*
X3993Y903D01*
X3993Y903D01*
X3993Y902D01*
X3993Y902D01*
X3993Y901D01*
X3992Y899D01*
X3992Y897D01*
X3991Y896D01*
X3990Y894D01*
X3990Y894D01*
X3990Y894D01*
X3990Y894D01*
X3990Y893D01*
X3989Y893D01*
X3988Y892D01*
X3987Y891D01*
X3985Y889D01*
X3984Y888D01*
X3982Y887D01*
X3982Y887D01*
X3981Y887D01*
X3981Y887D01*
X3981Y887D01*
X3980Y887D01*
X3980Y886D01*
X3979Y886D01*
X3978Y886D01*
X3976Y886D01*
X3974Y885D01*
X3972Y885D01*
X3970Y885D01*
X3969Y885D01*
X3968Y885D01*
X3968Y885D01*
X3967Y885D01*
X3966Y885D01*
X3965Y885D01*
X3962Y885D01*
X3960Y886D01*
X3958Y886D01*
X3955Y887D01*
X3955Y887D01*
X3955Y887D01*
X3955Y887D01*
X3954Y888D01*
X3954Y888D01*
X3953Y888D01*
X3952Y889D01*
X3951Y890D01*
X3949Y891D01*
X3948Y893D01*
X3946Y895D01*
X3946Y895D01*
X3946Y895D01*
X3946Y895D01*
X3946Y896D01*
X3946Y896D01*
X3945Y897D01*
X3945Y897D01*
X3945Y898D01*
X3944Y900D01*
X3943Y902D01*
X3943Y904D01*
X3943Y906D01*
X3951Y907D01*
X3951Y907D01*
X3951Y907D01*
X3951Y906D01*
X3951Y906D01*
X3951Y905D01*
X3951Y904D01*
X3952Y903D01*
X3952Y901D01*
X3953Y900D01*
X3953Y899D01*
X3953Y899D01*
X3954Y898D01*
X3954Y898D01*
X3955Y897D01*
X3956Y896D01*
X3957Y896D01*
X3958Y895D01*
X3960Y894D01*
X3960Y894D01*
X3960Y894D01*
X3960Y894D01*
X3960Y894D01*
X3961Y894D01*
X3961Y893D01*
X3962Y893D01*
X3964Y893D01*
X3965Y892D01*
X3967Y892D01*
X3969Y892D01*
X3970Y892D01*
X3971Y892D01*
X3972Y892D01*
X3973Y893D01*
X3975Y893D01*
X3976Y893D01*
X3978Y894D01*
X3978Y894D01*
X3978Y894D01*
X3978Y894D01*
X3979Y894D01*
X3980Y895D01*
X3981Y895D01*
X3981Y896D01*
X3982Y897D01*
X3983Y897D01*
X3983Y898D01*
X3983Y898D01*
X3984Y898D01*
X3984Y899D01*
X3984Y900D01*
X3985Y901D01*
X3985Y902D01*
X3985Y903D01*
X3985Y903D01*
X3985Y903D01*
X3985Y904D01*
X3985Y905D01*
X3985Y905D01*
X3984Y906D01*
X3984Y907D01*
X3983Y908D01*
X3983Y908D01*
X3983Y908D01*
X3982Y909D01*
X3982Y909D01*
X3981Y910D01*
X3980Y911D01*
X3979Y911D01*
X3977Y912D01*
X3977Y912D01*
X3977Y912D01*
X3977Y912D01*
X3976Y912D01*
X3976Y912D01*
X3975Y912D01*
X3974Y913D01*
X3974Y913D01*
X3973Y913D01*
X3972Y913D01*
X3970Y914D01*
X3969Y914D01*
X3968Y914D01*
X3966Y915D01*
X3966Y915D01*
X3966Y915D01*
X3965Y915D01*
X3965Y915D01*
X3964Y915D01*
X3963Y916D01*
X3961Y916D01*
X3960Y917D01*
X3957Y917D01*
X3956Y918D01*
X3955Y918D01*
X3954Y919D01*
X3954Y919D01*
X3954Y919D01*
X3954Y919D01*
X3953Y919D01*
X3953Y920D01*
X3952Y920D01*
X3950Y921D01*
X3949Y922D01*
X3948Y923D01*
X3947Y925D01*
X3947Y925D01*
X3947Y925D01*
X3947Y925D01*
X3947Y926D01*
X3946Y927D01*
X3946Y928D01*
X3946Y929D01*
X3945Y931D01*
X3945Y932D01*
X3945Y933D01*
X3945Y933D01*
X3945Y933D01*
X3945Y933D01*
X3945Y934D01*
X3946Y935D01*
X3946Y937D01*
X3946Y938D01*
X3947Y940D01*
X3948Y941D01*
X3948Y942D01*
X3948Y942D01*
X3948Y942D01*
X3949Y943D01*
X3950Y944D01*
X3951Y945D01*
X3952Y946D01*
X3954Y947D01*
X3956Y948D01*
X3956Y948D01*
X3956Y948D01*
X3956Y948D01*
X3957Y948D01*
X3957Y948D01*
X3958Y948D01*
X3958Y949D01*
X3959Y949D01*
X3961Y949D01*
X3963Y950D01*
X3965Y950D01*
X3967Y950D01*
X3969Y950D01*
X3969Y950D01*
X3969Y950D02*
G37*
G36*
X3828Y950D02*
X3829Y950D01*
X3830Y950D01*
X3831Y950D01*
X3832Y949D01*
X3834Y949D01*
X3836Y948D01*
X3837Y948D01*
X3838Y947D01*
X3840Y947D01*
X3841Y946D01*
X3842Y945D01*
X3842Y945D01*
X3842Y945D01*
X3843Y945D01*
X3843Y944D01*
X3844Y944D01*
X3844Y943D01*
X3845Y942D01*
X3846Y942D01*
X3846Y941D01*
X3847Y940D01*
X3848Y939D01*
X3849Y937D01*
X3849Y936D01*
X3850Y935D01*
X3851Y933D01*
X3851Y932D01*
X3843Y930D01*
X3843Y930D01*
X3843Y930D01*
X3843Y930D01*
X3843Y931D01*
X3842Y931D01*
X3842Y932D01*
X3841Y933D01*
X3840Y935D01*
X3839Y937D01*
X3838Y938D01*
X3837Y939D01*
X3837Y940D01*
X3837Y940D01*
X3836Y940D01*
X3836Y940D01*
X3836Y940D01*
X3835Y940D01*
X3835Y941D01*
X3834Y941D01*
X3832Y942D01*
X3830Y942D01*
X3828Y943D01*
X3826Y943D01*
X3825Y943D01*
X3825Y943D01*
X3824Y943D01*
X3823Y943D01*
X3823Y942D01*
X3822Y942D01*
X3820Y942D01*
X3818Y941D01*
X3816Y940D01*
X3815Y940D01*
X3814Y939D01*
X3814Y939D01*
X3814Y939D01*
X3813Y939D01*
X3813Y939D01*
X3812Y938D01*
X3811Y937D01*
X3810Y936D01*
X3809Y934D01*
X3808Y932D01*
X3807Y930D01*
X3807Y930D01*
X3807Y930D01*
X3807Y929D01*
X3807Y929D01*
X3806Y928D01*
X3806Y928D01*
X3806Y927D01*
X3806Y926D01*
X3806Y924D01*
X3805Y922D01*
X3805Y920D01*
X3805Y918D01*
X3805Y918D01*
X3805Y917D01*
X3805Y917D01*
X3805Y916D01*
X3805Y916D01*
X3805Y915D01*
X3805Y914D01*
X3805Y913D01*
X3806Y911D01*
X3806Y909D01*
X3807Y906D01*
X3807Y904D01*
X3807Y904D01*
X3807Y904D01*
X3808Y903D01*
X3808Y903D01*
X3808Y902D01*
X3808Y902D01*
X3809Y900D01*
X3810Y899D01*
X3811Y897D01*
X3813Y896D01*
X3815Y895D01*
X3815Y895D01*
X3815Y895D01*
X3815Y895D01*
X3816Y894D01*
X3816Y894D01*
X3816Y894D01*
X3818Y893D01*
X3819Y893D01*
X3821Y892D01*
X3823Y892D01*
X3825Y892D01*
X3826Y892D01*
X3827Y892D01*
X3827Y892D01*
X3828Y892D01*
X3829Y892D01*
X3829Y892D01*
X3831Y893D01*
X3833Y894D01*
X3834Y894D01*
X3835Y895D01*
X3836Y895D01*
X3837Y896D01*
X3837Y896D01*
X3837Y896D01*
X3838Y896D01*
X3838Y897D01*
X3838Y897D01*
X3839Y898D01*
X3839Y898D01*
X3840Y899D01*
X3840Y900D01*
X3841Y901D01*
X3842Y902D01*
X3842Y903D01*
X3843Y904D01*
X3843Y905D01*
X3843Y906D01*
X3844Y908D01*
X3852Y906D01*
X3852Y906D01*
X3852Y905D01*
X3852Y905D01*
X3852Y904D01*
X3851Y903D01*
X3851Y902D01*
X3851Y901D01*
X3850Y900D01*
X3849Y899D01*
X3849Y897D01*
X3848Y896D01*
X3847Y895D01*
X3846Y894D01*
X3845Y892D01*
X3844Y891D01*
X3843Y890D01*
X3843Y890D01*
X3842Y890D01*
X3842Y890D01*
X3842Y889D01*
X3841Y889D01*
X3840Y888D01*
X3839Y888D01*
X3838Y887D01*
X3837Y887D01*
X3836Y886D01*
X3834Y886D01*
X3833Y886D01*
X3831Y885D01*
X3830Y885D01*
X3828Y885D01*
X3826Y885D01*
X3825Y885D01*
X3824Y885D01*
X3824Y885D01*
X3822Y885D01*
X3821Y885D01*
X3820Y885D01*
X3818Y886D01*
X3815Y886D01*
X3813Y887D01*
X3812Y888D01*
X3811Y888D01*
X3809Y889D01*
X3809Y889D01*
X3809Y889D01*
X3809Y889D01*
X3808Y890D01*
X3808Y890D01*
X3807Y891D01*
X3807Y891D01*
X3806Y892D01*
X3805Y893D01*
X3804Y894D01*
X3803Y895D01*
X3803Y896D01*
X3802Y897D01*
X3801Y898D01*
X3800Y900D01*
X3800Y901D01*
X3800Y901D01*
X3800Y901D01*
X3799Y902D01*
X3799Y902D01*
X3799Y903D01*
X3799Y904D01*
X3798Y905D01*
X3798Y906D01*
X3798Y907D01*
X3797Y909D01*
X3797Y910D01*
X3797Y911D01*
X3797Y915D01*
X3796Y918D01*
X3796Y918D01*
X3796Y918D01*
X3796Y919D01*
X3796Y919D01*
X3796Y920D01*
X3797Y921D01*
X3797Y922D01*
X3797Y924D01*
X3797Y925D01*
X3797Y926D01*
X3798Y929D01*
X3799Y932D01*
X3799Y934D01*
X3800Y935D01*
X3800Y935D01*
X3800Y935D01*
X3801Y936D01*
X3801Y936D01*
X3801Y937D01*
X3802Y937D01*
X3802Y938D01*
X3803Y939D01*
X3804Y941D01*
X3806Y943D01*
X3808Y945D01*
X3810Y945D01*
X3811Y946D01*
X3811Y946D01*
X3811Y946D01*
X3812Y946D01*
X3812Y947D01*
X3813Y947D01*
X3813Y947D01*
X3814Y948D01*
X3815Y948D01*
X3816Y948D01*
X3818Y949D01*
X3820Y949D01*
X3823Y950D01*
X3825Y950D01*
X3827Y950D01*
X3828Y950D01*
X3828Y950D02*
G37*
G36*
X4011Y926D02*
X4011Y926D01*
X4011Y926D01*
X4012Y927D01*
X4012Y927D01*
X4013Y928D01*
X4013Y928D01*
X4014Y929D01*
X4015Y929D01*
X4016Y930D01*
X4017Y931D01*
X4018Y931D01*
X4019Y932D01*
X4020Y932D01*
X4022Y932D01*
X4023Y932D01*
X4025Y932D01*
X4026Y932D01*
X4027Y932D01*
X4028Y932D01*
X4029Y932D01*
X4030Y932D01*
X4032Y931D01*
X4033Y930D01*
X4033Y930D01*
X4034Y930D01*
X4034Y930D01*
X4035Y930D01*
X4036Y929D01*
X4036Y928D01*
X4037Y927D01*
X4038Y926D01*
X4039Y925D01*
X4039Y925D01*
X4039Y924D01*
X4039Y923D01*
X4040Y922D01*
X4040Y921D01*
X4040Y919D01*
X4040Y917D01*
X4040Y915D01*
X4040Y886D01*
X4033Y886D01*
X4033Y915D01*
X4033Y915D01*
X4033Y915D01*
X4033Y915D01*
X4033Y916D01*
X4033Y916D01*
X4033Y917D01*
X4032Y918D01*
X4032Y919D01*
X4032Y921D01*
X4031Y922D01*
X4030Y923D01*
X4030Y923D01*
X4030Y924D01*
X4029Y924D01*
X4028Y925D01*
X4027Y925D01*
X4026Y925D01*
X4025Y926D01*
X4023Y926D01*
X4022Y926D01*
X4022Y926D01*
X4021Y926D01*
X4020Y925D01*
X4019Y925D01*
X4018Y925D01*
X4017Y924D01*
X4016Y924D01*
X4016Y924D01*
X4016Y923D01*
X4015Y923D01*
X4014Y922D01*
X4014Y921D01*
X4013Y920D01*
X4012Y919D01*
X4012Y919D01*
X4012Y919D01*
X4012Y918D01*
X4012Y917D01*
X4011Y916D01*
X4011Y914D01*
X4011Y913D01*
X4011Y911D01*
X4011Y886D01*
X4003Y886D01*
X4003Y949D01*
X4011Y949D01*
X4011Y926D01*
X4011Y926D02*
G37*
G36*
X3888Y949D02*
X3888Y949D01*
X3890Y949D01*
X3892Y948D01*
X3894Y948D01*
X3896Y948D01*
X3897Y947D01*
X3897Y947D01*
X3898Y947D01*
X3898Y947D01*
X3898Y947D01*
X3899Y946D01*
X3900Y945D01*
X3901Y945D01*
X3902Y944D01*
X3903Y942D01*
X3904Y941D01*
X3904Y941D01*
X3904Y941D01*
X3905Y940D01*
X3905Y940D01*
X3905Y938D01*
X3906Y937D01*
X3906Y936D01*
X3907Y934D01*
X3907Y933D01*
X3907Y933D01*
X3907Y933D01*
X3907Y932D01*
X3907Y932D01*
X3907Y931D01*
X3906Y930D01*
X3906Y929D01*
X3906Y928D01*
X3905Y926D01*
X3904Y925D01*
X3904Y925D01*
X3904Y924D01*
X3904Y924D01*
X3903Y923D01*
X3902Y922D01*
X3901Y921D01*
X3899Y920D01*
X3898Y919D01*
X3898Y919D01*
X3898Y919D01*
X3898Y919D01*
X3899Y919D01*
X3899Y919D01*
X3900Y919D01*
X3901Y918D01*
X3903Y917D01*
X3904Y916D01*
X3905Y915D01*
X3907Y914D01*
X3907Y913D01*
X3907Y913D01*
X3907Y913D01*
X3907Y913D01*
X3908Y912D01*
X3908Y911D01*
X3909Y909D01*
X3909Y908D01*
X3910Y906D01*
X3910Y904D01*
X3910Y904D01*
X3910Y904D01*
X3910Y904D01*
X3910Y903D01*
X3910Y902D01*
X3909Y901D01*
X3909Y900D01*
X3909Y899D01*
X3909Y897D01*
X3908Y896D01*
X3908Y896D01*
X3908Y895D01*
X3907Y895D01*
X3907Y894D01*
X3906Y893D01*
X3905Y892D01*
X3904Y891D01*
X3903Y890D01*
X3903Y890D01*
X3903Y890D01*
X3902Y889D01*
X3901Y889D01*
X3900Y888D01*
X3899Y888D01*
X3898Y887D01*
X3896Y887D01*
X3896Y887D01*
X3896Y887D01*
X3896Y887D01*
X3895Y887D01*
X3895Y886D01*
X3893Y886D01*
X3892Y886D01*
X3890Y886D01*
X3888Y886D01*
X3886Y886D01*
X3862Y886D01*
X3862Y949D01*
X3887Y949D01*
X3888Y949D01*
X3888Y949D02*
G37*
G36*
X3767Y949D02*
X3769Y949D01*
X3771Y949D01*
X3772Y948D01*
X3773Y948D01*
X3774Y948D01*
X3774Y948D01*
X3774Y948D01*
X3775Y948D01*
X3776Y948D01*
X3777Y947D01*
X3779Y947D01*
X3780Y946D01*
X3781Y945D01*
X3781Y945D01*
X3782Y945D01*
X3782Y944D01*
X3783Y944D01*
X3784Y943D01*
X3785Y942D01*
X3786Y941D01*
X3786Y939D01*
X3786Y939D01*
X3786Y939D01*
X3786Y939D01*
X3787Y939D01*
X3787Y938D01*
X3787Y937D01*
X3788Y935D01*
X3788Y934D01*
X3788Y932D01*
X3788Y931D01*
X3788Y931D01*
X3788Y930D01*
X3788Y930D01*
X3788Y929D01*
X3788Y929D01*
X3788Y928D01*
X3788Y927D01*
X3788Y926D01*
X3787Y924D01*
X3787Y923D01*
X3786Y921D01*
X3785Y920D01*
X3785Y919D01*
X3784Y918D01*
X3783Y917D01*
X3783Y917D01*
X3783Y917D01*
X3782Y916D01*
X3782Y916D01*
X3781Y916D01*
X3781Y915D01*
X3780Y915D01*
X3779Y914D01*
X3778Y914D01*
X3776Y913D01*
X3775Y913D01*
X3773Y912D01*
X3771Y912D01*
X3769Y912D01*
X3767Y911D01*
X3765Y911D01*
X3749Y911D01*
X3749Y886D01*
X3740Y886D01*
X3740Y949D01*
X3766Y949D01*
X3767Y949D01*
X3767Y949D02*
G37*
G36*
X4159Y932D02*
X4167Y932D01*
X4167Y926D01*
X4159Y926D01*
X4159Y899D01*
X4159Y899D01*
X4159Y898D01*
X4159Y898D01*
X4159Y897D01*
X4159Y896D01*
X4159Y896D01*
X4160Y895D01*
X4160Y894D01*
X4160Y894D01*
X4160Y894D01*
X4160Y893D01*
X4161Y893D01*
X4161Y893D01*
X4161Y893D01*
X4161Y893D01*
X4162Y893D01*
X4162Y893D01*
X4164Y892D01*
X4165Y892D01*
X4165Y893D01*
X4166Y893D01*
X4166Y893D01*
X4167Y893D01*
X4168Y886D01*
X4168Y886D01*
X4168Y886D01*
X4167Y886D01*
X4166Y886D01*
X4165Y885D01*
X4164Y885D01*
X4162Y885D01*
X4162Y885D01*
X4161Y885D01*
X4160Y885D01*
X4159Y886D01*
X4158Y886D01*
X4157Y886D01*
X4156Y887D01*
X4156Y887D01*
X4155Y887D01*
X4155Y887D01*
X4155Y887D01*
X4154Y888D01*
X4153Y889D01*
X4153Y889D01*
X4152Y890D01*
X4152Y890D01*
X4152Y891D01*
X4152Y891D01*
X4152Y892D01*
X4152Y893D01*
X4152Y893D01*
X4152Y894D01*
X4152Y895D01*
X4152Y896D01*
X4152Y897D01*
X4152Y898D01*
X4152Y899D01*
X4152Y926D01*
X4146Y926D01*
X4146Y932D01*
X4152Y932D01*
X4152Y943D01*
X4159Y947D01*
X4159Y932D01*
X4159Y932D02*
G37*
G36*
X4121Y932D02*
X4122Y932D01*
X4123Y932D01*
X4124Y932D01*
X4125Y932D01*
X4126Y931D01*
X4128Y931D01*
X4129Y930D01*
X4130Y930D01*
X4131Y929D01*
X4133Y928D01*
X4134Y927D01*
X4135Y926D01*
X4135Y926D01*
X4135Y926D01*
X4135Y926D01*
X4136Y925D01*
X4136Y924D01*
X4137Y924D01*
X4137Y923D01*
X4138Y922D01*
X4138Y921D01*
X4139Y919D01*
X4139Y918D01*
X4140Y916D01*
X4140Y915D01*
X4140Y913D01*
X4141Y911D01*
X4141Y909D01*
X4141Y909D01*
X4141Y908D01*
X4141Y908D01*
X4141Y907D01*
X4107Y907D01*
X4107Y907D01*
X4107Y906D01*
X4107Y906D01*
X4107Y905D01*
X4107Y905D01*
X4107Y904D01*
X4107Y902D01*
X4108Y901D01*
X4109Y899D01*
X4110Y897D01*
X4110Y896D01*
X4111Y895D01*
X4111Y895D01*
X4111Y895D01*
X4111Y895D01*
X4111Y895D01*
X4112Y894D01*
X4113Y893D01*
X4115Y892D01*
X4116Y892D01*
X4118Y891D01*
X4119Y891D01*
X4120Y891D01*
X4121Y891D01*
X4122Y891D01*
X4123Y891D01*
X4124Y892D01*
X4125Y892D01*
X4126Y893D01*
X4128Y893D01*
X4128Y894D01*
X4128Y894D01*
X4129Y894D01*
X4129Y895D01*
X4130Y896D01*
X4131Y897D01*
X4132Y899D01*
X4132Y901D01*
X4140Y900D01*
X4140Y900D01*
X4140Y899D01*
X4140Y899D01*
X4140Y898D01*
X4140Y898D01*
X4139Y897D01*
X4139Y896D01*
X4138Y894D01*
X4137Y892D01*
X4135Y890D01*
X4133Y889D01*
X4133Y889D01*
X4133Y889D01*
X4133Y888D01*
X4133Y888D01*
X4132Y888D01*
X4131Y887D01*
X4131Y887D01*
X4130Y887D01*
X4129Y886D01*
X4128Y886D01*
X4127Y886D01*
X4126Y885D01*
X4123Y885D01*
X4122Y885D01*
X4120Y885D01*
X4120Y885D01*
X4119Y885D01*
X4119Y885D01*
X4118Y885D01*
X4117Y885D01*
X4116Y885D01*
X4115Y886D01*
X4113Y886D01*
X4112Y886D01*
X4111Y887D01*
X4109Y887D01*
X4108Y888D01*
X4107Y889D01*
X4106Y890D01*
X4104Y891D01*
X4104Y891D01*
X4104Y891D01*
X4104Y892D01*
X4104Y892D01*
X4103Y893D01*
X4103Y894D01*
X4102Y894D01*
X4102Y895D01*
X4101Y897D01*
X4100Y898D01*
X4100Y899D01*
X4100Y901D01*
X4099Y903D01*
X4099Y904D01*
X4099Y906D01*
X4099Y908D01*
X4099Y908D01*
X4099Y909D01*
X4099Y909D01*
X4099Y910D01*
X4099Y911D01*
X4099Y912D01*
X4099Y913D01*
X4099Y915D01*
X4100Y916D01*
X4100Y918D01*
X4101Y919D01*
X4101Y921D01*
X4102Y922D01*
X4103Y924D01*
X4103Y925D01*
X4105Y926D01*
X4105Y926D01*
X4105Y926D01*
X4105Y927D01*
X4106Y927D01*
X4106Y928D01*
X4107Y928D01*
X4108Y929D01*
X4109Y929D01*
X4110Y930D01*
X4111Y930D01*
X4112Y931D01*
X4114Y932D01*
X4115Y932D01*
X4117Y932D01*
X4118Y932D01*
X4120Y932D01*
X4121Y932D01*
X4121Y932D01*
X4121Y932D02*
G37*
G36*
X4073Y932D02*
X4073Y932D01*
X4074Y932D01*
X4075Y932D01*
X4076Y932D01*
X4077Y931D01*
X4079Y931D01*
X4080Y930D01*
X4081Y930D01*
X4082Y929D01*
X4084Y928D01*
X4085Y927D01*
X4086Y926D01*
X4086Y926D01*
X4086Y926D01*
X4087Y926D01*
X4087Y925D01*
X4087Y924D01*
X4088Y924D01*
X4088Y923D01*
X4089Y922D01*
X4089Y921D01*
X4090Y919D01*
X4090Y918D01*
X4091Y916D01*
X4091Y915D01*
X4092Y913D01*
X4092Y911D01*
X4092Y909D01*
X4092Y909D01*
X4092Y908D01*
X4092Y908D01*
X4092Y907D01*
X4058Y907D01*
X4058Y907D01*
X4058Y906D01*
X4058Y906D01*
X4058Y905D01*
X4058Y905D01*
X4058Y904D01*
X4058Y902D01*
X4059Y901D01*
X4060Y899D01*
X4061Y897D01*
X4061Y896D01*
X4062Y895D01*
X4062Y895D01*
X4062Y895D01*
X4062Y895D01*
X4062Y895D01*
X4063Y894D01*
X4064Y893D01*
X4066Y892D01*
X4068Y892D01*
X4069Y891D01*
X4070Y891D01*
X4071Y891D01*
X4072Y891D01*
X4073Y891D01*
X4074Y891D01*
X4075Y892D01*
X4076Y892D01*
X4078Y893D01*
X4079Y893D01*
X4079Y894D01*
X4079Y894D01*
X4080Y894D01*
X4080Y895D01*
X4081Y896D01*
X4082Y897D01*
X4083Y899D01*
X4083Y901D01*
X4091Y900D01*
X4091Y900D01*
X4091Y899D01*
X4091Y899D01*
X4091Y898D01*
X4091Y898D01*
X4091Y897D01*
X4090Y896D01*
X4089Y894D01*
X4088Y892D01*
X4086Y890D01*
X4084Y889D01*
X4084Y889D01*
X4084Y889D01*
X4084Y888D01*
X4084Y888D01*
X4083Y888D01*
X4082Y887D01*
X4082Y887D01*
X4081Y887D01*
X4080Y886D01*
X4079Y886D01*
X4078Y886D01*
X4077Y885D01*
X4074Y885D01*
X4073Y885D01*
X4071Y885D01*
X4071Y885D01*
X4070Y885D01*
X4070Y885D01*
X4069Y885D01*
X4068Y885D01*
X4067Y885D01*
X4066Y886D01*
X4064Y886D01*
X4063Y886D01*
X4062Y887D01*
X4061Y887D01*
X4059Y888D01*
X4058Y889D01*
X4057Y890D01*
X4056Y891D01*
X4055Y891D01*
X4055Y891D01*
X4055Y892D01*
X4055Y892D01*
X4054Y893D01*
X4054Y894D01*
X4053Y894D01*
X4053Y895D01*
X4052Y897D01*
X4052Y898D01*
X4051Y899D01*
X4051Y901D01*
X4050Y903D01*
X4050Y904D01*
X4050Y906D01*
X4050Y908D01*
X4050Y908D01*
X4050Y909D01*
X4050Y909D01*
X4050Y910D01*
X4050Y911D01*
X4050Y912D01*
X4050Y913D01*
X4050Y915D01*
X4051Y916D01*
X4051Y918D01*
X4052Y919D01*
X4052Y921D01*
X4053Y922D01*
X4054Y924D01*
X4055Y925D01*
X4056Y926D01*
X4056Y926D01*
X4056Y926D01*
X4056Y927D01*
X4057Y927D01*
X4057Y928D01*
X4058Y928D01*
X4059Y929D01*
X4060Y929D01*
X4061Y930D01*
X4062Y930D01*
X4063Y931D01*
X4065Y932D01*
X4066Y932D01*
X4068Y932D01*
X4069Y932D01*
X4071Y932D01*
X4072Y932D01*
X4073Y932D01*
X4073Y932D02*
G37*
G36*
X1063Y752D02*
X1063Y752D01*
X1071Y752D01*
X1087Y749D01*
X1102Y743D01*
X1116Y734D01*
X1127Y722D01*
X1136Y708D01*
X1142Y693D01*
X1146Y677D01*
X1146Y669D01*
X1146Y669D01*
X1146Y661D01*
X1142Y645D01*
X1136Y630D01*
X1127Y617D01*
X1116Y605D01*
X1102Y596D01*
X1087Y590D01*
X1071Y587D01*
X1063Y587D01*
X1055Y587D01*
X1039Y590D01*
X1024Y596D01*
X1010Y605D01*
X999Y617D01*
X990Y630D01*
X983Y645D01*
X980Y661D01*
X980Y669D01*
X980Y677D01*
X983Y693D01*
X990Y708D01*
X999Y722D01*
X1010Y734D01*
X1024Y743D01*
X1039Y749D01*
X1055Y752D01*
X1063Y752D01*
X1063Y752D02*
G37*
G36*
X118Y752D02*
X118Y752D01*
X126Y752D01*
X142Y749D01*
X157Y743D01*
X171Y734D01*
X182Y722D01*
X191Y708D01*
X198Y693D01*
X201Y677D01*
X201Y669D01*
X201Y669D01*
X201Y661D01*
X198Y645D01*
X191Y630D01*
X182Y617D01*
X171Y605D01*
X157Y596D01*
X142Y590D01*
X126Y587D01*
X118Y587D01*
X110Y587D01*
X94Y590D01*
X79Y596D01*
X65Y605D01*
X54Y617D01*
X45Y630D01*
X39Y645D01*
X35Y661D01*
X35Y669D01*
X35Y677D01*
X39Y693D01*
X45Y708D01*
X54Y722D01*
X65Y734D01*
X79Y743D01*
X94Y749D01*
X110Y752D01*
X118Y752D01*
X118Y752D02*
G37*
G36*
X4107Y440D02*
X4108Y440D01*
X4110Y440D01*
X4111Y439D01*
X4112Y439D01*
X4113Y439D01*
X4113Y438D01*
X4113Y438D01*
X4113Y438D01*
X4115Y437D01*
X4116Y437D01*
X4117Y436D01*
X4118Y435D01*
X4118Y434D01*
X4119Y433D01*
X4119Y433D01*
X4119Y433D01*
X4119Y439D01*
X4126Y439D01*
X4126Y394D01*
X4118Y394D01*
X4118Y417D01*
X4118Y420D01*
X4118Y421D01*
X4118Y423D01*
X4118Y424D01*
X4117Y425D01*
X4117Y426D01*
X4117Y427D01*
X4117Y427D01*
X4116Y428D01*
X4116Y429D01*
X4115Y430D01*
X4114Y431D01*
X4114Y431D01*
X4113Y432D01*
X4113Y432D01*
X4113Y432D01*
X4112Y432D01*
X4111Y433D01*
X4110Y433D01*
X4109Y433D01*
X4108Y434D01*
X4107Y434D01*
X4107Y434D01*
X4105Y434D01*
X4104Y433D01*
X4103Y433D01*
X4102Y432D01*
X4102Y432D01*
X4101Y431D01*
X4101Y431D01*
X4101Y431D01*
X4100Y430D01*
X4100Y429D01*
X4099Y427D01*
X4099Y426D01*
X4099Y425D01*
X4099Y424D01*
X4099Y424D01*
X4099Y424D01*
X4099Y423D01*
X4099Y423D01*
X4099Y394D01*
X4091Y394D01*
X4091Y420D01*
X4091Y421D01*
X4091Y423D01*
X4091Y424D01*
X4091Y425D01*
X4090Y426D01*
X4090Y427D01*
X4090Y427D01*
X4089Y428D01*
X4089Y429D01*
X4088Y430D01*
X4088Y430D01*
X4088Y430D01*
X4087Y431D01*
X4085Y432D01*
X4084Y433D01*
X4083Y433D01*
X4082Y433D01*
X4081Y434D01*
X4080Y434D01*
X4080Y434D01*
X4079Y434D01*
X4078Y433D01*
X4077Y433D01*
X4077Y433D01*
X4076Y433D01*
X4076Y433D01*
X4075Y432D01*
X4075Y432D01*
X4074Y432D01*
X4074Y431D01*
X4073Y431D01*
X4073Y430D01*
X4073Y430D01*
X4073Y429D01*
X4072Y429D01*
X4072Y429D01*
X4072Y428D01*
X4072Y427D01*
X4072Y426D01*
X4072Y425D01*
X4072Y424D01*
X4072Y423D01*
X4072Y423D01*
X4072Y423D01*
X4072Y422D01*
X4072Y422D01*
X4072Y394D01*
X4064Y394D01*
X4064Y425D01*
X4064Y426D01*
X4064Y428D01*
X4064Y429D01*
X4065Y430D01*
X4065Y431D01*
X4065Y432D01*
X4065Y433D01*
X4066Y434D01*
X4066Y434D01*
X4067Y435D01*
X4067Y435D01*
X4067Y436D01*
X4067Y436D01*
X4067Y436D01*
X4068Y437D01*
X4068Y437D01*
X4068Y437D01*
X4069Y438D01*
X4071Y439D01*
X4073Y439D01*
X4074Y440D01*
X4076Y440D01*
X4076Y440D01*
X4077Y440D01*
X4077Y440D01*
X4078Y440D01*
X4080Y440D01*
X4081Y440D01*
X4083Y440D01*
X4084Y439D01*
X4085Y438D01*
X4086Y438D01*
X4087Y437D01*
X4088Y436D01*
X4089Y436D01*
X4090Y435D01*
X4091Y434D01*
X4091Y434D01*
X4092Y433D01*
X4092Y433D01*
X4092Y432D01*
X4092Y432D01*
X4093Y434D01*
X4094Y435D01*
X4094Y436D01*
X4095Y437D01*
X4096Y437D01*
X4096Y438D01*
X4097Y438D01*
X4097Y438D01*
X4098Y439D01*
X4100Y439D01*
X4101Y440D01*
X4102Y440D01*
X4103Y440D01*
X4104Y440D01*
X4105Y440D01*
X4107Y440D01*
X4107Y440D02*
G37*
G36*
X4222Y451D02*
X4222Y439D01*
X4228Y439D01*
X4228Y433D01*
X4222Y433D01*
X4222Y407D01*
X4222Y406D01*
X4222Y405D01*
X4222Y404D01*
X4222Y403D01*
X4222Y402D01*
X4222Y401D01*
X4222Y400D01*
X4222Y400D01*
X4222Y399D01*
X4222Y398D01*
X4221Y398D01*
X4221Y398D01*
X4221Y397D01*
X4221Y396D01*
X4220Y396D01*
X4219Y395D01*
X4219Y395D01*
X4219Y395D01*
X4218Y395D01*
X4218Y394D01*
X4217Y394D01*
X4216Y394D01*
X4215Y393D01*
X4214Y393D01*
X4213Y393D01*
X4212Y393D01*
X4212Y393D01*
X4210Y393D01*
X4209Y393D01*
X4208Y393D01*
X4207Y394D01*
X4206Y394D01*
X4206Y394D01*
X4206Y394D01*
X4207Y401D01*
X4208Y401D01*
X4208Y400D01*
X4209Y400D01*
X4209Y400D01*
X4210Y400D01*
X4211Y400D01*
X4212Y401D01*
X4213Y401D01*
X4213Y401D01*
X4213Y401D01*
X4213Y401D01*
X4214Y401D01*
X4214Y402D01*
X4214Y402D01*
X4214Y402D01*
X4214Y403D01*
X4215Y403D01*
X4215Y404D01*
X4215Y405D01*
X4215Y406D01*
X4215Y406D01*
X4215Y406D01*
X4215Y407D01*
X4215Y433D01*
X4207Y433D01*
X4207Y439D01*
X4215Y439D01*
X4215Y455D01*
X4222Y451D01*
X4222Y451D02*
G37*
G36*
X4198Y451D02*
X4198Y439D01*
X4204Y439D01*
X4204Y433D01*
X4198Y433D01*
X4198Y407D01*
X4198Y406D01*
X4198Y405D01*
X4198Y404D01*
X4198Y403D01*
X4198Y402D01*
X4198Y401D01*
X4198Y400D01*
X4197Y400D01*
X4197Y399D01*
X4197Y398D01*
X4197Y398D01*
X4197Y398D01*
X4197Y397D01*
X4196Y396D01*
X4196Y396D01*
X4195Y395D01*
X4195Y395D01*
X4194Y395D01*
X4194Y395D01*
X4194Y394D01*
X4193Y394D01*
X4192Y394D01*
X4191Y393D01*
X4190Y393D01*
X4189Y393D01*
X4188Y393D01*
X4187Y393D01*
X4185Y393D01*
X4184Y393D01*
X4183Y393D01*
X4183Y394D01*
X4182Y394D01*
X4182Y394D01*
X4181Y394D01*
X4182Y401D01*
X4183Y401D01*
X4184Y400D01*
X4185Y400D01*
X4185Y400D01*
X4186Y400D01*
X4187Y400D01*
X4188Y401D01*
X4188Y401D01*
X4188Y401D01*
X4189Y401D01*
X4189Y401D01*
X4189Y401D01*
X4190Y402D01*
X4190Y402D01*
X4190Y402D01*
X4190Y403D01*
X4190Y403D01*
X4190Y404D01*
X4190Y405D01*
X4190Y406D01*
X4190Y406D01*
X4190Y406D01*
X4190Y407D01*
X4190Y433D01*
X4182Y433D01*
X4182Y439D01*
X4190Y439D01*
X4190Y455D01*
X4198Y451D01*
X4198Y451D02*
G37*
G36*
X3835Y440D02*
X3837Y440D01*
X3838Y440D01*
X3840Y439D01*
X3841Y439D01*
X3842Y438D01*
X3843Y438D01*
X3844Y437D01*
X3845Y437D01*
X3846Y436D01*
X3847Y435D01*
X3847Y435D01*
X3848Y435D01*
X3848Y434D01*
X3848Y434D01*
X3849Y434D01*
X3850Y433D01*
X3851Y431D01*
X3851Y430D01*
X3852Y428D01*
X3853Y427D01*
X3853Y426D01*
X3853Y424D01*
X3854Y423D01*
X3854Y421D01*
X3854Y420D01*
X3854Y419D01*
X3854Y418D01*
X3854Y417D01*
X3854Y417D01*
X3854Y416D01*
X3854Y416D01*
X3854Y414D01*
X3854Y412D01*
X3854Y410D01*
X3854Y409D01*
X3853Y407D01*
X3853Y406D01*
X3852Y405D01*
X3852Y403D01*
X3851Y402D01*
X3850Y401D01*
X3850Y401D01*
X3850Y400D01*
X3849Y400D01*
X3849Y399D01*
X3849Y399D01*
X3849Y399D01*
X3847Y398D01*
X3846Y397D01*
X3845Y396D01*
X3844Y395D01*
X3842Y395D01*
X3841Y394D01*
X3840Y394D01*
X3838Y393D01*
X3837Y393D01*
X3836Y393D01*
X3835Y393D01*
X3834Y393D01*
X3834Y393D01*
X3833Y393D01*
X3833Y393D01*
X3831Y393D01*
X3830Y393D01*
X3827Y393D01*
X3826Y394D01*
X3825Y394D01*
X3824Y394D01*
X3823Y395D01*
X3822Y395D01*
X3822Y395D01*
X3821Y396D01*
X3821Y396D01*
X3820Y396D01*
X3820Y396D01*
X3820Y397D01*
X3820Y397D01*
X3818Y398D01*
X3816Y400D01*
X3815Y402D01*
X3814Y403D01*
X3814Y405D01*
X3813Y406D01*
X3813Y406D01*
X3813Y407D01*
X3813Y407D01*
X3813Y407D01*
X3813Y407D01*
X3821Y409D01*
X3821Y407D01*
X3822Y405D01*
X3823Y404D01*
X3824Y403D01*
X3824Y402D01*
X3825Y402D01*
X3825Y401D01*
X3826Y401D01*
X3827Y401D01*
X3828Y400D01*
X3829Y400D01*
X3830Y399D01*
X3831Y399D01*
X3832Y399D01*
X3833Y399D01*
X3834Y399D01*
X3835Y399D01*
X3837Y400D01*
X3838Y400D01*
X3840Y401D01*
X3841Y402D01*
X3842Y402D01*
X3842Y403D01*
X3842Y403D01*
X3842Y403D01*
X3842Y403D01*
X3843Y404D01*
X3844Y405D01*
X3845Y406D01*
X3845Y408D01*
X3846Y410D01*
X3846Y412D01*
X3846Y413D01*
X3846Y413D01*
X3846Y414D01*
X3846Y414D01*
X3846Y414D01*
X3846Y415D01*
X3812Y415D01*
X3812Y415D01*
X3812Y416D01*
X3812Y416D01*
X3812Y417D01*
X3812Y419D01*
X3813Y421D01*
X3813Y422D01*
X3813Y424D01*
X3814Y426D01*
X3814Y427D01*
X3815Y428D01*
X3815Y430D01*
X3816Y431D01*
X3816Y432D01*
X3817Y432D01*
X3817Y433D01*
X3818Y433D01*
X3818Y434D01*
X3818Y434D01*
X3818Y434D01*
X3819Y435D01*
X3821Y436D01*
X3822Y437D01*
X3823Y438D01*
X3824Y438D01*
X3826Y439D01*
X3827Y439D01*
X3828Y440D01*
X3829Y440D01*
X3830Y440D01*
X3831Y440D01*
X3832Y440D01*
X3832Y440D01*
X3833Y440D01*
X3835Y440D01*
X3835Y440D02*
G37*
G36*
X4331Y394D02*
X4307Y394D01*
X4305Y394D01*
X4303Y394D01*
X4301Y394D01*
X4299Y394D01*
X4298Y394D01*
X4298Y394D01*
X4297Y395D01*
X4297Y395D01*
X4297Y395D01*
X4297Y395D01*
X4295Y395D01*
X4294Y396D01*
X4293Y396D01*
X4292Y397D01*
X4291Y397D01*
X4290Y397D01*
X4290Y398D01*
X4290Y398D01*
X4289Y399D01*
X4288Y400D01*
X4287Y401D01*
X4286Y402D01*
X4286Y402D01*
X4285Y403D01*
X4285Y404D01*
X4285Y404D01*
X4284Y405D01*
X4284Y407D01*
X4284Y408D01*
X4283Y409D01*
X4283Y410D01*
X4283Y411D01*
X4283Y411D01*
X4283Y412D01*
X4283Y412D01*
X4283Y412D01*
X4283Y414D01*
X4284Y416D01*
X4284Y417D01*
X4285Y419D01*
X4285Y420D01*
X4286Y421D01*
X4286Y421D01*
X4286Y421D01*
X4286Y421D01*
X4286Y421D01*
X4287Y423D01*
X4289Y424D01*
X4290Y425D01*
X4292Y426D01*
X4293Y427D01*
X4294Y427D01*
X4294Y427D01*
X4294Y427D01*
X4295Y427D01*
X4295Y427D01*
X4295Y427D01*
X4293Y428D01*
X4292Y429D01*
X4291Y430D01*
X4290Y431D01*
X4289Y432D01*
X4289Y432D01*
X4288Y433D01*
X4288Y433D01*
X4288Y434D01*
X4287Y436D01*
X4287Y437D01*
X4286Y438D01*
X4286Y439D01*
X4286Y440D01*
X4286Y440D01*
X4286Y440D01*
X4286Y441D01*
X4286Y441D01*
X4286Y442D01*
X4287Y444D01*
X4287Y445D01*
X4287Y446D01*
X4288Y447D01*
X4288Y448D01*
X4289Y449D01*
X4289Y449D01*
X4289Y449D01*
X4290Y450D01*
X4291Y452D01*
X4292Y452D01*
X4293Y453D01*
X4294Y454D01*
X4295Y454D01*
X4295Y455D01*
X4295Y455D01*
X4295Y455D01*
X4296Y455D01*
X4297Y455D01*
X4299Y456D01*
X4301Y456D01*
X4303Y457D01*
X4305Y457D01*
X4305Y457D01*
X4306Y457D01*
X4331Y457D01*
X4331Y394D01*
X4331Y394D02*
G37*
G36*
X3921Y394D02*
X3913Y394D01*
X3913Y457D01*
X3921Y457D01*
X3921Y394D01*
X3921Y394D02*
G37*
G36*
X3787Y440D02*
X3788Y440D01*
X3789Y440D01*
X3790Y440D01*
X3790Y439D01*
X3791Y439D01*
X3791Y439D01*
X3791Y439D01*
X3792Y438D01*
X3793Y437D01*
X3794Y436D01*
X3794Y435D01*
X3795Y434D01*
X3796Y433D01*
X3796Y433D01*
X3796Y433D01*
X3796Y432D01*
X3796Y439D01*
X3803Y439D01*
X3803Y394D01*
X3795Y394D01*
X3795Y417D01*
X3795Y419D01*
X3795Y421D01*
X3795Y422D01*
X3795Y424D01*
X3794Y425D01*
X3794Y426D01*
X3794Y426D01*
X3794Y426D01*
X3794Y426D01*
X3794Y427D01*
X3794Y427D01*
X3793Y428D01*
X3793Y429D01*
X3792Y430D01*
X3792Y430D01*
X3791Y431D01*
X3791Y431D01*
X3791Y431D01*
X3790Y431D01*
X3790Y432D01*
X3789Y432D01*
X3788Y432D01*
X3787Y432D01*
X3787Y432D01*
X3787Y432D01*
X3785Y432D01*
X3784Y432D01*
X3783Y432D01*
X3783Y432D01*
X3782Y431D01*
X3781Y431D01*
X3781Y431D01*
X3781Y431D01*
X3778Y438D01*
X3780Y439D01*
X3781Y439D01*
X3782Y440D01*
X3784Y440D01*
X3785Y440D01*
X3785Y440D01*
X3786Y440D01*
X3787Y440D01*
X3787Y440D02*
G37*
G36*
X4256Y440D02*
X4257Y440D01*
X4259Y440D01*
X4260Y440D01*
X4261Y439D01*
X4262Y439D01*
X4264Y438D01*
X4265Y438D01*
X4265Y437D01*
X4266Y437D01*
X4267Y436D01*
X4267Y436D01*
X4268Y436D01*
X4268Y436D01*
X4268Y435D01*
X4269Y435D01*
X4270Y434D01*
X4271Y433D01*
X4272Y431D01*
X4273Y430D01*
X4273Y428D01*
X4274Y427D01*
X4274Y425D01*
X4275Y424D01*
X4275Y422D01*
X4275Y421D01*
X4275Y420D01*
X4275Y419D01*
X4275Y418D01*
X4276Y417D01*
X4276Y417D01*
X4276Y416D01*
X4275Y414D01*
X4275Y412D01*
X4275Y411D01*
X4275Y409D01*
X4274Y407D01*
X4274Y406D01*
X4273Y405D01*
X4273Y403D01*
X4272Y402D01*
X4272Y401D01*
X4271Y401D01*
X4271Y400D01*
X4270Y399D01*
X4270Y399D01*
X4270Y399D01*
X4270Y399D01*
X4268Y398D01*
X4267Y397D01*
X4266Y396D01*
X4265Y395D01*
X4263Y395D01*
X4262Y394D01*
X4261Y394D01*
X4260Y393D01*
X4259Y393D01*
X4257Y393D01*
X4257Y393D01*
X4256Y393D01*
X4255Y393D01*
X4255Y393D01*
X4254Y393D01*
X4252Y393D01*
X4250Y393D01*
X4248Y394D01*
X4246Y394D01*
X4245Y395D01*
X4245Y395D01*
X4244Y395D01*
X4244Y395D01*
X4243Y395D01*
X4243Y396D01*
X4243Y396D01*
X4241Y397D01*
X4240Y398D01*
X4239Y399D01*
X4237Y400D01*
X4237Y402D01*
X4236Y402D01*
X4236Y403D01*
X4236Y403D01*
X4236Y403D01*
X4236Y403D01*
X4235Y404D01*
X4235Y405D01*
X4234Y408D01*
X4233Y410D01*
X4233Y412D01*
X4233Y413D01*
X4233Y414D01*
X4233Y415D01*
X4233Y416D01*
X4233Y416D01*
X4233Y417D01*
X4233Y417D01*
X4233Y417D01*
X4233Y419D01*
X4233Y421D01*
X4233Y423D01*
X4234Y424D01*
X4234Y426D01*
X4235Y427D01*
X4235Y429D01*
X4236Y430D01*
X4236Y431D01*
X4237Y432D01*
X4237Y432D01*
X4238Y433D01*
X4238Y433D01*
X4239Y434D01*
X4239Y434D01*
X4239Y434D01*
X4240Y435D01*
X4241Y436D01*
X4242Y437D01*
X4244Y438D01*
X4245Y438D01*
X4246Y439D01*
X4248Y439D01*
X4249Y440D01*
X4250Y440D01*
X4251Y440D01*
X4252Y440D01*
X4253Y440D01*
X4253Y440D01*
X4254Y440D01*
X4256Y440D01*
X4256Y440D02*
G37*
G36*
X4158Y440D02*
X4159Y440D01*
X4161Y440D01*
X4162Y440D01*
X4163Y439D01*
X4165Y439D01*
X4166Y438D01*
X4167Y438D01*
X4168Y437D01*
X4168Y437D01*
X4169Y436D01*
X4170Y436D01*
X4170Y436D01*
X4170Y436D01*
X4171Y435D01*
X4171Y435D01*
X4172Y434D01*
X4173Y433D01*
X4174Y431D01*
X4175Y430D01*
X4175Y428D01*
X4176Y427D01*
X4176Y425D01*
X4177Y424D01*
X4177Y422D01*
X4177Y421D01*
X4177Y420D01*
X4178Y419D01*
X4178Y418D01*
X4178Y417D01*
X4178Y417D01*
X4178Y416D01*
X4178Y414D01*
X4177Y412D01*
X4177Y411D01*
X4177Y409D01*
X4176Y407D01*
X4176Y406D01*
X4175Y405D01*
X4175Y403D01*
X4174Y402D01*
X4174Y401D01*
X4173Y401D01*
X4173Y400D01*
X4172Y399D01*
X4172Y399D01*
X4172Y399D01*
X4172Y399D01*
X4171Y398D01*
X4169Y397D01*
X4168Y396D01*
X4167Y395D01*
X4166Y395D01*
X4164Y394D01*
X4163Y394D01*
X4162Y393D01*
X4161Y393D01*
X4160Y393D01*
X4159Y393D01*
X4158Y393D01*
X4157Y393D01*
X4157Y393D01*
X4156Y393D01*
X4154Y393D01*
X4152Y393D01*
X4150Y394D01*
X4149Y394D01*
X4147Y395D01*
X4147Y395D01*
X4146Y395D01*
X4146Y395D01*
X4146Y395D01*
X4145Y396D01*
X4145Y396D01*
X4144Y397D01*
X4142Y398D01*
X4141Y399D01*
X4140Y400D01*
X4139Y402D01*
X4138Y402D01*
X4138Y403D01*
X4138Y403D01*
X4138Y403D01*
X4138Y403D01*
X4137Y404D01*
X4137Y405D01*
X4136Y408D01*
X4136Y410D01*
X4135Y412D01*
X4135Y413D01*
X4135Y414D01*
X4135Y415D01*
X4135Y416D01*
X4135Y416D01*
X4135Y417D01*
X4135Y417D01*
X4135Y417D01*
X4135Y419D01*
X4135Y421D01*
X4136Y423D01*
X4136Y424D01*
X4136Y426D01*
X4137Y427D01*
X4137Y429D01*
X4138Y430D01*
X4139Y431D01*
X4139Y432D01*
X4140Y432D01*
X4140Y433D01*
X4140Y433D01*
X4141Y434D01*
X4141Y434D01*
X4141Y434D01*
X4142Y435D01*
X4143Y436D01*
X4145Y437D01*
X4146Y438D01*
X4147Y438D01*
X4149Y439D01*
X4150Y439D01*
X4151Y440D01*
X4152Y440D01*
X4153Y440D01*
X4154Y440D01*
X4155Y440D01*
X4155Y440D01*
X4156Y440D01*
X4158Y440D01*
X4158Y440D02*
G37*
G36*
X3952Y440D02*
X3954Y440D01*
X3955Y440D01*
X3957Y440D01*
X3958Y439D01*
X3959Y439D01*
X3960Y438D01*
X3961Y438D01*
X3962Y437D01*
X3963Y437D01*
X3964Y436D01*
X3964Y436D01*
X3965Y436D01*
X3965Y436D01*
X3965Y435D01*
X3965Y435D01*
X3966Y434D01*
X3968Y433D01*
X3968Y431D01*
X3969Y430D01*
X3970Y428D01*
X3970Y427D01*
X3971Y425D01*
X3971Y424D01*
X3972Y422D01*
X3972Y421D01*
X3972Y420D01*
X3972Y419D01*
X3972Y418D01*
X3972Y417D01*
X3972Y417D01*
X3972Y416D01*
X3972Y414D01*
X3972Y412D01*
X3972Y411D01*
X3971Y409D01*
X3971Y407D01*
X3970Y406D01*
X3970Y405D01*
X3969Y403D01*
X3969Y402D01*
X3968Y401D01*
X3968Y401D01*
X3967Y400D01*
X3967Y399D01*
X3967Y399D01*
X3966Y399D01*
X3966Y399D01*
X3965Y398D01*
X3964Y397D01*
X3963Y396D01*
X3961Y395D01*
X3960Y395D01*
X3959Y394D01*
X3958Y394D01*
X3956Y393D01*
X3955Y393D01*
X3954Y393D01*
X3953Y393D01*
X3952Y393D01*
X3952Y393D01*
X3951Y393D01*
X3951Y393D01*
X3949Y393D01*
X3947Y393D01*
X3945Y394D01*
X3943Y394D01*
X3942Y395D01*
X3941Y395D01*
X3941Y395D01*
X3940Y395D01*
X3940Y395D01*
X3940Y396D01*
X3940Y396D01*
X3938Y397D01*
X3937Y398D01*
X3935Y399D01*
X3934Y400D01*
X3933Y402D01*
X3933Y402D01*
X3932Y403D01*
X3932Y403D01*
X3932Y403D01*
X3932Y403D01*
X3932Y404D01*
X3931Y405D01*
X3931Y408D01*
X3930Y410D01*
X3930Y412D01*
X3930Y413D01*
X3930Y414D01*
X3930Y415D01*
X3929Y416D01*
X3929Y416D01*
X3929Y417D01*
X3929Y417D01*
X3929Y417D01*
X3930Y419D01*
X3930Y421D01*
X3930Y423D01*
X3930Y424D01*
X3931Y426D01*
X3931Y427D01*
X3932Y429D01*
X3932Y430D01*
X3933Y431D01*
X3934Y432D01*
X3934Y432D01*
X3935Y433D01*
X3935Y433D01*
X3935Y434D01*
X3935Y434D01*
X3935Y434D01*
X3937Y435D01*
X3938Y436D01*
X3939Y437D01*
X3940Y438D01*
X3942Y438D01*
X3943Y439D01*
X3944Y439D01*
X3945Y440D01*
X3947Y440D01*
X3948Y440D01*
X3949Y440D01*
X3949Y440D01*
X3950Y440D01*
X3951Y440D01*
X3952Y440D01*
X3952Y440D02*
G37*
G36*
X3872Y434D02*
X3873Y435D01*
X3873Y436D01*
X3874Y437D01*
X3875Y437D01*
X3876Y438D01*
X3877Y438D01*
X3877Y438D01*
X3877Y439D01*
X3878Y439D01*
X3880Y440D01*
X3881Y440D01*
X3882Y440D01*
X3883Y440D01*
X3884Y440D01*
X3884Y440D01*
X3886Y440D01*
X3888Y440D01*
X3890Y439D01*
X3892Y439D01*
X3893Y438D01*
X3893Y438D01*
X3894Y438D01*
X3894Y438D01*
X3894Y437D01*
X3895Y437D01*
X3895Y437D01*
X3896Y436D01*
X3898Y435D01*
X3899Y433D01*
X3900Y432D01*
X3900Y431D01*
X3901Y430D01*
X3901Y430D01*
X3901Y429D01*
X3901Y429D01*
X3901Y429D01*
X3901Y429D01*
X3902Y427D01*
X3903Y425D01*
X3903Y422D01*
X3903Y421D01*
X3903Y420D01*
X3904Y419D01*
X3904Y418D01*
X3904Y418D01*
X3904Y417D01*
X3904Y417D01*
X3904Y416D01*
X3904Y416D01*
X3904Y414D01*
X3903Y412D01*
X3903Y409D01*
X3902Y408D01*
X3902Y407D01*
X3902Y406D01*
X3902Y406D01*
X3902Y405D01*
X3901Y405D01*
X3901Y404D01*
X3901Y404D01*
X3901Y404D01*
X3900Y402D01*
X3899Y401D01*
X3898Y399D01*
X3897Y398D01*
X3896Y397D01*
X3895Y396D01*
X3895Y396D01*
X3894Y396D01*
X3894Y396D01*
X3894Y396D01*
X3892Y395D01*
X3891Y394D01*
X3889Y393D01*
X3887Y393D01*
X3886Y393D01*
X3885Y393D01*
X3885Y393D01*
X3885Y393D01*
X3884Y393D01*
X3882Y393D01*
X3881Y393D01*
X3880Y393D01*
X3878Y394D01*
X3877Y394D01*
X3876Y395D01*
X3875Y396D01*
X3874Y396D01*
X3874Y397D01*
X3873Y397D01*
X3872Y398D01*
X3872Y398D01*
X3872Y399D01*
X3871Y399D01*
X3871Y399D01*
X3871Y400D01*
X3871Y394D01*
X3864Y394D01*
X3864Y457D01*
X3872Y457D01*
X3872Y434D01*
X3872Y434D02*
G37*
G36*
X4008Y458D02*
X4010Y457D01*
X4012Y457D01*
X4014Y457D01*
X4014Y457D01*
X4015Y456D01*
X4016Y456D01*
X4016Y456D01*
X4016Y456D01*
X4017Y456D01*
X4017Y456D01*
X4017Y456D01*
X4019Y455D01*
X4020Y454D01*
X4022Y453D01*
X4023Y452D01*
X4024Y451D01*
X4024Y450D01*
X4025Y449D01*
X4025Y449D01*
X4025Y449D01*
X4026Y448D01*
X4026Y446D01*
X4027Y445D01*
X4027Y443D01*
X4027Y442D01*
X4027Y441D01*
X4027Y441D01*
X4027Y441D01*
X4027Y440D01*
X4027Y440D01*
X4027Y439D01*
X4027Y437D01*
X4027Y436D01*
X4026Y435D01*
X4026Y434D01*
X4026Y433D01*
X4025Y433D01*
X4025Y433D01*
X4025Y432D01*
X4024Y431D01*
X4023Y430D01*
X4022Y429D01*
X4021Y428D01*
X4020Y428D01*
X4019Y427D01*
X4019Y427D01*
X4019Y427D01*
X4019Y427D01*
X4019Y427D01*
X4018Y426D01*
X4017Y426D01*
X4015Y425D01*
X4013Y425D01*
X4011Y424D01*
X4009Y423D01*
X4009Y423D01*
X4008Y423D01*
X4007Y423D01*
X4007Y423D01*
X4007Y423D01*
X4006Y423D01*
X4005Y422D01*
X4004Y422D01*
X4002Y422D01*
X4001Y421D01*
X4000Y421D01*
X3999Y421D01*
X3998Y421D01*
X3998Y420D01*
X3997Y420D01*
X3996Y420D01*
X3996Y420D01*
X3996Y420D01*
X3995Y420D01*
X3995Y420D01*
X3994Y419D01*
X3993Y418D01*
X3992Y418D01*
X3991Y417D01*
X3990Y417D01*
X3990Y416D01*
X3990Y416D01*
X3990Y416D01*
X3989Y415D01*
X3989Y414D01*
X3988Y413D01*
X3988Y412D01*
X3988Y412D01*
X3988Y411D01*
X3988Y411D01*
X3988Y411D01*
X3988Y410D01*
X3988Y409D01*
X3988Y408D01*
X3989Y407D01*
X3989Y406D01*
X3989Y406D01*
X3990Y405D01*
X3990Y405D01*
X3990Y404D01*
X3991Y404D01*
X3992Y403D01*
X3993Y402D01*
X3994Y402D01*
X3995Y402D01*
X3995Y402D01*
X3995Y401D01*
X3995Y401D01*
X3996Y401D01*
X3998Y401D01*
X3999Y400D01*
X4001Y400D01*
X4002Y400D01*
X4003Y400D01*
X4003Y400D01*
X4005Y400D01*
X4007Y400D01*
X4009Y401D01*
X4010Y401D01*
X4011Y401D01*
X4012Y401D01*
X4012Y402D01*
X4013Y402D01*
X4013Y402D01*
X4013Y402D01*
X4013Y402D01*
X4015Y403D01*
X4016Y403D01*
X4017Y404D01*
X4018Y405D01*
X4019Y406D01*
X4019Y406D01*
X4019Y407D01*
X4019Y407D01*
X4020Y408D01*
X4021Y409D01*
X4021Y411D01*
X4021Y412D01*
X4022Y413D01*
X4022Y414D01*
X4022Y414D01*
X4022Y414D01*
X4022Y415D01*
X4022Y415D01*
X4030Y414D01*
X4030Y412D01*
X4029Y410D01*
X4029Y408D01*
X4028Y406D01*
X4028Y405D01*
X4027Y405D01*
X4027Y404D01*
X4027Y404D01*
X4027Y403D01*
X4027Y403D01*
X4026Y403D01*
X4026Y403D01*
X4025Y401D01*
X4024Y399D01*
X4022Y398D01*
X4021Y397D01*
X4019Y396D01*
X4019Y396D01*
X4018Y396D01*
X4018Y395D01*
X4018Y395D01*
X4017Y395D01*
X4017Y395D01*
X4015Y394D01*
X4013Y394D01*
X4010Y393D01*
X4008Y393D01*
X4007Y393D01*
X4006Y393D01*
X4005Y393D01*
X4004Y393D01*
X4004Y393D01*
X4003Y393D01*
X4001Y393D01*
X3998Y393D01*
X3996Y393D01*
X3995Y394D01*
X3994Y394D01*
X3993Y394D01*
X3992Y395D01*
X3992Y395D01*
X3992Y395D01*
X3991Y395D01*
X3991Y395D01*
X3991Y395D01*
X3989Y396D01*
X3987Y397D01*
X3986Y398D01*
X3985Y399D01*
X3984Y400D01*
X3983Y401D01*
X3983Y402D01*
X3983Y402D01*
X3983Y402D01*
X3983Y402D01*
X3982Y404D01*
X3981Y405D01*
X3980Y407D01*
X3980Y408D01*
X3980Y410D01*
X3980Y410D01*
X3980Y411D01*
X3980Y411D01*
X3980Y411D01*
X3980Y411D01*
X3980Y411D01*
X3980Y413D01*
X3980Y415D01*
X3981Y416D01*
X3981Y418D01*
X3982Y419D01*
X3982Y420D01*
X3982Y420D01*
X3982Y420D01*
X3982Y420D01*
X3982Y420D01*
X3984Y422D01*
X3985Y423D01*
X3986Y424D01*
X3987Y425D01*
X3989Y426D01*
X3990Y426D01*
X3990Y427D01*
X3990Y427D01*
X3990Y427D01*
X3991Y427D01*
X3991Y427D01*
X3992Y427D01*
X3993Y428D01*
X3994Y428D01*
X3997Y429D01*
X3999Y429D01*
X4000Y430D01*
X4001Y430D01*
X4002Y430D01*
X4003Y430D01*
X4004Y431D01*
X4004Y431D01*
X4004Y431D01*
X4005Y431D01*
X4006Y431D01*
X4008Y432D01*
X4009Y432D01*
X4011Y432D01*
X4012Y433D01*
X4013Y433D01*
X4014Y434D01*
X4015Y434D01*
X4015Y434D01*
X4016Y434D01*
X4016Y435D01*
X4016Y435D01*
X4017Y435D01*
X4017Y435D01*
X4017Y435D01*
X4018Y436D01*
X4018Y437D01*
X4019Y438D01*
X4019Y439D01*
X4019Y440D01*
X4019Y440D01*
X4019Y441D01*
X4019Y441D01*
X4019Y442D01*
X4019Y444D01*
X4018Y445D01*
X4018Y446D01*
X4017Y447D01*
X4017Y447D01*
X4016Y447D01*
X4016Y448D01*
X4015Y448D01*
X4015Y448D01*
X4013Y449D01*
X4011Y450D01*
X4009Y450D01*
X4008Y450D01*
X4007Y450D01*
X4006Y450D01*
X4004Y450D01*
X4002Y450D01*
X4001Y450D01*
X4000Y450D01*
X3999Y450D01*
X3998Y449D01*
X3998Y449D01*
X3997Y449D01*
X3996Y449D01*
X3996Y448D01*
X3995Y448D01*
X3995Y448D01*
X3995Y448D01*
X3994Y447D01*
X3994Y447D01*
X3993Y446D01*
X3992Y445D01*
X3991Y443D01*
X3990Y442D01*
X3990Y440D01*
X3990Y440D01*
X3990Y439D01*
X3990Y439D01*
X3990Y439D01*
X3990Y438D01*
X3990Y438D01*
X3982Y439D01*
X3982Y441D01*
X3982Y443D01*
X3983Y444D01*
X3983Y446D01*
X3984Y447D01*
X3984Y448D01*
X3984Y448D01*
X3985Y448D01*
X3985Y449D01*
X3985Y449D01*
X3985Y449D01*
X3986Y450D01*
X3987Y452D01*
X3989Y453D01*
X3990Y454D01*
X3991Y455D01*
X3992Y455D01*
X3993Y455D01*
X3993Y455D01*
X3993Y456D01*
X3993Y456D01*
X3995Y456D01*
X3997Y457D01*
X3999Y457D01*
X4001Y458D01*
X4002Y458D01*
X4003Y458D01*
X4004Y458D01*
X4004Y458D01*
X4005Y458D01*
X4008Y458D01*
X4008Y458D02*
G37*
G36*
X1063Y201D02*
X1063Y201D01*
X1071Y201D01*
X1087Y198D01*
X1102Y191D01*
X1116Y182D01*
X1127Y171D01*
X1136Y157D01*
X1142Y142D01*
X1146Y126D01*
X1146Y118D01*
X1146Y118D01*
X1146Y110D01*
X1142Y94D01*
X1136Y79D01*
X1127Y65D01*
X1116Y54D01*
X1102Y45D01*
X1087Y39D01*
X1071Y35D01*
X1063Y35D01*
X1055Y35D01*
X1039Y39D01*
X1024Y45D01*
X1010Y54D01*
X999Y65D01*
X990Y79D01*
X983Y94D01*
X980Y110D01*
X980Y118D01*
X980Y126D01*
X983Y142D01*
X990Y157D01*
X999Y171D01*
X1010Y182D01*
X1024Y191D01*
X1039Y198D01*
X1055Y201D01*
X1063Y201D01*
X1063Y201D02*
G37*
G36*
X118Y201D02*
X118Y201D01*
X126Y201D01*
X142Y198D01*
X157Y191D01*
X171Y182D01*
X182Y171D01*
X191Y157D01*
X198Y142D01*
X201Y126D01*
X201Y118D01*
X201Y118D01*
X201Y110D01*
X198Y94D01*
X191Y79D01*
X182Y65D01*
X171Y54D01*
X157Y45D01*
X142Y39D01*
X126Y35D01*
X118Y35D01*
X110Y35D01*
X94Y39D01*
X79Y45D01*
X65Y54D01*
X54Y65D01*
X45Y79D01*
X39Y94D01*
X35Y110D01*
X35Y118D01*
X35Y126D01*
X39Y142D01*
X45Y157D01*
X54Y171D01*
X65Y182D01*
X79Y191D01*
X94Y198D01*
X110Y201D01*
X118Y201D01*
X118Y201D02*
G37*
%LPC*%
G36*
X3885Y941D02*
X3871Y941D01*
X3871Y922D01*
X3886Y922D01*
X3887Y922D01*
X3888Y923D01*
X3890Y923D01*
X3891Y923D01*
X3892Y923D01*
X3892Y923D01*
X3893Y923D01*
X3893Y923D01*
X3894Y924D01*
X3895Y924D01*
X3895Y925D01*
X3896Y925D01*
X3897Y926D01*
X3897Y926D01*
X3897Y927D01*
X3897Y927D01*
X3898Y928D01*
X3898Y928D01*
X3898Y929D01*
X3898Y931D01*
X3898Y932D01*
X3898Y932D01*
X3898Y932D01*
X3898Y933D01*
X3898Y934D01*
X3898Y934D01*
X3898Y935D01*
X3897Y936D01*
X3897Y937D01*
X3897Y937D01*
X3897Y938D01*
X3896Y938D01*
X3896Y939D01*
X3895Y939D01*
X3895Y940D01*
X3894Y940D01*
X3893Y941D01*
X3893Y941D01*
X3892Y941D01*
X3891Y941D01*
X3890Y941D01*
X3890Y941D01*
X3889Y941D01*
X3888Y941D01*
X3887Y941D01*
X3887Y941D01*
X3885Y941D01*
X3885Y941D02*
G37*
G36*
X3885Y915D02*
X3871Y915D01*
X3871Y893D01*
X3888Y893D01*
X3890Y893D01*
X3891Y893D01*
X3892Y894D01*
X3892Y894D01*
X3892Y894D01*
X3893Y894D01*
X3893Y894D01*
X3894Y894D01*
X3895Y894D01*
X3896Y895D01*
X3897Y895D01*
X3897Y895D01*
X3897Y896D01*
X3897Y896D01*
X3898Y896D01*
X3898Y897D01*
X3899Y897D01*
X3899Y898D01*
X3900Y899D01*
X3900Y899D01*
X3900Y899D01*
X3900Y900D01*
X3900Y900D01*
X3901Y901D01*
X3901Y902D01*
X3901Y903D01*
X3901Y904D01*
X3901Y904D01*
X3901Y905D01*
X3901Y905D01*
X3901Y906D01*
X3901Y907D01*
X3900Y908D01*
X3900Y909D01*
X3899Y910D01*
X3899Y910D01*
X3899Y911D01*
X3898Y911D01*
X3898Y912D01*
X3897Y912D01*
X3896Y913D01*
X3895Y913D01*
X3894Y914D01*
X3894Y914D01*
X3894Y914D01*
X3893Y914D01*
X3892Y914D01*
X3891Y915D01*
X3889Y915D01*
X3887Y915D01*
X3885Y915D01*
X3885Y915D02*
G37*
G36*
X3767Y941D02*
X3749Y941D01*
X3749Y919D01*
X3765Y919D01*
X3766Y919D01*
X3767Y919D01*
X3767Y919D01*
X3769Y919D01*
X3771Y920D01*
X3773Y920D01*
X3775Y921D01*
X3775Y921D01*
X3776Y922D01*
X3776Y922D01*
X3777Y922D01*
X3777Y923D01*
X3778Y924D01*
X3779Y925D01*
X3779Y927D01*
X3779Y928D01*
X3780Y930D01*
X3780Y930D01*
X3780Y931D01*
X3780Y931D01*
X3780Y932D01*
X3779Y933D01*
X3779Y934D01*
X3779Y935D01*
X3778Y936D01*
X3778Y937D01*
X3777Y937D01*
X3777Y938D01*
X3777Y938D01*
X3776Y939D01*
X3775Y939D01*
X3775Y940D01*
X3773Y940D01*
X3772Y941D01*
X3772Y941D01*
X3772Y941D01*
X3771Y941D01*
X3771Y941D01*
X3770Y941D01*
X3768Y941D01*
X3767Y941D01*
X3767Y941D02*
G37*
G36*
X4120Y926D02*
X4119Y926D01*
X4119Y926D01*
X4119Y926D01*
X4118Y926D01*
X4117Y926D01*
X4115Y925D01*
X4114Y925D01*
X4112Y924D01*
X4112Y923D01*
X4111Y922D01*
X4111Y922D01*
X4110Y922D01*
X4110Y921D01*
X4109Y920D01*
X4108Y919D01*
X4108Y917D01*
X4107Y915D01*
X4107Y913D01*
X4133Y913D01*
X4133Y913D01*
X4133Y913D01*
X4132Y914D01*
X4132Y914D01*
X4132Y914D01*
X4132Y915D01*
X4132Y916D01*
X4132Y918D01*
X4131Y919D01*
X4130Y920D01*
X4130Y922D01*
X4130Y922D01*
X4129Y922D01*
X4129Y922D01*
X4129Y922D01*
X4128Y923D01*
X4127Y924D01*
X4126Y925D01*
X4124Y925D01*
X4122Y926D01*
X4121Y926D01*
X4120Y926D01*
X4120Y926D02*
G37*
G36*
X4071Y926D02*
X4071Y926D01*
X4070Y926D01*
X4070Y926D01*
X4069Y926D01*
X4068Y926D01*
X4067Y925D01*
X4065Y925D01*
X4063Y924D01*
X4063Y923D01*
X4062Y922D01*
X4062Y922D01*
X4061Y922D01*
X4061Y921D01*
X4060Y920D01*
X4059Y919D01*
X4059Y917D01*
X4058Y915D01*
X4058Y913D01*
X4084Y913D01*
X4084Y913D01*
X4084Y913D01*
X4083Y914D01*
X4083Y914D01*
X4083Y914D01*
X4083Y915D01*
X4083Y916D01*
X4083Y918D01*
X4082Y919D01*
X4081Y920D01*
X4081Y922D01*
X4081Y922D01*
X4080Y922D01*
X4080Y922D01*
X4080Y922D01*
X4079Y923D01*
X4078Y924D01*
X4077Y925D01*
X4075Y925D01*
X4073Y926D01*
X4072Y926D01*
X4071Y926D01*
X4071Y926D02*
G37*
G36*
X3834Y434D02*
X3833Y434D01*
X3832Y434D01*
X3831Y434D01*
X3829Y433D01*
X3827Y433D01*
X3826Y432D01*
X3825Y431D01*
X3824Y430D01*
X3824Y430D01*
X3824Y430D01*
X3824Y430D01*
X3824Y429D01*
X3823Y428D01*
X3822Y427D01*
X3822Y426D01*
X3821Y424D01*
X3821Y423D01*
X3821Y422D01*
X3821Y422D01*
X3821Y421D01*
X3821Y421D01*
X3821Y421D01*
X3821Y421D01*
X3846Y421D01*
X3846Y423D01*
X3845Y425D01*
X3845Y427D01*
X3844Y428D01*
X3843Y429D01*
X3843Y430D01*
X3842Y430D01*
X3842Y430D01*
X3841Y431D01*
X3841Y432D01*
X3839Y432D01*
X3838Y433D01*
X3836Y434D01*
X3835Y434D01*
X3834Y434D01*
X3834Y434D01*
X3834Y434D01*
X3834Y434D02*
G37*
G36*
X4322Y449D02*
X4307Y449D01*
X4306Y449D01*
X4305Y449D01*
X4305Y449D01*
X4304Y449D01*
X4303Y449D01*
X4302Y449D01*
X4301Y449D01*
X4301Y449D01*
X4300Y448D01*
X4300Y448D01*
X4299Y448D01*
X4298Y447D01*
X4298Y447D01*
X4297Y446D01*
X4297Y446D01*
X4296Y446D01*
X4296Y445D01*
X4296Y445D01*
X4295Y444D01*
X4295Y443D01*
X4295Y442D01*
X4295Y442D01*
X4294Y441D01*
X4294Y440D01*
X4294Y440D01*
X4294Y440D01*
X4294Y438D01*
X4295Y437D01*
X4295Y436D01*
X4295Y436D01*
X4296Y435D01*
X4296Y434D01*
X4296Y434D01*
X4296Y434D01*
X4297Y433D01*
X4297Y433D01*
X4298Y432D01*
X4299Y432D01*
X4300Y431D01*
X4300Y431D01*
X4301Y431D01*
X4301Y431D01*
X4302Y431D01*
X4303Y431D01*
X4304Y430D01*
X4306Y430D01*
X4307Y430D01*
X4322Y430D01*
X4322Y449D01*
X4322Y449D02*
G37*
G36*
X4322Y423D02*
X4308Y423D01*
X4306Y423D01*
X4304Y423D01*
X4302Y422D01*
X4301Y422D01*
X4300Y422D01*
X4299Y422D01*
X4299Y422D01*
X4299Y422D01*
X4297Y421D01*
X4297Y421D01*
X4296Y420D01*
X4295Y420D01*
X4294Y419D01*
X4294Y418D01*
X4294Y418D01*
X4294Y418D01*
X4293Y417D01*
X4293Y416D01*
X4292Y415D01*
X4292Y414D01*
X4292Y413D01*
X4292Y413D01*
X4292Y412D01*
X4292Y412D01*
X4292Y411D01*
X4292Y410D01*
X4292Y409D01*
X4292Y408D01*
X4293Y408D01*
X4293Y407D01*
X4293Y407D01*
X4293Y407D01*
X4294Y406D01*
X4294Y405D01*
X4295Y405D01*
X4295Y404D01*
X4296Y404D01*
X4296Y403D01*
X4296Y403D01*
X4296Y403D01*
X4297Y403D01*
X4298Y402D01*
X4299Y402D01*
X4299Y402D01*
X4300Y402D01*
X4301Y401D01*
X4301Y401D01*
X4301Y401D01*
X4302Y401D01*
X4303Y401D01*
X4304Y401D01*
X4322Y401D01*
X4322Y423D01*
X4322Y423D02*
G37*
G36*
X4255Y434D02*
X4254Y434D01*
X4253Y434D01*
X4252Y434D01*
X4250Y433D01*
X4249Y433D01*
X4247Y432D01*
X4246Y431D01*
X4245Y430D01*
X4245Y430D01*
X4245Y430D01*
X4245Y430D01*
X4245Y430D01*
X4244Y429D01*
X4243Y428D01*
X4242Y426D01*
X4242Y424D01*
X4241Y421D01*
X4241Y421D01*
X4241Y420D01*
X4241Y419D01*
X4241Y418D01*
X4241Y418D01*
X4241Y417D01*
X4241Y417D01*
X4241Y417D01*
X4241Y415D01*
X4241Y414D01*
X4241Y412D01*
X4241Y411D01*
X4242Y410D01*
X4242Y409D01*
X4242Y408D01*
X4243Y407D01*
X4243Y406D01*
X4243Y405D01*
X4244Y405D01*
X4244Y404D01*
X4244Y404D01*
X4244Y404D01*
X4245Y404D01*
X4245Y403D01*
X4245Y403D01*
X4246Y402D01*
X4247Y401D01*
X4248Y401D01*
X4249Y400D01*
X4251Y400D01*
X4252Y399D01*
X4253Y399D01*
X4253Y399D01*
X4254Y399D01*
X4254Y399D01*
X4255Y399D01*
X4256Y399D01*
X4258Y400D01*
X4260Y401D01*
X4261Y401D01*
X4262Y402D01*
X4263Y403D01*
X4263Y403D01*
X4264Y403D01*
X4264Y403D01*
X4264Y403D01*
X4264Y404D01*
X4265Y405D01*
X4266Y407D01*
X4267Y410D01*
X4267Y412D01*
X4267Y413D01*
X4267Y414D01*
X4267Y414D01*
X4267Y415D01*
X4268Y416D01*
X4268Y416D01*
X4268Y416D01*
X4268Y416D01*
X4267Y418D01*
X4267Y420D01*
X4267Y421D01*
X4267Y422D01*
X4267Y423D01*
X4266Y425D01*
X4266Y426D01*
X4266Y426D01*
X4265Y427D01*
X4265Y428D01*
X4265Y428D01*
X4264Y429D01*
X4264Y429D01*
X4264Y429D01*
X4264Y430D01*
X4264Y430D01*
X4263Y430D01*
X4262Y431D01*
X4262Y432D01*
X4261Y432D01*
X4259Y433D01*
X4258Y433D01*
X4256Y434D01*
X4256Y434D01*
X4255Y434D01*
X4255Y434D01*
X4255Y434D02*
G37*
G36*
X4157Y434D02*
X4156Y434D01*
X4155Y434D01*
X4154Y434D01*
X4152Y433D01*
X4151Y433D01*
X4149Y432D01*
X4148Y431D01*
X4147Y430D01*
X4147Y430D01*
X4147Y430D01*
X4147Y430D01*
X4147Y430D01*
X4146Y429D01*
X4145Y428D01*
X4145Y426D01*
X4144Y424D01*
X4143Y421D01*
X4143Y421D01*
X4143Y420D01*
X4143Y419D01*
X4143Y418D01*
X4143Y418D01*
X4143Y417D01*
X4143Y417D01*
X4143Y417D01*
X4143Y415D01*
X4143Y414D01*
X4143Y412D01*
X4144Y411D01*
X4144Y410D01*
X4144Y409D01*
X4144Y408D01*
X4145Y407D01*
X4145Y406D01*
X4146Y405D01*
X4146Y405D01*
X4146Y404D01*
X4146Y404D01*
X4147Y404D01*
X4147Y404D01*
X4147Y403D01*
X4148Y403D01*
X4148Y402D01*
X4149Y401D01*
X4150Y401D01*
X4152Y400D01*
X4153Y400D01*
X4154Y399D01*
X4155Y399D01*
X4155Y399D01*
X4156Y399D01*
X4156Y399D01*
X4157Y399D01*
X4158Y399D01*
X4160Y400D01*
X4162Y401D01*
X4163Y401D01*
X4164Y402D01*
X4165Y403D01*
X4166Y403D01*
X4166Y403D01*
X4166Y403D01*
X4166Y403D01*
X4167Y404D01*
X4167Y405D01*
X4168Y407D01*
X4169Y410D01*
X4169Y412D01*
X4169Y413D01*
X4170Y414D01*
X4170Y414D01*
X4170Y415D01*
X4170Y416D01*
X4170Y416D01*
X4170Y416D01*
X4170Y416D01*
X4170Y418D01*
X4170Y420D01*
X4169Y421D01*
X4169Y422D01*
X4169Y423D01*
X4169Y425D01*
X4168Y426D01*
X4168Y426D01*
X4168Y427D01*
X4167Y428D01*
X4167Y428D01*
X4167Y429D01*
X4166Y429D01*
X4166Y429D01*
X4166Y430D01*
X4166Y430D01*
X4165Y430D01*
X4164Y431D01*
X4164Y432D01*
X4163Y432D01*
X4161Y433D01*
X4160Y433D01*
X4158Y434D01*
X4158Y434D01*
X4157Y434D01*
X4157Y434D01*
X4157Y434D02*
G37*
G36*
X3951Y434D02*
X3951Y434D01*
X3950Y434D01*
X3949Y434D01*
X3947Y433D01*
X3945Y433D01*
X3944Y432D01*
X3943Y431D01*
X3942Y430D01*
X3942Y430D01*
X3941Y430D01*
X3941Y430D01*
X3941Y430D01*
X3941Y429D01*
X3940Y428D01*
X3939Y426D01*
X3938Y424D01*
X3938Y421D01*
X3938Y421D01*
X3938Y420D01*
X3938Y419D01*
X3938Y418D01*
X3937Y418D01*
X3937Y417D01*
X3937Y417D01*
X3937Y417D01*
X3937Y415D01*
X3938Y414D01*
X3938Y412D01*
X3938Y411D01*
X3938Y410D01*
X3939Y409D01*
X3939Y408D01*
X3939Y407D01*
X3940Y406D01*
X3940Y405D01*
X3940Y405D01*
X3941Y404D01*
X3941Y404D01*
X3941Y404D01*
X3941Y404D01*
X3941Y403D01*
X3942Y403D01*
X3943Y402D01*
X3944Y401D01*
X3944Y401D01*
X3946Y400D01*
X3948Y400D01*
X3949Y399D01*
X3949Y399D01*
X3950Y399D01*
X3950Y399D01*
X3951Y399D01*
X3952Y399D01*
X3953Y399D01*
X3955Y400D01*
X3956Y401D01*
X3958Y401D01*
X3959Y402D01*
X3960Y403D01*
X3960Y403D01*
X3960Y403D01*
X3960Y403D01*
X3960Y403D01*
X3961Y404D01*
X3962Y405D01*
X3963Y407D01*
X3963Y410D01*
X3964Y412D01*
X3964Y413D01*
X3964Y414D01*
X3964Y414D01*
X3964Y415D01*
X3964Y416D01*
X3964Y416D01*
X3964Y416D01*
X3964Y416D01*
X3964Y418D01*
X3964Y420D01*
X3964Y421D01*
X3964Y422D01*
X3963Y423D01*
X3963Y425D01*
X3963Y426D01*
X3962Y426D01*
X3962Y427D01*
X3962Y428D01*
X3961Y428D01*
X3961Y429D01*
X3961Y429D01*
X3961Y429D01*
X3960Y430D01*
X3960Y430D01*
X3960Y430D01*
X3959Y431D01*
X3958Y432D01*
X3957Y432D01*
X3956Y433D01*
X3954Y433D01*
X3953Y434D01*
X3952Y434D01*
X3952Y434D01*
X3951Y434D01*
X3951Y434D02*
G37*
G36*
X3884Y434D02*
X3884Y434D01*
X3883Y434D01*
X3882Y434D01*
X3880Y433D01*
X3878Y433D01*
X3877Y432D01*
X3876Y431D01*
X3875Y430D01*
X3875Y430D01*
X3875Y430D01*
X3875Y430D01*
X3874Y429D01*
X3873Y428D01*
X3873Y426D01*
X3872Y423D01*
X3872Y421D01*
X3871Y420D01*
X3871Y419D01*
X3871Y418D01*
X3871Y417D01*
X3871Y417D01*
X3871Y416D01*
X3871Y416D01*
X3871Y416D01*
X3871Y414D01*
X3871Y413D01*
X3871Y411D01*
X3872Y410D01*
X3872Y409D01*
X3872Y408D01*
X3872Y407D01*
X3873Y406D01*
X3873Y406D01*
X3873Y405D01*
X3874Y404D01*
X3874Y404D01*
X3874Y404D01*
X3874Y403D01*
X3875Y403D01*
X3875Y403D01*
X3875Y402D01*
X3876Y402D01*
X3877Y401D01*
X3877Y401D01*
X3879Y400D01*
X3880Y400D01*
X3881Y399D01*
X3882Y399D01*
X3883Y399D01*
X3883Y399D01*
X3884Y399D01*
X3885Y399D01*
X3887Y400D01*
X3888Y400D01*
X3890Y401D01*
X3891Y402D01*
X3891Y403D01*
X3892Y403D01*
X3892Y403D01*
X3892Y403D01*
X3893Y404D01*
X3893Y405D01*
X3894Y407D01*
X3895Y409D01*
X3895Y412D01*
X3895Y413D01*
X3896Y413D01*
X3896Y414D01*
X3896Y415D01*
X3896Y416D01*
X3896Y416D01*
X3896Y416D01*
X3896Y416D01*
X3896Y418D01*
X3896Y420D01*
X3895Y421D01*
X3895Y422D01*
X3895Y424D01*
X3895Y425D01*
X3894Y426D01*
X3894Y427D01*
X3894Y427D01*
X3893Y428D01*
X3893Y428D01*
X3893Y429D01*
X3893Y429D01*
X3892Y430D01*
X3892Y430D01*
X3892Y430D01*
X3892Y430D01*
X3891Y431D01*
X3890Y432D01*
X3889Y432D01*
X3888Y433D01*
X3887Y433D01*
X3885Y434D01*
X3884Y434D01*
X3884Y434D01*
X3884Y434D02*
G37*
%LPD*%
D28*
X4024Y-8266D02*
X4008Y-8272D01*
X3996Y-8289D01*
X3991Y-8317D01*
X3991Y-8334D01*
X3996Y-8362D01*
X4008Y-8379D01*
X4024Y-8384D01*
X4036Y-8384D01*
X4053Y-8379D01*
X4064Y-8362D01*
X4069Y-8334D01*
X4069Y-8317D01*
X4064Y-8289D01*
X4053Y-8272D01*
X4036Y-8266D01*
X4024Y-8266D01*
X4102Y-8373D02*
X4096Y-8379D01*
X4102Y-8384D01*
X4107Y-8379D01*
X4102Y-8373D01*
X4133Y-8289D02*
X4144Y-8283D01*
X4161Y-8266D01*
X4161Y-8384D01*
X4106Y-8684D02*
X4061Y-8566D01*
X4016Y-8684D01*
X4033Y-8645D02*
X4089Y-8645D01*
X4190Y-8566D02*
X4133Y-8645D01*
X4218Y-8645D01*
X4190Y-8566D02*
X4190Y-8684D01*
X4331Y-8566D02*
X4331Y-8684D01*
X4331Y-8566D02*
X4376Y-8684D01*
X4421Y-8566D02*
X4376Y-8684D01*
X4421Y-8566D02*
X4421Y-8684D01*
X4455Y-8589D02*
X4466Y-8583D01*
X4483Y-8566D01*
X4483Y-8684D01*
X4547Y-8606D02*
X4542Y-8611D01*
X4547Y-8617D01*
X4553Y-8611D01*
X4547Y-8606D01*
X4547Y-8673D02*
X4542Y-8679D01*
X4547Y-8684D01*
X4553Y-8679D01*
X4547Y-8673D01*
X4579Y-8589D02*
X4590Y-8583D01*
X4607Y-8566D01*
X4607Y-8684D01*
X-560Y-8058D02*
X-537Y-8118D01*
X-514Y-8058D02*
X-537Y-8118D01*
X-466Y-8066D02*
X-472Y-8061D01*
X-481Y-8058D01*
X-492Y-8058D01*
X-501Y-8061D01*
X-506Y-8066D01*
X-506Y-8072D01*
X-503Y-8078D01*
X-501Y-8081D01*
X-495Y-8084D01*
X-478Y-8089D01*
X-472Y-8092D01*
X-469Y-8095D01*
X-466Y-8101D01*
X-466Y-8109D01*
X-472Y-8115D01*
X-481Y-8118D01*
X-492Y-8118D01*
X-501Y-8115D01*
X-506Y-8109D01*
X-453Y-8058D02*
X-453Y-8118D01*
X-555Y-7753D02*
X-532Y-7813D01*
X-509Y-7753D02*
X-532Y-7813D01*
X-461Y-7761D02*
X-467Y-7756D01*
X-476Y-7753D01*
X-487Y-7753D01*
X-496Y-7756D01*
X-501Y-7761D01*
X-501Y-7767D01*
X-498Y-7773D01*
X-496Y-7776D01*
X-490Y-7779D01*
X-473Y-7784D01*
X-467Y-7787D01*
X-464Y-7790D01*
X-461Y-7796D01*
X-461Y-7804D01*
X-467Y-7810D01*
X-476Y-7813D01*
X-487Y-7813D01*
X-496Y-7810D01*
X-501Y-7804D01*
X-448Y-7753D02*
X-448Y-7813D01*
D33*
X165Y2512D02*
X165Y2709D01*
X2524Y2512D02*
X2524Y2709D01*
X5083Y-8984D02*
X5083Y2709D01*
X-3184Y2709D02*
X5083Y2709D01*
X-2397Y-8984D02*
X-2397Y2709D01*
X-2200Y-7579D02*
X383Y-7579D01*
X-700Y-7879D02*
X4887Y-7879D01*
X-700Y-8479D02*
X4887Y-8479D01*
X-700Y-8179D02*
X4887Y-8179D01*
X383Y-7579D02*
X1883Y-7579D01*
X1483Y-8179D02*
X1483Y-7579D01*
X1883Y-7579D02*
X4887Y-7579D01*
X-700Y-8787D02*
X-700Y-7579D01*
X3583Y-8787D02*
X3583Y-8179D01*
X1483Y-8787D02*
X1483Y-8179D01*
X-2397Y-6061D02*
X-2200Y-6061D01*
X-2397Y-3138D02*
X-2200Y-3138D01*
X-2200Y-8787D02*
X-2200Y2512D01*
X-2200Y2512D02*
X4887Y2512D01*
X4887Y-6061D02*
X5083Y-6061D01*
X4887Y-3138D02*
X5083Y-3138D01*
X4887Y-215D02*
X5083Y-215D01*
X4887Y-8787D02*
X4887Y2512D01*
X-3184Y-8984D02*
X5083Y-8984D01*
X-2200Y-8787D02*
X4887Y-8787D01*
X2524Y-8984D02*
X2524Y-8787D01*
X165Y-8984D02*
X165Y-8787D01*
X-2397Y-215D02*
X-2200Y-215D01*
X-3184Y-8984D02*
X-3184Y2709D01*
D34*
X1347Y2624D02*
X1347Y2628D01*
X1350Y2634D01*
X1353Y2638D01*
X1360Y2641D01*
X1373Y2641D01*
X1380Y2638D01*
X1383Y2634D01*
X1387Y2628D01*
X1387Y2621D01*
X1383Y2614D01*
X1377Y2604D01*
X1343Y2571D01*
X1390Y2571D01*
X-1019Y2628D02*
X-1012Y2631D01*
X-1002Y2641D01*
X-1002Y2571D01*
X3712Y2641D02*
X3749Y2641D01*
X3729Y2614D01*
X3739Y2614D01*
X3746Y2611D01*
X3749Y2608D01*
X3752Y2598D01*
X3752Y2591D01*
X3749Y2581D01*
X3742Y2574D01*
X3732Y2571D01*
X3722Y2571D01*
X3712Y2574D01*
X3709Y2578D01*
X3706Y2584D01*
X-1956Y-8275D02*
X-1963Y-8268D01*
X-1973Y-8265D01*
X-1986Y-8265D01*
X-1996Y-8268D01*
X-2003Y-8275D01*
X-2003Y-8281D01*
X-2000Y-8288D01*
X-1996Y-8291D01*
X-1990Y-8295D01*
X-1970Y-8301D01*
X-1963Y-8305D01*
X-1960Y-8308D01*
X-1956Y-8315D01*
X-1956Y-8325D01*
X-1963Y-8331D01*
X-1973Y-8335D01*
X-1986Y-8335D01*
X-1996Y-8331D01*
X-2003Y-8325D01*
X-1941Y-8265D02*
X-1941Y-8335D01*
X-1941Y-8301D02*
X-1931Y-8291D01*
X-1924Y-8288D01*
X-1914Y-8288D01*
X-1908Y-8291D01*
X-1904Y-8301D01*
X-1904Y-8335D01*
X-1886Y-8308D02*
X-1846Y-8308D01*
X-1846Y-8301D01*
X-1849Y-8295D01*
X-1853Y-8291D01*
X-1859Y-8288D01*
X-1869Y-8288D01*
X-1876Y-8291D01*
X-1883Y-8298D01*
X-1886Y-8308D01*
X-1886Y-8315D01*
X-1883Y-8325D01*
X-1876Y-8331D01*
X-1869Y-8335D01*
X-1859Y-8335D01*
X-1853Y-8331D01*
X-1846Y-8325D01*
X-1831Y-8288D02*
X-1831Y-8335D01*
X-1831Y-8308D02*
X-1828Y-8298D01*
X-1821Y-8291D01*
X-1814Y-8288D01*
X-1804Y-8288D01*
X-1791Y-8265D02*
X-1788Y-8268D01*
X-1785Y-8265D01*
X-1788Y-8261D01*
X-1791Y-8265D01*
X-1788Y-8288D02*
X-1788Y-8335D01*
X-1732Y-8265D02*
X-1732Y-8335D01*
X-1732Y-8298D02*
X-1739Y-8291D01*
X-1746Y-8288D01*
X-1756Y-8288D01*
X-1762Y-8291D01*
X-1769Y-8298D01*
X-1772Y-8308D01*
X-1772Y-8315D01*
X-1769Y-8325D01*
X-1762Y-8331D01*
X-1756Y-8335D01*
X-1746Y-8335D01*
X-1739Y-8331D01*
X-1732Y-8325D01*
X-1674Y-8288D02*
X-1674Y-8335D01*
X-1674Y-8298D02*
X-1680Y-8291D01*
X-1687Y-8288D01*
X-1697Y-8288D01*
X-1704Y-8291D01*
X-1710Y-8298D01*
X-1714Y-8308D01*
X-1714Y-8315D01*
X-1710Y-8325D01*
X-1704Y-8331D01*
X-1697Y-8335D01*
X-1687Y-8335D01*
X-1680Y-8331D01*
X-1674Y-8325D01*
X-1655Y-8288D02*
X-1655Y-8335D01*
X-1655Y-8301D02*
X-1645Y-8291D01*
X-1638Y-8288D01*
X-1628Y-8288D01*
X-1622Y-8291D01*
X-1618Y-8301D01*
X-1618Y-8335D01*
X-1545Y-8265D02*
X-1528Y-8335D01*
X-1512Y-8265D02*
X-1528Y-8335D01*
X-1512Y-8265D02*
X-1495Y-8335D01*
X-1478Y-8265D02*
X-1495Y-8335D01*
X-1464Y-8265D02*
X-1438Y-8298D01*
X-1438Y-8335D01*
X-1411Y-8265D02*
X-1438Y-8298D01*
X-1330Y-8265D02*
X-1340Y-8268D01*
X-1344Y-8275D01*
X-1344Y-8281D01*
X-1340Y-8288D01*
X-1334Y-8291D01*
X-1320Y-8295D01*
X-1310Y-8298D01*
X-1304Y-8305D01*
X-1300Y-8311D01*
X-1300Y-8321D01*
X-1304Y-8328D01*
X-1307Y-8331D01*
X-1317Y-8335D01*
X-1330Y-8335D01*
X-1340Y-8331D01*
X-1344Y-8328D01*
X-1347Y-8321D01*
X-1347Y-8311D01*
X-1344Y-8305D01*
X-1337Y-8298D01*
X-1327Y-8295D01*
X-1314Y-8291D01*
X-1307Y-8288D01*
X-1304Y-8281D01*
X-1304Y-8275D01*
X-1307Y-8268D01*
X-1317Y-8265D01*
X-1330Y-8265D01*
X-1281Y-8281D02*
X-1281Y-8278D01*
X-1278Y-8271D01*
X-1275Y-8268D01*
X-1268Y-8265D01*
X-1255Y-8265D01*
X-1248Y-8268D01*
X-1245Y-8271D01*
X-1241Y-8278D01*
X-1241Y-8285D01*
X-1245Y-8291D01*
X-1251Y-8301D01*
X-1285Y-8335D01*
X-1238Y-8335D01*
X-1206Y-8265D02*
X-1216Y-8268D01*
X-1219Y-8275D01*
X-1219Y-8281D01*
X-1216Y-8288D01*
X-1209Y-8291D01*
X-1196Y-8295D01*
X-1186Y-8298D01*
X-1179Y-8305D01*
X-1176Y-8311D01*
X-1176Y-8321D01*
X-1179Y-8328D01*
X-1182Y-8331D01*
X-1192Y-8335D01*
X-1206Y-8335D01*
X-1216Y-8331D01*
X-1219Y-8328D01*
X-1222Y-8321D01*
X-1222Y-8311D01*
X-1219Y-8305D01*
X-1212Y-8298D01*
X-1202Y-8295D01*
X-1189Y-8291D01*
X-1182Y-8288D01*
X-1179Y-8281D01*
X-1179Y-8275D01*
X-1182Y-8268D01*
X-1192Y-8265D01*
X-1206Y-8265D01*
X-1140Y-8265D02*
X-1150Y-8268D01*
X-1157Y-8278D01*
X-1160Y-8295D01*
X-1160Y-8305D01*
X-1157Y-8321D01*
X-1150Y-8331D01*
X-1140Y-8335D01*
X-1133Y-8335D01*
X-1123Y-8331D01*
X-1117Y-8321D01*
X-1113Y-8305D01*
X-1113Y-8295D01*
X-1117Y-8278D01*
X-1123Y-8268D01*
X-1133Y-8265D01*
X-1140Y-8265D01*
X-1098Y-8278D02*
X-1091Y-8275D01*
X-1081Y-8265D01*
X-1081Y-8335D01*
X-1996Y-8166D02*
X-1960Y-8166D01*
X-1980Y-8193D01*
X-1970Y-8193D01*
X-1963Y-8196D01*
X-1960Y-8200D01*
X-1956Y-8210D01*
X-1956Y-8216D01*
X-1960Y-8226D01*
X-1966Y-8233D01*
X-1976Y-8236D01*
X-1986Y-8236D01*
X-1996Y-8233D01*
X-2000Y-8230D01*
X-2003Y-8223D01*
X-1921Y-8166D02*
X-1931Y-8170D01*
X-1937Y-8180D01*
X-1941Y-8196D01*
X-1941Y-8206D01*
X-1937Y-8223D01*
X-1931Y-8233D01*
X-1921Y-8236D01*
X-1914Y-8236D01*
X-1904Y-8233D01*
X-1898Y-8223D01*
X-1894Y-8206D01*
X-1894Y-8196D01*
X-1898Y-8180D01*
X-1904Y-8170D01*
X-1914Y-8166D01*
X-1921Y-8166D01*
X-1824Y-8166D02*
X-1824Y-8236D01*
X-1824Y-8166D02*
X-1777Y-8236D01*
X-1777Y-8166D02*
X-1777Y-8236D01*
X-1653Y-8183D02*
X-1656Y-8176D01*
X-1663Y-8170D01*
X-1669Y-8166D01*
X-1683Y-8166D01*
X-1689Y-8170D01*
X-1696Y-8176D01*
X-1699Y-8183D01*
X-1703Y-8193D01*
X-1703Y-8210D01*
X-1699Y-8220D01*
X-1696Y-8226D01*
X-1689Y-8233D01*
X-1683Y-8236D01*
X-1669Y-8236D01*
X-1663Y-8233D01*
X-1656Y-8226D01*
X-1653Y-8220D01*
X-1653Y-8210D01*
X-1669Y-8210D02*
X-1653Y-8210D01*
X-1620Y-8190D02*
X-1627Y-8193D01*
X-1633Y-8200D01*
X-1637Y-8210D01*
X-1637Y-8216D01*
X-1633Y-8226D01*
X-1627Y-8233D01*
X-1620Y-8236D01*
X-1610Y-8236D01*
X-1603Y-8233D01*
X-1597Y-8226D01*
X-1593Y-8216D01*
X-1593Y-8210D01*
X-1597Y-8200D01*
X-1603Y-8193D01*
X-1610Y-8190D01*
X-1620Y-8190D01*
X-1578Y-8190D02*
X-1578Y-8223D01*
X-1575Y-8233D01*
X-1568Y-8236D01*
X-1558Y-8236D01*
X-1551Y-8233D01*
X-1541Y-8223D01*
X-1541Y-8190D02*
X-1541Y-8236D01*
X-1523Y-8166D02*
X-1523Y-8236D01*
X-1468Y-8166D02*
X-1468Y-8236D01*
X-1468Y-8200D02*
X-1475Y-8193D01*
X-1482Y-8190D01*
X-1492Y-8190D01*
X-1498Y-8193D01*
X-1505Y-8200D01*
X-1508Y-8210D01*
X-1508Y-8216D01*
X-1505Y-8226D01*
X-1498Y-8233D01*
X-1492Y-8236D01*
X-1482Y-8236D01*
X-1475Y-8233D01*
X-1468Y-8226D01*
X-1348Y-8176D02*
X-1355Y-8170D01*
X-1365Y-8166D01*
X-1378Y-8166D01*
X-1388Y-8170D01*
X-1395Y-8176D01*
X-1395Y-8183D01*
X-1391Y-8190D01*
X-1388Y-8193D01*
X-1381Y-8196D01*
X-1361Y-8203D01*
X-1355Y-8206D01*
X-1351Y-8210D01*
X-1348Y-8216D01*
X-1348Y-8226D01*
X-1355Y-8233D01*
X-1365Y-8236D01*
X-1378Y-8236D01*
X-1388Y-8233D01*
X-1395Y-8226D01*
X-1322Y-8166D02*
X-1322Y-8223D01*
X-1319Y-8233D01*
X-1312Y-8236D01*
X-1306Y-8236D01*
X-1332Y-8190D02*
X-1309Y-8190D01*
X-1204Y-8200D02*
X-1207Y-8193D01*
X-1217Y-8190D01*
X-1227Y-8190D01*
X-1237Y-8193D01*
X-1241Y-8200D01*
X-1237Y-8206D01*
X-1231Y-8210D01*
X-1214Y-8213D01*
X-1207Y-8216D01*
X-1204Y-8223D01*
X-1204Y-8226D01*
X-1207Y-8233D01*
X-1217Y-8236D01*
X-1227Y-8236D01*
X-1237Y-8233D01*
X-1241Y-8226D01*
X-1189Y-8190D02*
X-1189Y-8223D01*
X-1186Y-8233D01*
X-1179Y-8236D01*
X-1169Y-8236D01*
X-1163Y-8233D01*
X-1153Y-8223D01*
X-1153Y-8190D02*
X-1153Y-8236D01*
X-1128Y-8166D02*
X-1124Y-8170D01*
X-1121Y-8166D01*
X-1124Y-8163D01*
X-1128Y-8166D01*
X-1124Y-8190D02*
X-1124Y-8236D01*
X-1099Y-8166D02*
X-1099Y-8223D01*
X-1095Y-8233D01*
X-1089Y-8236D01*
X-1082Y-8236D01*
X-1109Y-8190D02*
X-1085Y-8190D01*
X-1072Y-8210D02*
X-1032Y-8210D01*
X-1032Y-8203D01*
X-1035Y-8196D01*
X-1039Y-8193D01*
X-1045Y-8190D01*
X-1055Y-8190D01*
X-1062Y-8193D01*
X-1069Y-8200D01*
X-1072Y-8210D01*
X-1072Y-8216D01*
X-1069Y-8226D01*
X-1062Y-8233D01*
X-1055Y-8236D01*
X-1045Y-8236D01*
X-1039Y-8233D01*
X-1032Y-8226D01*
X-929Y-8166D02*
X-962Y-8213D01*
X-912Y-8213D01*
X-929Y-8166D02*
X-929Y-8236D01*
X-880Y-8166D02*
X-890Y-8170D01*
X-896Y-8180D01*
X-900Y-8196D01*
X-900Y-8206D01*
X-896Y-8223D01*
X-890Y-8233D01*
X-880Y-8236D01*
X-873Y-8236D01*
X-863Y-8233D01*
X-856Y-8223D01*
X-853Y-8206D01*
X-853Y-8196D01*
X-856Y-8180D01*
X-863Y-8170D01*
X-873Y-8166D01*
X-880Y-8166D01*
X-817Y-8166D02*
X-827Y-8170D01*
X-834Y-8180D01*
X-837Y-8196D01*
X-837Y-8206D01*
X-834Y-8223D01*
X-827Y-8233D01*
X-817Y-8236D01*
X-811Y-8236D01*
X-801Y-8233D01*
X-794Y-8223D01*
X-791Y-8206D01*
X-791Y-8196D01*
X-794Y-8180D01*
X-801Y-8170D01*
X-811Y-8166D01*
X-817Y-8166D01*
X-755Y-8166D02*
X-765Y-8170D01*
X-772Y-8180D01*
X-775Y-8196D01*
X-775Y-8206D01*
X-772Y-8223D01*
X-765Y-8233D01*
X-755Y-8236D01*
X-748Y-8236D01*
X-738Y-8233D01*
X-732Y-8223D01*
X-728Y-8206D01*
X-728Y-8196D01*
X-732Y-8180D01*
X-738Y-8170D01*
X-748Y-8166D01*
X-755Y-8166D01*
X-1950Y-8039D02*
X-1976Y-7969D01*
X-2003Y-8039D01*
X-1993Y-8016D02*
X-1960Y-8016D01*
X-1894Y-8003D02*
X-1900Y-7996D01*
X-1907Y-7993D01*
X-1917Y-7993D01*
X-1923Y-7996D01*
X-1930Y-8003D01*
X-1933Y-8013D01*
X-1933Y-8019D01*
X-1930Y-8029D01*
X-1923Y-8036D01*
X-1917Y-8039D01*
X-1907Y-8039D01*
X-1900Y-8036D01*
X-1894Y-8029D01*
X-1879Y-7993D02*
X-1879Y-8039D01*
X-1879Y-8006D02*
X-1869Y-7996D01*
X-1862Y-7993D01*
X-1852Y-7993D01*
X-1845Y-7996D01*
X-1842Y-8006D01*
X-1842Y-8039D01*
X-1842Y-8006D02*
X-1832Y-7996D01*
X-1825Y-7993D01*
X-1815Y-7993D01*
X-1809Y-7996D01*
X-1805Y-8006D01*
X-1805Y-8039D01*
X-1783Y-8013D02*
X-1743Y-8013D01*
X-1743Y-8006D01*
X-1747Y-7999D01*
X-1750Y-7996D01*
X-1757Y-7993D01*
X-1767Y-7993D01*
X-1773Y-7996D01*
X-1780Y-8003D01*
X-1783Y-8013D01*
X-1783Y-8019D01*
X-1780Y-8029D01*
X-1773Y-8036D01*
X-1767Y-8039D01*
X-1757Y-8039D01*
X-1750Y-8036D01*
X-1743Y-8029D01*
X-1728Y-8063D02*
X-1675Y-8063D01*
X-1616Y-7986D02*
X-1619Y-7979D01*
X-1626Y-7973D01*
X-1633Y-7969D01*
X-1646Y-7969D01*
X-1653Y-7973D01*
X-1659Y-7979D01*
X-1663Y-7986D01*
X-1666Y-7996D01*
X-1666Y-8013D01*
X-1663Y-8023D01*
X-1659Y-8029D01*
X-1653Y-8036D01*
X-1646Y-8039D01*
X-1633Y-8039D01*
X-1626Y-8036D01*
X-1619Y-8029D01*
X-1616Y-8023D01*
X-1596Y-8006D02*
X-1566Y-8006D01*
X-1556Y-8003D01*
X-1553Y-7999D01*
X-1550Y-7993D01*
X-1550Y-7983D01*
X-1553Y-7976D01*
X-1556Y-7973D01*
X-1566Y-7969D01*
X-1596Y-7969D01*
X-1596Y-8039D01*
X-1534Y-7969D02*
X-1534Y-8019D01*
X-1531Y-8029D01*
X-1524Y-8036D01*
X-1514Y-8039D01*
X-1507Y-8039D01*
X-1497Y-8036D01*
X-1491Y-8029D01*
X-1487Y-8019D01*
X-1487Y-7969D01*
X-557Y-8644D02*
X-557Y-8714D01*
X-557Y-8644D02*
X-531Y-8714D01*
X-504Y-8644D02*
X-531Y-8714D01*
X-504Y-8644D02*
X-504Y-8714D01*
X-467Y-8667D02*
X-474Y-8671D01*
X-481Y-8677D01*
X-484Y-8687D01*
X-484Y-8694D01*
X-481Y-8704D01*
X-474Y-8711D01*
X-467Y-8714D01*
X-457Y-8714D01*
X-451Y-8711D01*
X-444Y-8704D01*
X-441Y-8694D01*
X-441Y-8687D01*
X-444Y-8677D01*
X-451Y-8671D01*
X-457Y-8667D01*
X-467Y-8667D01*
X-415Y-8644D02*
X-415Y-8701D01*
X-412Y-8711D01*
X-405Y-8714D01*
X-399Y-8714D01*
X-425Y-8667D02*
X-402Y-8667D01*
X-372Y-8667D02*
X-379Y-8671D01*
X-385Y-8677D01*
X-389Y-8687D01*
X-389Y-8694D01*
X-385Y-8704D01*
X-379Y-8711D01*
X-372Y-8714D01*
X-362Y-8714D01*
X-355Y-8711D01*
X-349Y-8704D01*
X-345Y-8694D01*
X-345Y-8687D01*
X-349Y-8677D01*
X-355Y-8671D01*
X-362Y-8667D01*
X-372Y-8667D01*
X-330Y-8667D02*
X-330Y-8714D01*
X-330Y-8687D02*
X-327Y-8677D01*
X-320Y-8671D01*
X-313Y-8667D01*
X-303Y-8667D01*
X-297Y-8737D02*
X-244Y-8737D01*
X-235Y-8644D02*
X-235Y-8714D01*
X-235Y-8644D02*
X-211Y-8644D01*
X-201Y-8647D01*
X-195Y-8654D01*
X-191Y-8661D01*
X-188Y-8671D01*
X-188Y-8687D01*
X-191Y-8697D01*
X-195Y-8704D01*
X-201Y-8711D01*
X-211Y-8714D01*
X-235Y-8714D01*
X-172Y-8667D02*
X-172Y-8714D01*
X-172Y-8687D02*
X-169Y-8677D01*
X-162Y-8671D01*
X-156Y-8667D01*
X-146Y-8667D01*
X-133Y-8644D02*
X-129Y-8647D01*
X-126Y-8644D01*
X-129Y-8641D01*
X-133Y-8644D01*
X-129Y-8667D02*
X-129Y-8714D01*
X-114Y-8667D02*
X-94Y-8714D01*
X-74Y-8667D02*
X-94Y-8714D01*
X-62Y-8687D02*
X-22Y-8687D01*
X-22Y-8681D01*
X-26Y-8674D01*
X-29Y-8671D01*
X-36Y-8667D01*
X-46Y-8667D01*
X-52Y-8671D01*
X-59Y-8677D01*
X-62Y-8687D01*
X-62Y-8694D01*
X-59Y-8704D01*
X-52Y-8711D01*
X-46Y-8714D01*
X-36Y-8714D01*
X-29Y-8711D01*
X-22Y-8704D01*
X-7Y-8667D02*
X-7Y-8714D01*
X-7Y-8687D02*
X-4Y-8677D01*
X3Y-8671D01*
X9Y-8667D01*
X19Y-8667D01*
X26Y-8737D02*
X79Y-8737D01*
X88Y-8644D02*
X88Y-8714D01*
X88Y-8644D02*
X115Y-8714D01*
X141Y-8644D02*
X115Y-8714D01*
X141Y-8644D02*
X141Y-8714D01*
X178Y-8667D02*
X171Y-8671D01*
X165Y-8677D01*
X161Y-8687D01*
X161Y-8694D01*
X165Y-8704D01*
X171Y-8711D01*
X178Y-8714D01*
X188Y-8714D01*
X195Y-8711D01*
X201Y-8704D01*
X205Y-8694D01*
X205Y-8687D01*
X201Y-8677D01*
X195Y-8671D01*
X188Y-8667D01*
X178Y-8667D01*
X260Y-8644D02*
X260Y-8714D01*
X260Y-8677D02*
X253Y-8671D01*
X247Y-8667D01*
X237Y-8667D01*
X230Y-8671D01*
X223Y-8677D01*
X220Y-8687D01*
X220Y-8694D01*
X223Y-8704D01*
X230Y-8711D01*
X237Y-8714D01*
X247Y-8714D01*
X253Y-8711D01*
X260Y-8704D01*
X279Y-8687D02*
X319Y-8687D01*
X319Y-8681D01*
X315Y-8674D01*
X312Y-8671D01*
X305Y-8667D01*
X295Y-8667D01*
X289Y-8671D01*
X282Y-8677D01*
X279Y-8687D01*
X279Y-8694D01*
X282Y-8704D01*
X289Y-8711D01*
X295Y-8714D01*
X305Y-8714D01*
X312Y-8711D01*
X319Y-8704D01*
X334Y-8644D02*
X334Y-8714D01*
X348Y-8737D02*
X402Y-8737D01*
X411Y-8644D02*
X411Y-8714D01*
X411Y-8644D02*
X434Y-8644D01*
X444Y-8647D01*
X451Y-8654D01*
X454Y-8661D01*
X457Y-8671D01*
X457Y-8687D01*
X454Y-8697D01*
X451Y-8704D01*
X444Y-8711D01*
X434Y-8714D01*
X411Y-8714D01*
X476Y-8661D02*
X476Y-8657D01*
X480Y-8651D01*
X483Y-8647D01*
X490Y-8644D01*
X503Y-8644D01*
X510Y-8647D01*
X513Y-8651D01*
X516Y-8657D01*
X516Y-8664D01*
X513Y-8671D01*
X506Y-8681D01*
X473Y-8714D01*
X520Y-8714D01*
X555Y-8644D02*
X545Y-8647D01*
X539Y-8657D01*
X535Y-8674D01*
X535Y-8684D01*
X539Y-8701D01*
X545Y-8711D01*
X555Y-8714D01*
X562Y-8714D01*
X572Y-8711D01*
X579Y-8701D01*
X582Y-8684D01*
X582Y-8674D01*
X579Y-8657D01*
X572Y-8647D01*
X562Y-8644D01*
X555Y-8644D01*
X598Y-8657D02*
X604Y-8654D01*
X614Y-8644D01*
X614Y-8714D01*
X652Y-8707D02*
X649Y-8711D01*
X652Y-8714D01*
X655Y-8711D01*
X652Y-8707D01*
X671Y-8681D02*
X701Y-8681D01*
X711Y-8677D01*
X714Y-8674D01*
X717Y-8667D01*
X717Y-8657D01*
X714Y-8651D01*
X711Y-8647D01*
X701Y-8644D01*
X671Y-8644D01*
X671Y-8714D01*
X773Y-8677D02*
X766Y-8671D01*
X760Y-8667D01*
X750Y-8667D01*
X743Y-8671D01*
X736Y-8677D01*
X733Y-8687D01*
X733Y-8694D01*
X736Y-8704D01*
X743Y-8711D01*
X750Y-8714D01*
X760Y-8714D01*
X766Y-8711D01*
X773Y-8704D01*
X788Y-8644D02*
X788Y-8714D01*
X788Y-8677D02*
X795Y-8671D01*
X801Y-8667D01*
X811Y-8667D01*
X818Y-8671D01*
X825Y-8677D01*
X828Y-8687D01*
X828Y-8694D01*
X825Y-8704D01*
X818Y-8711D01*
X811Y-8714D01*
X801Y-8714D01*
X795Y-8711D01*
X788Y-8704D01*
X843Y-8644D02*
X843Y-8714D01*
X843Y-8644D02*
X866Y-8644D01*
X876Y-8647D01*
X883Y-8654D01*
X886Y-8661D01*
X890Y-8671D01*
X890Y-8687D01*
X886Y-8697D01*
X883Y-8704D01*
X876Y-8711D01*
X866Y-8714D01*
X843Y-8714D01*
X922Y-8667D02*
X915Y-8671D01*
X909Y-8677D01*
X905Y-8687D01*
X905Y-8694D01*
X909Y-8704D01*
X915Y-8711D01*
X922Y-8714D01*
X932Y-8714D01*
X939Y-8711D01*
X945Y-8704D01*
X949Y-8694D01*
X949Y-8687D01*
X945Y-8677D01*
X939Y-8671D01*
X932Y-8667D01*
X922Y-8667D01*
X1004Y-8677D02*
X997Y-8671D01*
X991Y-8667D01*
X981Y-8667D01*
X974Y-8671D01*
X967Y-8677D01*
X964Y-8687D01*
X964Y-8694D01*
X967Y-8704D01*
X974Y-8711D01*
X981Y-8714D01*
X991Y-8714D01*
X997Y-8711D01*
X1004Y-8704D01*
X-556Y-8334D02*
X-556Y-8331D01*
X-553Y-8324D01*
X-550Y-8321D01*
X-543Y-8318D01*
X-530Y-8318D01*
X-523Y-8321D01*
X-520Y-8324D01*
X-516Y-8331D01*
X-516Y-8338D01*
X-520Y-8344D01*
X-526Y-8354D01*
X-560Y-8388D01*
X-513Y-8388D01*
X-477Y-8318D02*
X-487Y-8321D01*
X-494Y-8331D01*
X-497Y-8348D01*
X-497Y-8358D01*
X-494Y-8374D01*
X-487Y-8384D01*
X-477Y-8388D01*
X-471Y-8388D01*
X-461Y-8384D01*
X-454Y-8374D01*
X-451Y-8358D01*
X-451Y-8348D01*
X-454Y-8331D01*
X-461Y-8321D01*
X-471Y-8318D01*
X-477Y-8318D01*
X-432Y-8334D02*
X-432Y-8331D01*
X-428Y-8324D01*
X-425Y-8321D01*
X-418Y-8318D01*
X-405Y-8318D01*
X-398Y-8321D01*
X-395Y-8324D01*
X-392Y-8331D01*
X-392Y-8338D01*
X-395Y-8344D01*
X-402Y-8354D01*
X-435Y-8388D01*
X-388Y-8388D01*
X-353Y-8318D02*
X-363Y-8321D01*
X-369Y-8331D01*
X-373Y-8348D01*
X-373Y-8358D01*
X-369Y-8374D01*
X-363Y-8384D01*
X-353Y-8388D01*
X-346Y-8388D01*
X-336Y-8384D01*
X-329Y-8374D01*
X-326Y-8358D01*
X-326Y-8348D01*
X-329Y-8331D01*
X-336Y-8321D01*
X-346Y-8318D01*
X-353Y-8318D01*
X-310Y-8331D02*
X-304Y-8328D01*
X-294Y-8318D01*
X-294Y-8388D01*
X-259Y-8331D02*
X-252Y-8328D01*
X-242Y-8318D01*
X-242Y-8388D01*
X-188Y-8318D02*
X-198Y-8321D01*
X-205Y-8331D01*
X-208Y-8348D01*
X-208Y-8358D01*
X-205Y-8374D01*
X-198Y-8384D01*
X-188Y-8388D01*
X-181Y-8388D01*
X-171Y-8384D01*
X-165Y-8374D01*
X-161Y-8358D01*
X-161Y-8348D01*
X-165Y-8331D01*
X-171Y-8321D01*
X-181Y-8318D01*
X-188Y-8318D01*
X-106Y-8318D02*
X-139Y-8318D01*
X-142Y-8348D01*
X-139Y-8344D01*
X-129Y-8341D01*
X-119Y-8341D01*
X-109Y-8344D01*
X-102Y-8351D01*
X-99Y-8361D01*
X-99Y-8368D01*
X-102Y-8378D01*
X-109Y-8384D01*
X-119Y-8388D01*
X-129Y-8388D01*
X-139Y-8384D01*
X-142Y-8381D01*
X-146Y-8374D01*
X-2318Y-7472D02*
X-2318Y-7542D01*
X-2318Y-7472D02*
X-2295Y-7472D01*
X-2285Y-7476D01*
X-2278Y-7482D01*
X-2275Y-7489D01*
X-2271Y-7499D01*
X-2271Y-7516D01*
X-2275Y-7526D01*
X-2278Y-7532D01*
X-2285Y-7539D01*
X-2295Y-7542D01*
X-2318Y-7542D01*
X-2268Y-4645D02*
X-2271Y-4638D01*
X-2278Y-4631D01*
X-2285Y-4628D01*
X-2298Y-4628D01*
X-2305Y-4631D01*
X-2311Y-4638D01*
X-2315Y-4645D01*
X-2318Y-4655D01*
X-2318Y-4671D01*
X-2315Y-4681D01*
X-2311Y-4688D01*
X-2305Y-4695D01*
X-2298Y-4698D01*
X-2285Y-4698D01*
X-2278Y-4695D01*
X-2271Y-4688D01*
X-2268Y-4681D01*
X-2318Y-1705D02*
X-2318Y-1775D01*
X-2318Y-1705D02*
X-2288Y-1705D01*
X-2278Y-1708D01*
X-2275Y-1711D01*
X-2271Y-1718D01*
X-2271Y-1725D01*
X-2275Y-1731D01*
X-2278Y-1735D01*
X-2288Y-1738D01*
X-2318Y-1738D02*
X-2288Y-1738D01*
X-2278Y-1741D01*
X-2275Y-1745D01*
X-2271Y-1751D01*
X-2271Y-1761D01*
X-2275Y-1768D01*
X-2278Y-1771D01*
X-2288Y-1775D01*
X-2318Y-1775D01*
X-2265Y1149D02*
X-2291Y1219D01*
X-2318Y1149D01*
X-2308Y1172D02*
X-2275Y1172D01*
X4965Y-7472D02*
X4965Y-7542D01*
X4965Y-7472D02*
X4989Y-7472D01*
X4999Y-7476D01*
X5005Y-7482D01*
X5009Y-7489D01*
X5012Y-7499D01*
X5012Y-7516D01*
X5009Y-7526D01*
X5005Y-7532D01*
X4999Y-7539D01*
X4989Y-7542D01*
X4965Y-7542D01*
X5015Y-4645D02*
X5012Y-4638D01*
X5005Y-4631D01*
X4999Y-4628D01*
X4985Y-4628D01*
X4979Y-4631D01*
X4972Y-4638D01*
X4969Y-4645D01*
X4965Y-4655D01*
X4965Y-4671D01*
X4969Y-4681D01*
X4972Y-4688D01*
X4979Y-4695D01*
X4985Y-4698D01*
X4999Y-4698D01*
X5005Y-4695D01*
X5012Y-4688D01*
X5015Y-4681D01*
X4965Y-1705D02*
X4965Y-1775D01*
X4965Y-1705D02*
X4995Y-1705D01*
X5005Y-1708D01*
X5009Y-1711D01*
X5012Y-1718D01*
X5012Y-1725D01*
X5009Y-1731D01*
X5005Y-1735D01*
X4995Y-1738D01*
X4965Y-1738D02*
X4995Y-1738D01*
X5005Y-1741D01*
X5009Y-1745D01*
X5012Y-1751D01*
X5012Y-1761D01*
X5009Y-1768D01*
X5005Y-1771D01*
X4995Y-1775D01*
X4965Y-1775D01*
X5019Y1149D02*
X4992Y1219D01*
X4965Y1149D01*
X4975Y1172D02*
X5009Y1172D01*
X3712Y-8855D02*
X3749Y-8855D01*
X3729Y-8882D01*
X3739Y-8882D01*
X3746Y-8885D01*
X3749Y-8889D01*
X3752Y-8899D01*
X3752Y-8905D01*
X3749Y-8915D01*
X3742Y-8922D01*
X3732Y-8925D01*
X3722Y-8925D01*
X3712Y-8922D01*
X3709Y-8919D01*
X3706Y-8912D01*
X-1019Y-8869D02*
X-1012Y-8865D01*
X-1002Y-8855D01*
X-1002Y-8925D01*
X1347Y-8872D02*
X1347Y-8869D01*
X1350Y-8862D01*
X1353Y-8859D01*
X1360Y-8855D01*
X1373Y-8855D01*
X1380Y-8859D01*
X1383Y-8862D01*
X1387Y-8869D01*
X1387Y-8875D01*
X1383Y-8882D01*
X1377Y-8892D01*
X1343Y-8925D01*
X1390Y-8925D01*
D35*
X-650Y-8234D02*
X-650Y-8279D01*
X-650Y-8234D02*
X-635Y-8234D01*
X-628Y-8236D01*
X-624Y-8241D01*
X-622Y-8245D01*
X-620Y-8251D01*
X-620Y-8262D01*
X-622Y-8269D01*
X-624Y-8273D01*
X-628Y-8277D01*
X-635Y-8279D01*
X-650Y-8279D01*
X-575Y-8279D02*
X-593Y-8234D01*
X-610Y-8279D01*
X-603Y-8264D02*
X-582Y-8264D01*
X-550Y-8234D02*
X-550Y-8279D01*
X-565Y-8234D02*
X-535Y-8234D01*
X-502Y-8234D02*
X-530Y-8234D01*
X-530Y-8279D01*
X-502Y-8279D01*
X-530Y-8256D02*
X-512Y-8256D01*
X-492Y-8249D02*
X-494Y-8251D01*
X-492Y-8254D01*
X-490Y-8251D01*
X-492Y-8249D01*
X-492Y-8275D02*
X-494Y-8277D01*
X-492Y-8279D01*
X-490Y-8277D01*
X-492Y-8275D01*
X3633Y-8234D02*
X3650Y-8279D01*
X3667Y-8234D02*
X3650Y-8279D01*
X3673Y-8262D02*
X3699Y-8262D01*
X3699Y-8258D01*
X3697Y-8254D01*
X3694Y-8251D01*
X3690Y-8249D01*
X3684Y-8249D01*
X3679Y-8251D01*
X3675Y-8256D01*
X3673Y-8262D01*
X3673Y-8266D01*
X3675Y-8273D01*
X3679Y-8277D01*
X3684Y-8279D01*
X3690Y-8279D01*
X3694Y-8277D01*
X3699Y-8273D01*
X3708Y-8249D02*
X3708Y-8279D01*
X3708Y-8262D02*
X3711Y-8256D01*
X3715Y-8251D01*
X3719Y-8249D01*
X3726Y-8249D01*
X3732Y-8249D02*
X3730Y-8251D01*
X3732Y-8254D01*
X3734Y-8251D01*
X3732Y-8249D01*
X3732Y-8275D02*
X3730Y-8277D01*
X3732Y-8279D01*
X3734Y-8277D01*
X3732Y-8275D01*
X1563Y-8541D02*
X1559Y-8536D01*
X1552Y-8534D01*
X1544Y-8534D01*
X1537Y-8536D01*
X1533Y-8541D01*
X1533Y-8545D01*
X1535Y-8549D01*
X1537Y-8551D01*
X1542Y-8554D01*
X1554Y-8558D01*
X1559Y-8560D01*
X1561Y-8562D01*
X1563Y-8566D01*
X1563Y-8573D01*
X1559Y-8577D01*
X1552Y-8579D01*
X1544Y-8579D01*
X1537Y-8577D01*
X1533Y-8573D01*
X1605Y-8545D02*
X1603Y-8541D01*
X1599Y-8536D01*
X1594Y-8534D01*
X1586Y-8534D01*
X1582Y-8536D01*
X1577Y-8541D01*
X1575Y-8545D01*
X1573Y-8551D01*
X1573Y-8562D01*
X1575Y-8569D01*
X1577Y-8573D01*
X1582Y-8577D01*
X1586Y-8579D01*
X1594Y-8579D01*
X1599Y-8577D01*
X1603Y-8573D01*
X1605Y-8569D01*
X1618Y-8534D02*
X1618Y-8579D01*
X1648Y-8534D02*
X1648Y-8579D01*
X1618Y-8556D02*
X1648Y-8556D01*
X1662Y-8575D02*
X1660Y-8577D01*
X1662Y-8579D01*
X1664Y-8577D01*
X1662Y-8575D01*
X1710Y-8534D02*
X1710Y-8579D01*
X1710Y-8534D02*
X1740Y-8579D01*
X1740Y-8534D02*
X1740Y-8579D01*
X1765Y-8534D02*
X1761Y-8536D01*
X1756Y-8541D01*
X1754Y-8545D01*
X1752Y-8551D01*
X1752Y-8562D01*
X1754Y-8569D01*
X1756Y-8573D01*
X1761Y-8577D01*
X1765Y-8579D01*
X1774Y-8579D01*
X1778Y-8577D01*
X1782Y-8573D01*
X1784Y-8569D01*
X1786Y-8562D01*
X1786Y-8551D01*
X1784Y-8545D01*
X1782Y-8541D01*
X1778Y-8536D01*
X1774Y-8534D01*
X1765Y-8534D01*
X1799Y-8575D02*
X1797Y-8577D01*
X1799Y-8579D01*
X1801Y-8577D01*
X1799Y-8575D01*
X1813Y-8549D02*
X1811Y-8551D01*
X1813Y-8554D01*
X1815Y-8551D01*
X1813Y-8549D01*
X1813Y-8575D02*
X1811Y-8577D01*
X1813Y-8579D01*
X1815Y-8577D01*
X1813Y-8575D01*
X-622Y-7634D02*
X-650Y-7634D01*
X-650Y-7679D01*
X-622Y-7679D01*
X-650Y-7656D02*
X-633Y-7656D01*
X-614Y-7634D02*
X-614Y-7679D01*
X-614Y-7634D02*
X-584Y-7679D01*
X-584Y-7634D02*
X-584Y-7679D01*
X-540Y-7645D02*
X-542Y-7641D01*
X-546Y-7636D01*
X-551Y-7634D01*
X-559Y-7634D01*
X-563Y-7636D01*
X-568Y-7641D01*
X-570Y-7645D01*
X-572Y-7651D01*
X-572Y-7662D01*
X-570Y-7669D01*
X-568Y-7673D01*
X-563Y-7677D01*
X-559Y-7679D01*
X-551Y-7679D01*
X-546Y-7677D01*
X-542Y-7673D01*
X-540Y-7669D01*
X-540Y-7662D01*
X-551Y-7662D02*
X-540Y-7662D01*
X-530Y-7634D02*
X-530Y-7679D01*
X-520Y-7634D02*
X-520Y-7679D01*
X-520Y-7634D02*
X-490Y-7679D01*
X-490Y-7634D02*
X-490Y-7679D01*
X-450Y-7634D02*
X-478Y-7634D01*
X-478Y-7679D01*
X-450Y-7679D01*
X-478Y-7656D02*
X-461Y-7656D01*
X-414Y-7634D02*
X-442Y-7634D01*
X-442Y-7679D01*
X-414Y-7679D01*
X-442Y-7656D02*
X-425Y-7656D01*
X-407Y-7634D02*
X-407Y-7679D01*
X-407Y-7634D02*
X-388Y-7634D01*
X-381Y-7636D01*
X-379Y-7639D01*
X-377Y-7643D01*
X-377Y-7647D01*
X-379Y-7651D01*
X-381Y-7654D01*
X-388Y-7656D01*
X-407Y-7656D01*
X-392Y-7656D02*
X-377Y-7679D01*
X-365Y-7649D02*
X-367Y-7651D01*
X-365Y-7654D01*
X-363Y-7651D01*
X-365Y-7649D01*
X-365Y-7675D02*
X-367Y-7677D01*
X-365Y-7679D01*
X-363Y-7677D01*
X-365Y-7675D01*
X1533Y-8258D02*
X1552Y-8258D01*
X1559Y-8256D01*
X1561Y-8254D01*
X1563Y-8249D01*
X1563Y-8243D01*
X1561Y-8239D01*
X1559Y-8236D01*
X1552Y-8234D01*
X1533Y-8234D01*
X1533Y-8279D01*
X1607Y-8279D02*
X1590Y-8234D01*
X1573Y-8279D01*
X1579Y-8264D02*
X1601Y-8264D01*
X1618Y-8234D02*
X1618Y-8279D01*
X1618Y-8234D02*
X1637Y-8234D01*
X1644Y-8236D01*
X1646Y-8239D01*
X1648Y-8243D01*
X1648Y-8247D01*
X1646Y-8251D01*
X1644Y-8254D01*
X1637Y-8256D01*
X1618Y-8256D01*
X1633Y-8256D02*
X1648Y-8279D01*
X1673Y-8234D02*
X1673Y-8279D01*
X1658Y-8234D02*
X1688Y-8234D01*
X1729Y-8234D02*
X1729Y-8279D01*
X1729Y-8234D02*
X1759Y-8279D01*
X1759Y-8234D02*
X1759Y-8279D01*
X1784Y-8234D02*
X1780Y-8236D01*
X1775Y-8241D01*
X1773Y-8245D01*
X1771Y-8251D01*
X1771Y-8262D01*
X1773Y-8269D01*
X1775Y-8273D01*
X1780Y-8277D01*
X1784Y-8279D01*
X1792Y-8279D01*
X1797Y-8277D01*
X1801Y-8273D01*
X1803Y-8269D01*
X1805Y-8262D01*
X1805Y-8251D01*
X1803Y-8245D01*
X1801Y-8241D01*
X1797Y-8236D01*
X1792Y-8234D01*
X1784Y-8234D01*
X1818Y-8275D02*
X1816Y-8277D01*
X1818Y-8279D01*
X1820Y-8277D01*
X1818Y-8275D01*
X1832Y-8249D02*
X1830Y-8251D01*
X1832Y-8254D01*
X1834Y-8251D01*
X1832Y-8249D01*
X1832Y-8275D02*
X1830Y-8277D01*
X1832Y-8279D01*
X1834Y-8277D01*
X1832Y-8275D01*
X1533Y-7658D02*
X1552Y-7658D01*
X1559Y-7656D01*
X1561Y-7654D01*
X1563Y-7649D01*
X1563Y-7643D01*
X1561Y-7639D01*
X1559Y-7636D01*
X1552Y-7634D01*
X1533Y-7634D01*
X1533Y-7679D01*
X1573Y-7634D02*
X1573Y-7679D01*
X1573Y-7634D02*
X1592Y-7634D01*
X1599Y-7636D01*
X1601Y-7639D01*
X1603Y-7643D01*
X1603Y-7647D01*
X1601Y-7651D01*
X1599Y-7654D01*
X1592Y-7656D01*
X1573Y-7656D01*
X1588Y-7656D02*
X1603Y-7679D01*
X1626Y-7634D02*
X1622Y-7636D01*
X1617Y-7641D01*
X1615Y-7645D01*
X1613Y-7651D01*
X1613Y-7662D01*
X1615Y-7669D01*
X1617Y-7673D01*
X1622Y-7677D01*
X1626Y-7679D01*
X1635Y-7679D01*
X1639Y-7677D01*
X1643Y-7673D01*
X1645Y-7669D01*
X1647Y-7662D01*
X1647Y-7651D01*
X1645Y-7645D01*
X1643Y-7641D01*
X1639Y-7636D01*
X1635Y-7634D01*
X1626Y-7634D01*
X1679Y-7634D02*
X1679Y-7669D01*
X1677Y-7675D01*
X1675Y-7677D01*
X1671Y-7679D01*
X1666Y-7679D01*
X1662Y-7677D01*
X1660Y-7675D01*
X1658Y-7669D01*
X1658Y-7664D01*
X1719Y-7634D02*
X1691Y-7634D01*
X1691Y-7679D01*
X1719Y-7679D01*
X1691Y-7656D02*
X1708Y-7656D01*
X1758Y-7645D02*
X1756Y-7641D01*
X1752Y-7636D01*
X1748Y-7634D01*
X1739Y-7634D01*
X1735Y-7636D01*
X1730Y-7641D01*
X1728Y-7645D01*
X1726Y-7651D01*
X1726Y-7662D01*
X1728Y-7669D01*
X1730Y-7673D01*
X1735Y-7677D01*
X1739Y-7679D01*
X1748Y-7679D01*
X1752Y-7677D01*
X1756Y-7673D01*
X1758Y-7669D01*
X1786Y-7634D02*
X1786Y-7679D01*
X1771Y-7634D02*
X1801Y-7634D01*
X1842Y-7634D02*
X1842Y-7679D01*
X1842Y-7634D02*
X1872Y-7679D01*
X1872Y-7634D02*
X1872Y-7679D01*
X1918Y-7679D02*
X1901Y-7634D01*
X1884Y-7679D01*
X1891Y-7664D02*
X1912Y-7664D01*
X1929Y-7634D02*
X1929Y-7679D01*
X1929Y-7634D02*
X1946Y-7679D01*
X1963Y-7634D02*
X1946Y-7679D01*
X1963Y-7634D02*
X1963Y-7679D01*
X2004Y-7634D02*
X1976Y-7634D01*
X1976Y-7679D01*
X2004Y-7679D01*
X1976Y-7656D02*
X1993Y-7656D01*
X2013Y-7649D02*
X2011Y-7651D01*
X2013Y-7654D01*
X2016Y-7651D01*
X2013Y-7649D01*
X2013Y-7675D02*
X2011Y-7677D01*
X2013Y-7679D01*
X2016Y-7677D01*
X2013Y-7675D01*
X-650Y-7953D02*
X-630Y-7953D01*
X-624Y-7951D01*
X-622Y-7949D01*
X-620Y-7944D01*
X-620Y-7938D01*
X-622Y-7934D01*
X-624Y-7931D01*
X-630Y-7929D01*
X-650Y-7929D01*
X-650Y-7974D01*
X-578Y-7940D02*
X-580Y-7936D01*
X-584Y-7931D01*
X-588Y-7929D01*
X-597Y-7929D01*
X-601Y-7931D01*
X-605Y-7936D01*
X-608Y-7940D01*
X-610Y-7946D01*
X-610Y-7957D01*
X-608Y-7964D01*
X-605Y-7968D01*
X-601Y-7972D01*
X-597Y-7974D01*
X-588Y-7974D01*
X-584Y-7972D01*
X-580Y-7968D01*
X-578Y-7964D01*
X-565Y-7929D02*
X-565Y-7974D01*
X-565Y-7929D02*
X-546Y-7929D01*
X-539Y-7931D01*
X-537Y-7934D01*
X-535Y-7938D01*
X-535Y-7942D01*
X-537Y-7946D01*
X-539Y-7949D01*
X-546Y-7951D01*
X-565Y-7951D02*
X-546Y-7951D01*
X-539Y-7953D01*
X-537Y-7955D01*
X-535Y-7959D01*
X-535Y-7966D01*
X-537Y-7970D01*
X-539Y-7972D01*
X-546Y-7974D01*
X-565Y-7974D01*
X-489Y-7929D02*
X-489Y-7974D01*
X-489Y-7929D02*
X-474Y-7929D01*
X-468Y-7931D01*
X-464Y-7936D01*
X-462Y-7940D01*
X-459Y-7946D01*
X-459Y-7957D01*
X-462Y-7964D01*
X-464Y-7968D01*
X-468Y-7972D01*
X-474Y-7974D01*
X-489Y-7974D01*
X-422Y-7929D02*
X-449Y-7929D01*
X-449Y-7974D01*
X-422Y-7974D01*
X-449Y-7951D02*
X-432Y-7951D01*
X-384Y-7936D02*
X-388Y-7931D01*
X-395Y-7929D01*
X-403Y-7929D01*
X-410Y-7931D01*
X-414Y-7936D01*
X-414Y-7940D01*
X-412Y-7944D01*
X-410Y-7946D01*
X-405Y-7949D01*
X-393Y-7953D01*
X-388Y-7955D01*
X-386Y-7957D01*
X-384Y-7961D01*
X-384Y-7968D01*
X-388Y-7972D01*
X-395Y-7974D01*
X-403Y-7974D01*
X-410Y-7972D01*
X-414Y-7968D01*
X-374Y-7929D02*
X-374Y-7974D01*
X-332Y-7940D02*
X-335Y-7936D01*
X-339Y-7931D01*
X-343Y-7929D01*
X-352Y-7929D01*
X-356Y-7931D01*
X-360Y-7936D01*
X-362Y-7940D01*
X-365Y-7946D01*
X-365Y-7957D01*
X-362Y-7964D01*
X-360Y-7968D01*
X-356Y-7972D01*
X-352Y-7974D01*
X-343Y-7974D01*
X-339Y-7972D01*
X-335Y-7968D01*
X-332Y-7964D01*
X-332Y-7957D01*
X-343Y-7957D02*
X-332Y-7957D01*
X-322Y-7929D02*
X-322Y-7974D01*
X-322Y-7929D02*
X-292Y-7974D01*
X-292Y-7929D02*
X-292Y-7974D01*
X-252Y-7929D02*
X-280Y-7929D01*
X-280Y-7974D01*
X-252Y-7974D01*
X-280Y-7951D02*
X-263Y-7951D01*
X-244Y-7929D02*
X-244Y-7974D01*
X-244Y-7929D02*
X-225Y-7929D01*
X-219Y-7931D01*
X-217Y-7934D01*
X-214Y-7938D01*
X-214Y-7942D01*
X-217Y-7946D01*
X-219Y-7949D01*
X-225Y-7951D01*
X-244Y-7951D01*
X-229Y-7951D02*
X-214Y-7974D01*
X-202Y-7944D02*
X-204Y-7946D01*
X-202Y-7949D01*
X-200Y-7946D01*
X-202Y-7944D01*
X-202Y-7970D02*
X-204Y-7972D01*
X-202Y-7974D01*
X-200Y-7972D01*
X-202Y-7970D01*
X-650Y-8534D02*
X-650Y-8579D01*
X-650Y-8534D02*
X-622Y-8534D01*
X-650Y-8556D02*
X-633Y-8556D01*
X-617Y-8534D02*
X-617Y-8579D01*
X-607Y-8534D02*
X-607Y-8579D01*
X-582Y-8579D01*
X-549Y-8534D02*
X-577Y-8534D01*
X-577Y-8579D01*
X-549Y-8579D01*
X-577Y-8556D02*
X-560Y-8556D01*
X-506Y-8534D02*
X-506Y-8579D01*
X-506Y-8534D02*
X-476Y-8579D01*
X-476Y-8534D02*
X-476Y-8579D01*
X-429Y-8579D02*
X-446Y-8534D01*
X-464Y-8579D01*
X-457Y-8564D02*
X-436Y-8564D01*
X-419Y-8534D02*
X-419Y-8579D01*
X-419Y-8534D02*
X-402Y-8579D01*
X-384Y-8534D02*
X-402Y-8579D01*
X-384Y-8534D02*
X-384Y-8579D01*
X-344Y-8534D02*
X-372Y-8534D01*
X-372Y-8579D01*
X-344Y-8579D01*
X-372Y-8556D02*
X-355Y-8556D01*
X-334Y-8549D02*
X-336Y-8551D01*
X-334Y-8554D01*
X-332Y-8551D01*
X-334Y-8549D01*
X-334Y-8575D02*
X-336Y-8577D01*
X-334Y-8579D01*
X-332Y-8577D01*
X-334Y-8575D01*
X3663Y-8541D02*
X3659Y-8536D01*
X3652Y-8534D01*
X3644Y-8534D01*
X3637Y-8536D01*
X3633Y-8541D01*
X3633Y-8545D01*
X3635Y-8549D01*
X3637Y-8551D01*
X3642Y-8554D01*
X3654Y-8558D01*
X3659Y-8560D01*
X3661Y-8562D01*
X3663Y-8566D01*
X3663Y-8573D01*
X3659Y-8577D01*
X3652Y-8579D01*
X3644Y-8579D01*
X3637Y-8577D01*
X3633Y-8573D01*
X3705Y-8545D02*
X3703Y-8541D01*
X3699Y-8536D01*
X3694Y-8534D01*
X3686Y-8534D01*
X3682Y-8536D01*
X3677Y-8541D01*
X3675Y-8545D01*
X3673Y-8551D01*
X3673Y-8562D01*
X3675Y-8569D01*
X3677Y-8573D01*
X3682Y-8577D01*
X3686Y-8579D01*
X3694Y-8579D01*
X3699Y-8577D01*
X3703Y-8573D01*
X3705Y-8569D01*
X3752Y-8579D02*
X3735Y-8534D01*
X3718Y-8579D01*
X3724Y-8564D02*
X3746Y-8564D01*
X3763Y-8534D02*
X3763Y-8579D01*
X3788Y-8579D01*
X3821Y-8534D02*
X3793Y-8534D01*
X3793Y-8579D01*
X3821Y-8579D01*
X3793Y-8556D02*
X3810Y-8556D01*
X3831Y-8549D02*
X3829Y-8551D01*
X3831Y-8554D01*
X3833Y-8551D01*
X3831Y-8549D01*
X3831Y-8575D02*
X3829Y-8577D01*
X3831Y-8579D01*
X3833Y-8577D01*
X3831Y-8575D01*
X1533Y-7930D02*
X1533Y-7975D01*
X1533Y-7930D02*
X1552Y-7930D01*
X1559Y-7932D01*
X1561Y-7934D01*
X1563Y-7938D01*
X1563Y-7942D01*
X1561Y-7947D01*
X1559Y-7949D01*
X1552Y-7951D01*
X1533Y-7951D02*
X1552Y-7951D01*
X1559Y-7953D01*
X1561Y-7955D01*
X1563Y-7960D01*
X1563Y-7966D01*
X1561Y-7970D01*
X1559Y-7972D01*
X1552Y-7975D01*
X1533Y-7975D01*
X1586Y-7930D02*
X1582Y-7932D01*
X1577Y-7936D01*
X1575Y-7940D01*
X1573Y-7947D01*
X1573Y-7957D01*
X1575Y-7964D01*
X1577Y-7968D01*
X1582Y-7972D01*
X1586Y-7975D01*
X1594Y-7975D01*
X1599Y-7972D01*
X1603Y-7968D01*
X1605Y-7964D01*
X1607Y-7957D01*
X1607Y-7947D01*
X1605Y-7940D01*
X1603Y-7936D01*
X1599Y-7932D01*
X1594Y-7930D01*
X1586Y-7930D01*
X1652Y-7975D02*
X1635Y-7930D01*
X1618Y-7975D01*
X1624Y-7960D02*
X1646Y-7960D01*
X1663Y-7930D02*
X1663Y-7975D01*
X1663Y-7930D02*
X1682Y-7930D01*
X1688Y-7932D01*
X1690Y-7934D01*
X1693Y-7938D01*
X1693Y-7942D01*
X1690Y-7947D01*
X1688Y-7949D01*
X1682Y-7951D01*
X1663Y-7951D01*
X1678Y-7951D02*
X1693Y-7975D01*
X1703Y-7930D02*
X1703Y-7975D01*
X1703Y-7930D02*
X1718Y-7930D01*
X1724Y-7932D01*
X1728Y-7936D01*
X1730Y-7940D01*
X1733Y-7947D01*
X1733Y-7957D01*
X1730Y-7964D01*
X1728Y-7968D01*
X1724Y-7972D01*
X1718Y-7975D01*
X1703Y-7975D01*
X1778Y-7930D02*
X1778Y-7975D01*
X1778Y-7930D02*
X1808Y-7975D01*
X1808Y-7930D02*
X1808Y-7975D01*
X1855Y-7975D02*
X1838Y-7930D01*
X1820Y-7975D01*
X1827Y-7960D02*
X1848Y-7960D01*
X1865Y-7930D02*
X1865Y-7975D01*
X1865Y-7930D02*
X1882Y-7975D01*
X1900Y-7930D02*
X1882Y-7975D01*
X1900Y-7930D02*
X1900Y-7975D01*
X1940Y-7930D02*
X1912Y-7930D01*
X1912Y-7975D01*
X1940Y-7975D01*
X1912Y-7951D02*
X1930Y-7951D01*
X1950Y-7945D02*
X1948Y-7947D01*
X1950Y-7949D01*
X1952Y-7947D01*
X1950Y-7945D01*
X1950Y-7970D02*
X1948Y-7972D01*
X1950Y-7975D01*
X1952Y-7972D01*
X1950Y-7970D01*
D36*
X2075Y-8295D02*
X2075Y-8413D01*
X2075Y-8295D02*
X2115Y-8295D01*
X2131Y-8301D01*
X2143Y-8312D01*
X2148Y-8323D01*
X2154Y-8340D01*
X2154Y-8368D01*
X2148Y-8385D01*
X2143Y-8397D01*
X2131Y-8408D01*
X2115Y-8413D01*
X2075Y-8413D01*
X2186Y-8323D02*
X2186Y-8318D01*
X2192Y-8307D01*
X2197Y-8301D01*
X2208Y-8295D01*
X2231Y-8295D01*
X2242Y-8301D01*
X2248Y-8307D01*
X2253Y-8318D01*
X2253Y-8329D01*
X2248Y-8340D01*
X2237Y-8357D01*
X2180Y-8413D01*
X2259Y-8413D01*
X2319Y-8295D02*
X2302Y-8301D01*
X2291Y-8318D01*
X2286Y-8346D01*
X2286Y-8363D01*
X2291Y-8391D01*
X2302Y-8408D01*
X2319Y-8413D01*
X2330Y-8413D01*
X2347Y-8408D01*
X2359Y-8391D01*
X2364Y-8363D01*
X2364Y-8346D01*
X2359Y-8318D01*
X2347Y-8301D01*
X2330Y-8295D01*
X2319Y-8295D01*
X2391Y-8318D02*
X2402Y-8312D01*
X2419Y-8295D01*
X2419Y-8413D01*
X2081Y-7696D02*
X2075Y-7691D01*
X2081Y-7685D01*
X2086Y-7691D01*
X2086Y-7702D01*
X2081Y-7713D01*
X2075Y-7719D01*
X2118Y-7792D02*
X2112Y-7798D01*
X2118Y-7803D01*
X2124Y-7798D01*
X2118Y-7792D01*
X2149Y-7747D02*
X2200Y-7747D01*
X2217Y-7741D01*
X2223Y-7736D01*
X2228Y-7724D01*
X2228Y-7708D01*
X2223Y-7696D01*
X2217Y-7691D01*
X2200Y-7685D01*
X2149Y-7685D01*
X2149Y-7803D01*
X2255Y-7724D02*
X2255Y-7803D01*
X2255Y-7758D02*
X2260Y-7741D01*
X2271Y-7730D01*
X2283Y-7724D01*
X2300Y-7724D01*
X2338Y-7724D02*
X2327Y-7730D01*
X2316Y-7741D01*
X2310Y-7758D01*
X2310Y-7769D01*
X2316Y-7786D01*
X2327Y-7798D01*
X2338Y-7803D01*
X2355Y-7803D01*
X2366Y-7798D01*
X2378Y-7786D01*
X2383Y-7769D01*
X2383Y-7758D01*
X2378Y-7741D01*
X2366Y-7730D01*
X2355Y-7724D01*
X2338Y-7724D01*
X2432Y-7685D02*
X2437Y-7691D01*
X2443Y-7685D01*
X2437Y-7679D01*
X2432Y-7685D01*
X2437Y-7724D02*
X2437Y-7820D01*
X2432Y-7837D01*
X2420Y-7843D01*
X2409Y-7843D01*
X2465Y-7758D02*
X2532Y-7758D01*
X2532Y-7747D01*
X2527Y-7736D01*
X2521Y-7730D01*
X2510Y-7724D01*
X2493Y-7724D01*
X2482Y-7730D01*
X2470Y-7741D01*
X2465Y-7758D01*
X2465Y-7769D01*
X2470Y-7786D01*
X2482Y-7798D01*
X2493Y-7803D01*
X2510Y-7803D01*
X2521Y-7798D01*
X2532Y-7786D01*
X2625Y-7741D02*
X2614Y-7730D01*
X2603Y-7724D01*
X2586Y-7724D01*
X2575Y-7730D01*
X2563Y-7741D01*
X2558Y-7758D01*
X2558Y-7769D01*
X2563Y-7786D01*
X2575Y-7798D01*
X2586Y-7803D01*
X2603Y-7803D01*
X2614Y-7798D01*
X2625Y-7786D01*
X2667Y-7685D02*
X2667Y-7781D01*
X2673Y-7798D01*
X2684Y-7803D01*
X2695Y-7803D01*
X2650Y-7724D02*
X2690Y-7724D01*
X2712Y-7685D02*
X2712Y-7803D01*
X2712Y-7685D02*
X2791Y-7803D01*
X2791Y-7685D02*
X2791Y-7803D01*
X2891Y-7724D02*
X2891Y-7803D01*
X2891Y-7741D02*
X2880Y-7730D01*
X2869Y-7724D01*
X2852Y-7724D01*
X2841Y-7730D01*
X2829Y-7741D01*
X2824Y-7758D01*
X2824Y-7769D01*
X2829Y-7786D01*
X2841Y-7798D01*
X2852Y-7803D01*
X2869Y-7803D01*
X2880Y-7798D01*
X2891Y-7786D01*
X2923Y-7724D02*
X2923Y-7803D01*
X2923Y-7747D02*
X2939Y-7730D01*
X2951Y-7724D01*
X2968Y-7724D01*
X2979Y-7730D01*
X2984Y-7747D01*
X2984Y-7803D01*
X2984Y-7747D02*
X3001Y-7730D01*
X3013Y-7724D01*
X3029Y-7724D01*
X3041Y-7730D01*
X3046Y-7747D01*
X3046Y-7803D01*
X3083Y-7758D02*
X3151Y-7758D01*
X3151Y-7747D01*
X3145Y-7736D01*
X3140Y-7730D01*
X3128Y-7724D01*
X3112Y-7724D01*
X3100Y-7730D01*
X3089Y-7741D01*
X3083Y-7758D01*
X3083Y-7769D01*
X3089Y-7786D01*
X3100Y-7798D01*
X3112Y-7803D01*
X3128Y-7803D01*
X3140Y-7798D01*
X3151Y-7786D01*
X3182Y-7696D02*
X3176Y-7691D01*
X3182Y-7685D01*
X3187Y-7691D01*
X3187Y-7702D01*
X3182Y-7713D01*
X3176Y-7719D01*
X2081Y-8602D02*
X2075Y-8596D01*
X2081Y-8591D01*
X2086Y-8596D01*
X2086Y-8607D01*
X2081Y-8619D01*
X2075Y-8624D01*
X2118Y-8697D02*
X2112Y-8703D01*
X2118Y-8709D01*
X2124Y-8703D01*
X2118Y-8697D01*
X2149Y-8652D02*
X2200Y-8652D01*
X2217Y-8647D01*
X2223Y-8641D01*
X2228Y-8630D01*
X2228Y-8613D01*
X2223Y-8602D01*
X2217Y-8596D01*
X2200Y-8591D01*
X2149Y-8591D01*
X2149Y-8709D01*
X2255Y-8630D02*
X2255Y-8709D01*
X2255Y-8664D02*
X2260Y-8647D01*
X2271Y-8636D01*
X2283Y-8630D01*
X2300Y-8630D01*
X2338Y-8630D02*
X2327Y-8636D01*
X2316Y-8647D01*
X2310Y-8664D01*
X2310Y-8675D01*
X2316Y-8692D01*
X2327Y-8703D01*
X2338Y-8709D01*
X2355Y-8709D01*
X2366Y-8703D01*
X2378Y-8692D01*
X2383Y-8675D01*
X2383Y-8664D01*
X2378Y-8647D01*
X2366Y-8636D01*
X2355Y-8630D01*
X2338Y-8630D01*
X2432Y-8591D02*
X2437Y-8596D01*
X2443Y-8591D01*
X2437Y-8585D01*
X2432Y-8591D01*
X2437Y-8630D02*
X2437Y-8726D01*
X2432Y-8742D01*
X2420Y-8748D01*
X2409Y-8748D01*
X2465Y-8664D02*
X2532Y-8664D01*
X2532Y-8652D01*
X2527Y-8641D01*
X2521Y-8636D01*
X2510Y-8630D01*
X2493Y-8630D01*
X2482Y-8636D01*
X2470Y-8647D01*
X2465Y-8664D01*
X2465Y-8675D01*
X2470Y-8692D01*
X2482Y-8703D01*
X2493Y-8709D01*
X2510Y-8709D01*
X2521Y-8703D01*
X2532Y-8692D01*
X2625Y-8647D02*
X2614Y-8636D01*
X2603Y-8630D01*
X2586Y-8630D01*
X2575Y-8636D01*
X2563Y-8647D01*
X2558Y-8664D01*
X2558Y-8675D01*
X2563Y-8692D01*
X2575Y-8703D01*
X2586Y-8709D01*
X2603Y-8709D01*
X2614Y-8703D01*
X2625Y-8692D01*
X2667Y-8591D02*
X2667Y-8686D01*
X2673Y-8703D01*
X2684Y-8709D01*
X2695Y-8709D01*
X2650Y-8630D02*
X2690Y-8630D01*
X2712Y-8591D02*
X2712Y-8709D01*
X2712Y-8591D02*
X2791Y-8709D01*
X2791Y-8591D02*
X2791Y-8709D01*
X2824Y-8630D02*
X2824Y-8686D01*
X2829Y-8703D01*
X2841Y-8709D01*
X2857Y-8709D01*
X2869Y-8703D01*
X2885Y-8686D01*
X2885Y-8630D02*
X2885Y-8709D01*
X2916Y-8630D02*
X2916Y-8709D01*
X2916Y-8652D02*
X2933Y-8636D01*
X2945Y-8630D01*
X2961Y-8630D01*
X2973Y-8636D01*
X2978Y-8652D01*
X2978Y-8709D01*
X2978Y-8652D02*
X2995Y-8636D01*
X3006Y-8630D01*
X3023Y-8630D01*
X3034Y-8636D01*
X3040Y-8652D01*
X3040Y-8709D01*
X3077Y-8591D02*
X3077Y-8709D01*
X3077Y-8647D02*
X3088Y-8636D01*
X3100Y-8630D01*
X3117Y-8630D01*
X3128Y-8636D01*
X3139Y-8647D01*
X3145Y-8664D01*
X3145Y-8675D01*
X3139Y-8692D01*
X3128Y-8703D01*
X3117Y-8709D01*
X3100Y-8709D01*
X3088Y-8703D01*
X3077Y-8692D01*
X3170Y-8664D02*
X3237Y-8664D01*
X3237Y-8652D01*
X3232Y-8641D01*
X3226Y-8636D01*
X3215Y-8630D01*
X3198Y-8630D01*
X3187Y-8636D01*
X3176Y-8647D01*
X3170Y-8664D01*
X3170Y-8675D01*
X3176Y-8692D01*
X3187Y-8703D01*
X3198Y-8709D01*
X3215Y-8709D01*
X3226Y-8703D01*
X3237Y-8692D01*
X3263Y-8630D02*
X3263Y-8709D01*
X3263Y-8664D02*
X3268Y-8647D01*
X3280Y-8636D01*
X3291Y-8630D01*
X3308Y-8630D01*
X3324Y-8602D02*
X3318Y-8596D01*
X3324Y-8591D01*
X3330Y-8596D01*
X3330Y-8607D01*
X3324Y-8619D01*
X3318Y-8624D01*
X2075Y-7990D02*
X2075Y-8108D01*
X2075Y-7990D02*
X2120Y-8108D01*
X2165Y-7990D02*
X2120Y-8108D01*
X2165Y-7990D02*
X2165Y-8108D01*
X2227Y-8030D02*
X2216Y-8035D01*
X2205Y-8046D01*
X2199Y-8063D01*
X2199Y-8075D01*
X2205Y-8091D01*
X2216Y-8103D01*
X2227Y-8108D01*
X2244Y-8108D01*
X2255Y-8103D01*
X2266Y-8091D01*
X2272Y-8075D01*
X2272Y-8063D01*
X2266Y-8046D01*
X2255Y-8035D01*
X2244Y-8030D01*
X2227Y-8030D01*
X2315Y-7990D02*
X2315Y-8086D01*
X2320Y-8103D01*
X2332Y-8108D01*
X2343Y-8108D01*
X2298Y-8030D02*
X2337Y-8030D01*
X2388Y-8030D02*
X2377Y-8035D01*
X2365Y-8046D01*
X2360Y-8063D01*
X2360Y-8075D01*
X2365Y-8091D01*
X2377Y-8103D01*
X2388Y-8108D01*
X2405Y-8108D01*
X2416Y-8103D01*
X2427Y-8091D01*
X2433Y-8075D01*
X2433Y-8063D01*
X2427Y-8046D01*
X2416Y-8035D01*
X2405Y-8030D01*
X2388Y-8030D01*
X2459Y-8030D02*
X2459Y-8108D01*
X2459Y-8063D02*
X2464Y-8046D01*
X2476Y-8035D01*
X2487Y-8030D01*
X2504Y-8030D01*
X2514Y-8148D02*
X2604Y-8148D01*
X2620Y-7990D02*
X2620Y-8108D01*
X2620Y-7990D02*
X2659Y-7990D01*
X2676Y-7996D01*
X2687Y-8007D01*
X2693Y-8018D01*
X2698Y-8035D01*
X2698Y-8063D01*
X2693Y-8080D01*
X2687Y-8091D01*
X2676Y-8103D01*
X2659Y-8108D01*
X2620Y-8108D01*
X2725Y-8030D02*
X2725Y-8108D01*
X2725Y-8063D02*
X2730Y-8046D01*
X2742Y-8035D01*
X2753Y-8030D01*
X2770Y-8030D01*
X2792Y-7990D02*
X2797Y-7996D01*
X2803Y-7990D01*
X2797Y-7985D01*
X2792Y-7990D01*
X2797Y-8030D02*
X2797Y-8108D01*
X2824Y-8030D02*
X2857Y-8108D01*
X2891Y-8030D02*
X2857Y-8108D01*
X2910Y-8063D02*
X2978Y-8063D01*
X2978Y-8052D01*
X2972Y-8041D01*
X2966Y-8035D01*
X2955Y-8030D01*
X2938Y-8030D01*
X2927Y-8035D01*
X2916Y-8046D01*
X2910Y-8063D01*
X2910Y-8075D01*
X2916Y-8091D01*
X2927Y-8103D01*
X2938Y-8108D01*
X2955Y-8108D01*
X2966Y-8103D01*
X2978Y-8091D01*
X3003Y-8030D02*
X3003Y-8108D01*
X3003Y-8063D02*
X3009Y-8046D01*
X3020Y-8035D01*
X3031Y-8030D01*
X3048Y-8030D01*
D64*
X416Y721D02*
D03*
X593Y721D02*
D03*
D03*
X504Y721D02*
D03*
D03*
X682Y721D02*
D03*
D67*
X1100Y300D02*
D03*
X295Y709D02*
D03*
X807Y709D02*
D03*
D77*
X795Y115D02*
D03*
X860Y105D02*
D03*
X825Y475D02*
D03*
X875Y425D02*
D03*
X1075Y400D02*
D03*
X950Y600D02*
D03*
X665Y550D02*
D03*
X605Y550D02*
D03*
X725Y550D02*
D03*
X785Y550D02*
D03*
X845Y550D02*
D03*
X480Y135D02*
D03*
D80*
X1002Y454D02*
D03*
X1002Y395D02*
D03*
X1002Y336D02*
D03*
X1002Y277D02*
D03*
X1002Y513D02*
D03*
X666Y607D02*
D03*
X725Y607D02*
D03*
X784Y607D02*
D03*
X843Y607D02*
D03*
X607Y607D02*
D03*
X276Y607D02*
D03*
X335Y607D02*
D03*
X395Y607D02*
D03*
X454Y607D02*
D03*
D81*
X1063Y181D02*
D03*
X1126Y118D02*
D03*
X1063Y55D02*
D03*
X1000Y118D02*
D03*
X1018Y74D02*
D03*
X1108Y74D02*
D03*
X1108Y163D02*
D03*
X1018Y163D02*
D03*
X1063Y732D02*
D03*
X1126Y669D02*
D03*
X1063Y606D02*
D03*
X1000Y669D02*
D03*
X1018Y625D02*
D03*
X1108Y625D02*
D03*
X1108Y714D02*
D03*
X1018Y714D02*
D03*
X118Y181D02*
D03*
X181Y118D02*
D03*
X118Y55D02*
D03*
X55Y118D02*
D03*
X74Y74D02*
D03*
X163Y74D02*
D03*
X163Y163D02*
D03*
X74Y163D02*
D03*
X118Y732D02*
D03*
X181Y669D02*
D03*
X118Y606D02*
D03*
X55Y669D02*
D03*
X74Y625D02*
D03*
X163Y625D02*
D03*
X163Y714D02*
D03*
X74Y714D02*
D03*
M02*
