G04 Layer_Physical_Order=4*
G04 Layer_Color=16711680*
%FSLAX23Y23*%
%MOIN*%
G70*
G01*
G75*
%ADD12C,0.059*%
%ADD23C,0.039*%
%ADD27C,0.006*%
%ADD28C,0.010*%
%ADD30R,0.005X0.094*%
%ADD31R,0.094X0.005*%
%ADD32R,0.094X0.040*%
%ADD33C,0.028*%
%ADD34C,0.007*%
%ADD35C,0.005*%
%ADD36C,0.012*%
%ADD37C,0.157*%
%ADD38C,0.043*%
%ADD39C,0.020*%
%ADD40C,0.022*%
%ADD41C,0.024*%
G36*
X4280Y1594D02*
X4256Y1594D01*
X4256Y1602D01*
X4280Y1602D01*
X4280Y1594D01*
X4280Y1594D02*
G37*
G36*
X4099Y1594D02*
X4075Y1594D01*
X4075Y1602D01*
X4099Y1602D01*
X4099Y1594D01*
X4099Y1594D02*
G37*
G36*
X4136Y1639D02*
X4138Y1639D01*
X4141Y1638D01*
X4142Y1638D01*
X4144Y1638D01*
X4145Y1637D01*
X4146Y1637D01*
X4147Y1637D01*
X4148Y1636D01*
X4149Y1636D01*
X4149Y1636D01*
X4150Y1635D01*
X4150Y1635D01*
X4151Y1635D01*
X4151Y1635D01*
X4152Y1634D01*
X4153Y1633D01*
X4156Y1632D01*
X4157Y1631D01*
X4157Y1630D01*
X4158Y1629D01*
X4159Y1628D01*
X4160Y1627D01*
X4160Y1626D01*
X4161Y1625D01*
X4161Y1624D01*
X4161Y1624D01*
X4162Y1624D01*
X4162Y1623D01*
X4162Y1623D01*
X4163Y1622D01*
X4163Y1620D01*
X4164Y1617D01*
X4165Y1614D01*
X4165Y1613D01*
X4165Y1612D01*
X4165Y1610D01*
X4165Y1609D01*
X4166Y1608D01*
X4166Y1608D01*
X4166Y1607D01*
X4166Y1606D01*
X4166Y1606D01*
X4166Y1606D01*
X4166Y1604D01*
X4165Y1603D01*
X4165Y1599D01*
X4165Y1598D01*
X4164Y1597D01*
X4164Y1595D01*
X4164Y1594D01*
X4163Y1593D01*
X4163Y1592D01*
X4163Y1591D01*
X4162Y1590D01*
X4162Y1590D01*
X4162Y1589D01*
X4162Y1589D01*
X4162Y1589D01*
X4161Y1588D01*
X4160Y1587D01*
X4159Y1585D01*
X4158Y1584D01*
X4157Y1583D01*
X4156Y1582D01*
X4156Y1581D01*
X4155Y1581D01*
X4154Y1580D01*
X4153Y1579D01*
X4152Y1579D01*
X4152Y1578D01*
X4151Y1578D01*
X4151Y1578D01*
X4150Y1578D01*
X4150Y1578D01*
X4149Y1577D01*
X4147Y1576D01*
X4145Y1575D01*
X4142Y1575D01*
X4140Y1574D01*
X4139Y1574D01*
X4138Y1574D01*
X4137Y1574D01*
X4136Y1574D01*
X4135Y1574D01*
X4134Y1574D01*
X4133Y1574D01*
X4131Y1574D01*
X4128Y1574D01*
X4126Y1575D01*
X4124Y1575D01*
X4123Y1575D01*
X4123Y1575D01*
X4122Y1576D01*
X4121Y1576D01*
X4121Y1576D01*
X4120Y1576D01*
X4120Y1576D01*
X4120Y1576D01*
X4118Y1577D01*
X4115Y1578D01*
X4113Y1580D01*
X4111Y1581D01*
X4110Y1581D01*
X4110Y1582D01*
X4109Y1582D01*
X4108Y1583D01*
X4108Y1583D01*
X4108Y1583D01*
X4107Y1583D01*
X4107Y1583D01*
X4107Y1607D01*
X4134Y1607D01*
X4134Y1599D01*
X4116Y1599D01*
X4116Y1588D01*
X4117Y1587D01*
X4118Y1586D01*
X4119Y1585D01*
X4120Y1585D01*
X4122Y1584D01*
X4123Y1584D01*
X4123Y1583D01*
X4123Y1583D01*
X4123Y1583D01*
X4123Y1583D01*
X4125Y1583D01*
X4127Y1582D01*
X4129Y1582D01*
X4131Y1581D01*
X4132Y1581D01*
X4133Y1581D01*
X4133Y1581D01*
X4134Y1581D01*
X4136Y1581D01*
X4139Y1582D01*
X4140Y1582D01*
X4142Y1583D01*
X4143Y1583D01*
X4144Y1583D01*
X4144Y1583D01*
X4145Y1583D01*
X4145Y1584D01*
X4146Y1584D01*
X4146Y1584D01*
X4146Y1584D01*
X4148Y1585D01*
X4149Y1586D01*
X4151Y1588D01*
X4152Y1589D01*
X4153Y1590D01*
X4153Y1591D01*
X4154Y1591D01*
X4154Y1592D01*
X4154Y1592D01*
X4154Y1592D01*
X4154Y1592D01*
X4155Y1595D01*
X4156Y1597D01*
X4156Y1599D01*
X4157Y1602D01*
X4157Y1603D01*
X4157Y1604D01*
X4157Y1604D01*
X4157Y1605D01*
X4157Y1606D01*
X4157Y1606D01*
X4157Y1606D01*
X4157Y1606D01*
X4157Y1609D01*
X4157Y1611D01*
X4156Y1614D01*
X4156Y1615D01*
X4156Y1616D01*
X4155Y1617D01*
X4155Y1618D01*
X4155Y1618D01*
X4155Y1619D01*
X4155Y1619D01*
X4155Y1619D01*
X4155Y1619D01*
X4154Y1620D01*
X4153Y1622D01*
X4153Y1623D01*
X4152Y1624D01*
X4152Y1624D01*
X4151Y1625D01*
X4151Y1625D01*
X4151Y1625D01*
X4150Y1626D01*
X4149Y1627D01*
X4147Y1628D01*
X4146Y1629D01*
X4145Y1629D01*
X4145Y1630D01*
X4144Y1630D01*
X4144Y1630D01*
X4144Y1630D01*
X4142Y1631D01*
X4141Y1631D01*
X4139Y1631D01*
X4137Y1632D01*
X4136Y1632D01*
X4136Y1632D01*
X4135Y1632D01*
X4134Y1632D01*
X4132Y1632D01*
X4131Y1632D01*
X4129Y1631D01*
X4128Y1631D01*
X4127Y1631D01*
X4126Y1630D01*
X4126Y1630D01*
X4126Y1630D01*
X4125Y1630D01*
X4124Y1629D01*
X4123Y1629D01*
X4122Y1628D01*
X4121Y1627D01*
X4120Y1627D01*
X4120Y1626D01*
X4119Y1626D01*
X4119Y1626D01*
X4119Y1625D01*
X4118Y1623D01*
X4117Y1622D01*
X4117Y1621D01*
X4116Y1620D01*
X4116Y1619D01*
X4116Y1619D01*
X4116Y1618D01*
X4116Y1618D01*
X4116Y1618D01*
X4108Y1620D01*
X4109Y1622D01*
X4110Y1624D01*
X4111Y1626D01*
X4111Y1628D01*
X4112Y1629D01*
X4112Y1629D01*
X4113Y1630D01*
X4113Y1630D01*
X4113Y1630D01*
X4113Y1630D01*
X4113Y1630D01*
X4114Y1632D01*
X4116Y1633D01*
X4117Y1634D01*
X4119Y1635D01*
X4120Y1636D01*
X4120Y1636D01*
X4121Y1636D01*
X4121Y1636D01*
X4122Y1637D01*
X4122Y1637D01*
X4122Y1637D01*
X4124Y1637D01*
X4126Y1638D01*
X4128Y1638D01*
X4130Y1639D01*
X4131Y1639D01*
X4132Y1639D01*
X4132Y1639D01*
X4133Y1639D01*
X4134Y1639D01*
X4136Y1639D01*
X4136Y1639D02*
G37*
G36*
X4331Y1597D02*
X4331Y1590D01*
X4303Y1590D01*
X4303Y1575D01*
X4296Y1575D01*
X4296Y1590D01*
X4287Y1590D01*
X4287Y1597D01*
X4296Y1597D01*
X4296Y1638D01*
X4302Y1638D01*
X4331Y1597D01*
X4331Y1597D02*
G37*
G36*
X4187Y1575D02*
X4178Y1575D01*
X4178Y1638D01*
X4187Y1638D01*
X4187Y1575D01*
X4187Y1575D02*
G37*
G36*
X4066Y1575D02*
X4042Y1575D01*
X4040Y1575D01*
X4038Y1575D01*
X4036Y1575D01*
X4035Y1575D01*
X4034Y1575D01*
X4033Y1576D01*
X4033Y1576D01*
X4032Y1576D01*
X4032Y1576D01*
X4032Y1576D01*
X4030Y1576D01*
X4029Y1577D01*
X4028Y1577D01*
X4027Y1578D01*
X4026Y1578D01*
X4026Y1579D01*
X4025Y1579D01*
X4025Y1579D01*
X4024Y1580D01*
X4023Y1581D01*
X4022Y1582D01*
X4022Y1583D01*
X4021Y1583D01*
X4021Y1584D01*
X4020Y1585D01*
X4020Y1585D01*
X4020Y1586D01*
X4019Y1588D01*
X4019Y1589D01*
X4019Y1590D01*
X4019Y1591D01*
X4018Y1592D01*
X4018Y1593D01*
X4018Y1593D01*
X4018Y1593D01*
X4018Y1593D01*
X4019Y1595D01*
X4019Y1597D01*
X4019Y1598D01*
X4020Y1600D01*
X4021Y1601D01*
X4021Y1602D01*
X4021Y1602D01*
X4021Y1602D01*
X4022Y1602D01*
X4022Y1603D01*
X4023Y1604D01*
X4024Y1605D01*
X4026Y1606D01*
X4027Y1607D01*
X4028Y1608D01*
X4029Y1608D01*
X4029Y1608D01*
X4030Y1608D01*
X4030Y1608D01*
X4030Y1608D01*
X4030Y1608D01*
X4029Y1609D01*
X4027Y1610D01*
X4026Y1611D01*
X4025Y1612D01*
X4025Y1613D01*
X4024Y1613D01*
X4024Y1614D01*
X4024Y1614D01*
X4023Y1615D01*
X4022Y1617D01*
X4022Y1618D01*
X4022Y1619D01*
X4022Y1620D01*
X4021Y1621D01*
X4021Y1621D01*
X4021Y1622D01*
X4021Y1622D01*
X4021Y1622D01*
X4022Y1623D01*
X4022Y1625D01*
X4022Y1626D01*
X4023Y1627D01*
X4023Y1629D01*
X4024Y1629D01*
X4024Y1630D01*
X4024Y1630D01*
X4024Y1630D01*
X4025Y1631D01*
X4026Y1633D01*
X4027Y1634D01*
X4028Y1634D01*
X4029Y1635D01*
X4030Y1636D01*
X4030Y1636D01*
X4031Y1636D01*
X4031Y1636D01*
X4031Y1636D01*
X4033Y1637D01*
X4034Y1637D01*
X4036Y1637D01*
X4038Y1638D01*
X4040Y1638D01*
X4041Y1638D01*
X4041Y1638D01*
X4066Y1638D01*
X4066Y1575D01*
X4066Y1575D02*
G37*
G36*
X3943Y1630D02*
X3923Y1630D01*
X3923Y1575D01*
X3914Y1575D01*
X3914Y1630D01*
X3893Y1630D01*
X3893Y1638D01*
X3943Y1638D01*
X3943Y1630D01*
X3943Y1630D02*
G37*
G36*
X4227Y1639D02*
X4229Y1639D01*
X4231Y1638D01*
X4233Y1638D01*
X4234Y1638D01*
X4235Y1637D01*
X4235Y1637D01*
X4236Y1637D01*
X4236Y1637D01*
X4236Y1637D01*
X4236Y1637D01*
X4236Y1637D01*
X4238Y1636D01*
X4240Y1635D01*
X4241Y1634D01*
X4242Y1633D01*
X4243Y1632D01*
X4244Y1631D01*
X4244Y1631D01*
X4244Y1630D01*
X4244Y1630D01*
X4245Y1629D01*
X4246Y1627D01*
X4246Y1626D01*
X4247Y1624D01*
X4247Y1623D01*
X4247Y1622D01*
X4247Y1622D01*
X4247Y1622D01*
X4247Y1622D01*
X4247Y1621D01*
X4247Y1620D01*
X4247Y1618D01*
X4246Y1617D01*
X4246Y1616D01*
X4246Y1615D01*
X4245Y1614D01*
X4245Y1614D01*
X4245Y1614D01*
X4245Y1614D01*
X4244Y1612D01*
X4243Y1611D01*
X4242Y1610D01*
X4241Y1609D01*
X4240Y1609D01*
X4239Y1608D01*
X4239Y1608D01*
X4238Y1608D01*
X4238Y1608D01*
X4238Y1608D01*
X4237Y1607D01*
X4237Y1607D01*
X4235Y1606D01*
X4233Y1606D01*
X4231Y1605D01*
X4229Y1604D01*
X4228Y1604D01*
X4227Y1604D01*
X4227Y1604D01*
X4226Y1604D01*
X4226Y1604D01*
X4226Y1604D01*
X4225Y1603D01*
X4223Y1603D01*
X4222Y1603D01*
X4221Y1602D01*
X4220Y1602D01*
X4219Y1602D01*
X4218Y1602D01*
X4217Y1601D01*
X4217Y1601D01*
X4216Y1601D01*
X4216Y1601D01*
X4215Y1601D01*
X4215Y1601D01*
X4215Y1601D01*
X4213Y1600D01*
X4212Y1599D01*
X4211Y1599D01*
X4210Y1598D01*
X4210Y1598D01*
X4210Y1597D01*
X4209Y1597D01*
X4209Y1597D01*
X4209Y1596D01*
X4208Y1595D01*
X4208Y1594D01*
X4208Y1594D01*
X4207Y1593D01*
X4207Y1592D01*
X4207Y1592D01*
X4207Y1592D01*
X4207Y1591D01*
X4208Y1590D01*
X4208Y1589D01*
X4208Y1588D01*
X4209Y1587D01*
X4209Y1587D01*
X4209Y1587D01*
X4209Y1586D01*
X4210Y1586D01*
X4211Y1585D01*
X4212Y1584D01*
X4213Y1584D01*
X4213Y1583D01*
X4214Y1583D01*
X4215Y1583D01*
X4215Y1583D01*
X4215Y1583D01*
X4216Y1582D01*
X4217Y1582D01*
X4219Y1582D01*
X4220Y1581D01*
X4221Y1581D01*
X4222Y1581D01*
X4223Y1581D01*
X4225Y1581D01*
X4227Y1581D01*
X4228Y1582D01*
X4230Y1582D01*
X4231Y1582D01*
X4232Y1583D01*
X4232Y1583D01*
X4232Y1583D01*
X4233Y1583D01*
X4233Y1583D01*
X4233Y1583D01*
X4234Y1584D01*
X4236Y1585D01*
X4237Y1585D01*
X4237Y1586D01*
X4238Y1587D01*
X4239Y1587D01*
X4239Y1588D01*
X4239Y1588D01*
X4240Y1589D01*
X4240Y1590D01*
X4241Y1592D01*
X4241Y1593D01*
X4241Y1594D01*
X4241Y1595D01*
X4241Y1595D01*
X4242Y1596D01*
X4242Y1596D01*
X4242Y1596D01*
X4249Y1595D01*
X4249Y1593D01*
X4249Y1591D01*
X4248Y1589D01*
X4248Y1587D01*
X4247Y1586D01*
X4247Y1586D01*
X4247Y1585D01*
X4246Y1585D01*
X4246Y1584D01*
X4246Y1584D01*
X4246Y1584D01*
X4246Y1584D01*
X4245Y1582D01*
X4243Y1580D01*
X4242Y1579D01*
X4240Y1578D01*
X4239Y1577D01*
X4238Y1577D01*
X4238Y1577D01*
X4238Y1576D01*
X4237Y1576D01*
X4237Y1576D01*
X4237Y1576D01*
X4235Y1575D01*
X4232Y1575D01*
X4230Y1574D01*
X4228Y1574D01*
X4227Y1574D01*
X4226Y1574D01*
X4225Y1574D01*
X4224Y1574D01*
X4223Y1574D01*
X4223Y1574D01*
X4220Y1574D01*
X4218Y1574D01*
X4216Y1575D01*
X4214Y1575D01*
X4213Y1575D01*
X4213Y1575D01*
X4212Y1576D01*
X4211Y1576D01*
X4211Y1576D01*
X4211Y1576D01*
X4211Y1576D01*
X4211Y1576D01*
X4209Y1577D01*
X4207Y1578D01*
X4206Y1579D01*
X4204Y1581D01*
X4204Y1582D01*
X4203Y1582D01*
X4203Y1583D01*
X4202Y1583D01*
X4202Y1583D01*
X4202Y1583D01*
X4201Y1585D01*
X4201Y1586D01*
X4200Y1588D01*
X4200Y1589D01*
X4200Y1591D01*
X4199Y1591D01*
X4199Y1592D01*
X4199Y1592D01*
X4199Y1592D01*
X4199Y1592D01*
X4199Y1593D01*
X4199Y1594D01*
X4200Y1596D01*
X4200Y1598D01*
X4201Y1599D01*
X4201Y1600D01*
X4202Y1601D01*
X4202Y1601D01*
X4202Y1601D01*
X4202Y1601D01*
X4202Y1601D01*
X4203Y1603D01*
X4204Y1604D01*
X4206Y1605D01*
X4207Y1606D01*
X4208Y1607D01*
X4209Y1607D01*
X4210Y1608D01*
X4210Y1608D01*
X4210Y1608D01*
X4210Y1608D01*
X4211Y1608D01*
X4212Y1609D01*
X4213Y1609D01*
X4214Y1609D01*
X4216Y1610D01*
X4219Y1611D01*
X4220Y1611D01*
X4221Y1611D01*
X4222Y1611D01*
X4222Y1612D01*
X4223Y1612D01*
X4224Y1612D01*
X4224Y1612D01*
X4224Y1612D01*
X4226Y1612D01*
X4228Y1613D01*
X4229Y1613D01*
X4230Y1614D01*
X4231Y1614D01*
X4232Y1614D01*
X4233Y1615D01*
X4234Y1615D01*
X4235Y1615D01*
X4235Y1616D01*
X4236Y1616D01*
X4236Y1616D01*
X4236Y1616D01*
X4236Y1616D01*
X4237Y1616D01*
X4237Y1617D01*
X4238Y1618D01*
X4238Y1619D01*
X4239Y1620D01*
X4239Y1621D01*
X4239Y1621D01*
X4239Y1622D01*
X4239Y1622D01*
X4239Y1623D01*
X4238Y1625D01*
X4238Y1626D01*
X4237Y1627D01*
X4237Y1628D01*
X4236Y1628D01*
X4236Y1629D01*
X4236Y1629D01*
X4235Y1629D01*
X4234Y1630D01*
X4232Y1630D01*
X4231Y1631D01*
X4229Y1631D01*
X4227Y1631D01*
X4226Y1631D01*
X4226Y1631D01*
X4223Y1631D01*
X4222Y1631D01*
X4221Y1631D01*
X4220Y1631D01*
X4219Y1631D01*
X4218Y1630D01*
X4217Y1630D01*
X4216Y1630D01*
X4216Y1630D01*
X4215Y1629D01*
X4215Y1629D01*
X4214Y1629D01*
X4214Y1629D01*
X4214Y1629D01*
X4214Y1628D01*
X4212Y1627D01*
X4211Y1626D01*
X4211Y1624D01*
X4210Y1623D01*
X4210Y1622D01*
X4210Y1621D01*
X4209Y1620D01*
X4209Y1620D01*
X4209Y1620D01*
X4209Y1620D01*
X4209Y1619D01*
X4201Y1620D01*
X4201Y1622D01*
X4202Y1624D01*
X4202Y1626D01*
X4203Y1627D01*
X4203Y1628D01*
X4204Y1629D01*
X4204Y1629D01*
X4204Y1629D01*
X4204Y1630D01*
X4204Y1630D01*
X4204Y1630D01*
X4205Y1631D01*
X4207Y1633D01*
X4208Y1634D01*
X4210Y1635D01*
X4211Y1636D01*
X4212Y1636D01*
X4212Y1636D01*
X4212Y1637D01*
X4213Y1637D01*
X4213Y1637D01*
X4215Y1637D01*
X4217Y1638D01*
X4219Y1638D01*
X4221Y1639D01*
X4222Y1639D01*
X4222Y1639D01*
X4223Y1639D01*
X4224Y1639D01*
X4225Y1639D01*
X4227Y1639D01*
X4227Y1639D02*
G37*
G36*
X3982Y1639D02*
X3984Y1639D01*
X3986Y1638D01*
X3988Y1638D01*
X3990Y1637D01*
X3992Y1636D01*
X3994Y1635D01*
X3995Y1634D01*
X3997Y1634D01*
X3998Y1633D01*
X3999Y1632D01*
X4000Y1631D01*
X4000Y1631D01*
X4001Y1630D01*
X4001Y1630D01*
X4001Y1630D01*
X4003Y1628D01*
X4004Y1626D01*
X4005Y1624D01*
X4006Y1622D01*
X4007Y1620D01*
X4007Y1618D01*
X4008Y1616D01*
X4008Y1614D01*
X4009Y1613D01*
X4009Y1611D01*
X4009Y1609D01*
X4009Y1608D01*
X4009Y1607D01*
X4010Y1606D01*
X4010Y1606D01*
X4010Y1606D01*
X4010Y1606D01*
X4010Y1605D01*
X4009Y1604D01*
X4009Y1602D01*
X4009Y1599D01*
X4008Y1597D01*
X4008Y1596D01*
X4008Y1594D01*
X4007Y1593D01*
X4007Y1593D01*
X4007Y1592D01*
X4006Y1591D01*
X4006Y1590D01*
X4006Y1590D01*
X4006Y1590D01*
X4006Y1590D01*
X4004Y1587D01*
X4003Y1585D01*
X4002Y1584D01*
X4001Y1583D01*
X4000Y1582D01*
X3999Y1581D01*
X3998Y1580D01*
X3998Y1580D01*
X3997Y1579D01*
X3996Y1579D01*
X3996Y1578D01*
X3996Y1578D01*
X3995Y1578D01*
X3995Y1578D01*
X3994Y1577D01*
X3993Y1577D01*
X3991Y1576D01*
X3990Y1576D01*
X3987Y1575D01*
X3985Y1574D01*
X3984Y1574D01*
X3983Y1574D01*
X3982Y1574D01*
X3981Y1574D01*
X3980Y1574D01*
X3979Y1574D01*
X3978Y1574D01*
X3976Y1574D01*
X3974Y1574D01*
X3971Y1575D01*
X3970Y1575D01*
X3969Y1576D01*
X3968Y1576D01*
X3967Y1576D01*
X3966Y1577D01*
X3965Y1577D01*
X3965Y1577D01*
X3964Y1577D01*
X3964Y1578D01*
X3964Y1578D01*
X3963Y1578D01*
X3962Y1579D01*
X3959Y1581D01*
X3958Y1583D01*
X3957Y1584D01*
X3956Y1585D01*
X3955Y1586D01*
X3955Y1586D01*
X3954Y1587D01*
X3954Y1588D01*
X3954Y1588D01*
X3953Y1589D01*
X3953Y1589D01*
X3953Y1589D01*
X3953Y1590D01*
X3952Y1592D01*
X3951Y1595D01*
X3950Y1598D01*
X3950Y1599D01*
X3950Y1600D01*
X3950Y1602D01*
X3949Y1603D01*
X3949Y1604D01*
X3949Y1605D01*
X3949Y1605D01*
X3949Y1606D01*
X3949Y1606D01*
X3949Y1606D01*
X3949Y1608D01*
X3949Y1610D01*
X3950Y1613D01*
X3950Y1614D01*
X3950Y1616D01*
X3951Y1617D01*
X3951Y1618D01*
X3951Y1619D01*
X3952Y1620D01*
X3952Y1621D01*
X3952Y1622D01*
X3953Y1622D01*
X3953Y1623D01*
X3953Y1623D01*
X3953Y1623D01*
X3954Y1626D01*
X3955Y1627D01*
X3956Y1628D01*
X3957Y1629D01*
X3958Y1630D01*
X3959Y1631D01*
X3960Y1632D01*
X3960Y1632D01*
X3961Y1633D01*
X3962Y1634D01*
X3963Y1634D01*
X3963Y1634D01*
X3963Y1635D01*
X3964Y1635D01*
X3964Y1635D01*
X3965Y1635D01*
X3966Y1636D01*
X3968Y1637D01*
X3969Y1637D01*
X3972Y1638D01*
X3974Y1638D01*
X3975Y1639D01*
X3976Y1639D01*
X3977Y1639D01*
X3978Y1639D01*
X3979Y1639D01*
X3979Y1639D01*
X3982Y1639D01*
X3982Y1639D02*
G37*
G36*
X3969Y950D02*
X3970Y950D01*
X3971Y950D01*
X3972Y950D01*
X3973Y949D01*
X3975Y949D01*
X3978Y948D01*
X3980Y948D01*
X3980Y948D01*
X3980Y948D01*
X3980Y947D01*
X3981Y947D01*
X3982Y947D01*
X3983Y946D01*
X3984Y945D01*
X3985Y944D01*
X3987Y942D01*
X3988Y941D01*
X3988Y941D01*
X3988Y941D01*
X3988Y941D01*
X3988Y940D01*
X3989Y940D01*
X3989Y939D01*
X3989Y938D01*
X3990Y937D01*
X3991Y935D01*
X3991Y933D01*
X3991Y931D01*
X3983Y931D01*
X3983Y931D01*
X3983Y931D01*
X3983Y931D01*
X3983Y932D01*
X3983Y932D01*
X3983Y933D01*
X3982Y934D01*
X3982Y935D01*
X3981Y937D01*
X3980Y938D01*
X3979Y939D01*
X3978Y940D01*
X3978Y940D01*
X3978Y940D01*
X3978Y940D01*
X3977Y940D01*
X3976Y941D01*
X3976Y941D01*
X3975Y941D01*
X3974Y942D01*
X3973Y942D01*
X3972Y942D01*
X3971Y942D01*
X3970Y942D01*
X3969Y942D01*
X3966Y942D01*
X3966Y942D01*
X3965Y942D01*
X3964Y942D01*
X3962Y942D01*
X3960Y941D01*
X3958Y941D01*
X3957Y940D01*
X3957Y940D01*
X3957Y940D01*
X3956Y939D01*
X3956Y939D01*
X3955Y938D01*
X3954Y937D01*
X3954Y936D01*
X3953Y934D01*
X3953Y933D01*
X3953Y933D01*
X3953Y932D01*
X3953Y932D01*
X3954Y931D01*
X3954Y930D01*
X3954Y929D01*
X3955Y928D01*
X3956Y927D01*
X3956Y927D01*
X3956Y927D01*
X3956Y927D01*
X3957Y927D01*
X3957Y927D01*
X3958Y926D01*
X3958Y926D01*
X3959Y926D01*
X3960Y925D01*
X3961Y925D01*
X3962Y925D01*
X3963Y924D01*
X3965Y924D01*
X3966Y923D01*
X3968Y923D01*
X3968Y923D01*
X3969Y923D01*
X3969Y923D01*
X3970Y923D01*
X3971Y922D01*
X3972Y922D01*
X3973Y922D01*
X3974Y922D01*
X3976Y921D01*
X3978Y920D01*
X3979Y920D01*
X3980Y920D01*
X3981Y919D01*
X3982Y919D01*
X3982Y919D01*
X3982Y919D01*
X3983Y919D01*
X3983Y918D01*
X3984Y918D01*
X3985Y917D01*
X3987Y916D01*
X3988Y915D01*
X3989Y914D01*
X3990Y912D01*
X3990Y912D01*
X3990Y912D01*
X3991Y912D01*
X3991Y912D01*
X3991Y911D01*
X3992Y910D01*
X3992Y909D01*
X3993Y907D01*
X3993Y905D01*
X3993Y904D01*
X3993Y903D01*
X3993Y903D01*
X3993Y903D01*
X3993Y903D01*
X3993Y902D01*
X3993Y902D01*
X3993Y901D01*
X3992Y899D01*
X3992Y897D01*
X3991Y896D01*
X3990Y894D01*
X3990Y894D01*
X3990Y894D01*
X3990Y894D01*
X3990Y893D01*
X3989Y893D01*
X3988Y892D01*
X3987Y891D01*
X3985Y889D01*
X3984Y888D01*
X3982Y887D01*
X3982Y887D01*
X3981Y887D01*
X3981Y887D01*
X3981Y887D01*
X3980Y887D01*
X3980Y886D01*
X3979Y886D01*
X3978Y886D01*
X3976Y886D01*
X3974Y885D01*
X3972Y885D01*
X3970Y885D01*
X3969Y885D01*
X3968Y885D01*
X3968Y885D01*
X3967Y885D01*
X3966Y885D01*
X3965Y885D01*
X3962Y885D01*
X3960Y886D01*
X3958Y886D01*
X3955Y887D01*
X3955Y887D01*
X3955Y887D01*
X3955Y887D01*
X3954Y888D01*
X3954Y888D01*
X3953Y888D01*
X3952Y889D01*
X3951Y890D01*
X3949Y891D01*
X3948Y893D01*
X3946Y895D01*
X3946Y895D01*
X3946Y895D01*
X3946Y895D01*
X3946Y896D01*
X3946Y896D01*
X3945Y897D01*
X3945Y897D01*
X3945Y898D01*
X3944Y900D01*
X3943Y902D01*
X3943Y904D01*
X3943Y906D01*
X3951Y907D01*
X3951Y907D01*
X3951Y907D01*
X3951Y906D01*
X3951Y906D01*
X3951Y905D01*
X3951Y904D01*
X3952Y903D01*
X3952Y901D01*
X3953Y900D01*
X3953Y899D01*
X3953Y899D01*
X3954Y898D01*
X3954Y898D01*
X3955Y897D01*
X3956Y896D01*
X3957Y896D01*
X3958Y895D01*
X3960Y894D01*
X3960Y894D01*
X3960Y894D01*
X3960Y894D01*
X3960Y894D01*
X3961Y894D01*
X3961Y893D01*
X3962Y893D01*
X3964Y893D01*
X3965Y892D01*
X3967Y892D01*
X3969Y892D01*
X3970Y892D01*
X3971Y892D01*
X3972Y892D01*
X3973Y893D01*
X3975Y893D01*
X3976Y893D01*
X3978Y894D01*
X3978Y894D01*
X3978Y894D01*
X3978Y894D01*
X3979Y894D01*
X3980Y895D01*
X3981Y895D01*
X3981Y896D01*
X3982Y897D01*
X3983Y897D01*
X3983Y898D01*
X3983Y898D01*
X3984Y898D01*
X3984Y899D01*
X3984Y900D01*
X3985Y901D01*
X3985Y902D01*
X3985Y903D01*
X3985Y903D01*
X3985Y903D01*
X3985Y904D01*
X3985Y905D01*
X3985Y905D01*
X3984Y906D01*
X3984Y907D01*
X3983Y908D01*
X3983Y908D01*
X3983Y908D01*
X3982Y909D01*
X3982Y909D01*
X3981Y910D01*
X3980Y911D01*
X3979Y911D01*
X3977Y912D01*
X3977Y912D01*
X3977Y912D01*
X3977Y912D01*
X3976Y912D01*
X3976Y912D01*
X3975Y912D01*
X3974Y913D01*
X3974Y913D01*
X3973Y913D01*
X3972Y913D01*
X3970Y914D01*
X3969Y914D01*
X3968Y914D01*
X3966Y915D01*
X3966Y915D01*
X3966Y915D01*
X3965Y915D01*
X3965Y915D01*
X3964Y915D01*
X3963Y916D01*
X3961Y916D01*
X3960Y917D01*
X3957Y917D01*
X3956Y918D01*
X3955Y918D01*
X3954Y919D01*
X3954Y919D01*
X3954Y919D01*
X3954Y919D01*
X3953Y919D01*
X3953Y920D01*
X3952Y920D01*
X3950Y921D01*
X3949Y922D01*
X3948Y923D01*
X3947Y925D01*
X3947Y925D01*
X3947Y925D01*
X3947Y925D01*
X3947Y926D01*
X3946Y927D01*
X3946Y928D01*
X3946Y929D01*
X3945Y931D01*
X3945Y932D01*
X3945Y933D01*
X3945Y933D01*
X3945Y933D01*
X3945Y933D01*
X3945Y934D01*
X3946Y935D01*
X3946Y937D01*
X3946Y938D01*
X3947Y940D01*
X3948Y941D01*
X3948Y942D01*
X3948Y942D01*
X3948Y942D01*
X3949Y943D01*
X3950Y944D01*
X3951Y945D01*
X3952Y946D01*
X3954Y947D01*
X3956Y948D01*
X3956Y948D01*
X3956Y948D01*
X3956Y948D01*
X3957Y948D01*
X3957Y948D01*
X3958Y948D01*
X3958Y949D01*
X3959Y949D01*
X3961Y949D01*
X3963Y950D01*
X3965Y950D01*
X3967Y950D01*
X3969Y950D01*
X3969Y950D01*
X3969Y950D02*
G37*
G36*
X3828Y950D02*
X3829Y950D01*
X3830Y950D01*
X3831Y950D01*
X3832Y949D01*
X3834Y949D01*
X3836Y948D01*
X3837Y948D01*
X3838Y947D01*
X3840Y947D01*
X3841Y946D01*
X3842Y945D01*
X3842Y945D01*
X3842Y945D01*
X3843Y945D01*
X3843Y944D01*
X3844Y944D01*
X3844Y943D01*
X3845Y942D01*
X3846Y942D01*
X3846Y941D01*
X3847Y940D01*
X3848Y939D01*
X3849Y937D01*
X3849Y936D01*
X3850Y935D01*
X3851Y933D01*
X3851Y932D01*
X3843Y930D01*
X3843Y930D01*
X3843Y930D01*
X3843Y930D01*
X3843Y931D01*
X3842Y931D01*
X3842Y932D01*
X3841Y933D01*
X3840Y935D01*
X3839Y937D01*
X3838Y938D01*
X3837Y939D01*
X3837Y940D01*
X3837Y940D01*
X3836Y940D01*
X3836Y940D01*
X3836Y940D01*
X3835Y940D01*
X3835Y941D01*
X3834Y941D01*
X3832Y942D01*
X3830Y942D01*
X3828Y943D01*
X3826Y943D01*
X3825Y943D01*
X3825Y943D01*
X3824Y943D01*
X3823Y943D01*
X3823Y942D01*
X3822Y942D01*
X3820Y942D01*
X3818Y941D01*
X3816Y940D01*
X3815Y940D01*
X3814Y939D01*
X3814Y939D01*
X3814Y939D01*
X3813Y939D01*
X3813Y939D01*
X3812Y938D01*
X3811Y937D01*
X3810Y936D01*
X3809Y934D01*
X3808Y932D01*
X3807Y930D01*
X3807Y930D01*
X3807Y930D01*
X3807Y929D01*
X3807Y929D01*
X3806Y928D01*
X3806Y928D01*
X3806Y927D01*
X3806Y926D01*
X3806Y924D01*
X3805Y922D01*
X3805Y920D01*
X3805Y918D01*
X3805Y918D01*
X3805Y917D01*
X3805Y917D01*
X3805Y916D01*
X3805Y916D01*
X3805Y915D01*
X3805Y914D01*
X3805Y913D01*
X3806Y911D01*
X3806Y909D01*
X3807Y906D01*
X3807Y904D01*
X3807Y904D01*
X3807Y904D01*
X3808Y903D01*
X3808Y903D01*
X3808Y902D01*
X3808Y902D01*
X3809Y900D01*
X3810Y899D01*
X3811Y897D01*
X3813Y896D01*
X3815Y895D01*
X3815Y895D01*
X3815Y895D01*
X3815Y895D01*
X3816Y894D01*
X3816Y894D01*
X3816Y894D01*
X3818Y893D01*
X3819Y893D01*
X3821Y892D01*
X3823Y892D01*
X3825Y892D01*
X3826Y892D01*
X3827Y892D01*
X3827Y892D01*
X3828Y892D01*
X3829Y892D01*
X3829Y892D01*
X3831Y893D01*
X3833Y894D01*
X3834Y894D01*
X3835Y895D01*
X3836Y895D01*
X3837Y896D01*
X3837Y896D01*
X3837Y896D01*
X3838Y896D01*
X3838Y897D01*
X3838Y897D01*
X3839Y898D01*
X3839Y898D01*
X3840Y899D01*
X3840Y900D01*
X3841Y901D01*
X3842Y902D01*
X3842Y903D01*
X3843Y904D01*
X3843Y905D01*
X3843Y906D01*
X3844Y908D01*
X3852Y906D01*
X3852Y906D01*
X3852Y905D01*
X3852Y905D01*
X3852Y904D01*
X3851Y903D01*
X3851Y902D01*
X3851Y901D01*
X3850Y900D01*
X3849Y899D01*
X3849Y897D01*
X3848Y896D01*
X3847Y895D01*
X3846Y894D01*
X3845Y892D01*
X3844Y891D01*
X3843Y890D01*
X3843Y890D01*
X3842Y890D01*
X3842Y890D01*
X3842Y889D01*
X3841Y889D01*
X3840Y888D01*
X3839Y888D01*
X3838Y887D01*
X3837Y887D01*
X3836Y886D01*
X3834Y886D01*
X3833Y886D01*
X3831Y885D01*
X3830Y885D01*
X3828Y885D01*
X3826Y885D01*
X3825Y885D01*
X3824Y885D01*
X3824Y885D01*
X3822Y885D01*
X3821Y885D01*
X3820Y885D01*
X3818Y886D01*
X3815Y886D01*
X3813Y887D01*
X3812Y888D01*
X3811Y888D01*
X3809Y889D01*
X3809Y889D01*
X3809Y889D01*
X3809Y889D01*
X3808Y890D01*
X3808Y890D01*
X3807Y891D01*
X3807Y891D01*
X3806Y892D01*
X3805Y893D01*
X3804Y894D01*
X3803Y895D01*
X3803Y896D01*
X3802Y897D01*
X3801Y898D01*
X3800Y900D01*
X3800Y901D01*
X3800Y901D01*
X3800Y901D01*
X3799Y902D01*
X3799Y902D01*
X3799Y903D01*
X3799Y904D01*
X3798Y905D01*
X3798Y906D01*
X3798Y907D01*
X3797Y909D01*
X3797Y910D01*
X3797Y911D01*
X3797Y915D01*
X3796Y918D01*
X3796Y918D01*
X3796Y918D01*
X3796Y919D01*
X3796Y919D01*
X3796Y920D01*
X3797Y921D01*
X3797Y922D01*
X3797Y924D01*
X3797Y925D01*
X3797Y926D01*
X3798Y929D01*
X3799Y932D01*
X3799Y934D01*
X3800Y935D01*
X3800Y935D01*
X3800Y935D01*
X3801Y936D01*
X3801Y936D01*
X3801Y937D01*
X3802Y937D01*
X3802Y938D01*
X3803Y939D01*
X3804Y941D01*
X3806Y943D01*
X3808Y945D01*
X3810Y945D01*
X3811Y946D01*
X3811Y946D01*
X3811Y946D01*
X3812Y946D01*
X3812Y947D01*
X3813Y947D01*
X3813Y947D01*
X3814Y948D01*
X3815Y948D01*
X3816Y948D01*
X3818Y949D01*
X3820Y949D01*
X3823Y950D01*
X3825Y950D01*
X3827Y950D01*
X3828Y950D01*
X3828Y950D02*
G37*
G36*
X4011Y926D02*
X4011Y926D01*
X4011Y926D01*
X4012Y927D01*
X4012Y927D01*
X4013Y928D01*
X4013Y928D01*
X4014Y929D01*
X4015Y929D01*
X4016Y930D01*
X4017Y931D01*
X4018Y931D01*
X4019Y932D01*
X4020Y932D01*
X4022Y932D01*
X4023Y932D01*
X4025Y932D01*
X4026Y932D01*
X4027Y932D01*
X4028Y932D01*
X4029Y932D01*
X4030Y932D01*
X4032Y931D01*
X4033Y930D01*
X4033Y930D01*
X4034Y930D01*
X4034Y930D01*
X4035Y930D01*
X4036Y929D01*
X4036Y928D01*
X4037Y927D01*
X4038Y926D01*
X4039Y925D01*
X4039Y925D01*
X4039Y924D01*
X4039Y923D01*
X4040Y922D01*
X4040Y921D01*
X4040Y919D01*
X4040Y917D01*
X4040Y915D01*
X4040Y886D01*
X4033Y886D01*
X4033Y915D01*
X4033Y915D01*
X4033Y915D01*
X4033Y915D01*
X4033Y916D01*
X4033Y916D01*
X4033Y917D01*
X4032Y918D01*
X4032Y919D01*
X4032Y921D01*
X4031Y922D01*
X4030Y923D01*
X4030Y923D01*
X4030Y924D01*
X4029Y924D01*
X4028Y925D01*
X4027Y925D01*
X4026Y925D01*
X4025Y926D01*
X4023Y926D01*
X4022Y926D01*
X4022Y926D01*
X4021Y926D01*
X4020Y925D01*
X4019Y925D01*
X4018Y925D01*
X4017Y924D01*
X4016Y924D01*
X4016Y924D01*
X4016Y923D01*
X4015Y923D01*
X4014Y922D01*
X4014Y921D01*
X4013Y920D01*
X4012Y919D01*
X4012Y919D01*
X4012Y919D01*
X4012Y918D01*
X4012Y917D01*
X4011Y916D01*
X4011Y914D01*
X4011Y913D01*
X4011Y911D01*
X4011Y886D01*
X4003Y886D01*
X4003Y949D01*
X4011Y949D01*
X4011Y926D01*
X4011Y926D02*
G37*
G36*
X3888Y949D02*
X3888Y949D01*
X3890Y949D01*
X3892Y948D01*
X3894Y948D01*
X3896Y948D01*
X3897Y947D01*
X3897Y947D01*
X3898Y947D01*
X3898Y947D01*
X3898Y947D01*
X3899Y946D01*
X3900Y945D01*
X3901Y945D01*
X3902Y944D01*
X3903Y942D01*
X3904Y941D01*
X3904Y941D01*
X3904Y941D01*
X3905Y940D01*
X3905Y940D01*
X3905Y938D01*
X3906Y937D01*
X3906Y936D01*
X3907Y934D01*
X3907Y933D01*
X3907Y933D01*
X3907Y933D01*
X3907Y932D01*
X3907Y932D01*
X3907Y931D01*
X3906Y930D01*
X3906Y929D01*
X3906Y928D01*
X3905Y926D01*
X3904Y925D01*
X3904Y925D01*
X3904Y924D01*
X3904Y924D01*
X3903Y923D01*
X3902Y922D01*
X3901Y921D01*
X3899Y920D01*
X3898Y919D01*
X3898Y919D01*
X3898Y919D01*
X3898Y919D01*
X3899Y919D01*
X3899Y919D01*
X3900Y919D01*
X3901Y918D01*
X3903Y917D01*
X3904Y916D01*
X3905Y915D01*
X3907Y914D01*
X3907Y913D01*
X3907Y913D01*
X3907Y913D01*
X3907Y913D01*
X3908Y912D01*
X3908Y911D01*
X3909Y909D01*
X3909Y908D01*
X3910Y906D01*
X3910Y904D01*
X3910Y904D01*
X3910Y904D01*
X3910Y904D01*
X3910Y903D01*
X3910Y902D01*
X3909Y901D01*
X3909Y900D01*
X3909Y899D01*
X3909Y897D01*
X3908Y896D01*
X3908Y896D01*
X3908Y895D01*
X3907Y895D01*
X3907Y894D01*
X3906Y893D01*
X3905Y892D01*
X3904Y891D01*
X3903Y890D01*
X3903Y890D01*
X3903Y890D01*
X3902Y889D01*
X3901Y889D01*
X3900Y888D01*
X3899Y888D01*
X3898Y887D01*
X3896Y887D01*
X3896Y887D01*
X3896Y887D01*
X3896Y887D01*
X3895Y887D01*
X3895Y886D01*
X3893Y886D01*
X3892Y886D01*
X3890Y886D01*
X3888Y886D01*
X3886Y886D01*
X3862Y886D01*
X3862Y949D01*
X3887Y949D01*
X3888Y949D01*
X3888Y949D02*
G37*
G36*
X3767Y949D02*
X3769Y949D01*
X3771Y949D01*
X3772Y948D01*
X3773Y948D01*
X3774Y948D01*
X3774Y948D01*
X3774Y948D01*
X3775Y948D01*
X3776Y948D01*
X3777Y947D01*
X3779Y947D01*
X3780Y946D01*
X3781Y945D01*
X3781Y945D01*
X3782Y945D01*
X3782Y944D01*
X3783Y944D01*
X3784Y943D01*
X3785Y942D01*
X3786Y941D01*
X3786Y939D01*
X3786Y939D01*
X3786Y939D01*
X3786Y939D01*
X3787Y939D01*
X3787Y938D01*
X3787Y937D01*
X3788Y935D01*
X3788Y934D01*
X3788Y932D01*
X3788Y931D01*
X3788Y931D01*
X3788Y930D01*
X3788Y930D01*
X3788Y929D01*
X3788Y929D01*
X3788Y928D01*
X3788Y927D01*
X3788Y926D01*
X3787Y924D01*
X3787Y923D01*
X3786Y921D01*
X3785Y920D01*
X3785Y919D01*
X3784Y918D01*
X3783Y917D01*
X3783Y917D01*
X3783Y917D01*
X3782Y916D01*
X3782Y916D01*
X3781Y916D01*
X3781Y915D01*
X3780Y915D01*
X3779Y914D01*
X3778Y914D01*
X3776Y913D01*
X3775Y913D01*
X3773Y912D01*
X3771Y912D01*
X3769Y912D01*
X3767Y911D01*
X3765Y911D01*
X3749Y911D01*
X3749Y886D01*
X3740Y886D01*
X3740Y949D01*
X3766Y949D01*
X3767Y949D01*
X3767Y949D02*
G37*
G36*
X4159Y932D02*
X4167Y932D01*
X4167Y926D01*
X4159Y926D01*
X4159Y899D01*
X4159Y899D01*
X4159Y898D01*
X4159Y898D01*
X4159Y897D01*
X4159Y896D01*
X4159Y896D01*
X4160Y895D01*
X4160Y894D01*
X4160Y894D01*
X4160Y894D01*
X4160Y893D01*
X4161Y893D01*
X4161Y893D01*
X4161Y893D01*
X4161Y893D01*
X4162Y893D01*
X4162Y893D01*
X4164Y892D01*
X4165Y892D01*
X4165Y893D01*
X4166Y893D01*
X4166Y893D01*
X4167Y893D01*
X4168Y886D01*
X4168Y886D01*
X4168Y886D01*
X4167Y886D01*
X4166Y886D01*
X4165Y885D01*
X4164Y885D01*
X4162Y885D01*
X4162Y885D01*
X4161Y885D01*
X4160Y885D01*
X4159Y886D01*
X4158Y886D01*
X4157Y886D01*
X4156Y887D01*
X4156Y887D01*
X4155Y887D01*
X4155Y887D01*
X4155Y887D01*
X4154Y888D01*
X4153Y889D01*
X4153Y889D01*
X4152Y890D01*
X4152Y890D01*
X4152Y891D01*
X4152Y891D01*
X4152Y892D01*
X4152Y893D01*
X4152Y893D01*
X4152Y894D01*
X4152Y895D01*
X4152Y896D01*
X4152Y897D01*
X4152Y898D01*
X4152Y899D01*
X4152Y926D01*
X4146Y926D01*
X4146Y932D01*
X4152Y932D01*
X4152Y943D01*
X4159Y947D01*
X4159Y932D01*
X4159Y932D02*
G37*
G36*
X4121Y932D02*
X4122Y932D01*
X4123Y932D01*
X4124Y932D01*
X4125Y932D01*
X4126Y931D01*
X4128Y931D01*
X4129Y930D01*
X4130Y930D01*
X4131Y929D01*
X4133Y928D01*
X4134Y927D01*
X4135Y926D01*
X4135Y926D01*
X4135Y926D01*
X4135Y926D01*
X4136Y925D01*
X4136Y924D01*
X4137Y924D01*
X4137Y923D01*
X4138Y922D01*
X4138Y921D01*
X4139Y919D01*
X4139Y918D01*
X4140Y916D01*
X4140Y915D01*
X4140Y913D01*
X4141Y911D01*
X4141Y909D01*
X4141Y909D01*
X4141Y908D01*
X4141Y908D01*
X4141Y907D01*
X4107Y907D01*
X4107Y907D01*
X4107Y906D01*
X4107Y906D01*
X4107Y905D01*
X4107Y905D01*
X4107Y904D01*
X4107Y902D01*
X4108Y901D01*
X4109Y899D01*
X4110Y897D01*
X4110Y896D01*
X4111Y895D01*
X4111Y895D01*
X4111Y895D01*
X4111Y895D01*
X4111Y895D01*
X4112Y894D01*
X4113Y893D01*
X4115Y892D01*
X4116Y892D01*
X4118Y891D01*
X4119Y891D01*
X4120Y891D01*
X4121Y891D01*
X4122Y891D01*
X4123Y891D01*
X4124Y892D01*
X4125Y892D01*
X4126Y893D01*
X4128Y893D01*
X4128Y894D01*
X4128Y894D01*
X4129Y894D01*
X4129Y895D01*
X4130Y896D01*
X4131Y897D01*
X4132Y899D01*
X4132Y901D01*
X4140Y900D01*
X4140Y900D01*
X4140Y899D01*
X4140Y899D01*
X4140Y898D01*
X4140Y898D01*
X4139Y897D01*
X4139Y896D01*
X4138Y894D01*
X4137Y892D01*
X4135Y890D01*
X4133Y889D01*
X4133Y889D01*
X4133Y889D01*
X4133Y888D01*
X4133Y888D01*
X4132Y888D01*
X4131Y887D01*
X4131Y887D01*
X4130Y887D01*
X4129Y886D01*
X4128Y886D01*
X4127Y886D01*
X4126Y885D01*
X4123Y885D01*
X4122Y885D01*
X4120Y885D01*
X4120Y885D01*
X4119Y885D01*
X4119Y885D01*
X4118Y885D01*
X4117Y885D01*
X4116Y885D01*
X4115Y886D01*
X4113Y886D01*
X4112Y886D01*
X4111Y887D01*
X4109Y887D01*
X4108Y888D01*
X4107Y889D01*
X4106Y890D01*
X4104Y891D01*
X4104Y891D01*
X4104Y891D01*
X4104Y892D01*
X4104Y892D01*
X4103Y893D01*
X4103Y894D01*
X4102Y894D01*
X4102Y895D01*
X4101Y897D01*
X4100Y898D01*
X4100Y899D01*
X4100Y901D01*
X4099Y903D01*
X4099Y904D01*
X4099Y906D01*
X4099Y908D01*
X4099Y908D01*
X4099Y909D01*
X4099Y909D01*
X4099Y910D01*
X4099Y911D01*
X4099Y912D01*
X4099Y913D01*
X4099Y915D01*
X4100Y916D01*
X4100Y918D01*
X4101Y919D01*
X4101Y921D01*
X4102Y922D01*
X4103Y924D01*
X4103Y925D01*
X4105Y926D01*
X4105Y926D01*
X4105Y926D01*
X4105Y927D01*
X4106Y927D01*
X4106Y928D01*
X4107Y928D01*
X4108Y929D01*
X4109Y929D01*
X4110Y930D01*
X4111Y930D01*
X4112Y931D01*
X4114Y932D01*
X4115Y932D01*
X4117Y932D01*
X4118Y932D01*
X4120Y932D01*
X4121Y932D01*
X4121Y932D01*
X4121Y932D02*
G37*
G36*
X4073Y932D02*
X4073Y932D01*
X4074Y932D01*
X4075Y932D01*
X4076Y932D01*
X4077Y931D01*
X4079Y931D01*
X4080Y930D01*
X4081Y930D01*
X4082Y929D01*
X4084Y928D01*
X4085Y927D01*
X4086Y926D01*
X4086Y926D01*
X4086Y926D01*
X4087Y926D01*
X4087Y925D01*
X4087Y924D01*
X4088Y924D01*
X4088Y923D01*
X4089Y922D01*
X4089Y921D01*
X4090Y919D01*
X4090Y918D01*
X4091Y916D01*
X4091Y915D01*
X4092Y913D01*
X4092Y911D01*
X4092Y909D01*
X4092Y909D01*
X4092Y908D01*
X4092Y908D01*
X4092Y907D01*
X4058Y907D01*
X4058Y907D01*
X4058Y906D01*
X4058Y906D01*
X4058Y905D01*
X4058Y905D01*
X4058Y904D01*
X4058Y902D01*
X4059Y901D01*
X4060Y899D01*
X4061Y897D01*
X4061Y896D01*
X4062Y895D01*
X4062Y895D01*
X4062Y895D01*
X4062Y895D01*
X4062Y895D01*
X4063Y894D01*
X4064Y893D01*
X4066Y892D01*
X4068Y892D01*
X4069Y891D01*
X4070Y891D01*
X4071Y891D01*
X4072Y891D01*
X4073Y891D01*
X4074Y891D01*
X4075Y892D01*
X4076Y892D01*
X4078Y893D01*
X4079Y893D01*
X4079Y894D01*
X4079Y894D01*
X4080Y894D01*
X4080Y895D01*
X4081Y896D01*
X4082Y897D01*
X4083Y899D01*
X4083Y901D01*
X4091Y900D01*
X4091Y900D01*
X4091Y899D01*
X4091Y899D01*
X4091Y898D01*
X4091Y898D01*
X4091Y897D01*
X4090Y896D01*
X4089Y894D01*
X4088Y892D01*
X4086Y890D01*
X4084Y889D01*
X4084Y889D01*
X4084Y889D01*
X4084Y888D01*
X4084Y888D01*
X4083Y888D01*
X4082Y887D01*
X4082Y887D01*
X4081Y887D01*
X4080Y886D01*
X4079Y886D01*
X4078Y886D01*
X4077Y885D01*
X4074Y885D01*
X4073Y885D01*
X4071Y885D01*
X4071Y885D01*
X4070Y885D01*
X4070Y885D01*
X4069Y885D01*
X4068Y885D01*
X4067Y885D01*
X4066Y886D01*
X4064Y886D01*
X4063Y886D01*
X4062Y887D01*
X4061Y887D01*
X4059Y888D01*
X4058Y889D01*
X4057Y890D01*
X4056Y891D01*
X4055Y891D01*
X4055Y891D01*
X4055Y892D01*
X4055Y892D01*
X4054Y893D01*
X4054Y894D01*
X4053Y894D01*
X4053Y895D01*
X4052Y897D01*
X4052Y898D01*
X4051Y899D01*
X4051Y901D01*
X4050Y903D01*
X4050Y904D01*
X4050Y906D01*
X4050Y908D01*
X4050Y908D01*
X4050Y909D01*
X4050Y909D01*
X4050Y910D01*
X4050Y911D01*
X4050Y912D01*
X4050Y913D01*
X4050Y915D01*
X4051Y916D01*
X4051Y918D01*
X4052Y919D01*
X4052Y921D01*
X4053Y922D01*
X4054Y924D01*
X4055Y925D01*
X4056Y926D01*
X4056Y926D01*
X4056Y926D01*
X4056Y927D01*
X4057Y927D01*
X4057Y928D01*
X4058Y928D01*
X4059Y929D01*
X4060Y929D01*
X4061Y930D01*
X4062Y930D01*
X4063Y931D01*
X4065Y932D01*
X4066Y932D01*
X4068Y932D01*
X4069Y932D01*
X4071Y932D01*
X4072Y932D01*
X4073Y932D01*
X4073Y932D02*
G37*
G36*
X411Y734D02*
X433Y734D01*
X433Y728D01*
X410Y696D01*
X405Y696D01*
X405Y728D01*
X398Y728D01*
X398Y734D01*
X405Y734D01*
X405Y746D01*
X411Y746D01*
X411Y734D01*
X411Y734D02*
G37*
G36*
X1144Y767D02*
X1147Y767D01*
X1151Y765D01*
X1154Y763D01*
X1157Y760D01*
X1159Y757D01*
X1160Y754D01*
X1161Y750D01*
X1161Y748D01*
X1161Y330D01*
X1156Y329D01*
X1156Y330D01*
X1149Y340D01*
X1140Y349D01*
X1130Y356D01*
X1118Y361D01*
X1106Y363D01*
X1100Y363D01*
X1094Y363D01*
X1082Y361D01*
X1070Y356D01*
X1060Y349D01*
X1051Y340D01*
X1044Y330D01*
X1039Y318D01*
X1037Y306D01*
X1037Y300D01*
X1037Y294D01*
X1039Y282D01*
X1044Y270D01*
X1051Y260D01*
X1060Y251D01*
X1070Y244D01*
X1082Y239D01*
X1094Y237D01*
X1100Y237D01*
X1106Y237D01*
X1118Y239D01*
X1130Y244D01*
X1140Y251D01*
X1149Y260D01*
X1156Y270D01*
X1156Y271D01*
X1161Y270D01*
X1161Y37D01*
X1160Y34D01*
X1159Y30D01*
X1157Y27D01*
X1154Y24D01*
X1151Y22D01*
X1147Y21D01*
X1144Y20D01*
X1142Y20D01*
X37Y20D01*
X34Y21D01*
X30Y22D01*
X27Y24D01*
X24Y27D01*
X22Y30D01*
X21Y34D01*
X20Y37D01*
X20Y39D01*
X20Y748D01*
X20Y750D01*
X21Y754D01*
X22Y757D01*
X24Y760D01*
X27Y763D01*
X30Y765D01*
X34Y767D01*
X37Y767D01*
X39Y767D01*
X261Y767D01*
X262Y762D01*
X255Y758D01*
X246Y749D01*
X239Y738D01*
X235Y727D01*
X232Y715D01*
X232Y709D01*
X232Y702D01*
X235Y690D01*
X239Y679D01*
X246Y669D01*
X255Y660D01*
X265Y653D01*
X277Y648D01*
X289Y646D01*
X295Y646D01*
X301Y646D01*
X314Y648D01*
X325Y653D01*
X335Y660D01*
X344Y669D01*
X351Y679D01*
X356Y690D01*
X358Y699D01*
X363Y699D01*
X363Y674D01*
X364Y670D01*
X364Y669D01*
X365Y669D01*
X369Y668D01*
X374Y668D01*
X374Y668D01*
X458Y668D01*
X458Y668D01*
X463Y668D01*
X466Y669D01*
X733Y669D01*
X733Y767D01*
X773Y767D01*
X774Y762D01*
X767Y758D01*
X758Y749D01*
X751Y738D01*
X747Y727D01*
X744Y715D01*
X744Y709D01*
X744Y702D01*
X747Y690D01*
X751Y679D01*
X758Y669D01*
X767Y660D01*
X777Y653D01*
X789Y648D01*
X801Y646D01*
X813Y646D01*
X825Y648D01*
X837Y653D01*
X847Y660D01*
X856Y669D01*
X863Y679D01*
X868Y690D01*
X870Y702D01*
X870Y709D01*
X870Y715D01*
X868Y727D01*
X863Y738D01*
X856Y749D01*
X847Y758D01*
X840Y762D01*
X842Y767D01*
X1142Y767D01*
X1144Y767D01*
X1144Y767D02*
G37*
%LPC*%
G36*
X4303Y1625D02*
X4303Y1597D01*
X4323Y1597D01*
X4303Y1625D01*
X4303Y1625D02*
G37*
G36*
X4058Y1630D02*
X4043Y1630D01*
X4042Y1630D01*
X4041Y1630D01*
X4040Y1630D01*
X4039Y1630D01*
X4038Y1630D01*
X4038Y1630D01*
X4037Y1630D01*
X4036Y1630D01*
X4036Y1630D01*
X4036Y1629D01*
X4035Y1629D01*
X4034Y1629D01*
X4033Y1628D01*
X4032Y1628D01*
X4032Y1627D01*
X4031Y1627D01*
X4031Y1626D01*
X4031Y1626D01*
X4031Y1625D01*
X4030Y1624D01*
X4030Y1623D01*
X4030Y1623D01*
X4030Y1622D01*
X4030Y1621D01*
X4030Y1621D01*
X4030Y1621D01*
X4030Y1619D01*
X4030Y1618D01*
X4030Y1617D01*
X4031Y1617D01*
X4031Y1616D01*
X4031Y1616D01*
X4031Y1615D01*
X4031Y1615D01*
X4032Y1614D01*
X4033Y1614D01*
X4034Y1613D01*
X4034Y1613D01*
X4035Y1612D01*
X4036Y1612D01*
X4036Y1612D01*
X4036Y1612D01*
X4037Y1612D01*
X4038Y1612D01*
X4040Y1612D01*
X4041Y1611D01*
X4042Y1611D01*
X4058Y1611D01*
X4058Y1630D01*
X4058Y1630D02*
G37*
G36*
X4058Y1604D02*
X4043Y1604D01*
X4041Y1604D01*
X4039Y1604D01*
X4038Y1604D01*
X4036Y1603D01*
X4035Y1603D01*
X4035Y1603D01*
X4034Y1603D01*
X4034Y1603D01*
X4033Y1602D01*
X4032Y1602D01*
X4031Y1601D01*
X4030Y1601D01*
X4030Y1600D01*
X4029Y1600D01*
X4029Y1599D01*
X4029Y1599D01*
X4028Y1598D01*
X4028Y1597D01*
X4028Y1596D01*
X4027Y1595D01*
X4027Y1594D01*
X4027Y1594D01*
X4027Y1593D01*
X4027Y1593D01*
X4027Y1592D01*
X4027Y1591D01*
X4027Y1590D01*
X4028Y1589D01*
X4028Y1589D01*
X4028Y1588D01*
X4028Y1588D01*
X4028Y1588D01*
X4029Y1587D01*
X4029Y1586D01*
X4030Y1586D01*
X4030Y1585D01*
X4031Y1585D01*
X4031Y1584D01*
X4031Y1584D01*
X4032Y1584D01*
X4032Y1584D01*
X4033Y1583D01*
X4034Y1583D01*
X4035Y1583D01*
X4035Y1583D01*
X4036Y1583D01*
X4036Y1583D01*
X4036Y1583D01*
X4037Y1582D01*
X4038Y1582D01*
X4040Y1582D01*
X4058Y1582D01*
X4058Y1604D01*
X4058Y1604D02*
G37*
G36*
X3980Y1632D02*
X3979Y1632D01*
X3977Y1632D01*
X3975Y1631D01*
X3973Y1631D01*
X3971Y1630D01*
X3971Y1630D01*
X3970Y1629D01*
X3969Y1629D01*
X3969Y1629D01*
X3969Y1629D01*
X3968Y1629D01*
X3968Y1629D01*
X3968Y1629D01*
X3966Y1627D01*
X3965Y1626D01*
X3964Y1624D01*
X3962Y1623D01*
X3962Y1622D01*
X3961Y1621D01*
X3961Y1621D01*
X3961Y1620D01*
X3961Y1620D01*
X3960Y1620D01*
X3960Y1620D01*
X3960Y1617D01*
X3959Y1615D01*
X3959Y1613D01*
X3958Y1611D01*
X3958Y1610D01*
X3958Y1609D01*
X3958Y1608D01*
X3958Y1608D01*
X3958Y1607D01*
X3958Y1607D01*
X3958Y1606D01*
X3958Y1606D01*
X3958Y1604D01*
X3958Y1602D01*
X3958Y1600D01*
X3959Y1598D01*
X3959Y1596D01*
X3960Y1595D01*
X3960Y1593D01*
X3961Y1592D01*
X3961Y1591D01*
X3962Y1590D01*
X3963Y1589D01*
X3963Y1589D01*
X3963Y1588D01*
X3964Y1588D01*
X3964Y1588D01*
X3964Y1587D01*
X3965Y1586D01*
X3966Y1585D01*
X3968Y1584D01*
X3969Y1584D01*
X3970Y1583D01*
X3972Y1583D01*
X3973Y1582D01*
X3974Y1582D01*
X3975Y1581D01*
X3976Y1581D01*
X3977Y1581D01*
X3978Y1581D01*
X3979Y1581D01*
X3979Y1581D01*
X3980Y1581D01*
X3981Y1581D01*
X3983Y1581D01*
X3984Y1581D01*
X3986Y1582D01*
X3987Y1582D01*
X3988Y1583D01*
X3990Y1583D01*
X3991Y1584D01*
X3992Y1585D01*
X3992Y1585D01*
X3993Y1586D01*
X3994Y1586D01*
X3994Y1587D01*
X3995Y1587D01*
X3995Y1587D01*
X3995Y1587D01*
X3996Y1589D01*
X3997Y1590D01*
X3998Y1591D01*
X3998Y1593D01*
X3999Y1594D01*
X3999Y1596D01*
X4000Y1597D01*
X4000Y1599D01*
X4000Y1600D01*
X4001Y1601D01*
X4001Y1602D01*
X4001Y1603D01*
X4001Y1604D01*
X4001Y1605D01*
X4001Y1605D01*
X4001Y1605D01*
X4001Y1608D01*
X4001Y1610D01*
X4000Y1612D01*
X4000Y1614D01*
X3999Y1616D01*
X3999Y1618D01*
X3998Y1619D01*
X3998Y1621D01*
X3997Y1622D01*
X3997Y1623D01*
X3996Y1624D01*
X3996Y1624D01*
X3995Y1625D01*
X3995Y1625D01*
X3995Y1625D01*
X3995Y1626D01*
X3993Y1627D01*
X3992Y1628D01*
X3991Y1628D01*
X3990Y1629D01*
X3988Y1630D01*
X3987Y1630D01*
X3986Y1631D01*
X3985Y1631D01*
X3983Y1631D01*
X3982Y1631D01*
X3982Y1632D01*
X3981Y1632D01*
X3980Y1632D01*
X3980Y1632D02*
G37*
G36*
X3885Y941D02*
X3871Y941D01*
X3871Y922D01*
X3886Y922D01*
X3887Y922D01*
X3888Y923D01*
X3890Y923D01*
X3891Y923D01*
X3892Y923D01*
X3892Y923D01*
X3893Y923D01*
X3893Y923D01*
X3894Y924D01*
X3895Y924D01*
X3895Y925D01*
X3896Y925D01*
X3897Y926D01*
X3897Y926D01*
X3897Y927D01*
X3897Y927D01*
X3898Y928D01*
X3898Y928D01*
X3898Y929D01*
X3898Y931D01*
X3898Y932D01*
X3898Y932D01*
X3898Y932D01*
X3898Y933D01*
X3898Y934D01*
X3898Y934D01*
X3898Y935D01*
X3897Y936D01*
X3897Y937D01*
X3897Y937D01*
X3897Y938D01*
X3896Y938D01*
X3896Y939D01*
X3895Y939D01*
X3895Y940D01*
X3894Y940D01*
X3893Y941D01*
X3893Y941D01*
X3892Y941D01*
X3891Y941D01*
X3890Y941D01*
X3890Y941D01*
X3889Y941D01*
X3888Y941D01*
X3887Y941D01*
X3887Y941D01*
X3885Y941D01*
X3885Y941D02*
G37*
G36*
X3885Y915D02*
X3871Y915D01*
X3871Y893D01*
X3888Y893D01*
X3890Y893D01*
X3891Y893D01*
X3892Y894D01*
X3892Y894D01*
X3892Y894D01*
X3893Y894D01*
X3893Y894D01*
X3894Y894D01*
X3895Y894D01*
X3896Y895D01*
X3897Y895D01*
X3897Y895D01*
X3897Y896D01*
X3897Y896D01*
X3898Y896D01*
X3898Y897D01*
X3899Y897D01*
X3899Y898D01*
X3900Y899D01*
X3900Y899D01*
X3900Y899D01*
X3900Y900D01*
X3900Y900D01*
X3901Y901D01*
X3901Y902D01*
X3901Y903D01*
X3901Y904D01*
X3901Y904D01*
X3901Y905D01*
X3901Y905D01*
X3901Y906D01*
X3901Y907D01*
X3900Y908D01*
X3900Y909D01*
X3899Y910D01*
X3899Y910D01*
X3899Y911D01*
X3898Y911D01*
X3898Y912D01*
X3897Y912D01*
X3896Y913D01*
X3895Y913D01*
X3894Y914D01*
X3894Y914D01*
X3894Y914D01*
X3893Y914D01*
X3892Y914D01*
X3891Y915D01*
X3889Y915D01*
X3887Y915D01*
X3885Y915D01*
X3885Y915D02*
G37*
G36*
X3767Y941D02*
X3749Y941D01*
X3749Y919D01*
X3765Y919D01*
X3766Y919D01*
X3767Y919D01*
X3767Y919D01*
X3769Y919D01*
X3771Y920D01*
X3773Y920D01*
X3775Y921D01*
X3775Y921D01*
X3776Y922D01*
X3776Y922D01*
X3777Y922D01*
X3777Y923D01*
X3778Y924D01*
X3779Y925D01*
X3779Y927D01*
X3779Y928D01*
X3780Y930D01*
X3780Y930D01*
X3780Y931D01*
X3780Y931D01*
X3780Y932D01*
X3779Y933D01*
X3779Y934D01*
X3779Y935D01*
X3778Y936D01*
X3778Y937D01*
X3777Y937D01*
X3777Y938D01*
X3777Y938D01*
X3776Y939D01*
X3775Y939D01*
X3775Y940D01*
X3773Y940D01*
X3772Y941D01*
X3772Y941D01*
X3772Y941D01*
X3771Y941D01*
X3771Y941D01*
X3770Y941D01*
X3768Y941D01*
X3767Y941D01*
X3767Y941D02*
G37*
G36*
X4120Y926D02*
X4119Y926D01*
X4119Y926D01*
X4119Y926D01*
X4118Y926D01*
X4117Y926D01*
X4115Y925D01*
X4114Y925D01*
X4112Y924D01*
X4112Y923D01*
X4111Y922D01*
X4111Y922D01*
X4110Y922D01*
X4110Y921D01*
X4109Y920D01*
X4108Y919D01*
X4108Y917D01*
X4107Y915D01*
X4107Y913D01*
X4133Y913D01*
X4133Y913D01*
X4133Y913D01*
X4132Y914D01*
X4132Y914D01*
X4132Y914D01*
X4132Y915D01*
X4132Y916D01*
X4132Y918D01*
X4131Y919D01*
X4130Y920D01*
X4130Y922D01*
X4130Y922D01*
X4129Y922D01*
X4129Y922D01*
X4129Y922D01*
X4128Y923D01*
X4127Y924D01*
X4126Y925D01*
X4124Y925D01*
X4122Y926D01*
X4121Y926D01*
X4120Y926D01*
X4120Y926D02*
G37*
G36*
X4071Y926D02*
X4071Y926D01*
X4070Y926D01*
X4070Y926D01*
X4069Y926D01*
X4068Y926D01*
X4067Y925D01*
X4065Y925D01*
X4063Y924D01*
X4063Y923D01*
X4062Y922D01*
X4062Y922D01*
X4061Y922D01*
X4061Y921D01*
X4060Y920D01*
X4059Y919D01*
X4059Y917D01*
X4058Y915D01*
X4058Y913D01*
X4084Y913D01*
X4084Y913D01*
X4084Y913D01*
X4083Y914D01*
X4083Y914D01*
X4083Y914D01*
X4083Y915D01*
X4083Y916D01*
X4083Y918D01*
X4082Y919D01*
X4081Y920D01*
X4081Y922D01*
X4081Y922D01*
X4080Y922D01*
X4080Y922D01*
X4080Y922D01*
X4079Y923D01*
X4078Y924D01*
X4077Y925D01*
X4075Y925D01*
X4073Y926D01*
X4072Y926D01*
X4071Y926D01*
X4071Y926D02*
G37*
G36*
X427Y728D02*
X411Y728D01*
X411Y706D01*
X427Y728D01*
X427Y728D02*
G37*
G36*
X1070Y756D02*
X1070Y677D01*
X1149Y677D01*
X1148Y686D01*
X1144Y703D01*
X1135Y718D01*
X1125Y731D01*
X1111Y742D01*
X1096Y750D01*
X1080Y755D01*
X1070Y756D01*
X1070Y756D02*
G37*
G36*
X1055Y756D02*
X1046Y755D01*
X1030Y750D01*
X1015Y742D01*
X1001Y731D01*
X991Y718D01*
X982Y703D01*
X978Y686D01*
X977Y677D01*
X1055Y677D01*
X1055Y756D01*
X1055Y756D02*
G37*
G36*
X126Y756D02*
X126Y677D01*
X205Y677D01*
X204Y686D01*
X199Y703D01*
X191Y718D01*
X180Y731D01*
X167Y742D01*
X151Y750D01*
X135Y755D01*
X126Y756D01*
X126Y756D02*
G37*
G36*
X111Y756D02*
X101Y755D01*
X85Y750D01*
X70Y742D01*
X56Y731D01*
X46Y718D01*
X38Y703D01*
X33Y686D01*
X32Y677D01*
X111Y677D01*
X111Y756D01*
X111Y756D02*
G37*
G36*
X446Y636D02*
X446Y636D01*
X439Y633D01*
X432Y628D01*
X428Y622D01*
X426Y617D01*
X420Y617D01*
X419Y621D01*
X414Y627D01*
X408Y631D01*
X402Y634D01*
X395Y635D01*
X387Y634D01*
X381Y631D01*
X375Y627D01*
X370Y621D01*
X368Y615D01*
X368Y614D01*
X362Y614D01*
X362Y615D01*
X360Y621D01*
X355Y627D01*
X349Y631D01*
X343Y634D01*
X335Y635D01*
X328Y634D01*
X322Y631D01*
X316Y627D01*
X311Y621D01*
X309Y615D01*
X308Y614D01*
X303Y614D01*
X303Y615D01*
X301Y621D01*
X296Y627D01*
X290Y631D01*
X284Y634D01*
X276Y635D01*
X269Y634D01*
X262Y631D01*
X257Y627D01*
X252Y621D01*
X249Y615D01*
X249Y607D01*
X249Y600D01*
X252Y593D01*
X257Y588D01*
X262Y583D01*
X269Y580D01*
X276Y579D01*
X284Y580D01*
X290Y583D01*
X296Y588D01*
X301Y593D01*
X303Y600D01*
X303Y601D01*
X308Y601D01*
X309Y600D01*
X311Y593D01*
X316Y588D01*
X322Y583D01*
X326Y581D01*
X326Y446D01*
X325Y441D01*
X319Y440D01*
X314Y436D01*
X310Y431D01*
X309Y425D01*
X310Y419D01*
X311Y418D01*
X307Y414D01*
X306Y415D01*
X300Y416D01*
X294Y415D01*
X293Y414D01*
X289Y418D01*
X290Y419D01*
X291Y425D01*
X290Y431D01*
X286Y436D01*
X281Y440D01*
X275Y441D01*
X269Y440D01*
X264Y436D01*
X260Y431D01*
X259Y425D01*
X260Y419D01*
X261Y418D01*
X257Y414D01*
X256Y415D01*
X250Y416D01*
X244Y415D01*
X239Y411D01*
X235Y406D01*
X234Y400D01*
X235Y394D01*
X236Y393D01*
X232Y389D01*
X231Y390D01*
X225Y391D01*
X223Y391D01*
X219Y394D01*
X219Y529D01*
X219Y529D01*
X220Y535D01*
X219Y541D01*
X216Y546D01*
X210Y550D01*
X204Y551D01*
X198Y550D01*
X193Y546D01*
X189Y541D01*
X188Y535D01*
X189Y529D01*
X193Y524D01*
X198Y520D01*
X201Y519D01*
X201Y390D01*
X200Y389D01*
X198Y386D01*
X197Y383D01*
X197Y367D01*
X198Y364D01*
X200Y361D01*
X201Y360D01*
X201Y340D01*
X200Y339D01*
X198Y336D01*
X197Y333D01*
X197Y314D01*
X198Y310D01*
X200Y307D01*
X216Y291D01*
X216Y63D01*
X214Y61D01*
X210Y56D01*
X209Y50D01*
X210Y44D01*
X214Y39D01*
X219Y35D01*
X225Y34D01*
X231Y35D01*
X236Y39D01*
X240Y44D01*
X241Y50D01*
X240Y56D01*
X236Y61D01*
X234Y63D01*
X234Y286D01*
X237Y287D01*
X239Y288D01*
X244Y285D01*
X250Y284D01*
X256Y285D01*
X261Y289D01*
X265Y294D01*
X266Y300D01*
X265Y306D01*
X261Y311D01*
X256Y315D01*
X250Y316D01*
X244Y315D01*
X243Y314D01*
X239Y318D01*
X240Y319D01*
X241Y325D01*
X240Y331D01*
X239Y332D01*
X243Y336D01*
X244Y335D01*
X250Y334D01*
X256Y335D01*
X261Y339D01*
X265Y344D01*
X266Y350D01*
X265Y356D01*
X261Y361D01*
X256Y365D01*
X250Y366D01*
X244Y365D01*
X243Y364D01*
X239Y368D01*
X240Y369D01*
X241Y375D01*
X240Y381D01*
X239Y382D01*
X243Y386D01*
X244Y385D01*
X250Y384D01*
X256Y385D01*
X261Y389D01*
X265Y394D01*
X266Y400D01*
X265Y406D01*
X264Y407D01*
X268Y411D01*
X269Y410D01*
X275Y409D01*
X281Y410D01*
X282Y411D01*
X286Y407D01*
X285Y406D01*
X284Y400D01*
X285Y394D01*
X289Y389D01*
X294Y385D01*
X300Y384D01*
X306Y385D01*
X311Y389D01*
X315Y394D01*
X316Y400D01*
X315Y406D01*
X314Y407D01*
X318Y411D01*
X319Y410D01*
X322Y409D01*
X325Y409D01*
X326Y404D01*
X326Y58D01*
X325Y56D01*
X324Y50D01*
X325Y44D01*
X329Y39D01*
X334Y35D01*
X340Y34D01*
X346Y35D01*
X351Y39D01*
X355Y44D01*
X356Y50D01*
X355Y56D01*
X351Y61D01*
X346Y65D01*
X345Y65D01*
X345Y402D01*
X350Y407D01*
X352Y410D01*
X357Y411D01*
X360Y406D01*
X359Y400D01*
X360Y394D01*
X364Y389D01*
X369Y385D01*
X375Y384D01*
X381Y385D01*
X386Y389D01*
X390Y394D01*
X391Y400D01*
X390Y406D01*
X386Y411D01*
X383Y414D01*
X380Y419D01*
X381Y425D01*
X380Y431D01*
X376Y436D01*
X371Y440D01*
X365Y441D01*
X359Y440D01*
X357Y438D01*
X353Y437D01*
X350Y440D01*
X345Y445D01*
X345Y581D01*
X349Y583D01*
X355Y588D01*
X360Y593D01*
X362Y600D01*
X362Y601D01*
X368Y601D01*
X368Y600D01*
X370Y593D01*
X375Y588D01*
X381Y583D01*
X387Y580D01*
X395Y579D01*
X402Y580D01*
X408Y583D01*
X414Y588D01*
X419Y593D01*
X420Y597D01*
X426Y597D01*
X428Y592D01*
X432Y586D01*
X439Y581D01*
X446Y578D01*
X446Y578D01*
X446Y607D01*
X446Y636D01*
X446Y636D02*
G37*
G36*
X599Y636D02*
X599Y636D01*
X592Y633D01*
X586Y628D01*
X581Y622D01*
X578Y615D01*
X578Y615D01*
X599Y615D01*
X599Y636D01*
X599Y636D02*
G37*
G36*
X461Y636D02*
X461Y615D01*
X483Y615D01*
X482Y615D01*
X479Y622D01*
X475Y628D01*
X469Y633D01*
X461Y636D01*
X461Y636D01*
X461Y636D02*
G37*
G36*
X1149Y662D02*
X1070Y662D01*
X1070Y583D01*
X1080Y584D01*
X1096Y589D01*
X1111Y597D01*
X1125Y608D01*
X1135Y621D01*
X1144Y636D01*
X1148Y652D01*
X1149Y662D01*
X1149Y662D02*
G37*
G36*
X1055Y662D02*
X977Y662D01*
X978Y652D01*
X982Y636D01*
X991Y621D01*
X1001Y608D01*
X1015Y597D01*
X1030Y589D01*
X1046Y584D01*
X1055Y583D01*
X1055Y662D01*
X1055Y662D02*
G37*
G36*
X205Y662D02*
X126Y662D01*
X126Y583D01*
X135Y584D01*
X151Y589D01*
X167Y597D01*
X180Y608D01*
X191Y621D01*
X199Y636D01*
X204Y652D01*
X205Y662D01*
X205Y662D02*
G37*
G36*
X111Y662D02*
X32Y662D01*
X33Y652D01*
X38Y636D01*
X46Y621D01*
X56Y608D01*
X70Y597D01*
X85Y589D01*
X101Y584D01*
X111Y583D01*
X111Y662D01*
X111Y662D02*
G37*
G36*
X599Y600D02*
X578Y600D01*
X578Y600D01*
X581Y592D01*
X586Y586D01*
X592Y581D01*
X599Y578D01*
X599Y578D01*
X599Y600D01*
X599Y600D02*
G37*
G36*
X483Y600D02*
X461Y600D01*
X461Y578D01*
X461Y578D01*
X469Y581D01*
X475Y586D01*
X479Y592D01*
X482Y600D01*
X483Y600D01*
X483Y600D02*
G37*
G36*
X614Y636D02*
X614Y607D01*
X614Y578D01*
X615Y578D01*
X622Y581D01*
X628Y586D01*
X633Y592D01*
X635Y597D01*
X640Y597D01*
X642Y593D01*
X646Y588D01*
X652Y583D01*
X657Y581D01*
X657Y574D01*
X652Y572D01*
X647Y568D01*
X643Y563D01*
X640Y557D01*
X639Y550D01*
X640Y543D01*
X643Y537D01*
X647Y532D01*
X652Y528D01*
X658Y525D01*
X665Y524D01*
X672Y525D01*
X678Y528D01*
X683Y532D01*
X687Y537D01*
X690Y543D01*
X691Y550D01*
X690Y557D01*
X687Y563D01*
X683Y568D01*
X678Y572D01*
X675Y574D01*
X675Y581D01*
X680Y583D01*
X686Y588D01*
X690Y593D01*
X693Y600D01*
X693Y601D01*
X698Y601D01*
X698Y600D01*
X701Y593D01*
X705Y588D01*
X711Y583D01*
X716Y581D01*
X716Y574D01*
X712Y572D01*
X707Y568D01*
X703Y563D01*
X700Y557D01*
X699Y550D01*
X700Y543D01*
X703Y537D01*
X707Y532D01*
X712Y528D01*
X718Y525D01*
X725Y524D01*
X732Y525D01*
X738Y528D01*
X743Y532D01*
X747Y537D01*
X750Y543D01*
X751Y550D01*
X750Y557D01*
X747Y563D01*
X743Y568D01*
X738Y572D01*
X734Y574D01*
X734Y581D01*
X739Y583D01*
X745Y588D01*
X749Y593D01*
X752Y600D01*
X752Y601D01*
X757Y601D01*
X757Y600D01*
X760Y593D01*
X764Y588D01*
X770Y583D01*
X775Y581D01*
X775Y574D01*
X772Y572D01*
X767Y568D01*
X763Y563D01*
X760Y557D01*
X759Y550D01*
X760Y543D01*
X763Y537D01*
X767Y532D01*
X772Y528D01*
X778Y525D01*
X785Y524D01*
X792Y525D01*
X798Y528D01*
X803Y532D01*
X807Y537D01*
X810Y543D01*
X811Y550D01*
X810Y557D01*
X807Y563D01*
X803Y568D01*
X798Y572D01*
X793Y574D01*
X793Y581D01*
X798Y583D01*
X804Y588D01*
X808Y593D01*
X811Y600D01*
X811Y601D01*
X816Y601D01*
X816Y600D01*
X819Y593D01*
X823Y588D01*
X829Y583D01*
X834Y581D01*
X834Y573D01*
X832Y572D01*
X827Y568D01*
X823Y563D01*
X820Y557D01*
X819Y550D01*
X820Y543D01*
X823Y537D01*
X827Y532D01*
X832Y528D01*
X838Y525D01*
X845Y524D01*
X852Y525D01*
X858Y528D01*
X863Y532D01*
X867Y537D01*
X870Y543D01*
X871Y550D01*
X870Y557D01*
X867Y563D01*
X863Y568D01*
X858Y572D01*
X852Y575D01*
X852Y581D01*
X857Y583D01*
X863Y588D01*
X867Y593D01*
X870Y600D01*
X871Y607D01*
X870Y615D01*
X867Y621D01*
X863Y627D01*
X857Y631D01*
X850Y634D01*
X843Y635D01*
X836Y634D01*
X829Y631D01*
X823Y627D01*
X819Y621D01*
X816Y615D01*
X816Y614D01*
X811Y614D01*
X811Y615D01*
X808Y621D01*
X804Y627D01*
X798Y631D01*
X791Y634D01*
X784Y635D01*
X777Y634D01*
X770Y631D01*
X764Y627D01*
X760Y621D01*
X757Y615D01*
X757Y614D01*
X752Y614D01*
X752Y615D01*
X749Y621D01*
X745Y627D01*
X739Y631D01*
X732Y634D01*
X725Y635D01*
X718Y634D01*
X711Y631D01*
X705Y627D01*
X701Y621D01*
X698Y615D01*
X698Y614D01*
X693Y614D01*
X693Y615D01*
X690Y621D01*
X686Y627D01*
X680Y631D01*
X673Y634D01*
X666Y635D01*
X659Y634D01*
X652Y631D01*
X646Y627D01*
X642Y621D01*
X640Y617D01*
X635Y617D01*
X633Y622D01*
X628Y628D01*
X622Y633D01*
X615Y636D01*
X614Y636D01*
X614Y636D02*
G37*
G36*
X1010Y542D02*
X1010Y521D01*
X1031Y521D01*
X1031Y521D01*
X1028Y528D01*
X1023Y534D01*
X1017Y539D01*
X1010Y542D01*
X1010Y542D01*
X1010Y542D02*
G37*
G36*
X995Y542D02*
X995Y542D01*
X987Y539D01*
X981Y534D01*
X976Y528D01*
X973Y521D01*
X973Y521D01*
X995Y521D01*
X995Y542D01*
X995Y542D02*
G37*
G36*
X825Y501D02*
X818Y500D01*
X812Y497D01*
X807Y493D01*
X803Y488D01*
X800Y482D01*
X799Y475D01*
X800Y468D01*
X800Y467D01*
X800Y466D01*
X798Y464D01*
X793Y464D01*
X791Y466D01*
X786Y470D01*
X780Y471D01*
X774Y470D01*
X769Y466D01*
X765Y461D01*
X764Y455D01*
X765Y449D01*
X769Y444D01*
X771Y442D01*
X771Y396D01*
X771Y396D01*
X767Y391D01*
X766Y385D01*
X767Y379D01*
X771Y374D01*
X771Y368D01*
X769Y366D01*
X765Y361D01*
X764Y355D01*
X764Y352D01*
X733Y321D01*
X731Y318D01*
X730Y314D01*
X730Y178D01*
X723Y171D01*
X717Y171D01*
X716Y171D01*
X711Y175D01*
X705Y176D01*
X699Y175D01*
X694Y171D01*
X690Y166D01*
X689Y160D01*
X690Y154D01*
X694Y149D01*
X699Y145D01*
X705Y144D01*
X711Y145D01*
X712Y146D01*
X713Y146D01*
X717Y143D01*
X718Y142D01*
X720Y139D01*
X726Y133D01*
X726Y117D01*
X720Y111D01*
X718Y108D01*
X717Y105D01*
X717Y89D01*
X718Y86D01*
X720Y83D01*
X726Y77D01*
X726Y58D01*
X724Y56D01*
X720Y51D01*
X719Y45D01*
X720Y39D01*
X724Y34D01*
X729Y30D01*
X735Y29D01*
X741Y30D01*
X746Y34D01*
X750Y39D01*
X750Y41D01*
X754Y45D01*
X756Y45D01*
X760Y44D01*
X766Y45D01*
X771Y49D01*
X775Y54D01*
X776Y60D01*
X775Y66D01*
X771Y71D01*
X769Y73D01*
X769Y82D01*
X770Y83D01*
X772Y86D01*
X773Y89D01*
X773Y94D01*
X778Y96D01*
X782Y93D01*
X788Y90D01*
X795Y89D01*
X802Y90D01*
X808Y93D01*
X813Y97D01*
X817Y102D01*
X819Y107D01*
X822Y109D01*
X825Y110D01*
X830Y109D01*
X831Y109D01*
X834Y106D01*
X834Y105D01*
X835Y98D01*
X838Y92D01*
X842Y87D01*
X847Y83D01*
X853Y80D01*
X860Y79D01*
X867Y80D01*
X873Y83D01*
X878Y87D01*
X882Y92D01*
X885Y98D01*
X886Y105D01*
X885Y112D01*
X882Y118D01*
X878Y123D01*
X873Y127D01*
X868Y130D01*
X866Y131D01*
X866Y132D01*
X868Y137D01*
X872Y140D01*
X876Y145D01*
X877Y151D01*
X876Y158D01*
X872Y163D01*
X867Y166D01*
X861Y168D01*
X858Y167D01*
X851Y174D01*
X851Y252D01*
X852Y254D01*
X853Y257D01*
X853Y276D01*
X852Y280D01*
X850Y283D01*
X839Y294D01*
X839Y402D01*
X841Y404D01*
X845Y409D01*
X846Y415D01*
X846Y415D01*
X851Y415D01*
X853Y412D01*
X857Y407D01*
X862Y403D01*
X868Y400D01*
X875Y399D01*
X882Y400D01*
X888Y403D01*
X893Y407D01*
X897Y412D01*
X900Y418D01*
X901Y425D01*
X900Y432D01*
X897Y438D01*
X893Y443D01*
X888Y447D01*
X882Y450D01*
X875Y451D01*
X868Y450D01*
X862Y447D01*
X857Y443D01*
X853Y438D01*
X851Y434D01*
X840Y434D01*
X836Y433D01*
X834Y431D01*
X833Y431D01*
X830Y431D01*
X825Y430D01*
X822Y433D01*
X821Y434D01*
X821Y435D01*
X820Y441D01*
X817Y445D01*
X820Y450D01*
X820Y450D01*
X825Y449D01*
X832Y450D01*
X838Y453D01*
X843Y457D01*
X847Y462D01*
X850Y468D01*
X851Y475D01*
X850Y482D01*
X847Y488D01*
X843Y493D01*
X838Y497D01*
X832Y500D01*
X825Y501D01*
X825Y501D02*
G37*
G36*
X1031Y506D02*
X1002Y506D01*
X973Y506D01*
X973Y505D01*
X976Y498D01*
X981Y492D01*
X987Y487D01*
X992Y485D01*
X992Y480D01*
X988Y478D01*
X983Y474D01*
X978Y468D01*
X975Y461D01*
X974Y454D01*
X975Y447D01*
X978Y440D01*
X983Y434D01*
X988Y430D01*
X995Y427D01*
X996Y427D01*
X996Y422D01*
X995Y422D01*
X988Y419D01*
X983Y415D01*
X978Y409D01*
X975Y402D01*
X974Y395D01*
X975Y388D01*
X978Y381D01*
X983Y375D01*
X988Y371D01*
X995Y368D01*
X996Y368D01*
X996Y363D01*
X995Y363D01*
X988Y360D01*
X983Y356D01*
X978Y350D01*
X976Y344D01*
X963Y344D01*
X961Y346D01*
X956Y350D01*
X950Y351D01*
X944Y350D01*
X939Y346D01*
X935Y341D01*
X934Y335D01*
X935Y329D01*
X939Y324D01*
X944Y320D01*
X950Y319D01*
X956Y320D01*
X961Y324D01*
X963Y326D01*
X977Y326D01*
X978Y322D01*
X983Y316D01*
X988Y312D01*
X995Y309D01*
X996Y309D01*
X996Y304D01*
X995Y304D01*
X988Y301D01*
X983Y297D01*
X978Y291D01*
X975Y284D01*
X974Y277D01*
X975Y270D01*
X978Y263D01*
X983Y257D01*
X988Y253D01*
X995Y250D01*
X1002Y249D01*
X1010Y250D01*
X1016Y253D01*
X1022Y257D01*
X1026Y263D01*
X1029Y270D01*
X1030Y277D01*
X1029Y284D01*
X1026Y291D01*
X1022Y297D01*
X1016Y301D01*
X1010Y304D01*
X1009Y304D01*
X1009Y309D01*
X1010Y309D01*
X1016Y312D01*
X1022Y316D01*
X1026Y322D01*
X1029Y329D01*
X1030Y336D01*
X1029Y343D01*
X1026Y350D01*
X1022Y356D01*
X1016Y360D01*
X1010Y363D01*
X1009Y363D01*
X1009Y368D01*
X1010Y368D01*
X1016Y371D01*
X1022Y375D01*
X1026Y381D01*
X1028Y386D01*
X1054Y386D01*
X1057Y382D01*
X1062Y378D01*
X1068Y375D01*
X1075Y374D01*
X1082Y375D01*
X1088Y378D01*
X1093Y382D01*
X1097Y387D01*
X1100Y393D01*
X1101Y400D01*
X1100Y407D01*
X1097Y413D01*
X1093Y418D01*
X1088Y422D01*
X1082Y425D01*
X1075Y426D01*
X1068Y425D01*
X1062Y422D01*
X1057Y418D01*
X1053Y413D01*
X1050Y407D01*
X1050Y404D01*
X1028Y404D01*
X1026Y409D01*
X1022Y415D01*
X1016Y419D01*
X1010Y422D01*
X1009Y422D01*
X1009Y427D01*
X1010Y427D01*
X1016Y430D01*
X1022Y434D01*
X1026Y440D01*
X1029Y447D01*
X1030Y454D01*
X1029Y461D01*
X1026Y468D01*
X1022Y474D01*
X1016Y478D01*
X1012Y480D01*
X1012Y485D01*
X1017Y487D01*
X1023Y492D01*
X1028Y498D01*
X1031Y505D01*
X1031Y506D01*
X1031Y506D02*
G37*
G36*
X899Y381D02*
X893Y380D01*
X888Y376D01*
X884Y371D01*
X883Y365D01*
X884Y359D01*
X888Y354D01*
X893Y350D01*
X899Y349D01*
X905Y350D01*
X910Y354D01*
X914Y359D01*
X915Y365D01*
X914Y371D01*
X910Y376D01*
X905Y380D01*
X899Y381D01*
X899Y381D02*
G37*
G36*
X865Y356D02*
X859Y355D01*
X854Y351D01*
X850Y346D01*
X849Y340D01*
X850Y334D01*
X854Y329D01*
X859Y325D01*
X865Y324D01*
X871Y325D01*
X876Y329D01*
X880Y334D01*
X881Y340D01*
X880Y346D01*
X876Y351D01*
X871Y355D01*
X865Y356D01*
X865Y356D02*
G37*
G36*
X865Y316D02*
X859Y315D01*
X854Y311D01*
X850Y306D01*
X849Y300D01*
X850Y294D01*
X854Y289D01*
X859Y285D01*
X865Y284D01*
X871Y285D01*
X876Y289D01*
X880Y294D01*
X881Y300D01*
X880Y306D01*
X876Y311D01*
X871Y315D01*
X865Y316D01*
X865Y316D02*
G37*
G36*
X665Y251D02*
X659Y250D01*
X654Y246D01*
X650Y241D01*
X649Y235D01*
X650Y229D01*
X654Y224D01*
X659Y220D01*
X665Y219D01*
X671Y220D01*
X676Y224D01*
X680Y229D01*
X681Y235D01*
X680Y241D01*
X676Y246D01*
X671Y250D01*
X665Y251D01*
X665Y251D02*
G37*
G36*
X590Y241D02*
X584Y240D01*
X579Y236D01*
X575Y231D01*
X574Y225D01*
X575Y219D01*
X579Y214D01*
X584Y210D01*
X590Y209D01*
X596Y210D01*
X601Y214D01*
X605Y219D01*
X606Y225D01*
X605Y231D01*
X601Y236D01*
X596Y240D01*
X590Y241D01*
X590Y241D02*
G37*
G36*
X895Y231D02*
X889Y230D01*
X884Y226D01*
X880Y221D01*
X879Y215D01*
X880Y209D01*
X884Y204D01*
X889Y200D01*
X895Y199D01*
X901Y200D01*
X906Y204D01*
X910Y209D01*
X911Y215D01*
X910Y221D01*
X906Y226D01*
X901Y230D01*
X895Y231D01*
X895Y231D02*
G37*
G36*
X1070Y205D02*
X1070Y126D01*
X1149Y126D01*
X1148Y135D01*
X1144Y151D01*
X1135Y167D01*
X1125Y180D01*
X1111Y191D01*
X1096Y199D01*
X1080Y204D01*
X1070Y205D01*
X1070Y205D02*
G37*
G36*
X1055Y205D02*
X1046Y204D01*
X1030Y199D01*
X1015Y191D01*
X1001Y180D01*
X991Y167D01*
X982Y151D01*
X978Y135D01*
X977Y126D01*
X1055Y126D01*
X1055Y205D01*
X1055Y205D02*
G37*
G36*
X126Y205D02*
X126Y126D01*
X205Y126D01*
X204Y135D01*
X199Y151D01*
X191Y167D01*
X180Y180D01*
X167Y191D01*
X151Y199D01*
X135Y204D01*
X126Y205D01*
X126Y205D02*
G37*
G36*
X111Y205D02*
X101Y204D01*
X85Y199D01*
X70Y191D01*
X56Y180D01*
X46Y167D01*
X38Y151D01*
X33Y135D01*
X32Y126D01*
X111Y126D01*
X111Y205D01*
X111Y205D02*
G37*
G36*
X575Y151D02*
X569Y150D01*
X564Y146D01*
X560Y141D01*
X559Y135D01*
X560Y129D01*
X564Y124D01*
X569Y120D01*
X575Y119D01*
X581Y120D01*
X586Y124D01*
X590Y129D01*
X591Y135D01*
X590Y141D01*
X586Y146D01*
X581Y150D01*
X575Y151D01*
X575Y151D02*
G37*
G36*
X480Y161D02*
X473Y160D01*
X467Y157D01*
X462Y153D01*
X458Y148D01*
X455Y142D01*
X454Y135D01*
X455Y128D01*
X458Y122D01*
X462Y117D01*
X467Y113D01*
X473Y110D01*
X480Y109D01*
X487Y110D01*
X493Y113D01*
X498Y117D01*
X502Y122D01*
X505Y128D01*
X506Y135D01*
X505Y142D01*
X502Y148D01*
X498Y153D01*
X493Y157D01*
X487Y160D01*
X480Y161D01*
X480Y161D02*
G37*
G36*
X1149Y111D02*
X1070Y111D01*
X1070Y32D01*
X1080Y33D01*
X1096Y38D01*
X1111Y46D01*
X1125Y56D01*
X1135Y70D01*
X1144Y85D01*
X1148Y101D01*
X1149Y111D01*
X1149Y111D02*
G37*
G36*
X1055Y111D02*
X977Y111D01*
X978Y101D01*
X982Y85D01*
X991Y70D01*
X1001Y56D01*
X1015Y46D01*
X1030Y38D01*
X1046Y33D01*
X1055Y32D01*
X1055Y111D01*
X1055Y111D02*
G37*
G36*
X205Y111D02*
X126Y111D01*
X126Y32D01*
X135Y33D01*
X151Y38D01*
X167Y46D01*
X180Y56D01*
X191Y70D01*
X199Y85D01*
X204Y101D01*
X205Y111D01*
X205Y111D02*
G37*
G36*
X111Y111D02*
X32Y111D01*
X33Y101D01*
X38Y85D01*
X46Y70D01*
X56Y56D01*
X70Y46D01*
X85Y38D01*
X101Y33D01*
X111Y32D01*
X111Y111D01*
X111Y111D02*
G37*
%LPD*%
D12*
X1100Y300D02*
D03*
X295Y709D02*
D03*
X807Y709D02*
D03*
D23*
X795Y115D02*
D03*
X860Y105D02*
D03*
X825Y475D02*
D03*
X875Y425D02*
D03*
X1075Y400D02*
D03*
X950Y600D02*
D03*
X665Y550D02*
D03*
X605Y550D02*
D03*
X725Y550D02*
D03*
X785Y550D02*
D03*
X845Y550D02*
D03*
X480Y135D02*
D03*
D27*
X981Y335D02*
X991Y325D01*
X950Y335D02*
X981Y335D01*
X785Y250D02*
X806Y229D01*
X806Y126D02*
X806Y229D01*
X806Y257D02*
X818Y245D01*
X818Y137D02*
X818Y245D01*
X825Y265D02*
X830Y260D01*
X830Y155D02*
X830Y260D01*
X805Y413D02*
X817Y401D01*
X817Y284D02*
X817Y401D01*
X806Y273D02*
X817Y284D01*
X806Y257D02*
X806Y273D01*
X830Y155D02*
X860Y125D01*
X795Y115D02*
X806Y126D01*
X760Y165D02*
X764Y161D01*
X764Y145D02*
X764Y161D01*
X755Y136D02*
X764Y145D01*
X739Y174D02*
X739Y314D01*
X726Y161D02*
X739Y174D01*
X726Y145D02*
X726Y161D01*
X726Y145D02*
X735Y136D01*
X735Y114D02*
X735Y136D01*
X818Y137D02*
X830Y125D01*
X844Y257D02*
X844Y276D01*
X830Y290D02*
X844Y276D01*
X830Y290D02*
X830Y415D01*
X842Y255D02*
X844Y257D01*
X842Y170D02*
X842Y255D01*
X842Y170D02*
X861Y151D01*
X860Y105D02*
X860Y125D01*
X739Y314D02*
X780Y355D01*
X1002Y395D02*
X1070Y395D01*
X1075Y400D01*
X991Y325D02*
X1002Y336D01*
X780Y387D02*
X782Y385D01*
X780Y387D02*
X780Y455D01*
X805Y413D02*
X805Y435D01*
X830Y415D02*
X840Y425D01*
X875Y425D01*
X805Y435D02*
X805Y455D01*
X825Y475D01*
X204Y535D02*
X210Y529D01*
X206Y333D02*
X210Y337D01*
X210Y363D01*
X206Y367D02*
X210Y363D01*
X206Y367D02*
X206Y383D01*
X210Y387D01*
X210Y529D01*
X206Y314D02*
X206Y333D01*
X206Y314D02*
X225Y295D01*
X225Y50D02*
X225Y295D01*
X335Y55D02*
X340Y50D01*
X335Y441D02*
X344Y433D01*
X335Y441D02*
X335Y607D01*
X344Y414D02*
X344Y433D01*
X335Y55D02*
X335Y405D01*
X344Y414D01*
X735Y45D02*
X735Y80D01*
X726Y89D02*
X735Y80D01*
X726Y89D02*
X726Y105D01*
X751Y174D02*
X760Y165D01*
X760Y60D02*
X760Y85D01*
X764Y89D01*
X764Y105D01*
X760Y165D02*
X760Y165D01*
X755Y114D02*
X764Y105D01*
X755Y114D02*
X755Y136D01*
X726Y105D02*
X735Y114D01*
X751Y174D02*
X751Y309D01*
X767Y325D01*
X780Y325D01*
X666Y551D02*
X666Y607D01*
X665Y550D02*
X666Y551D01*
X725Y550D02*
X725Y607D01*
X784Y551D02*
X784Y607D01*
X784Y551D02*
X785Y550D01*
X843Y552D02*
X843Y607D01*
X843Y552D02*
X845Y550D01*
D28*
X4024Y-8266D02*
X4008Y-8272D01*
X3996Y-8289D01*
X3991Y-8317D01*
X3991Y-8334D01*
X3996Y-8362D01*
X4008Y-8379D01*
X4024Y-8384D01*
X4036Y-8384D01*
X4053Y-8379D01*
X4064Y-8362D01*
X4069Y-8334D01*
X4069Y-8317D01*
X4064Y-8289D01*
X4053Y-8272D01*
X4036Y-8266D01*
X4024Y-8266D01*
X4102Y-8373D02*
X4096Y-8379D01*
X4102Y-8384D01*
X4107Y-8379D01*
X4102Y-8373D01*
X4133Y-8289D02*
X4144Y-8283D01*
X4161Y-8266D01*
X4161Y-8384D01*
X4106Y-8684D02*
X4061Y-8566D01*
X4016Y-8684D01*
X4033Y-8645D02*
X4089Y-8645D01*
X4190Y-8566D02*
X4133Y-8645D01*
X4218Y-8645D01*
X4190Y-8566D02*
X4190Y-8684D01*
X4331Y-8566D02*
X4331Y-8684D01*
X4331Y-8566D02*
X4376Y-8684D01*
X4421Y-8566D02*
X4376Y-8684D01*
X4421Y-8566D02*
X4421Y-8684D01*
X4455Y-8589D02*
X4466Y-8583D01*
X4483Y-8566D01*
X4483Y-8684D01*
X4547Y-8606D02*
X4542Y-8611D01*
X4547Y-8617D01*
X4553Y-8611D01*
X4547Y-8606D01*
X4547Y-8673D02*
X4542Y-8679D01*
X4547Y-8684D01*
X4553Y-8679D01*
X4547Y-8673D01*
X4579Y-8589D02*
X4590Y-8583D01*
X4607Y-8566D01*
X4607Y-8684D01*
X-560Y-8058D02*
X-537Y-8118D01*
X-514Y-8058D02*
X-537Y-8118D01*
X-466Y-8066D02*
X-472Y-8061D01*
X-481Y-8058D01*
X-492Y-8058D01*
X-501Y-8061D01*
X-506Y-8066D01*
X-506Y-8072D01*
X-503Y-8078D01*
X-501Y-8081D01*
X-495Y-8084D01*
X-478Y-8089D01*
X-472Y-8092D01*
X-469Y-8095D01*
X-466Y-8101D01*
X-466Y-8109D01*
X-472Y-8115D01*
X-481Y-8118D01*
X-492Y-8118D01*
X-501Y-8115D01*
X-506Y-8109D01*
X-453Y-8058D02*
X-453Y-8118D01*
X-555Y-7753D02*
X-532Y-7813D01*
X-509Y-7753D02*
X-532Y-7813D01*
X-461Y-7761D02*
X-467Y-7756D01*
X-476Y-7753D01*
X-487Y-7753D01*
X-496Y-7756D01*
X-501Y-7761D01*
X-501Y-7767D01*
X-498Y-7773D01*
X-496Y-7776D01*
X-490Y-7779D01*
X-473Y-7784D01*
X-467Y-7787D01*
X-464Y-7790D01*
X-461Y-7796D01*
X-461Y-7804D01*
X-467Y-7810D01*
X-476Y-7813D01*
X-487Y-7813D01*
X-496Y-7810D01*
X-501Y-7804D01*
X-448Y-7753D02*
X-448Y-7813D01*
D30*
X460Y721D02*
D03*
X372Y721D02*
D03*
X372Y721D02*
D03*
D31*
X416Y677D02*
D03*
D32*
X416Y783D02*
D03*
D33*
X165Y2512D02*
X165Y2709D01*
X2524Y2512D02*
X2524Y2709D01*
X5083Y-8984D02*
X5083Y2709D01*
X-3184Y2709D02*
X5083Y2709D01*
X-2397Y-8984D02*
X-2397Y2709D01*
X-2200Y-7579D02*
X383Y-7579D01*
X-700Y-7879D02*
X4887Y-7879D01*
X-700Y-8479D02*
X4887Y-8479D01*
X-700Y-8179D02*
X4887Y-8179D01*
X383Y-7579D02*
X1883Y-7579D01*
X1483Y-8179D02*
X1483Y-7579D01*
X1883Y-7579D02*
X4887Y-7579D01*
X-700Y-8787D02*
X-700Y-7579D01*
X3583Y-8787D02*
X3583Y-8179D01*
X1483Y-8787D02*
X1483Y-8179D01*
X-2397Y-6061D02*
X-2200Y-6061D01*
X-2397Y-3138D02*
X-2200Y-3138D01*
X-2200Y-8787D02*
X-2200Y2512D01*
X-2200Y2512D02*
X4887Y2512D01*
X4887Y-6061D02*
X5083Y-6061D01*
X4887Y-3138D02*
X5083Y-3138D01*
X4887Y-215D02*
X5083Y-215D01*
X4887Y-8787D02*
X4887Y2512D01*
X-3184Y-8984D02*
X5083Y-8984D01*
X-2200Y-8787D02*
X4887Y-8787D01*
X2524Y-8984D02*
X2524Y-8787D01*
X165Y-8984D02*
X165Y-8787D01*
X-2397Y-215D02*
X-2200Y-215D01*
X-3184Y-8984D02*
X-3184Y2709D01*
D34*
X1347Y2624D02*
X1347Y2628D01*
X1350Y2634D01*
X1353Y2638D01*
X1360Y2641D01*
X1373Y2641D01*
X1380Y2638D01*
X1383Y2634D01*
X1387Y2628D01*
X1387Y2621D01*
X1383Y2614D01*
X1377Y2604D01*
X1343Y2571D01*
X1390Y2571D01*
X-1019Y2628D02*
X-1012Y2631D01*
X-1002Y2641D01*
X-1002Y2571D01*
X3712Y2641D02*
X3749Y2641D01*
X3729Y2614D01*
X3739Y2614D01*
X3746Y2611D01*
X3749Y2608D01*
X3752Y2598D01*
X3752Y2591D01*
X3749Y2581D01*
X3742Y2574D01*
X3732Y2571D01*
X3722Y2571D01*
X3712Y2574D01*
X3709Y2578D01*
X3706Y2584D01*
X-1956Y-8275D02*
X-1963Y-8268D01*
X-1973Y-8265D01*
X-1986Y-8265D01*
X-1996Y-8268D01*
X-2003Y-8275D01*
X-2003Y-8281D01*
X-2000Y-8288D01*
X-1996Y-8291D01*
X-1990Y-8295D01*
X-1970Y-8301D01*
X-1963Y-8305D01*
X-1960Y-8308D01*
X-1956Y-8315D01*
X-1956Y-8325D01*
X-1963Y-8331D01*
X-1973Y-8335D01*
X-1986Y-8335D01*
X-1996Y-8331D01*
X-2003Y-8325D01*
X-1941Y-8265D02*
X-1941Y-8335D01*
X-1941Y-8301D02*
X-1931Y-8291D01*
X-1924Y-8288D01*
X-1914Y-8288D01*
X-1908Y-8291D01*
X-1904Y-8301D01*
X-1904Y-8335D01*
X-1886Y-8308D02*
X-1846Y-8308D01*
X-1846Y-8301D01*
X-1849Y-8295D01*
X-1853Y-8291D01*
X-1859Y-8288D01*
X-1869Y-8288D01*
X-1876Y-8291D01*
X-1883Y-8298D01*
X-1886Y-8308D01*
X-1886Y-8315D01*
X-1883Y-8325D01*
X-1876Y-8331D01*
X-1869Y-8335D01*
X-1859Y-8335D01*
X-1853Y-8331D01*
X-1846Y-8325D01*
X-1831Y-8288D02*
X-1831Y-8335D01*
X-1831Y-8308D02*
X-1828Y-8298D01*
X-1821Y-8291D01*
X-1814Y-8288D01*
X-1804Y-8288D01*
X-1791Y-8265D02*
X-1788Y-8268D01*
X-1785Y-8265D01*
X-1788Y-8261D01*
X-1791Y-8265D01*
X-1788Y-8288D02*
X-1788Y-8335D01*
X-1732Y-8265D02*
X-1732Y-8335D01*
X-1732Y-8298D02*
X-1739Y-8291D01*
X-1746Y-8288D01*
X-1756Y-8288D01*
X-1762Y-8291D01*
X-1769Y-8298D01*
X-1772Y-8308D01*
X-1772Y-8315D01*
X-1769Y-8325D01*
X-1762Y-8331D01*
X-1756Y-8335D01*
X-1746Y-8335D01*
X-1739Y-8331D01*
X-1732Y-8325D01*
X-1674Y-8288D02*
X-1674Y-8335D01*
X-1674Y-8298D02*
X-1680Y-8291D01*
X-1687Y-8288D01*
X-1697Y-8288D01*
X-1704Y-8291D01*
X-1710Y-8298D01*
X-1714Y-8308D01*
X-1714Y-8315D01*
X-1710Y-8325D01*
X-1704Y-8331D01*
X-1697Y-8335D01*
X-1687Y-8335D01*
X-1680Y-8331D01*
X-1674Y-8325D01*
X-1655Y-8288D02*
X-1655Y-8335D01*
X-1655Y-8301D02*
X-1645Y-8291D01*
X-1638Y-8288D01*
X-1628Y-8288D01*
X-1622Y-8291D01*
X-1618Y-8301D01*
X-1618Y-8335D01*
X-1545Y-8265D02*
X-1528Y-8335D01*
X-1512Y-8265D02*
X-1528Y-8335D01*
X-1512Y-8265D02*
X-1495Y-8335D01*
X-1478Y-8265D02*
X-1495Y-8335D01*
X-1464Y-8265D02*
X-1438Y-8298D01*
X-1438Y-8335D01*
X-1411Y-8265D02*
X-1438Y-8298D01*
X-1330Y-8265D02*
X-1340Y-8268D01*
X-1344Y-8275D01*
X-1344Y-8281D01*
X-1340Y-8288D01*
X-1334Y-8291D01*
X-1320Y-8295D01*
X-1310Y-8298D01*
X-1304Y-8305D01*
X-1300Y-8311D01*
X-1300Y-8321D01*
X-1304Y-8328D01*
X-1307Y-8331D01*
X-1317Y-8335D01*
X-1330Y-8335D01*
X-1340Y-8331D01*
X-1344Y-8328D01*
X-1347Y-8321D01*
X-1347Y-8311D01*
X-1344Y-8305D01*
X-1337Y-8298D01*
X-1327Y-8295D01*
X-1314Y-8291D01*
X-1307Y-8288D01*
X-1304Y-8281D01*
X-1304Y-8275D01*
X-1307Y-8268D01*
X-1317Y-8265D01*
X-1330Y-8265D01*
X-1281Y-8281D02*
X-1281Y-8278D01*
X-1278Y-8271D01*
X-1275Y-8268D01*
X-1268Y-8265D01*
X-1255Y-8265D01*
X-1248Y-8268D01*
X-1245Y-8271D01*
X-1241Y-8278D01*
X-1241Y-8285D01*
X-1245Y-8291D01*
X-1251Y-8301D01*
X-1285Y-8335D01*
X-1238Y-8335D01*
X-1206Y-8265D02*
X-1216Y-8268D01*
X-1219Y-8275D01*
X-1219Y-8281D01*
X-1216Y-8288D01*
X-1209Y-8291D01*
X-1196Y-8295D01*
X-1186Y-8298D01*
X-1179Y-8305D01*
X-1176Y-8311D01*
X-1176Y-8321D01*
X-1179Y-8328D01*
X-1182Y-8331D01*
X-1192Y-8335D01*
X-1206Y-8335D01*
X-1216Y-8331D01*
X-1219Y-8328D01*
X-1222Y-8321D01*
X-1222Y-8311D01*
X-1219Y-8305D01*
X-1212Y-8298D01*
X-1202Y-8295D01*
X-1189Y-8291D01*
X-1182Y-8288D01*
X-1179Y-8281D01*
X-1179Y-8275D01*
X-1182Y-8268D01*
X-1192Y-8265D01*
X-1206Y-8265D01*
X-1140Y-8265D02*
X-1150Y-8268D01*
X-1157Y-8278D01*
X-1160Y-8295D01*
X-1160Y-8305D01*
X-1157Y-8321D01*
X-1150Y-8331D01*
X-1140Y-8335D01*
X-1133Y-8335D01*
X-1123Y-8331D01*
X-1117Y-8321D01*
X-1113Y-8305D01*
X-1113Y-8295D01*
X-1117Y-8278D01*
X-1123Y-8268D01*
X-1133Y-8265D01*
X-1140Y-8265D01*
X-1098Y-8278D02*
X-1091Y-8275D01*
X-1081Y-8265D01*
X-1081Y-8335D01*
X-1996Y-8166D02*
X-1960Y-8166D01*
X-1980Y-8193D01*
X-1970Y-8193D01*
X-1963Y-8196D01*
X-1960Y-8200D01*
X-1956Y-8210D01*
X-1956Y-8216D01*
X-1960Y-8226D01*
X-1966Y-8233D01*
X-1976Y-8236D01*
X-1986Y-8236D01*
X-1996Y-8233D01*
X-2000Y-8230D01*
X-2003Y-8223D01*
X-1921Y-8166D02*
X-1931Y-8170D01*
X-1937Y-8180D01*
X-1941Y-8196D01*
X-1941Y-8206D01*
X-1937Y-8223D01*
X-1931Y-8233D01*
X-1921Y-8236D01*
X-1914Y-8236D01*
X-1904Y-8233D01*
X-1898Y-8223D01*
X-1894Y-8206D01*
X-1894Y-8196D01*
X-1898Y-8180D01*
X-1904Y-8170D01*
X-1914Y-8166D01*
X-1921Y-8166D01*
X-1824Y-8166D02*
X-1824Y-8236D01*
X-1824Y-8166D02*
X-1777Y-8236D01*
X-1777Y-8166D02*
X-1777Y-8236D01*
X-1653Y-8183D02*
X-1656Y-8176D01*
X-1663Y-8170D01*
X-1669Y-8166D01*
X-1683Y-8166D01*
X-1689Y-8170D01*
X-1696Y-8176D01*
X-1699Y-8183D01*
X-1703Y-8193D01*
X-1703Y-8210D01*
X-1699Y-8220D01*
X-1696Y-8226D01*
X-1689Y-8233D01*
X-1683Y-8236D01*
X-1669Y-8236D01*
X-1663Y-8233D01*
X-1656Y-8226D01*
X-1653Y-8220D01*
X-1653Y-8210D01*
X-1669Y-8210D02*
X-1653Y-8210D01*
X-1620Y-8190D02*
X-1627Y-8193D01*
X-1633Y-8200D01*
X-1637Y-8210D01*
X-1637Y-8216D01*
X-1633Y-8226D01*
X-1627Y-8233D01*
X-1620Y-8236D01*
X-1610Y-8236D01*
X-1603Y-8233D01*
X-1597Y-8226D01*
X-1593Y-8216D01*
X-1593Y-8210D01*
X-1597Y-8200D01*
X-1603Y-8193D01*
X-1610Y-8190D01*
X-1620Y-8190D01*
X-1578Y-8190D02*
X-1578Y-8223D01*
X-1575Y-8233D01*
X-1568Y-8236D01*
X-1558Y-8236D01*
X-1551Y-8233D01*
X-1541Y-8223D01*
X-1541Y-8190D02*
X-1541Y-8236D01*
X-1523Y-8166D02*
X-1523Y-8236D01*
X-1468Y-8166D02*
X-1468Y-8236D01*
X-1468Y-8200D02*
X-1475Y-8193D01*
X-1482Y-8190D01*
X-1492Y-8190D01*
X-1498Y-8193D01*
X-1505Y-8200D01*
X-1508Y-8210D01*
X-1508Y-8216D01*
X-1505Y-8226D01*
X-1498Y-8233D01*
X-1492Y-8236D01*
X-1482Y-8236D01*
X-1475Y-8233D01*
X-1468Y-8226D01*
X-1348Y-8176D02*
X-1355Y-8170D01*
X-1365Y-8166D01*
X-1378Y-8166D01*
X-1388Y-8170D01*
X-1395Y-8176D01*
X-1395Y-8183D01*
X-1391Y-8190D01*
X-1388Y-8193D01*
X-1381Y-8196D01*
X-1361Y-8203D01*
X-1355Y-8206D01*
X-1351Y-8210D01*
X-1348Y-8216D01*
X-1348Y-8226D01*
X-1355Y-8233D01*
X-1365Y-8236D01*
X-1378Y-8236D01*
X-1388Y-8233D01*
X-1395Y-8226D01*
X-1322Y-8166D02*
X-1322Y-8223D01*
X-1319Y-8233D01*
X-1312Y-8236D01*
X-1306Y-8236D01*
X-1332Y-8190D02*
X-1309Y-8190D01*
X-1204Y-8200D02*
X-1207Y-8193D01*
X-1217Y-8190D01*
X-1227Y-8190D01*
X-1237Y-8193D01*
X-1241Y-8200D01*
X-1237Y-8206D01*
X-1231Y-8210D01*
X-1214Y-8213D01*
X-1207Y-8216D01*
X-1204Y-8223D01*
X-1204Y-8226D01*
X-1207Y-8233D01*
X-1217Y-8236D01*
X-1227Y-8236D01*
X-1237Y-8233D01*
X-1241Y-8226D01*
X-1189Y-8190D02*
X-1189Y-8223D01*
X-1186Y-8233D01*
X-1179Y-8236D01*
X-1169Y-8236D01*
X-1163Y-8233D01*
X-1153Y-8223D01*
X-1153Y-8190D02*
X-1153Y-8236D01*
X-1128Y-8166D02*
X-1124Y-8170D01*
X-1121Y-8166D01*
X-1124Y-8163D01*
X-1128Y-8166D01*
X-1124Y-8190D02*
X-1124Y-8236D01*
X-1099Y-8166D02*
X-1099Y-8223D01*
X-1095Y-8233D01*
X-1089Y-8236D01*
X-1082Y-8236D01*
X-1109Y-8190D02*
X-1085Y-8190D01*
X-1072Y-8210D02*
X-1032Y-8210D01*
X-1032Y-8203D01*
X-1035Y-8196D01*
X-1039Y-8193D01*
X-1045Y-8190D01*
X-1055Y-8190D01*
X-1062Y-8193D01*
X-1069Y-8200D01*
X-1072Y-8210D01*
X-1072Y-8216D01*
X-1069Y-8226D01*
X-1062Y-8233D01*
X-1055Y-8236D01*
X-1045Y-8236D01*
X-1039Y-8233D01*
X-1032Y-8226D01*
X-929Y-8166D02*
X-962Y-8213D01*
X-912Y-8213D01*
X-929Y-8166D02*
X-929Y-8236D01*
X-880Y-8166D02*
X-890Y-8170D01*
X-896Y-8180D01*
X-900Y-8196D01*
X-900Y-8206D01*
X-896Y-8223D01*
X-890Y-8233D01*
X-880Y-8236D01*
X-873Y-8236D01*
X-863Y-8233D01*
X-856Y-8223D01*
X-853Y-8206D01*
X-853Y-8196D01*
X-856Y-8180D01*
X-863Y-8170D01*
X-873Y-8166D01*
X-880Y-8166D01*
X-817Y-8166D02*
X-827Y-8170D01*
X-834Y-8180D01*
X-837Y-8196D01*
X-837Y-8206D01*
X-834Y-8223D01*
X-827Y-8233D01*
X-817Y-8236D01*
X-811Y-8236D01*
X-801Y-8233D01*
X-794Y-8223D01*
X-791Y-8206D01*
X-791Y-8196D01*
X-794Y-8180D01*
X-801Y-8170D01*
X-811Y-8166D01*
X-817Y-8166D01*
X-755Y-8166D02*
X-765Y-8170D01*
X-772Y-8180D01*
X-775Y-8196D01*
X-775Y-8206D01*
X-772Y-8223D01*
X-765Y-8233D01*
X-755Y-8236D01*
X-748Y-8236D01*
X-738Y-8233D01*
X-732Y-8223D01*
X-728Y-8206D01*
X-728Y-8196D01*
X-732Y-8180D01*
X-738Y-8170D01*
X-748Y-8166D01*
X-755Y-8166D01*
X-1950Y-8039D02*
X-1976Y-7969D01*
X-2003Y-8039D01*
X-1993Y-8016D02*
X-1960Y-8016D01*
X-1894Y-8003D02*
X-1900Y-7996D01*
X-1907Y-7993D01*
X-1917Y-7993D01*
X-1923Y-7996D01*
X-1930Y-8003D01*
X-1933Y-8013D01*
X-1933Y-8019D01*
X-1930Y-8029D01*
X-1923Y-8036D01*
X-1917Y-8039D01*
X-1907Y-8039D01*
X-1900Y-8036D01*
X-1894Y-8029D01*
X-1879Y-7993D02*
X-1879Y-8039D01*
X-1879Y-8006D02*
X-1869Y-7996D01*
X-1862Y-7993D01*
X-1852Y-7993D01*
X-1845Y-7996D01*
X-1842Y-8006D01*
X-1842Y-8039D01*
X-1842Y-8006D02*
X-1832Y-7996D01*
X-1825Y-7993D01*
X-1815Y-7993D01*
X-1809Y-7996D01*
X-1805Y-8006D01*
X-1805Y-8039D01*
X-1783Y-8013D02*
X-1743Y-8013D01*
X-1743Y-8006D01*
X-1747Y-7999D01*
X-1750Y-7996D01*
X-1757Y-7993D01*
X-1767Y-7993D01*
X-1773Y-7996D01*
X-1780Y-8003D01*
X-1783Y-8013D01*
X-1783Y-8019D01*
X-1780Y-8029D01*
X-1773Y-8036D01*
X-1767Y-8039D01*
X-1757Y-8039D01*
X-1750Y-8036D01*
X-1743Y-8029D01*
X-1728Y-8063D02*
X-1675Y-8063D01*
X-1616Y-7986D02*
X-1619Y-7979D01*
X-1626Y-7973D01*
X-1633Y-7969D01*
X-1646Y-7969D01*
X-1653Y-7973D01*
X-1659Y-7979D01*
X-1663Y-7986D01*
X-1666Y-7996D01*
X-1666Y-8013D01*
X-1663Y-8023D01*
X-1659Y-8029D01*
X-1653Y-8036D01*
X-1646Y-8039D01*
X-1633Y-8039D01*
X-1626Y-8036D01*
X-1619Y-8029D01*
X-1616Y-8023D01*
X-1596Y-8006D02*
X-1566Y-8006D01*
X-1556Y-8003D01*
X-1553Y-7999D01*
X-1550Y-7993D01*
X-1550Y-7983D01*
X-1553Y-7976D01*
X-1556Y-7973D01*
X-1566Y-7969D01*
X-1596Y-7969D01*
X-1596Y-8039D01*
X-1534Y-7969D02*
X-1534Y-8019D01*
X-1531Y-8029D01*
X-1524Y-8036D01*
X-1514Y-8039D01*
X-1507Y-8039D01*
X-1497Y-8036D01*
X-1491Y-8029D01*
X-1487Y-8019D01*
X-1487Y-7969D01*
X-557Y-8644D02*
X-557Y-8714D01*
X-557Y-8644D02*
X-531Y-8714D01*
X-504Y-8644D02*
X-531Y-8714D01*
X-504Y-8644D02*
X-504Y-8714D01*
X-467Y-8667D02*
X-474Y-8671D01*
X-481Y-8677D01*
X-484Y-8687D01*
X-484Y-8694D01*
X-481Y-8704D01*
X-474Y-8711D01*
X-467Y-8714D01*
X-457Y-8714D01*
X-451Y-8711D01*
X-444Y-8704D01*
X-441Y-8694D01*
X-441Y-8687D01*
X-444Y-8677D01*
X-451Y-8671D01*
X-457Y-8667D01*
X-467Y-8667D01*
X-415Y-8644D02*
X-415Y-8701D01*
X-412Y-8711D01*
X-405Y-8714D01*
X-399Y-8714D01*
X-425Y-8667D02*
X-402Y-8667D01*
X-372Y-8667D02*
X-379Y-8671D01*
X-385Y-8677D01*
X-389Y-8687D01*
X-389Y-8694D01*
X-385Y-8704D01*
X-379Y-8711D01*
X-372Y-8714D01*
X-362Y-8714D01*
X-355Y-8711D01*
X-349Y-8704D01*
X-345Y-8694D01*
X-345Y-8687D01*
X-349Y-8677D01*
X-355Y-8671D01*
X-362Y-8667D01*
X-372Y-8667D01*
X-330Y-8667D02*
X-330Y-8714D01*
X-330Y-8687D02*
X-327Y-8677D01*
X-320Y-8671D01*
X-313Y-8667D01*
X-303Y-8667D01*
X-297Y-8737D02*
X-244Y-8737D01*
X-235Y-8644D02*
X-235Y-8714D01*
X-235Y-8644D02*
X-211Y-8644D01*
X-201Y-8647D01*
X-195Y-8654D01*
X-191Y-8661D01*
X-188Y-8671D01*
X-188Y-8687D01*
X-191Y-8697D01*
X-195Y-8704D01*
X-201Y-8711D01*
X-211Y-8714D01*
X-235Y-8714D01*
X-172Y-8667D02*
X-172Y-8714D01*
X-172Y-8687D02*
X-169Y-8677D01*
X-162Y-8671D01*
X-156Y-8667D01*
X-146Y-8667D01*
X-133Y-8644D02*
X-129Y-8647D01*
X-126Y-8644D01*
X-129Y-8641D01*
X-133Y-8644D01*
X-129Y-8667D02*
X-129Y-8714D01*
X-114Y-8667D02*
X-94Y-8714D01*
X-74Y-8667D02*
X-94Y-8714D01*
X-62Y-8687D02*
X-22Y-8687D01*
X-22Y-8681D01*
X-26Y-8674D01*
X-29Y-8671D01*
X-36Y-8667D01*
X-46Y-8667D01*
X-52Y-8671D01*
X-59Y-8677D01*
X-62Y-8687D01*
X-62Y-8694D01*
X-59Y-8704D01*
X-52Y-8711D01*
X-46Y-8714D01*
X-36Y-8714D01*
X-29Y-8711D01*
X-22Y-8704D01*
X-7Y-8667D02*
X-7Y-8714D01*
X-7Y-8687D02*
X-4Y-8677D01*
X3Y-8671D01*
X9Y-8667D01*
X19Y-8667D01*
X26Y-8737D02*
X79Y-8737D01*
X88Y-8644D02*
X88Y-8714D01*
X88Y-8644D02*
X115Y-8714D01*
X141Y-8644D02*
X115Y-8714D01*
X141Y-8644D02*
X141Y-8714D01*
X178Y-8667D02*
X171Y-8671D01*
X165Y-8677D01*
X161Y-8687D01*
X161Y-8694D01*
X165Y-8704D01*
X171Y-8711D01*
X178Y-8714D01*
X188Y-8714D01*
X195Y-8711D01*
X201Y-8704D01*
X205Y-8694D01*
X205Y-8687D01*
X201Y-8677D01*
X195Y-8671D01*
X188Y-8667D01*
X178Y-8667D01*
X260Y-8644D02*
X260Y-8714D01*
X260Y-8677D02*
X253Y-8671D01*
X247Y-8667D01*
X237Y-8667D01*
X230Y-8671D01*
X223Y-8677D01*
X220Y-8687D01*
X220Y-8694D01*
X223Y-8704D01*
X230Y-8711D01*
X237Y-8714D01*
X247Y-8714D01*
X253Y-8711D01*
X260Y-8704D01*
X279Y-8687D02*
X319Y-8687D01*
X319Y-8681D01*
X315Y-8674D01*
X312Y-8671D01*
X305Y-8667D01*
X295Y-8667D01*
X289Y-8671D01*
X282Y-8677D01*
X279Y-8687D01*
X279Y-8694D01*
X282Y-8704D01*
X289Y-8711D01*
X295Y-8714D01*
X305Y-8714D01*
X312Y-8711D01*
X319Y-8704D01*
X334Y-8644D02*
X334Y-8714D01*
X348Y-8737D02*
X402Y-8737D01*
X411Y-8644D02*
X411Y-8714D01*
X411Y-8644D02*
X434Y-8644D01*
X444Y-8647D01*
X451Y-8654D01*
X454Y-8661D01*
X457Y-8671D01*
X457Y-8687D01*
X454Y-8697D01*
X451Y-8704D01*
X444Y-8711D01*
X434Y-8714D01*
X411Y-8714D01*
X476Y-8661D02*
X476Y-8657D01*
X480Y-8651D01*
X483Y-8647D01*
X490Y-8644D01*
X503Y-8644D01*
X510Y-8647D01*
X513Y-8651D01*
X516Y-8657D01*
X516Y-8664D01*
X513Y-8671D01*
X506Y-8681D01*
X473Y-8714D01*
X520Y-8714D01*
X555Y-8644D02*
X545Y-8647D01*
X539Y-8657D01*
X535Y-8674D01*
X535Y-8684D01*
X539Y-8701D01*
X545Y-8711D01*
X555Y-8714D01*
X562Y-8714D01*
X572Y-8711D01*
X579Y-8701D01*
X582Y-8684D01*
X582Y-8674D01*
X579Y-8657D01*
X572Y-8647D01*
X562Y-8644D01*
X555Y-8644D01*
X598Y-8657D02*
X604Y-8654D01*
X614Y-8644D01*
X614Y-8714D01*
X652Y-8707D02*
X649Y-8711D01*
X652Y-8714D01*
X655Y-8711D01*
X652Y-8707D01*
X671Y-8681D02*
X701Y-8681D01*
X711Y-8677D01*
X714Y-8674D01*
X717Y-8667D01*
X717Y-8657D01*
X714Y-8651D01*
X711Y-8647D01*
X701Y-8644D01*
X671Y-8644D01*
X671Y-8714D01*
X773Y-8677D02*
X766Y-8671D01*
X760Y-8667D01*
X750Y-8667D01*
X743Y-8671D01*
X736Y-8677D01*
X733Y-8687D01*
X733Y-8694D01*
X736Y-8704D01*
X743Y-8711D01*
X750Y-8714D01*
X760Y-8714D01*
X766Y-8711D01*
X773Y-8704D01*
X788Y-8644D02*
X788Y-8714D01*
X788Y-8677D02*
X795Y-8671D01*
X801Y-8667D01*
X811Y-8667D01*
X818Y-8671D01*
X825Y-8677D01*
X828Y-8687D01*
X828Y-8694D01*
X825Y-8704D01*
X818Y-8711D01*
X811Y-8714D01*
X801Y-8714D01*
X795Y-8711D01*
X788Y-8704D01*
X843Y-8644D02*
X843Y-8714D01*
X843Y-8644D02*
X866Y-8644D01*
X876Y-8647D01*
X883Y-8654D01*
X886Y-8661D01*
X890Y-8671D01*
X890Y-8687D01*
X886Y-8697D01*
X883Y-8704D01*
X876Y-8711D01*
X866Y-8714D01*
X843Y-8714D01*
X922Y-8667D02*
X915Y-8671D01*
X909Y-8677D01*
X905Y-8687D01*
X905Y-8694D01*
X909Y-8704D01*
X915Y-8711D01*
X922Y-8714D01*
X932Y-8714D01*
X939Y-8711D01*
X945Y-8704D01*
X949Y-8694D01*
X949Y-8687D01*
X945Y-8677D01*
X939Y-8671D01*
X932Y-8667D01*
X922Y-8667D01*
X1004Y-8677D02*
X997Y-8671D01*
X991Y-8667D01*
X981Y-8667D01*
X974Y-8671D01*
X967Y-8677D01*
X964Y-8687D01*
X964Y-8694D01*
X967Y-8704D01*
X974Y-8711D01*
X981Y-8714D01*
X991Y-8714D01*
X997Y-8711D01*
X1004Y-8704D01*
X-556Y-8334D02*
X-556Y-8331D01*
X-553Y-8324D01*
X-550Y-8321D01*
X-543Y-8318D01*
X-530Y-8318D01*
X-523Y-8321D01*
X-520Y-8324D01*
X-516Y-8331D01*
X-516Y-8338D01*
X-520Y-8344D01*
X-526Y-8354D01*
X-560Y-8388D01*
X-513Y-8388D01*
X-477Y-8318D02*
X-487Y-8321D01*
X-494Y-8331D01*
X-497Y-8348D01*
X-497Y-8358D01*
X-494Y-8374D01*
X-487Y-8384D01*
X-477Y-8388D01*
X-471Y-8388D01*
X-461Y-8384D01*
X-454Y-8374D01*
X-451Y-8358D01*
X-451Y-8348D01*
X-454Y-8331D01*
X-461Y-8321D01*
X-471Y-8318D01*
X-477Y-8318D01*
X-432Y-8334D02*
X-432Y-8331D01*
X-428Y-8324D01*
X-425Y-8321D01*
X-418Y-8318D01*
X-405Y-8318D01*
X-398Y-8321D01*
X-395Y-8324D01*
X-392Y-8331D01*
X-392Y-8338D01*
X-395Y-8344D01*
X-402Y-8354D01*
X-435Y-8388D01*
X-388Y-8388D01*
X-353Y-8318D02*
X-363Y-8321D01*
X-369Y-8331D01*
X-373Y-8348D01*
X-373Y-8358D01*
X-369Y-8374D01*
X-363Y-8384D01*
X-353Y-8388D01*
X-346Y-8388D01*
X-336Y-8384D01*
X-329Y-8374D01*
X-326Y-8358D01*
X-326Y-8348D01*
X-329Y-8331D01*
X-336Y-8321D01*
X-346Y-8318D01*
X-353Y-8318D01*
X-310Y-8331D02*
X-304Y-8328D01*
X-294Y-8318D01*
X-294Y-8388D01*
X-259Y-8331D02*
X-252Y-8328D01*
X-242Y-8318D01*
X-242Y-8388D01*
X-188Y-8318D02*
X-198Y-8321D01*
X-205Y-8331D01*
X-208Y-8348D01*
X-208Y-8358D01*
X-205Y-8374D01*
X-198Y-8384D01*
X-188Y-8388D01*
X-181Y-8388D01*
X-171Y-8384D01*
X-165Y-8374D01*
X-161Y-8358D01*
X-161Y-8348D01*
X-165Y-8331D01*
X-171Y-8321D01*
X-181Y-8318D01*
X-188Y-8318D01*
X-106Y-8318D02*
X-139Y-8318D01*
X-142Y-8348D01*
X-139Y-8344D01*
X-129Y-8341D01*
X-119Y-8341D01*
X-109Y-8344D01*
X-102Y-8351D01*
X-99Y-8361D01*
X-99Y-8368D01*
X-102Y-8378D01*
X-109Y-8384D01*
X-119Y-8388D01*
X-129Y-8388D01*
X-139Y-8384D01*
X-142Y-8381D01*
X-146Y-8374D01*
X-2318Y-7472D02*
X-2318Y-7542D01*
X-2318Y-7472D02*
X-2295Y-7472D01*
X-2285Y-7476D01*
X-2278Y-7482D01*
X-2275Y-7489D01*
X-2271Y-7499D01*
X-2271Y-7516D01*
X-2275Y-7526D01*
X-2278Y-7532D01*
X-2285Y-7539D01*
X-2295Y-7542D01*
X-2318Y-7542D01*
X-2268Y-4645D02*
X-2271Y-4638D01*
X-2278Y-4631D01*
X-2285Y-4628D01*
X-2298Y-4628D01*
X-2305Y-4631D01*
X-2311Y-4638D01*
X-2315Y-4645D01*
X-2318Y-4655D01*
X-2318Y-4671D01*
X-2315Y-4681D01*
X-2311Y-4688D01*
X-2305Y-4695D01*
X-2298Y-4698D01*
X-2285Y-4698D01*
X-2278Y-4695D01*
X-2271Y-4688D01*
X-2268Y-4681D01*
X-2318Y-1705D02*
X-2318Y-1775D01*
X-2318Y-1705D02*
X-2288Y-1705D01*
X-2278Y-1708D01*
X-2275Y-1711D01*
X-2271Y-1718D01*
X-2271Y-1725D01*
X-2275Y-1731D01*
X-2278Y-1735D01*
X-2288Y-1738D01*
X-2318Y-1738D02*
X-2288Y-1738D01*
X-2278Y-1741D01*
X-2275Y-1745D01*
X-2271Y-1751D01*
X-2271Y-1761D01*
X-2275Y-1768D01*
X-2278Y-1771D01*
X-2288Y-1775D01*
X-2318Y-1775D01*
X-2265Y1149D02*
X-2291Y1219D01*
X-2318Y1149D01*
X-2308Y1172D02*
X-2275Y1172D01*
X4965Y-7472D02*
X4965Y-7542D01*
X4965Y-7472D02*
X4989Y-7472D01*
X4999Y-7476D01*
X5005Y-7482D01*
X5009Y-7489D01*
X5012Y-7499D01*
X5012Y-7516D01*
X5009Y-7526D01*
X5005Y-7532D01*
X4999Y-7539D01*
X4989Y-7542D01*
X4965Y-7542D01*
X5015Y-4645D02*
X5012Y-4638D01*
X5005Y-4631D01*
X4999Y-4628D01*
X4985Y-4628D01*
X4979Y-4631D01*
X4972Y-4638D01*
X4969Y-4645D01*
X4965Y-4655D01*
X4965Y-4671D01*
X4969Y-4681D01*
X4972Y-4688D01*
X4979Y-4695D01*
X4985Y-4698D01*
X4999Y-4698D01*
X5005Y-4695D01*
X5012Y-4688D01*
X5015Y-4681D01*
X4965Y-1705D02*
X4965Y-1775D01*
X4965Y-1705D02*
X4995Y-1705D01*
X5005Y-1708D01*
X5009Y-1711D01*
X5012Y-1718D01*
X5012Y-1725D01*
X5009Y-1731D01*
X5005Y-1735D01*
X4995Y-1738D01*
X4965Y-1738D02*
X4995Y-1738D01*
X5005Y-1741D01*
X5009Y-1745D01*
X5012Y-1751D01*
X5012Y-1761D01*
X5009Y-1768D01*
X5005Y-1771D01*
X4995Y-1775D01*
X4965Y-1775D01*
X5019Y1149D02*
X4992Y1219D01*
X4965Y1149D01*
X4975Y1172D02*
X5009Y1172D01*
X3712Y-8855D02*
X3749Y-8855D01*
X3729Y-8882D01*
X3739Y-8882D01*
X3746Y-8885D01*
X3749Y-8889D01*
X3752Y-8899D01*
X3752Y-8905D01*
X3749Y-8915D01*
X3742Y-8922D01*
X3732Y-8925D01*
X3722Y-8925D01*
X3712Y-8922D01*
X3709Y-8919D01*
X3706Y-8912D01*
X-1019Y-8869D02*
X-1012Y-8865D01*
X-1002Y-8855D01*
X-1002Y-8925D01*
X1347Y-8872D02*
X1347Y-8869D01*
X1350Y-8862D01*
X1353Y-8859D01*
X1360Y-8855D01*
X1373Y-8855D01*
X1380Y-8859D01*
X1383Y-8862D01*
X1387Y-8869D01*
X1387Y-8875D01*
X1383Y-8882D01*
X1377Y-8892D01*
X1343Y-8925D01*
X1390Y-8925D01*
D35*
X-650Y-8234D02*
X-650Y-8279D01*
X-650Y-8234D02*
X-635Y-8234D01*
X-628Y-8236D01*
X-624Y-8241D01*
X-622Y-8245D01*
X-620Y-8251D01*
X-620Y-8262D01*
X-622Y-8269D01*
X-624Y-8273D01*
X-628Y-8277D01*
X-635Y-8279D01*
X-650Y-8279D01*
X-575Y-8279D02*
X-593Y-8234D01*
X-610Y-8279D01*
X-603Y-8264D02*
X-582Y-8264D01*
X-550Y-8234D02*
X-550Y-8279D01*
X-565Y-8234D02*
X-535Y-8234D01*
X-502Y-8234D02*
X-530Y-8234D01*
X-530Y-8279D01*
X-502Y-8279D01*
X-530Y-8256D02*
X-512Y-8256D01*
X-492Y-8249D02*
X-494Y-8251D01*
X-492Y-8254D01*
X-490Y-8251D01*
X-492Y-8249D01*
X-492Y-8275D02*
X-494Y-8277D01*
X-492Y-8279D01*
X-490Y-8277D01*
X-492Y-8275D01*
X3633Y-8234D02*
X3650Y-8279D01*
X3667Y-8234D02*
X3650Y-8279D01*
X3673Y-8262D02*
X3699Y-8262D01*
X3699Y-8258D01*
X3697Y-8254D01*
X3694Y-8251D01*
X3690Y-8249D01*
X3684Y-8249D01*
X3679Y-8251D01*
X3675Y-8256D01*
X3673Y-8262D01*
X3673Y-8266D01*
X3675Y-8273D01*
X3679Y-8277D01*
X3684Y-8279D01*
X3690Y-8279D01*
X3694Y-8277D01*
X3699Y-8273D01*
X3708Y-8249D02*
X3708Y-8279D01*
X3708Y-8262D02*
X3711Y-8256D01*
X3715Y-8251D01*
X3719Y-8249D01*
X3726Y-8249D01*
X3732Y-8249D02*
X3730Y-8251D01*
X3732Y-8254D01*
X3734Y-8251D01*
X3732Y-8249D01*
X3732Y-8275D02*
X3730Y-8277D01*
X3732Y-8279D01*
X3734Y-8277D01*
X3732Y-8275D01*
X1563Y-8541D02*
X1559Y-8536D01*
X1552Y-8534D01*
X1544Y-8534D01*
X1537Y-8536D01*
X1533Y-8541D01*
X1533Y-8545D01*
X1535Y-8549D01*
X1537Y-8551D01*
X1542Y-8554D01*
X1554Y-8558D01*
X1559Y-8560D01*
X1561Y-8562D01*
X1563Y-8566D01*
X1563Y-8573D01*
X1559Y-8577D01*
X1552Y-8579D01*
X1544Y-8579D01*
X1537Y-8577D01*
X1533Y-8573D01*
X1605Y-8545D02*
X1603Y-8541D01*
X1599Y-8536D01*
X1594Y-8534D01*
X1586Y-8534D01*
X1582Y-8536D01*
X1577Y-8541D01*
X1575Y-8545D01*
X1573Y-8551D01*
X1573Y-8562D01*
X1575Y-8569D01*
X1577Y-8573D01*
X1582Y-8577D01*
X1586Y-8579D01*
X1594Y-8579D01*
X1599Y-8577D01*
X1603Y-8573D01*
X1605Y-8569D01*
X1618Y-8534D02*
X1618Y-8579D01*
X1648Y-8534D02*
X1648Y-8579D01*
X1618Y-8556D02*
X1648Y-8556D01*
X1662Y-8575D02*
X1660Y-8577D01*
X1662Y-8579D01*
X1664Y-8577D01*
X1662Y-8575D01*
X1710Y-8534D02*
X1710Y-8579D01*
X1710Y-8534D02*
X1740Y-8579D01*
X1740Y-8534D02*
X1740Y-8579D01*
X1765Y-8534D02*
X1761Y-8536D01*
X1756Y-8541D01*
X1754Y-8545D01*
X1752Y-8551D01*
X1752Y-8562D01*
X1754Y-8569D01*
X1756Y-8573D01*
X1761Y-8577D01*
X1765Y-8579D01*
X1774Y-8579D01*
X1778Y-8577D01*
X1782Y-8573D01*
X1784Y-8569D01*
X1786Y-8562D01*
X1786Y-8551D01*
X1784Y-8545D01*
X1782Y-8541D01*
X1778Y-8536D01*
X1774Y-8534D01*
X1765Y-8534D01*
X1799Y-8575D02*
X1797Y-8577D01*
X1799Y-8579D01*
X1801Y-8577D01*
X1799Y-8575D01*
X1813Y-8549D02*
X1811Y-8551D01*
X1813Y-8554D01*
X1815Y-8551D01*
X1813Y-8549D01*
X1813Y-8575D02*
X1811Y-8577D01*
X1813Y-8579D01*
X1815Y-8577D01*
X1813Y-8575D01*
X-622Y-7634D02*
X-650Y-7634D01*
X-650Y-7679D01*
X-622Y-7679D01*
X-650Y-7656D02*
X-633Y-7656D01*
X-614Y-7634D02*
X-614Y-7679D01*
X-614Y-7634D02*
X-584Y-7679D01*
X-584Y-7634D02*
X-584Y-7679D01*
X-540Y-7645D02*
X-542Y-7641D01*
X-546Y-7636D01*
X-551Y-7634D01*
X-559Y-7634D01*
X-563Y-7636D01*
X-568Y-7641D01*
X-570Y-7645D01*
X-572Y-7651D01*
X-572Y-7662D01*
X-570Y-7669D01*
X-568Y-7673D01*
X-563Y-7677D01*
X-559Y-7679D01*
X-551Y-7679D01*
X-546Y-7677D01*
X-542Y-7673D01*
X-540Y-7669D01*
X-540Y-7662D01*
X-551Y-7662D02*
X-540Y-7662D01*
X-530Y-7634D02*
X-530Y-7679D01*
X-520Y-7634D02*
X-520Y-7679D01*
X-520Y-7634D02*
X-490Y-7679D01*
X-490Y-7634D02*
X-490Y-7679D01*
X-450Y-7634D02*
X-478Y-7634D01*
X-478Y-7679D01*
X-450Y-7679D01*
X-478Y-7656D02*
X-461Y-7656D01*
X-414Y-7634D02*
X-442Y-7634D01*
X-442Y-7679D01*
X-414Y-7679D01*
X-442Y-7656D02*
X-425Y-7656D01*
X-407Y-7634D02*
X-407Y-7679D01*
X-407Y-7634D02*
X-388Y-7634D01*
X-381Y-7636D01*
X-379Y-7639D01*
X-377Y-7643D01*
X-377Y-7647D01*
X-379Y-7651D01*
X-381Y-7654D01*
X-388Y-7656D01*
X-407Y-7656D01*
X-392Y-7656D02*
X-377Y-7679D01*
X-365Y-7649D02*
X-367Y-7651D01*
X-365Y-7654D01*
X-363Y-7651D01*
X-365Y-7649D01*
X-365Y-7675D02*
X-367Y-7677D01*
X-365Y-7679D01*
X-363Y-7677D01*
X-365Y-7675D01*
X1533Y-8258D02*
X1552Y-8258D01*
X1559Y-8256D01*
X1561Y-8254D01*
X1563Y-8249D01*
X1563Y-8243D01*
X1561Y-8239D01*
X1559Y-8236D01*
X1552Y-8234D01*
X1533Y-8234D01*
X1533Y-8279D01*
X1607Y-8279D02*
X1590Y-8234D01*
X1573Y-8279D01*
X1579Y-8264D02*
X1601Y-8264D01*
X1618Y-8234D02*
X1618Y-8279D01*
X1618Y-8234D02*
X1637Y-8234D01*
X1644Y-8236D01*
X1646Y-8239D01*
X1648Y-8243D01*
X1648Y-8247D01*
X1646Y-8251D01*
X1644Y-8254D01*
X1637Y-8256D01*
X1618Y-8256D01*
X1633Y-8256D02*
X1648Y-8279D01*
X1673Y-8234D02*
X1673Y-8279D01*
X1658Y-8234D02*
X1688Y-8234D01*
X1729Y-8234D02*
X1729Y-8279D01*
X1729Y-8234D02*
X1759Y-8279D01*
X1759Y-8234D02*
X1759Y-8279D01*
X1784Y-8234D02*
X1780Y-8236D01*
X1775Y-8241D01*
X1773Y-8245D01*
X1771Y-8251D01*
X1771Y-8262D01*
X1773Y-8269D01*
X1775Y-8273D01*
X1780Y-8277D01*
X1784Y-8279D01*
X1792Y-8279D01*
X1797Y-8277D01*
X1801Y-8273D01*
X1803Y-8269D01*
X1805Y-8262D01*
X1805Y-8251D01*
X1803Y-8245D01*
X1801Y-8241D01*
X1797Y-8236D01*
X1792Y-8234D01*
X1784Y-8234D01*
X1818Y-8275D02*
X1816Y-8277D01*
X1818Y-8279D01*
X1820Y-8277D01*
X1818Y-8275D01*
X1832Y-8249D02*
X1830Y-8251D01*
X1832Y-8254D01*
X1834Y-8251D01*
X1832Y-8249D01*
X1832Y-8275D02*
X1830Y-8277D01*
X1832Y-8279D01*
X1834Y-8277D01*
X1832Y-8275D01*
X1533Y-7658D02*
X1552Y-7658D01*
X1559Y-7656D01*
X1561Y-7654D01*
X1563Y-7649D01*
X1563Y-7643D01*
X1561Y-7639D01*
X1559Y-7636D01*
X1552Y-7634D01*
X1533Y-7634D01*
X1533Y-7679D01*
X1573Y-7634D02*
X1573Y-7679D01*
X1573Y-7634D02*
X1592Y-7634D01*
X1599Y-7636D01*
X1601Y-7639D01*
X1603Y-7643D01*
X1603Y-7647D01*
X1601Y-7651D01*
X1599Y-7654D01*
X1592Y-7656D01*
X1573Y-7656D01*
X1588Y-7656D02*
X1603Y-7679D01*
X1626Y-7634D02*
X1622Y-7636D01*
X1617Y-7641D01*
X1615Y-7645D01*
X1613Y-7651D01*
X1613Y-7662D01*
X1615Y-7669D01*
X1617Y-7673D01*
X1622Y-7677D01*
X1626Y-7679D01*
X1635Y-7679D01*
X1639Y-7677D01*
X1643Y-7673D01*
X1645Y-7669D01*
X1647Y-7662D01*
X1647Y-7651D01*
X1645Y-7645D01*
X1643Y-7641D01*
X1639Y-7636D01*
X1635Y-7634D01*
X1626Y-7634D01*
X1679Y-7634D02*
X1679Y-7669D01*
X1677Y-7675D01*
X1675Y-7677D01*
X1671Y-7679D01*
X1666Y-7679D01*
X1662Y-7677D01*
X1660Y-7675D01*
X1658Y-7669D01*
X1658Y-7664D01*
X1719Y-7634D02*
X1691Y-7634D01*
X1691Y-7679D01*
X1719Y-7679D01*
X1691Y-7656D02*
X1708Y-7656D01*
X1758Y-7645D02*
X1756Y-7641D01*
X1752Y-7636D01*
X1748Y-7634D01*
X1739Y-7634D01*
X1735Y-7636D01*
X1730Y-7641D01*
X1728Y-7645D01*
X1726Y-7651D01*
X1726Y-7662D01*
X1728Y-7669D01*
X1730Y-7673D01*
X1735Y-7677D01*
X1739Y-7679D01*
X1748Y-7679D01*
X1752Y-7677D01*
X1756Y-7673D01*
X1758Y-7669D01*
X1786Y-7634D02*
X1786Y-7679D01*
X1771Y-7634D02*
X1801Y-7634D01*
X1842Y-7634D02*
X1842Y-7679D01*
X1842Y-7634D02*
X1872Y-7679D01*
X1872Y-7634D02*
X1872Y-7679D01*
X1918Y-7679D02*
X1901Y-7634D01*
X1884Y-7679D01*
X1891Y-7664D02*
X1912Y-7664D01*
X1929Y-7634D02*
X1929Y-7679D01*
X1929Y-7634D02*
X1946Y-7679D01*
X1963Y-7634D02*
X1946Y-7679D01*
X1963Y-7634D02*
X1963Y-7679D01*
X2004Y-7634D02*
X1976Y-7634D01*
X1976Y-7679D01*
X2004Y-7679D01*
X1976Y-7656D02*
X1993Y-7656D01*
X2013Y-7649D02*
X2011Y-7651D01*
X2013Y-7654D01*
X2016Y-7651D01*
X2013Y-7649D01*
X2013Y-7675D02*
X2011Y-7677D01*
X2013Y-7679D01*
X2016Y-7677D01*
X2013Y-7675D01*
X-650Y-7953D02*
X-630Y-7953D01*
X-624Y-7951D01*
X-622Y-7949D01*
X-620Y-7944D01*
X-620Y-7938D01*
X-622Y-7934D01*
X-624Y-7931D01*
X-630Y-7929D01*
X-650Y-7929D01*
X-650Y-7974D01*
X-578Y-7940D02*
X-580Y-7936D01*
X-584Y-7931D01*
X-588Y-7929D01*
X-597Y-7929D01*
X-601Y-7931D01*
X-605Y-7936D01*
X-608Y-7940D01*
X-610Y-7946D01*
X-610Y-7957D01*
X-608Y-7964D01*
X-605Y-7968D01*
X-601Y-7972D01*
X-597Y-7974D01*
X-588Y-7974D01*
X-584Y-7972D01*
X-580Y-7968D01*
X-578Y-7964D01*
X-565Y-7929D02*
X-565Y-7974D01*
X-565Y-7929D02*
X-546Y-7929D01*
X-539Y-7931D01*
X-537Y-7934D01*
X-535Y-7938D01*
X-535Y-7942D01*
X-537Y-7946D01*
X-539Y-7949D01*
X-546Y-7951D01*
X-565Y-7951D02*
X-546Y-7951D01*
X-539Y-7953D01*
X-537Y-7955D01*
X-535Y-7959D01*
X-535Y-7966D01*
X-537Y-7970D01*
X-539Y-7972D01*
X-546Y-7974D01*
X-565Y-7974D01*
X-489Y-7929D02*
X-489Y-7974D01*
X-489Y-7929D02*
X-474Y-7929D01*
X-468Y-7931D01*
X-464Y-7936D01*
X-462Y-7940D01*
X-459Y-7946D01*
X-459Y-7957D01*
X-462Y-7964D01*
X-464Y-7968D01*
X-468Y-7972D01*
X-474Y-7974D01*
X-489Y-7974D01*
X-422Y-7929D02*
X-449Y-7929D01*
X-449Y-7974D01*
X-422Y-7974D01*
X-449Y-7951D02*
X-432Y-7951D01*
X-384Y-7936D02*
X-388Y-7931D01*
X-395Y-7929D01*
X-403Y-7929D01*
X-410Y-7931D01*
X-414Y-7936D01*
X-414Y-7940D01*
X-412Y-7944D01*
X-410Y-7946D01*
X-405Y-7949D01*
X-393Y-7953D01*
X-388Y-7955D01*
X-386Y-7957D01*
X-384Y-7961D01*
X-384Y-7968D01*
X-388Y-7972D01*
X-395Y-7974D01*
X-403Y-7974D01*
X-410Y-7972D01*
X-414Y-7968D01*
X-374Y-7929D02*
X-374Y-7974D01*
X-332Y-7940D02*
X-335Y-7936D01*
X-339Y-7931D01*
X-343Y-7929D01*
X-352Y-7929D01*
X-356Y-7931D01*
X-360Y-7936D01*
X-362Y-7940D01*
X-365Y-7946D01*
X-365Y-7957D01*
X-362Y-7964D01*
X-360Y-7968D01*
X-356Y-7972D01*
X-352Y-7974D01*
X-343Y-7974D01*
X-339Y-7972D01*
X-335Y-7968D01*
X-332Y-7964D01*
X-332Y-7957D01*
X-343Y-7957D02*
X-332Y-7957D01*
X-322Y-7929D02*
X-322Y-7974D01*
X-322Y-7929D02*
X-292Y-7974D01*
X-292Y-7929D02*
X-292Y-7974D01*
X-252Y-7929D02*
X-280Y-7929D01*
X-280Y-7974D01*
X-252Y-7974D01*
X-280Y-7951D02*
X-263Y-7951D01*
X-244Y-7929D02*
X-244Y-7974D01*
X-244Y-7929D02*
X-225Y-7929D01*
X-219Y-7931D01*
X-217Y-7934D01*
X-214Y-7938D01*
X-214Y-7942D01*
X-217Y-7946D01*
X-219Y-7949D01*
X-225Y-7951D01*
X-244Y-7951D01*
X-229Y-7951D02*
X-214Y-7974D01*
X-202Y-7944D02*
X-204Y-7946D01*
X-202Y-7949D01*
X-200Y-7946D01*
X-202Y-7944D01*
X-202Y-7970D02*
X-204Y-7972D01*
X-202Y-7974D01*
X-200Y-7972D01*
X-202Y-7970D01*
X-650Y-8534D02*
X-650Y-8579D01*
X-650Y-8534D02*
X-622Y-8534D01*
X-650Y-8556D02*
X-633Y-8556D01*
X-617Y-8534D02*
X-617Y-8579D01*
X-607Y-8534D02*
X-607Y-8579D01*
X-582Y-8579D01*
X-549Y-8534D02*
X-577Y-8534D01*
X-577Y-8579D01*
X-549Y-8579D01*
X-577Y-8556D02*
X-560Y-8556D01*
X-506Y-8534D02*
X-506Y-8579D01*
X-506Y-8534D02*
X-476Y-8579D01*
X-476Y-8534D02*
X-476Y-8579D01*
X-429Y-8579D02*
X-446Y-8534D01*
X-464Y-8579D01*
X-457Y-8564D02*
X-436Y-8564D01*
X-419Y-8534D02*
X-419Y-8579D01*
X-419Y-8534D02*
X-402Y-8579D01*
X-384Y-8534D02*
X-402Y-8579D01*
X-384Y-8534D02*
X-384Y-8579D01*
X-344Y-8534D02*
X-372Y-8534D01*
X-372Y-8579D01*
X-344Y-8579D01*
X-372Y-8556D02*
X-355Y-8556D01*
X-334Y-8549D02*
X-336Y-8551D01*
X-334Y-8554D01*
X-332Y-8551D01*
X-334Y-8549D01*
X-334Y-8575D02*
X-336Y-8577D01*
X-334Y-8579D01*
X-332Y-8577D01*
X-334Y-8575D01*
X3663Y-8541D02*
X3659Y-8536D01*
X3652Y-8534D01*
X3644Y-8534D01*
X3637Y-8536D01*
X3633Y-8541D01*
X3633Y-8545D01*
X3635Y-8549D01*
X3637Y-8551D01*
X3642Y-8554D01*
X3654Y-8558D01*
X3659Y-8560D01*
X3661Y-8562D01*
X3663Y-8566D01*
X3663Y-8573D01*
X3659Y-8577D01*
X3652Y-8579D01*
X3644Y-8579D01*
X3637Y-8577D01*
X3633Y-8573D01*
X3705Y-8545D02*
X3703Y-8541D01*
X3699Y-8536D01*
X3694Y-8534D01*
X3686Y-8534D01*
X3682Y-8536D01*
X3677Y-8541D01*
X3675Y-8545D01*
X3673Y-8551D01*
X3673Y-8562D01*
X3675Y-8569D01*
X3677Y-8573D01*
X3682Y-8577D01*
X3686Y-8579D01*
X3694Y-8579D01*
X3699Y-8577D01*
X3703Y-8573D01*
X3705Y-8569D01*
X3752Y-8579D02*
X3735Y-8534D01*
X3718Y-8579D01*
X3724Y-8564D02*
X3746Y-8564D01*
X3763Y-8534D02*
X3763Y-8579D01*
X3788Y-8579D01*
X3821Y-8534D02*
X3793Y-8534D01*
X3793Y-8579D01*
X3821Y-8579D01*
X3793Y-8556D02*
X3810Y-8556D01*
X3831Y-8549D02*
X3829Y-8551D01*
X3831Y-8554D01*
X3833Y-8551D01*
X3831Y-8549D01*
X3831Y-8575D02*
X3829Y-8577D01*
X3831Y-8579D01*
X3833Y-8577D01*
X3831Y-8575D01*
X1533Y-7930D02*
X1533Y-7975D01*
X1533Y-7930D02*
X1552Y-7930D01*
X1559Y-7932D01*
X1561Y-7934D01*
X1563Y-7938D01*
X1563Y-7942D01*
X1561Y-7947D01*
X1559Y-7949D01*
X1552Y-7951D01*
X1533Y-7951D02*
X1552Y-7951D01*
X1559Y-7953D01*
X1561Y-7955D01*
X1563Y-7960D01*
X1563Y-7966D01*
X1561Y-7970D01*
X1559Y-7972D01*
X1552Y-7975D01*
X1533Y-7975D01*
X1586Y-7930D02*
X1582Y-7932D01*
X1577Y-7936D01*
X1575Y-7940D01*
X1573Y-7947D01*
X1573Y-7957D01*
X1575Y-7964D01*
X1577Y-7968D01*
X1582Y-7972D01*
X1586Y-7975D01*
X1594Y-7975D01*
X1599Y-7972D01*
X1603Y-7968D01*
X1605Y-7964D01*
X1607Y-7957D01*
X1607Y-7947D01*
X1605Y-7940D01*
X1603Y-7936D01*
X1599Y-7932D01*
X1594Y-7930D01*
X1586Y-7930D01*
X1652Y-7975D02*
X1635Y-7930D01*
X1618Y-7975D01*
X1624Y-7960D02*
X1646Y-7960D01*
X1663Y-7930D02*
X1663Y-7975D01*
X1663Y-7930D02*
X1682Y-7930D01*
X1688Y-7932D01*
X1690Y-7934D01*
X1693Y-7938D01*
X1693Y-7942D01*
X1690Y-7947D01*
X1688Y-7949D01*
X1682Y-7951D01*
X1663Y-7951D01*
X1678Y-7951D02*
X1693Y-7975D01*
X1703Y-7930D02*
X1703Y-7975D01*
X1703Y-7930D02*
X1718Y-7930D01*
X1724Y-7932D01*
X1728Y-7936D01*
X1730Y-7940D01*
X1733Y-7947D01*
X1733Y-7957D01*
X1730Y-7964D01*
X1728Y-7968D01*
X1724Y-7972D01*
X1718Y-7975D01*
X1703Y-7975D01*
X1778Y-7930D02*
X1778Y-7975D01*
X1778Y-7930D02*
X1808Y-7975D01*
X1808Y-7930D02*
X1808Y-7975D01*
X1855Y-7975D02*
X1838Y-7930D01*
X1820Y-7975D01*
X1827Y-7960D02*
X1848Y-7960D01*
X1865Y-7930D02*
X1865Y-7975D01*
X1865Y-7930D02*
X1882Y-7975D01*
X1900Y-7930D02*
X1882Y-7975D01*
X1900Y-7930D02*
X1900Y-7975D01*
X1940Y-7930D02*
X1912Y-7930D01*
X1912Y-7975D01*
X1940Y-7975D01*
X1912Y-7951D02*
X1930Y-7951D01*
X1950Y-7945D02*
X1948Y-7947D01*
X1950Y-7949D01*
X1952Y-7947D01*
X1950Y-7945D01*
X1950Y-7970D02*
X1948Y-7972D01*
X1950Y-7975D01*
X1952Y-7972D01*
X1950Y-7970D01*
D36*
X2075Y-8295D02*
X2075Y-8413D01*
X2075Y-8295D02*
X2115Y-8295D01*
X2131Y-8301D01*
X2143Y-8312D01*
X2148Y-8323D01*
X2154Y-8340D01*
X2154Y-8368D01*
X2148Y-8385D01*
X2143Y-8397D01*
X2131Y-8408D01*
X2115Y-8413D01*
X2075Y-8413D01*
X2186Y-8323D02*
X2186Y-8318D01*
X2192Y-8307D01*
X2197Y-8301D01*
X2208Y-8295D01*
X2231Y-8295D01*
X2242Y-8301D01*
X2248Y-8307D01*
X2253Y-8318D01*
X2253Y-8329D01*
X2248Y-8340D01*
X2237Y-8357D01*
X2180Y-8413D01*
X2259Y-8413D01*
X2319Y-8295D02*
X2302Y-8301D01*
X2291Y-8318D01*
X2286Y-8346D01*
X2286Y-8363D01*
X2291Y-8391D01*
X2302Y-8408D01*
X2319Y-8413D01*
X2330Y-8413D01*
X2347Y-8408D01*
X2359Y-8391D01*
X2364Y-8363D01*
X2364Y-8346D01*
X2359Y-8318D01*
X2347Y-8301D01*
X2330Y-8295D01*
X2319Y-8295D01*
X2391Y-8318D02*
X2402Y-8312D01*
X2419Y-8295D01*
X2419Y-8413D01*
X2081Y-7696D02*
X2075Y-7691D01*
X2081Y-7685D01*
X2086Y-7691D01*
X2086Y-7702D01*
X2081Y-7713D01*
X2075Y-7719D01*
X2118Y-7792D02*
X2112Y-7798D01*
X2118Y-7803D01*
X2124Y-7798D01*
X2118Y-7792D01*
X2149Y-7747D02*
X2200Y-7747D01*
X2217Y-7741D01*
X2223Y-7736D01*
X2228Y-7724D01*
X2228Y-7708D01*
X2223Y-7696D01*
X2217Y-7691D01*
X2200Y-7685D01*
X2149Y-7685D01*
X2149Y-7803D01*
X2255Y-7724D02*
X2255Y-7803D01*
X2255Y-7758D02*
X2260Y-7741D01*
X2271Y-7730D01*
X2283Y-7724D01*
X2300Y-7724D01*
X2338Y-7724D02*
X2327Y-7730D01*
X2316Y-7741D01*
X2310Y-7758D01*
X2310Y-7769D01*
X2316Y-7786D01*
X2327Y-7798D01*
X2338Y-7803D01*
X2355Y-7803D01*
X2366Y-7798D01*
X2378Y-7786D01*
X2383Y-7769D01*
X2383Y-7758D01*
X2378Y-7741D01*
X2366Y-7730D01*
X2355Y-7724D01*
X2338Y-7724D01*
X2432Y-7685D02*
X2437Y-7691D01*
X2443Y-7685D01*
X2437Y-7679D01*
X2432Y-7685D01*
X2437Y-7724D02*
X2437Y-7820D01*
X2432Y-7837D01*
X2420Y-7843D01*
X2409Y-7843D01*
X2465Y-7758D02*
X2532Y-7758D01*
X2532Y-7747D01*
X2527Y-7736D01*
X2521Y-7730D01*
X2510Y-7724D01*
X2493Y-7724D01*
X2482Y-7730D01*
X2470Y-7741D01*
X2465Y-7758D01*
X2465Y-7769D01*
X2470Y-7786D01*
X2482Y-7798D01*
X2493Y-7803D01*
X2510Y-7803D01*
X2521Y-7798D01*
X2532Y-7786D01*
X2625Y-7741D02*
X2614Y-7730D01*
X2603Y-7724D01*
X2586Y-7724D01*
X2575Y-7730D01*
X2563Y-7741D01*
X2558Y-7758D01*
X2558Y-7769D01*
X2563Y-7786D01*
X2575Y-7798D01*
X2586Y-7803D01*
X2603Y-7803D01*
X2614Y-7798D01*
X2625Y-7786D01*
X2667Y-7685D02*
X2667Y-7781D01*
X2673Y-7798D01*
X2684Y-7803D01*
X2695Y-7803D01*
X2650Y-7724D02*
X2690Y-7724D01*
X2712Y-7685D02*
X2712Y-7803D01*
X2712Y-7685D02*
X2791Y-7803D01*
X2791Y-7685D02*
X2791Y-7803D01*
X2891Y-7724D02*
X2891Y-7803D01*
X2891Y-7741D02*
X2880Y-7730D01*
X2869Y-7724D01*
X2852Y-7724D01*
X2841Y-7730D01*
X2829Y-7741D01*
X2824Y-7758D01*
X2824Y-7769D01*
X2829Y-7786D01*
X2841Y-7798D01*
X2852Y-7803D01*
X2869Y-7803D01*
X2880Y-7798D01*
X2891Y-7786D01*
X2923Y-7724D02*
X2923Y-7803D01*
X2923Y-7747D02*
X2939Y-7730D01*
X2951Y-7724D01*
X2968Y-7724D01*
X2979Y-7730D01*
X2984Y-7747D01*
X2984Y-7803D01*
X2984Y-7747D02*
X3001Y-7730D01*
X3013Y-7724D01*
X3029Y-7724D01*
X3041Y-7730D01*
X3046Y-7747D01*
X3046Y-7803D01*
X3083Y-7758D02*
X3151Y-7758D01*
X3151Y-7747D01*
X3145Y-7736D01*
X3140Y-7730D01*
X3128Y-7724D01*
X3112Y-7724D01*
X3100Y-7730D01*
X3089Y-7741D01*
X3083Y-7758D01*
X3083Y-7769D01*
X3089Y-7786D01*
X3100Y-7798D01*
X3112Y-7803D01*
X3128Y-7803D01*
X3140Y-7798D01*
X3151Y-7786D01*
X3182Y-7696D02*
X3176Y-7691D01*
X3182Y-7685D01*
X3187Y-7691D01*
X3187Y-7702D01*
X3182Y-7713D01*
X3176Y-7719D01*
X2081Y-8602D02*
X2075Y-8596D01*
X2081Y-8591D01*
X2086Y-8596D01*
X2086Y-8607D01*
X2081Y-8619D01*
X2075Y-8624D01*
X2118Y-8697D02*
X2112Y-8703D01*
X2118Y-8709D01*
X2124Y-8703D01*
X2118Y-8697D01*
X2149Y-8652D02*
X2200Y-8652D01*
X2217Y-8647D01*
X2223Y-8641D01*
X2228Y-8630D01*
X2228Y-8613D01*
X2223Y-8602D01*
X2217Y-8596D01*
X2200Y-8591D01*
X2149Y-8591D01*
X2149Y-8709D01*
X2255Y-8630D02*
X2255Y-8709D01*
X2255Y-8664D02*
X2260Y-8647D01*
X2271Y-8636D01*
X2283Y-8630D01*
X2300Y-8630D01*
X2338Y-8630D02*
X2327Y-8636D01*
X2316Y-8647D01*
X2310Y-8664D01*
X2310Y-8675D01*
X2316Y-8692D01*
X2327Y-8703D01*
X2338Y-8709D01*
X2355Y-8709D01*
X2366Y-8703D01*
X2378Y-8692D01*
X2383Y-8675D01*
X2383Y-8664D01*
X2378Y-8647D01*
X2366Y-8636D01*
X2355Y-8630D01*
X2338Y-8630D01*
X2432Y-8591D02*
X2437Y-8596D01*
X2443Y-8591D01*
X2437Y-8585D01*
X2432Y-8591D01*
X2437Y-8630D02*
X2437Y-8726D01*
X2432Y-8742D01*
X2420Y-8748D01*
X2409Y-8748D01*
X2465Y-8664D02*
X2532Y-8664D01*
X2532Y-8652D01*
X2527Y-8641D01*
X2521Y-8636D01*
X2510Y-8630D01*
X2493Y-8630D01*
X2482Y-8636D01*
X2470Y-8647D01*
X2465Y-8664D01*
X2465Y-8675D01*
X2470Y-8692D01*
X2482Y-8703D01*
X2493Y-8709D01*
X2510Y-8709D01*
X2521Y-8703D01*
X2532Y-8692D01*
X2625Y-8647D02*
X2614Y-8636D01*
X2603Y-8630D01*
X2586Y-8630D01*
X2575Y-8636D01*
X2563Y-8647D01*
X2558Y-8664D01*
X2558Y-8675D01*
X2563Y-8692D01*
X2575Y-8703D01*
X2586Y-8709D01*
X2603Y-8709D01*
X2614Y-8703D01*
X2625Y-8692D01*
X2667Y-8591D02*
X2667Y-8686D01*
X2673Y-8703D01*
X2684Y-8709D01*
X2695Y-8709D01*
X2650Y-8630D02*
X2690Y-8630D01*
X2712Y-8591D02*
X2712Y-8709D01*
X2712Y-8591D02*
X2791Y-8709D01*
X2791Y-8591D02*
X2791Y-8709D01*
X2824Y-8630D02*
X2824Y-8686D01*
X2829Y-8703D01*
X2841Y-8709D01*
X2857Y-8709D01*
X2869Y-8703D01*
X2885Y-8686D01*
X2885Y-8630D02*
X2885Y-8709D01*
X2916Y-8630D02*
X2916Y-8709D01*
X2916Y-8652D02*
X2933Y-8636D01*
X2945Y-8630D01*
X2961Y-8630D01*
X2973Y-8636D01*
X2978Y-8652D01*
X2978Y-8709D01*
X2978Y-8652D02*
X2995Y-8636D01*
X3006Y-8630D01*
X3023Y-8630D01*
X3034Y-8636D01*
X3040Y-8652D01*
X3040Y-8709D01*
X3077Y-8591D02*
X3077Y-8709D01*
X3077Y-8647D02*
X3088Y-8636D01*
X3100Y-8630D01*
X3117Y-8630D01*
X3128Y-8636D01*
X3139Y-8647D01*
X3145Y-8664D01*
X3145Y-8675D01*
X3139Y-8692D01*
X3128Y-8703D01*
X3117Y-8709D01*
X3100Y-8709D01*
X3088Y-8703D01*
X3077Y-8692D01*
X3170Y-8664D02*
X3237Y-8664D01*
X3237Y-8652D01*
X3232Y-8641D01*
X3226Y-8636D01*
X3215Y-8630D01*
X3198Y-8630D01*
X3187Y-8636D01*
X3176Y-8647D01*
X3170Y-8664D01*
X3170Y-8675D01*
X3176Y-8692D01*
X3187Y-8703D01*
X3198Y-8709D01*
X3215Y-8709D01*
X3226Y-8703D01*
X3237Y-8692D01*
X3263Y-8630D02*
X3263Y-8709D01*
X3263Y-8664D02*
X3268Y-8647D01*
X3280Y-8636D01*
X3291Y-8630D01*
X3308Y-8630D01*
X3324Y-8602D02*
X3318Y-8596D01*
X3324Y-8591D01*
X3330Y-8596D01*
X3330Y-8607D01*
X3324Y-8619D01*
X3318Y-8624D01*
X2075Y-7990D02*
X2075Y-8108D01*
X2075Y-7990D02*
X2120Y-8108D01*
X2165Y-7990D02*
X2120Y-8108D01*
X2165Y-7990D02*
X2165Y-8108D01*
X2227Y-8030D02*
X2216Y-8035D01*
X2205Y-8046D01*
X2199Y-8063D01*
X2199Y-8075D01*
X2205Y-8091D01*
X2216Y-8103D01*
X2227Y-8108D01*
X2244Y-8108D01*
X2255Y-8103D01*
X2266Y-8091D01*
X2272Y-8075D01*
X2272Y-8063D01*
X2266Y-8046D01*
X2255Y-8035D01*
X2244Y-8030D01*
X2227Y-8030D01*
X2315Y-7990D02*
X2315Y-8086D01*
X2320Y-8103D01*
X2332Y-8108D01*
X2343Y-8108D01*
X2298Y-8030D02*
X2337Y-8030D01*
X2388Y-8030D02*
X2377Y-8035D01*
X2365Y-8046D01*
X2360Y-8063D01*
X2360Y-8075D01*
X2365Y-8091D01*
X2377Y-8103D01*
X2388Y-8108D01*
X2405Y-8108D01*
X2416Y-8103D01*
X2427Y-8091D01*
X2433Y-8075D01*
X2433Y-8063D01*
X2427Y-8046D01*
X2416Y-8035D01*
X2405Y-8030D01*
X2388Y-8030D01*
X2459Y-8030D02*
X2459Y-8108D01*
X2459Y-8063D02*
X2464Y-8046D01*
X2476Y-8035D01*
X2487Y-8030D01*
X2504Y-8030D01*
X2514Y-8148D02*
X2604Y-8148D01*
X2620Y-7990D02*
X2620Y-8108D01*
X2620Y-7990D02*
X2659Y-7990D01*
X2676Y-7996D01*
X2687Y-8007D01*
X2693Y-8018D01*
X2698Y-8035D01*
X2698Y-8063D01*
X2693Y-8080D01*
X2687Y-8091D01*
X2676Y-8103D01*
X2659Y-8108D01*
X2620Y-8108D01*
X2725Y-8030D02*
X2725Y-8108D01*
X2725Y-8063D02*
X2730Y-8046D01*
X2742Y-8035D01*
X2753Y-8030D01*
X2770Y-8030D01*
X2792Y-7990D02*
X2797Y-7996D01*
X2803Y-7990D01*
X2797Y-7985D01*
X2792Y-7990D01*
X2797Y-8030D02*
X2797Y-8108D01*
X2824Y-8030D02*
X2857Y-8108D01*
X2891Y-8030D02*
X2857Y-8108D01*
X2910Y-8063D02*
X2978Y-8063D01*
X2978Y-8052D01*
X2972Y-8041D01*
X2966Y-8035D01*
X2955Y-8030D01*
X2938Y-8030D01*
X2927Y-8035D01*
X2916Y-8046D01*
X2910Y-8063D01*
X2910Y-8075D01*
X2916Y-8091D01*
X2927Y-8103D01*
X2938Y-8108D01*
X2955Y-8108D01*
X2966Y-8103D01*
X2978Y-8091D01*
X3003Y-8030D02*
X3003Y-8108D01*
X3003Y-8063D02*
X3009Y-8046D01*
X3020Y-8035D01*
X3031Y-8030D01*
X3048Y-8030D01*
D37*
X1063Y118D02*
D03*
X1063Y669D02*
D03*
X118Y118D02*
D03*
X118Y669D02*
D03*
D38*
X1002Y454D02*
D03*
X1002Y395D02*
D03*
X1002Y336D02*
D03*
X1002Y277D02*
D03*
X1002Y513D02*
D03*
X666Y607D02*
D03*
X725Y607D02*
D03*
X784Y607D02*
D03*
X843Y607D02*
D03*
X607Y607D02*
D03*
X276Y607D02*
D03*
X335Y607D02*
D03*
X395Y607D02*
D03*
X454Y607D02*
D03*
D39*
X1112Y569D02*
D03*
X1112Y419D02*
D03*
X1038Y569D02*
D03*
X1000Y194D02*
D03*
X1000Y44D02*
D03*
X962Y719D02*
D03*
X925Y644D02*
D03*
X962Y569D02*
D03*
X925Y494D02*
D03*
X925Y194D02*
D03*
X925Y44D02*
D03*
X887Y719D02*
D03*
X850Y644D02*
D03*
X887Y569D02*
D03*
X850Y44D02*
D03*
X700Y644D02*
D03*
X738Y419D02*
D03*
X625Y644D02*
D03*
X550Y644D02*
D03*
X550Y494D02*
D03*
X475Y644D02*
D03*
X512Y569D02*
D03*
X400Y494D02*
D03*
X438Y269D02*
D03*
X363Y569D02*
D03*
X363Y269D02*
D03*
X250Y644D02*
D03*
X287Y569D02*
D03*
X250Y494D02*
D03*
X287Y269D02*
D03*
X250Y194D02*
D03*
X213Y719D02*
D03*
X175Y494D02*
D03*
X138Y569D02*
D03*
X100Y494D02*
D03*
X138Y419D02*
D03*
X138Y269D02*
D03*
X950Y335D02*
D03*
X783Y150D02*
D03*
X830Y125D02*
D03*
X785Y250D02*
D03*
X861Y151D02*
D03*
X825Y265D02*
D03*
X204Y535D02*
D03*
X590Y225D02*
D03*
X782Y385D02*
D03*
X805Y435D02*
D03*
X830Y415D02*
D03*
X665Y235D02*
D03*
X770Y218D02*
D03*
X865Y300D02*
D03*
X865Y340D02*
D03*
X899Y365D02*
D03*
X780Y355D02*
D03*
X780Y325D02*
D03*
X780Y455D02*
D03*
X575Y135D02*
D03*
X480Y135D02*
D03*
X760Y60D02*
D03*
X735Y45D02*
D03*
X340Y50D02*
D03*
X225Y50D02*
D03*
X895Y215D02*
D03*
X250Y400D02*
D03*
X275Y425D02*
D03*
X300Y400D02*
D03*
X325Y425D02*
D03*
X225Y375D02*
D03*
X250Y350D02*
D03*
X225Y325D02*
D03*
X250Y300D02*
D03*
X365Y425D02*
D03*
X375Y400D02*
D03*
X900Y275D02*
D03*
X745Y97D02*
D03*
X705Y160D02*
D03*
X745Y153D02*
D03*
D40*
X1063Y181D02*
D03*
X1126Y118D02*
D03*
X1063Y55D02*
D03*
X1000Y118D02*
D03*
X1018Y74D02*
D03*
X1108Y74D02*
D03*
X1108Y163D02*
D03*
X1018Y163D02*
D03*
X1063Y732D02*
D03*
X1126Y669D02*
D03*
X1063Y606D02*
D03*
X1000Y669D02*
D03*
X1018Y625D02*
D03*
X1108Y625D02*
D03*
X1108Y714D02*
D03*
X1018Y714D02*
D03*
X118Y181D02*
D03*
X181Y118D02*
D03*
X118Y55D02*
D03*
X55Y118D02*
D03*
X74Y74D02*
D03*
X163Y74D02*
D03*
X163Y163D02*
D03*
X74Y163D02*
D03*
X118Y732D02*
D03*
X181Y669D02*
D03*
X118Y606D02*
D03*
X55Y669D02*
D03*
X74Y625D02*
D03*
X163Y625D02*
D03*
X163Y714D02*
D03*
X74Y714D02*
D03*
D41*
X650Y350D02*
D03*
X611Y350D02*
D03*
X689Y350D02*
D03*
X689Y311D02*
D03*
X650Y311D02*
D03*
X611Y311D02*
D03*
X611Y389D02*
D03*
X650Y389D02*
D03*
X689Y389D02*
D03*
M02*
